# Wavefront OBJ file automatically generated by Tiled2Unity

# Vertices (Count = 121)
v 0 -1 0
v -1 -1 0
v -1 0 0
v 0 0 0
v -2 -1 0
v -2 0 0
v -3 -1 0
v -3 0 0
v -4 -1 0
v -4 0 0
v -5 -1 0
v -5 0 0
v -6 -1 0
v -6 0 0
v -7 -1 0
v -7 0 0
v -8 -1 0
v -8 0 0
v -9 -1 0
v -9 0 0
v -10 -1 0
v -10 0 0
v 0 -2 0
v -1 -2 0
v -2 -2 0
v -3 -2 0
v -4 -2 0
v -5 -2 0
v -6 -2 0
v -7 -2 0
v -8 -2 0
v -9 -2 0
v -10 -2 0
v 0 -3 0
v -1 -3 0
v -2 -3 0
v -3 -3 0
v -4 -3 0
v -5 -3 0
v -6 -3 0
v -7 -3 0
v -8 -3 0
v -9 -3 0
v -10 -3 0
v 0 -4 0
v -1 -4 0
v -2 -4 0
v -3 -4 0
v -4 -4 0
v -5 -4 0
v -6 -4 0
v -7 -4 0
v -8 -4 0
v -9 -4 0
v -10 -4 0
v 0 -5 0
v -1 -5 0
v -2 -5 0
v -3 -5 0
v -4 -5 0
v -5 -5 0
v -6 -5 0
v -7 -5 0
v -8 -5 0
v -9 -5 0
v -10 -5 0
v 0 -6 0
v -1 -6 0
v -2 -6 0
v -3 -6 0
v -4 -6 0
v -5 -6 0
v -6 -6 0
v -7 -6 0
v -8 -6 0
v -9 -6 0
v -10 -6 0
v 0 -7 0
v -1 -7 0
v -2 -7 0
v -3 -7 0
v -4 -7 0
v -5 -7 0
v -6 -7 0
v -7 -7 0
v -8 -7 0
v -9 -7 0
v -10 -7 0
v 0 -8 0
v -1 -8 0
v -2 -8 0
v -3 -8 0
v -4 -8 0
v -5 -8 0
v -6 -8 0
v -7 -8 0
v -8 -8 0
v -9 -8 0
v -10 -8 0
v 0 -9 0
v -1 -9 0
v -2 -9 0
v -3 -9 0
v -4 -9 0
v -5 -9 0
v -6 -9 0
v -7 -9 0
v -8 -9 0
v -9 -9 0
v -10 -9 0
v 0 -10 0
v -1 -10 0
v -2 -10 0
v -3 -10 0
v -4 -10 0
v -5 -10 0
v -6 -10 0
v -7 -10 0
v -8 -10 0
v -9 -10 0
v -10 -10 0

# Texture cooridinates (Count = 132)
vt 0.1251221 0.6945665
vt 0.1498779 0.6945665
vt 0.1498779 0.7221001
vt 0.1251221 0.7221001
vt 0.2001221 0.6945665
vt 0.2248779 0.6945665
vt 0.2248779 0.7221001
vt 0.2001221 0.7221001
vt 0.2001221 0.7223443
vt 0.2248779 0.7223443
vt 0.2248779 0.7498779
vt 0.2001221 0.7498779
vt 0.1751221 0.6945665
vt 0.1998779 0.6945665
vt 0.1998779 0.7221001
vt 0.1751221 0.7221001
vt 0.1251221 0.7223443
vt 0.1498779 0.7223443
vt 0.1498779 0.7498779
vt 0.1251221 0.7498779
vt 0.3501221 0.139011
vt 0.3748779 0.139011
vt 0.3748779 0.1665446
vt 0.3501221 0.1665446
vt 0.4501221 0.139011
vt 0.4748779 0.139011
vt 0.4748779 0.1665446
vt 0.4501221 0.1665446
vt 0.3751221 0.139011
vt 0.3998779 0.139011
vt 0.3998779 0.1665446
vt 0.3751221 0.1665446
vt 0.4001221 0.139011
vt 0.4248779 0.139011
vt 0.4248779 0.1665446
vt 0.4001221 0.1665446
vt 0.4251221 0.139011
vt 0.4498779 0.139011
vt 0.4498779 0.1665446
vt 0.4251221 0.1665446
vt 0.3751221 0.1667888
vt 0.3998779 0.1667888
vt 0.3998779 0.1943223
vt 0.3751221 0.1943223
vt 0.3751221 0.05567765
vt 0.3998779 0.05567765
vt 0.3998779 0.08321124
vt 0.3751221 0.08321124
vt 0.4251221 0.1667888
vt 0.4498779 0.1667888
vt 0.4498779 0.1943223
vt 0.4251221 0.1943223
vt 0.3501221 0.05567765
vt 0.3748779 0.05567765
vt 0.3748779 0.08321124
vt 0.3501221 0.08321124
vt 0.3751221 0.1112332
vt 0.3998779 0.1112332
vt 0.3998779 0.1387668
vt 0.3751221 0.1387668
vt 0.3751221 0.08345538
vt 0.3998779 0.08345538
vt 0.3998779 0.110989
vt 0.3751221 0.110989
vt 0.4501221 0.1667888
vt 0.4748779 0.1667888
vt 0.4748779 0.1943223
vt 0.4501221 0.1943223
vt 0.3501221 0.08345538
vt 0.3748779 0.08345538
vt 0.3748779 0.110989
vt 0.3501221 0.110989
vt 0.07512207 0.639011
vt 0.09987793 0.639011
vt 0.09987793 0.6665446
vt 0.07512207 0.6665446
vt 0.07512207 0.6667887
vt 0.09987793 0.6667887
vt 0.09987793 0.6943223
vt 0.07512207 0.6943223
vt 0.05012207 0.639011
vt 0.07487793 0.639011
vt 0.07487793 0.6665446
vt 0.05012207 0.6665446
vt 0.1001221 0.4723443
vt 0.1248779 0.4723443
vt 0.1248779 0.4998779
vt 0.1001221 0.4998779
vt 0.1751221 0.8334554
vt 0.1998779 0.8334554
vt 0.1998779 0.860989
vt 0.1751221 0.860989
vt 0.05012207 0.5834554
vt 0.07487793 0.5834554
vt 0.07487793 0.610989
vt 0.05012207 0.610989
vt 0.1001221 0.5001221
vt 0.1248779 0.5001221
vt 0.1248779 0.5276557
vt 0.1001221 0.5276557
vt 0.07512207 0.4723443
vt 0.09987793 0.4723443
vt 0.09987793 0.4998779
vt 0.07512207 0.4998779
vt 0.05012207 0.4723443
vt 0.07487793 0.4723443
vt 0.07487793 0.4998779
vt 0.05012207 0.4998779
vt 0.07512207 0.5001221
vt 0.09987793 0.5001221
vt 0.09987793 0.5276557
vt 0.07512207 0.5276557
vt 0.05012207 0.5001221
vt 0.07487793 0.5001221
vt 0.07487793 0.5276557
vt 0.05012207 0.5276557
vt 0.1251221 0.5278999
vt 0.1498779 0.5278999
vt 0.1498779 0.5554335
vt 0.1251221 0.5554335
vt 0.1501221 0.5278999
vt 0.1748779 0.5278999
vt 0.1748779 0.5554335
vt 0.1501221 0.5554335
vt 0.1251221 0.5001221
vt 0.1498779 0.5001221
vt 0.1498779 0.5276557
vt 0.1251221 0.5276557
vt 0.1501221 0.5001221
vt 0.1748779 0.5001221
vt 0.1748779 0.5276557
vt 0.1501221 0.5276557

# Normal
vn 0 0 -1

# Groups (Count = 4)

g mesh_0001
f 1/1/1 2/2/1 3/3/1 4/4/1
f 2/1/1 5/2/1 6/3/1 3/4/1
f 5/1/1 7/2/1 8/3/1 6/4/1
f 7/1/1 9/2/1 10/3/1 8/4/1
f 9/1/1 11/2/1 12/3/1 10/4/1
f 11/1/1 13/2/1 14/3/1 12/4/1
f 13/1/1 15/2/1 16/3/1 14/4/1
f 15/1/1 17/2/1 18/3/1 16/4/1
f 17/1/1 19/2/1 20/3/1 18/4/1
f 19/1/1 21/2/1 22/3/1 20/4/1
f 23/5/1 24/6/1 2/7/1 1/8/1
f 24/5/1 25/6/1 5/7/1 2/8/1
f 25/5/1 26/6/1 7/7/1 5/8/1
f 26/1/1 27/2/1 9/3/1 7/4/1
f 27/1/1 28/2/1 11/3/1 9/4/1
f 28/1/1 29/2/1 13/3/1 11/4/1
f 29/1/1 30/2/1 15/3/1 13/4/1
f 30/1/1 31/2/1 17/3/1 15/4/1
f 31/1/1 32/2/1 19/3/1 17/4/1
f 32/1/1 33/2/1 21/3/1 19/4/1
f 34/1/1 35/2/1 24/3/1 23/4/1
f 35/1/1 36/2/1 25/3/1 24/4/1
f 36/9/1 37/10/1 26/11/1 25/12/1
f 37/9/1 38/10/1 27/11/1 26/12/1
f 38/9/1 39/10/1 28/11/1 27/12/1
f 39/9/1 40/10/1 29/11/1 28/12/1
f 40/9/1 41/10/1 30/11/1 29/12/1
f 41/5/1 42/6/1 31/7/1 30/8/1
f 42/1/1 43/2/1 32/3/1 31/4/1
f 43/1/1 44/2/1 33/3/1 32/4/1
f 45/1/1 46/2/1 35/3/1 34/4/1
f 46/1/1 47/2/1 36/3/1 35/4/1
f 47/9/1 48/10/1 37/11/1 36/12/1
f 48/5/1 49/6/1 38/7/1 37/8/1
f 49/1/1 50/2/1 39/3/1 38/4/1
f 50/1/1 51/2/1 40/3/1 39/4/1
f 51/1/1 52/2/1 41/3/1 40/4/1
f 52/1/1 53/2/1 42/3/1 41/4/1
f 53/1/1 54/2/1 43/3/1 42/4/1
f 54/1/1 55/2/1 44/3/1 43/4/1
f 56/1/1 57/2/1 46/3/1 45/4/1
f 57/1/1 58/2/1 47/3/1 46/4/1
f 58/9/1 59/10/1 48/11/1 47/12/1
f 59/9/1 60/10/1 49/11/1 48/12/1
f 60/9/1 61/10/1 50/11/1 49/12/1
f 61/9/1 62/10/1 51/11/1 50/12/1
f 62/1/1 63/2/1 52/3/1 51/4/1
f 63/1/1 64/2/1 53/3/1 52/4/1
f 64/1/1 65/2/1 54/3/1 53/4/1
f 65/1/1 66/2/1 55/3/1 54/4/1
f 67/1/1 68/2/1 57/3/1 56/4/1
f 68/1/1 69/2/1 58/3/1 57/4/1
f 69/5/1 70/6/1 59/7/1 58/8/1
f 70/5/1 71/6/1 60/7/1 59/8/1
f 71/5/1 72/6/1 61/7/1 60/8/1
f 72/5/1 73/6/1 62/7/1 61/8/1
f 73/5/1 74/6/1 63/7/1 62/8/1
f 74/13/1 75/14/1 64/15/1 63/16/1
f 75/1/1 76/2/1 65/3/1 64/4/1
f 76/1/1 77/2/1 66/3/1 65/4/1
f 78/1/1 79/2/1 68/3/1 67/4/1
f 79/1/1 80/2/1 69/3/1 68/4/1
f 80/17/1 81/18/1 70/19/1 69/20/1
f 81/1/1 82/2/1 71/3/1 70/4/1
f 82/1/1 83/2/1 72/3/1 71/4/1
f 83/1/1 84/2/1 73/3/1 72/4/1
f 84/5/1 85/6/1 74/7/1 73/8/1
f 85/5/1 86/6/1 75/7/1 74/8/1
f 86/1/1 87/2/1 76/3/1 75/4/1
f 87/1/1 88/2/1 77/3/1 76/4/1
f 89/1/1 90/2/1 79/3/1 78/4/1
f 90/1/1 91/2/1 80/3/1 79/4/1
f 91/17/1 92/18/1 81/19/1 80/20/1
f 92/17/1 93/18/1 82/19/1 81/20/1
f 93/17/1 94/18/1 83/19/1 82/20/1
f 94/17/1 95/18/1 84/19/1 83/20/1
f 95/17/1 96/18/1 85/19/1 84/20/1
f 96/9/1 97/10/1 86/11/1 85/12/1
f 97/9/1 98/10/1 87/11/1 86/12/1
f 98/1/1 99/2/1 88/3/1 87/4/1
f 100/1/1 101/2/1 90/3/1 89/4/1
f 101/1/1 102/2/1 91/3/1 90/4/1
f 102/1/1 103/2/1 92/3/1 91/4/1
f 103/1/1 104/2/1 93/3/1 92/4/1
f 104/1/1 105/2/1 94/3/1 93/4/1
f 105/1/1 106/2/1 95/3/1 94/4/1
f 106/17/1 107/18/1 96/19/1 95/20/1
f 107/1/1 108/2/1 97/3/1 96/4/1
f 108/9/1 109/10/1 98/11/1 97/12/1
f 109/1/1 110/2/1 99/3/1 98/4/1
f 111/1/1 112/2/1 101/3/1 100/4/1
f 112/1/1 113/2/1 102/3/1 101/4/1
f 113/1/1 114/2/1 103/3/1 102/4/1
f 114/1/1 115/2/1 104/3/1 103/4/1
f 115/1/1 116/2/1 105/3/1 104/4/1
f 116/1/1 117/2/1 106/3/1 105/4/1
f 117/1/1 118/2/1 107/3/1 106/4/1
f 118/1/1 119/2/1 108/3/1 107/4/1
f 119/1/1 120/2/1 109/3/1 108/4/1
f 120/1/1 121/2/1 110/3/1 109/4/1

g mesh_0002
f 7/21/1 9/22/1 10/23/1 8/24/1
f 9/25/1 11/26/1 12/27/1 10/28/1
f 11/29/1 13/30/1 14/31/1 12/32/1
f 13/33/1 15/34/1 16/35/1 14/36/1
f 26/21/1 27/22/1 9/23/1 7/24/1
f 27/25/1 28/26/1 11/27/1 9/28/1
f 28/37/1 29/38/1 13/39/1 11/40/1
f 29/33/1 30/34/1 15/35/1 13/36/1
f 37/21/1 38/22/1 27/23/1 26/24/1
f 38/29/1 39/30/1 28/31/1 27/32/1
f 39/29/1 40/30/1 29/31/1 28/32/1
f 40/33/1 41/34/1 30/35/1 29/36/1
f 45/41/1 46/42/1 35/43/1 34/44/1
f 46/41/1 47/42/1 36/43/1 35/44/1
f 47/41/1 48/42/1 37/43/1 36/44/1
f 48/45/1 49/46/1 38/47/1 37/48/1
f 49/49/1 50/50/1 39/51/1 38/52/1
f 50/29/1 51/30/1 40/31/1 39/32/1
f 51/53/1 52/54/1 41/55/1 40/56/1
f 52/41/1 53/42/1 42/43/1 41/44/1
f 53/41/1 54/42/1 43/43/1 42/44/1
f 54/41/1 55/42/1 44/43/1 43/44/1
f 56/37/1 57/38/1 46/39/1 45/40/1
f 57/37/1 58/38/1 47/39/1 46/40/1
f 58/37/1 59/38/1 48/39/1 47/40/1
f 59/29/1 60/30/1 49/31/1 48/32/1
f 60/25/1 61/26/1 50/27/1 49/28/1
f 61/25/1 62/26/1 51/27/1 50/28/1
f 62/49/1 63/50/1 52/51/1 51/52/1
f 63/49/1 64/50/1 53/51/1 52/52/1
f 64/49/1 65/50/1 54/51/1 53/52/1
f 65/25/1 66/26/1 55/27/1 54/28/1
f 67/29/1 68/30/1 57/31/1 56/32/1
f 68/29/1 69/30/1 58/31/1 57/32/1
f 69/37/1 70/38/1 59/39/1 58/40/1
f 70/37/1 71/38/1 60/39/1 59/40/1
f 71/25/1 72/26/1 61/27/1 60/28/1
f 72/25/1 73/26/1 62/27/1 61/28/1
f 73/29/1 74/30/1 63/31/1 62/32/1
f 74/29/1 75/30/1 64/31/1 63/32/1
f 75/29/1 76/30/1 65/31/1 64/32/1
f 76/29/1 77/30/1 66/31/1 65/32/1
f 78/57/1 79/58/1 68/59/1 67/60/1
f 79/57/1 80/58/1 69/59/1 68/60/1
f 80/57/1 81/58/1 70/59/1 69/60/1
f 81/61/1 82/62/1 71/63/1 70/64/1
f 82/65/1 83/66/1 72/67/1 71/68/1
f 83/29/1 84/30/1 73/31/1 72/32/1
f 84/69/1 85/70/1 74/71/1 73/72/1
f 85/57/1 86/58/1 75/59/1 74/60/1
f 86/57/1 87/58/1 76/59/1 75/60/1
f 87/57/1 88/58/1 77/59/1 76/60/1
f 92/21/1 93/22/1 82/23/1 81/24/1
f 93/29/1 94/30/1 83/31/1 82/32/1
f 94/65/1 95/66/1 84/67/1 83/68/1
f 95/33/1 96/34/1 85/35/1 84/36/1
f 103/21/1 104/22/1 93/23/1 92/24/1
f 104/29/1 105/30/1 94/31/1 93/32/1
f 105/29/1 106/30/1 95/31/1 94/32/1
f 106/33/1 107/34/1 96/35/1 95/36/1
f 114/21/1 115/22/1 104/23/1 103/24/1
f 115/29/1 116/30/1 105/31/1 104/32/1
f 116/29/1 117/30/1 106/31/1 105/32/1
f 117/33/1 118/34/1 107/35/1 106/36/1

g mesh_0003
f 25/73/1 26/74/1 7/75/1 5/76/1
f 31/77/1 32/78/1 19/79/1 17/80/1
f 35/73/1 36/74/1 25/75/1 24/76/1
f 41/81/1 42/82/1 31/83/1 30/84/1
f 90/81/1 91/82/1 80/83/1 79/84/1
f 101/81/1 102/82/1 91/83/1 90/84/1
f 102/81/1 103/82/1 92/83/1 91/84/1

g mesh_0004
f 7/85/1 9/86/1 10/87/1 8/88/1
f 13/85/1 15/86/1 16/87/1 14/88/1
f 24/89/1 25/90/1 5/91/1 2/92/1
f 26/85/1 27/86/1 9/87/1 7/88/1
f 29/85/1 30/86/1 15/87/1 13/88/1
f 37/85/1 38/86/1 27/87/1 26/88/1
f 40/85/1 41/86/1 30/87/1 29/88/1
f 42/93/1 43/94/1 32/95/1 31/96/1
f 45/97/1 46/98/1 35/99/1 34/100/1
f 46/97/1 47/98/1 36/99/1 35/100/1
f 47/97/1 48/98/1 37/99/1 36/100/1
f 48/101/1 49/102/1 38/103/1 37/104/1
f 51/105/1 52/106/1 41/107/1 40/108/1
f 52/97/1 53/98/1 42/99/1 41/100/1
f 53/97/1 54/98/1 43/99/1 42/100/1
f 54/97/1 55/98/1 44/99/1 43/100/1
f 78/97/1 79/98/1 68/99/1 67/100/1
f 79/97/1 80/98/1 69/99/1 68/100/1
f 80/97/1 81/98/1 70/99/1 69/100/1
f 81/109/1 82/110/1 71/111/1 70/112/1
f 84/113/1 85/114/1 74/115/1 73/116/1
f 85/97/1 86/98/1 75/99/1 74/100/1
f 86/97/1 87/98/1 76/99/1 75/100/1
f 87/97/1 88/98/1 77/99/1 76/100/1
f 92/85/1 93/86/1 82/87/1 81/88/1
f 95/85/1 96/86/1 85/87/1 84/88/1
f 96/117/1 97/118/1 86/119/1 85/120/1
f 97/121/1 98/122/1 87/123/1 86/124/1
f 103/85/1 104/86/1 93/87/1 92/88/1
f 106/85/1 107/86/1 96/87/1 95/88/1
f 107/125/1 108/126/1 97/127/1 96/128/1
f 108/129/1 109/130/1 98/131/1 97/132/1
f 114/85/1 115/86/1 104/87/1 103/88/1
f 117/85/1 118/86/1 107/87/1 106/88/1

