# Tiled2Unity generated file. Do not modify by hand.
# Wavefront file for 'Nivel2_mesh_0057.obj'

# Vertices (Count = 180)
v -20 -100 0
v -21 -100 0
v -21 -99 0
v -20 -99 0
v -19 -100 0
v -20 -100 0
v -20 -99 0
v -19 -99 0
v -12 -100 0
v -13 -100 0
v -13 -99 0
v -12 -99 0
v -11 -100 0
v -12 -100 0
v -12 -99 0
v -11 -99 0
v -20 -99 0
v -21 -99 0
v -21 -98 0
v -20 -98 0
v -19 -99 0
v -20 -99 0
v -20 -98 0
v -19 -98 0
v -12 -99 0
v -13 -99 0
v -13 -98 0
v -12 -98 0
v -11 -99 0
v -12 -99 0
v -12 -98 0
v -11 -98 0
v -20 -98 0
v -21 -98 0
v -21 -97 0
v -20 -97 0
v -19 -98 0
v -20 -98 0
v -20 -97 0
v -19 -97 0
v -12 -98 0
v -13 -98 0
v -13 -97 0
v -12 -97 0
v -11 -98 0
v -12 -98 0
v -12 -97 0
v -11 -97 0
v -20 -97 0
v -21 -97 0
v -21 -96 0
v -20 -96 0
v -19 -97 0
v -20 -97 0
v -20 -96 0
v -19 -96 0
v -12 -97 0
v -13 -97 0
v -13 -96 0
v -12 -96 0
v -11 -97 0
v -12 -97 0
v -12 -96 0
v -11 -96 0
v -20 -96 0
v -21 -96 0
v -21 -95 0
v -20 -95 0
v -19 -96 0
v -20 -96 0
v -20 -95 0
v -19 -95 0
v -12 -96 0
v -13 -96 0
v -13 -95 0
v -12 -95 0
v -11 -96 0
v -12 -96 0
v -12 -95 0
v -11 -95 0
v -20 -95 0
v -21 -95 0
v -21 -94 0
v -20 -94 0
v -19 -95 0
v -20 -95 0
v -20 -94 0
v -19 -94 0
v -12 -95 0
v -13 -95 0
v -13 -94 0
v -12 -94 0
v -11 -95 0
v -12 -95 0
v -12 -94 0
v -11 -94 0
v -42 -63 0
v -43 -63 0
v -43 -62 0
v -42 -62 0
v -41 -63 0
v -42 -63 0
v -42 -62 0
v -41 -62 0
v -40 -63 0
v -41 -63 0
v -41 -62 0
v -40 -62 0
v -39 -63 0
v -40 -63 0
v -40 -62 0
v -39 -62 0
v -38 -63 0
v -39 -63 0
v -39 -62 0
v -38 -62 0
v -37 -63 0
v -38 -63 0
v -38 -62 0
v -37 -62 0
v -34 -33 0
v -35 -33 0
v -35 -32 0
v -34 -32 0
v -33 -33 0
v -34 -33 0
v -34 -32 0
v -33 -32 0
v -32 -33 0
v -33 -33 0
v -33 -32 0
v -32 -32 0
v -31 -33 0
v -32 -33 0
v -32 -32 0
v -31 -32 0
v -30 -33 0
v -31 -33 0
v -31 -32 0
v -30 -32 0
v -34 -32 0
v -35 -32 0
v -35 -31 0
v -34 -31 0
v -33 -32 0
v -34 -32 0
v -34 -31 0
v -33 -31 0
v -32 -32 0
v -33 -32 0
v -33 -31 0
v -32 -31 0
v -31 -32 0
v -32 -32 0
v -32 -31 0
v -31 -31 0
v -30 -32 0
v -31 -32 0
v -31 -31 0
v -30 -31 0
v -34 -31 0
v -35 -31 0
v -35 -30 0
v -34 -30 0
v -33 -31 0
v -34 -31 0
v -34 -30 0
v -33 -30 0
v -32 -31 0
v -33 -31 0
v -33 -30 0
v -32 -30 0
v -31 -31 0
v -32 -31 0
v -32 -30 0
v -31 -30 0
v -30 -31 0
v -31 -31 0
v -31 -30 0
v -30 -30 0

# Texture cooridinates (Count = 40)
vt 0.7837838 0
vt 0.8108108 0
vt 0.8108108 0.02702701
vt 0.7837838 0.02702701
vt 0.7567568 0
vt 0.7567568 0.02702701
vt 0.8378378 0
vt 0.8378378 0.02702701
vt 0.8108108 0.05405408
vt 0.7837838 0.05405408
vt 0.7567568 0.05405408
vt 0.8378378 0.05405408
vt 0.8648649 0
vt 0.8918919 0
vt 0.8918919 0.02702701
vt 0.8648649 0.02702701
vt 0.4324324 0.9189189
vt 0.4594595 0.9189189
vt 0.4594595 0.9459459
vt 0.4324324 0.9459459
vt 0.4054054 0.9189189
vt 0.4054054 0.9459459
vt 0.3783784 0.9189189
vt 0.3783784 0.9459459
vt 0.3513514 0.9189189
vt 0.3513514 0.9459459
vt 0.3243243 0.9189189
vt 0.3243243 0.9459459
vt 0.4594595 0.972973
vt 0.4324324 0.972973
vt 0.4054054 0.972973
vt 0.3783784 0.972973
vt 0.3513514 0.972973
vt 0.3243243 0.972973
vt 0.4594595 1
vt 0.4324324 1
vt 0.4054054 1
vt 0.3783784 1
vt 0.3513514 1
vt 0.3243243 1

# Normal
vn 0 0 -1

# Mesh description
g Nivel2_mesh_0057

# Faces
f 1/1/1 2/2/1 3/3/1 4/4/1
f 5/5/1 6/1/1 7/4/1 8/6/1
f 9/5/1 10/1/1 11/4/1 12/6/1
f 13/2/1 14/7/1 15/8/1 16/3/1
f 17/4/1 18/3/1 19/9/1 20/10/1
f 21/6/1 22/4/1 23/10/1 24/11/1
f 25/6/1 26/4/1 27/10/1 28/11/1
f 29/3/1 30/8/1 31/12/1 32/9/1
f 33/1/1 34/2/1 35/3/1 36/4/1
f 37/2/1 38/7/1 39/8/1 40/3/1
f 41/1/1 42/2/1 43/3/1 44/4/1
f 45/3/1 46/8/1 47/12/1 48/9/1
f 49/4/1 50/3/1 51/9/1 52/10/1
f 53/3/1 54/8/1 55/12/1 56/9/1
f 57/4/1 58/3/1 59/9/1 60/10/1
f 61/2/1 62/7/1 63/8/1 64/3/1
f 65/1/1 66/2/1 67/3/1 68/4/1
f 69/2/1 70/7/1 71/8/1 72/3/1
f 73/1/1 74/2/1 75/3/1 76/4/1
f 77/2/1 78/7/1 79/8/1 80/3/1
f 81/4/1 82/3/1 83/9/1 84/10/1
f 85/3/1 86/8/1 87/12/1 88/9/1
f 89/4/1 90/3/1 91/9/1 92/10/1
f 93/3/1 94/8/1 95/12/1 96/9/1
f 97/13/1 98/14/1 99/15/1 100/16/1
f 101/7/1 102/13/1 103/16/1 104/8/1
f 105/13/1 106/14/1 107/15/1 108/16/1
f 109/7/1 110/13/1 111/16/1 112/8/1
f 113/13/1 114/14/1 115/15/1 116/16/1
f 117/7/1 118/13/1 119/16/1 120/8/1
f 121/17/1 122/18/1 123/19/1 124/20/1
f 125/21/1 126/17/1 127/20/1 128/22/1
f 129/23/1 130/21/1 131/22/1 132/24/1
f 133/25/1 134/23/1 135/24/1 136/26/1
f 137/27/1 138/25/1 139/26/1 140/28/1
f 141/20/1 142/19/1 143/29/1 144/30/1
f 145/22/1 146/20/1 147/30/1 148/31/1
f 149/24/1 150/22/1 151/31/1 152/32/1
f 153/26/1 154/24/1 155/32/1 156/33/1
f 157/28/1 158/26/1 159/33/1 160/34/1
f 161/30/1 162/29/1 163/35/1 164/36/1
f 165/31/1 166/30/1 167/36/1 168/37/1
f 169/32/1 170/31/1 171/37/1 172/38/1
f 173/33/1 174/32/1 175/38/1 176/39/1
f 177/34/1 178/33/1 179/39/1 180/40/1

