# Tiled2Unity generated file. Do not modify by hand.
# Wavefront file for 'Nivel2_mesh_0055.obj'

# Vertices (Count = 80)
v -39 -25 0
v -40 -25 0
v -40 -24 0
v -39 -24 0
v -38 -25 0
v -39 -25 0
v -39 -24 0
v -38 -24 0
v -39 -24 0
v -40 -24 0
v -40 -23 0
v -39 -23 0
v -38 -24 0
v -39 -24 0
v -39 -23 0
v -38 -23 0
v -39 -23 0
v -40 -23 0
v -40 -22 0
v -39 -22 0
v -38 -23 0
v -39 -23 0
v -39 -22 0
v -38 -22 0
v -39 -22 0
v -40 -22 0
v -40 -21 0
v -39 -21 0
v -38 -22 0
v -39 -22 0
v -39 -21 0
v -38 -21 0
v -39 -21 0
v -40 -21 0
v -40 -20 0
v -39 -20 0
v -38 -21 0
v -39 -21 0
v -39 -20 0
v -38 -20 0
v -39 -20 0
v -40 -20 0
v -40 -19 0
v -39 -19 0
v -38 -20 0
v -39 -20 0
v -39 -19 0
v -38 -19 0
v -39 -19 0
v -40 -19 0
v -40 -18 0
v -39 -18 0
v -38 -19 0
v -39 -19 0
v -39 -18 0
v -38 -18 0
v -39 -18 0
v -40 -18 0
v -40 -17 0
v -39 -17 0
v -38 -18 0
v -39 -18 0
v -39 -17 0
v -38 -17 0
v -39 -17 0
v -40 -17 0
v -40 -16 0
v -39 -16 0
v -38 -17 0
v -39 -17 0
v -39 -16 0
v -38 -16 0
v -39 -16 0
v -40 -16 0
v -40 -15 0
v -39 -15 0
v -38 -16 0
v -39 -16 0
v -39 -15 0
v -38 -15 0

# Texture cooridinates (Count = 9)
vt 0.7837838 0
vt 0.8108108 0
vt 0.8108108 0.02702701
vt 0.7837838 0.02702701
vt 0.8378378 0
vt 0.8378378 0.02702701
vt 0.8108108 0.05405408
vt 0.7837838 0.05405408
vt 0.8378378 0.05405408

# Normal
vn 0 0 -1

# Mesh description
g Nivel2_mesh_0055

# Faces
f 1/1/1 2/2/1 3/3/1 4/4/1
f 5/2/1 6/5/1 7/6/1 8/3/1
f 9/4/1 10/3/1 11/7/1 12/8/1
f 13/3/1 14/6/1 15/9/1 16/7/1
f 17/1/1 18/2/1 19/3/1 20/4/1
f 21/2/1 22/5/1 23/6/1 24/3/1
f 25/4/1 26/3/1 27/7/1 28/8/1
f 29/3/1 30/6/1 31/9/1 32/7/1
f 33/1/1 34/2/1 35/3/1 36/4/1
f 37/2/1 38/5/1 39/6/1 40/3/1
f 41/4/1 42/3/1 43/7/1 44/8/1
f 45/3/1 46/6/1 47/9/1 48/7/1
f 49/1/1 50/2/1 51/3/1 52/4/1
f 53/2/1 54/5/1 55/6/1 56/3/1
f 57/1/1 58/2/1 59/3/1 60/4/1
f 61/3/1 62/6/1 63/9/1 64/7/1
f 65/1/1 66/2/1 67/3/1 68/4/1
f 69/2/1 70/5/1 71/6/1 72/3/1
f 73/4/1 74/3/1 75/7/1 76/8/1
f 77/3/1 78/6/1 79/9/1 80/7/1

