# Tiled2Unity generated file. Do not modify by hand.
# Wavefront file for 'Nivel2_mesh_0020.obj'

# Vertices (Count = 96)
v -5 -22 0
v -6 -22 0
v -6 -21 0
v -5 -21 0
v -4 -22 0
v -5 -22 0
v -5 -21 0
v -4 -21 0
v -3 -22 0
v -4 -22 0
v -4 -21 0
v -3 -21 0
v -2 -22 0
v -3 -22 0
v -3 -21 0
v -2 -21 0
v -1 -22 0
v -2 -22 0
v -2 -21 0
v -1 -21 0
v 0 -22 0
v -1 -22 0
v -1 -21 0
v 0 -21 0
v -5 -21 0
v -6 -21 0
v -6 -20 0
v -5 -20 0
v -4 -21 0
v -5 -21 0
v -5 -20 0
v -4 -20 0
v -3 -21 0
v -4 -21 0
v -4 -20 0
v -3 -20 0
v -2 -21 0
v -3 -21 0
v -3 -20 0
v -2 -20 0
v -1 -21 0
v -2 -21 0
v -2 -20 0
v -1 -20 0
v 0 -21 0
v -1 -21 0
v -1 -20 0
v 0 -20 0
v -5 -20 0
v -6 -20 0
v -6 -19 0
v -5 -19 0
v -4 -20 0
v -5 -20 0
v -5 -19 0
v -4 -19 0
v -3 -20 0
v -4 -20 0
v -4 -19 0
v -3 -19 0
v -2 -20 0
v -3 -20 0
v -3 -19 0
v -2 -19 0
v -1 -20 0
v -2 -20 0
v -2 -19 0
v -1 -19 0
v 0 -20 0
v -1 -20 0
v -1 -19 0
v 0 -19 0
v -5 -19 0
v -6 -19 0
v -6 -18 0
v -5 -18 0
v -4 -19 0
v -5 -19 0
v -5 -18 0
v -4 -18 0
v -3 -19 0
v -4 -19 0
v -4 -18 0
v -3 -18 0
v -2 -19 0
v -3 -19 0
v -3 -18 0
v -2 -18 0
v -1 -19 0
v -2 -19 0
v -2 -18 0
v -1 -18 0
v 0 -19 0
v -1 -19 0
v -1 -18 0
v 0 -18 0

# Texture cooridinates (Count = 35)
vt 0.375 0.06451613
vt 0.40625 0.06451613
vt 0.40625 0.09677422
vt 0.375 0.09677422
vt 0.34375 0.06451613
vt 0.34375 0.09677422
vt 0.3125 0.06451613
vt 0.3125 0.09677422
vt 0.28125 0.06451613
vt 0.28125 0.09677422
vt 0.25 0.06451613
vt 0.25 0.09677422
vt 0.21875 0.06451613
vt 0.21875 0.09677422
vt 0.40625 0.1290323
vt 0.375 0.1290323
vt 0.34375 0.1290323
vt 0.3125 0.1290323
vt 0.28125 0.1290323
vt 0.25 0.1290323
vt 0.21875 0.1290323
vt 0.40625 0.1612903
vt 0.375 0.1612903
vt 0.34375 0.1612903
vt 0.3125 0.1612903
vt 0.28125 0.1612903
vt 0.25 0.1612903
vt 0.21875 0.1612903
vt 0.40625 0.1935484
vt 0.375 0.1935484
vt 0.34375 0.1935484
vt 0.3125 0.1935484
vt 0.28125 0.1935484
vt 0.25 0.1935484
vt 0.21875 0.1935484

# Normal
vn 0 0 -1

# Mesh description
g Nivel2_mesh_0020

# Faces
f 1/1/1 2/2/1 3/3/1 4/4/1
f 5/5/1 6/1/1 7/4/1 8/6/1
f 9/7/1 10/5/1 11/6/1 12/8/1
f 13/9/1 14/7/1 15/8/1 16/10/1
f 17/11/1 18/9/1 19/10/1 20/12/1
f 21/13/1 22/11/1 23/12/1 24/14/1
f 25/4/1 26/3/1 27/15/1 28/16/1
f 29/6/1 30/4/1 31/16/1 32/17/1
f 33/8/1 34/6/1 35/17/1 36/18/1
f 37/10/1 38/8/1 39/18/1 40/19/1
f 41/12/1 42/10/1 43/19/1 44/20/1
f 45/14/1 46/12/1 47/20/1 48/21/1
f 49/16/1 50/15/1 51/22/1 52/23/1
f 53/17/1 54/16/1 55/23/1 56/24/1
f 57/18/1 58/17/1 59/24/1 60/25/1
f 61/19/1 62/18/1 63/25/1 64/26/1
f 65/20/1 66/19/1 67/26/1 68/27/1
f 69/21/1 70/20/1 71/27/1 72/28/1
f 73/23/1 74/22/1 75/29/1 76/30/1
f 77/24/1 78/23/1 79/30/1 80/31/1
f 81/25/1 82/24/1 83/31/1 84/32/1
f 85/26/1 86/25/1 87/32/1 88/33/1
f 89/27/1 90/26/1 91/33/1 92/34/1
f 93/28/1 94/27/1 95/34/1 96/35/1

