# Tiled2Unity generated file. Do not modify by hand.
# Wavefront file for 'Nivel2_mesh_0013.obj'

# Vertices (Count = 120)
v -12 -75 0
v -13 -75 0
v -13 -74 0
v -12 -74 0
v -11 -75 0
v -12 -75 0
v -12 -74 0
v -11 -74 0
v -10 -75 0
v -11 -75 0
v -11 -74 0
v -10 -74 0
v -9 -75 0
v -10 -75 0
v -10 -74 0
v -9 -74 0
v -12 -74 0
v -13 -74 0
v -13 -73 0
v -12 -73 0
v -11 -74 0
v -12 -74 0
v -12 -73 0
v -11 -73 0
v -10 -74 0
v -11 -74 0
v -11 -73 0
v -10 -73 0
v -9 -74 0
v -10 -74 0
v -10 -73 0
v -9 -73 0
v -12 -73 0
v -13 -73 0
v -13 -72 0
v -12 -72 0
v -11 -73 0
v -12 -73 0
v -12 -72 0
v -11 -72 0
v -10 -73 0
v -11 -73 0
v -11 -72 0
v -10 -72 0
v -9 -73 0
v -10 -73 0
v -10 -72 0
v -9 -72 0
v -12 -72 0
v -13 -72 0
v -13 -71 0
v -12 -71 0
v -11 -72 0
v -12 -72 0
v -12 -71 0
v -11 -71 0
v -10 -72 0
v -11 -72 0
v -11 -71 0
v -10 -71 0
v -9 -72 0
v -10 -72 0
v -10 -71 0
v -9 -71 0
v -12 -71 0
v -13 -71 0
v -13 -70 0
v -12 -70 0
v -11 -71 0
v -12 -71 0
v -12 -70 0
v -11 -70 0
v -10 -71 0
v -11 -71 0
v -11 -70 0
v -10 -70 0
v -9 -71 0
v -10 -71 0
v -10 -70 0
v -9 -70 0
v -4 -27 0
v -5 -27 0
v -5 -26 0
v -4 -26 0
v -3 -27 0
v -4 -27 0
v -4 -26 0
v -3 -26 0
v -2 -27 0
v -3 -27 0
v -3 -26 0
v -2 -26 0
v -1 -27 0
v -2 -27 0
v -2 -26 0
v -1 -26 0
v 0 -27 0
v -1 -27 0
v -1 -26 0
v 0 -26 0
v -4 -26 0
v -5 -26 0
v -5 -25 0
v -4 -25 0
v -3 -26 0
v -4 -26 0
v -4 -25 0
v -3 -25 0
v -2 -26 0
v -3 -26 0
v -3 -25 0
v -2 -25 0
v -1 -26 0
v -2 -26 0
v -2 -25 0
v -1 -25 0
v 0 -26 0
v -1 -26 0
v -1 -25 0
v 0 -25 0

# Texture cooridinates (Count = 48)
vt 0.53125 0.8387097
vt 0.5625 0.8387097
vt 0.5625 0.8709677
vt 0.53125 0.8709677
vt 0.5 0.8387097
vt 0.5 0.8709677
vt 0.46875 0.8387097
vt 0.46875 0.8709677
vt 0.4375 0.8387097
vt 0.4375 0.8709677
vt 0.5625 0.9032258
vt 0.53125 0.9032258
vt 0.5 0.9032258
vt 0.46875 0.9032258
vt 0.4375 0.9032258
vt 0.5625 0.9354839
vt 0.53125 0.9354839
vt 0.5 0.9354839
vt 0.46875 0.9354839
vt 0.4375 0.9354839
vt 0.5625 0.967742
vt 0.53125 0.967742
vt 0.5 0.967742
vt 0.46875 0.967742
vt 0.4375 0.967742
vt 0.5625 1
vt 0.53125 1
vt 0.5 1
vt 0.46875 1
vt 0.4375 1
vt 0.53125 0.1935484
vt 0.5625 0.1935484
vt 0.5625 0.2258065
vt 0.53125 0.2258065
vt 0.5 0.1935484
vt 0.5 0.2258065
vt 0.46875 0.1935484
vt 0.46875 0.2258065
vt 0.4375 0.1935484
vt 0.4375 0.2258065
vt 0.40625 0.1935484
vt 0.40625 0.2258065
vt 0.5625 0.2580645
vt 0.53125 0.2580645
vt 0.5 0.2580645
vt 0.46875 0.2580645
vt 0.4375 0.2580645
vt 0.40625 0.2580645

# Normal
vn 0 0 -1

# Mesh description
g Nivel2_mesh_0013

# Faces
f 1/1/1 2/2/1 3/3/1 4/4/1
f 5/5/1 6/1/1 7/4/1 8/6/1
f 9/7/1 10/5/1 11/6/1 12/8/1
f 13/9/1 14/7/1 15/8/1 16/10/1
f 17/4/1 18/3/1 19/11/1 20/12/1
f 21/6/1 22/4/1 23/12/1 24/13/1
f 25/8/1 26/6/1 27/13/1 28/14/1
f 29/10/1 30/8/1 31/14/1 32/15/1
f 33/12/1 34/11/1 35/16/1 36/17/1
f 37/13/1 38/12/1 39/17/1 40/18/1
f 41/14/1 42/13/1 43/18/1 44/19/1
f 45/15/1 46/14/1 47/19/1 48/20/1
f 49/17/1 50/16/1 51/21/1 52/22/1
f 53/18/1 54/17/1 55/22/1 56/23/1
f 57/19/1 58/18/1 59/23/1 60/24/1
f 61/20/1 62/19/1 63/24/1 64/25/1
f 65/22/1 66/21/1 67/26/1 68/27/1
f 69/23/1 70/22/1 71/27/1 72/28/1
f 73/24/1 74/23/1 75/28/1 76/29/1
f 77/25/1 78/24/1 79/29/1 80/30/1
f 81/31/1 82/32/1 83/33/1 84/34/1
f 85/35/1 86/31/1 87/34/1 88/36/1
f 89/37/1 90/35/1 91/36/1 92/38/1
f 93/39/1 94/37/1 95/38/1 96/40/1
f 97/41/1 98/39/1 99/40/1 100/42/1
f 101/34/1 102/33/1 103/43/1 104/44/1
f 105/36/1 106/34/1 107/44/1 108/45/1
f 109/38/1 110/36/1 111/45/1 112/46/1
f 113/40/1 114/38/1 115/46/1 116/47/1
f 117/42/1 118/40/1 119/47/1 120/48/1

