# Tiled2Unity generated file. Do not modify by hand.
# Wavefront file for 'Nivel2_mesh_0019.obj'

# Vertices (Count = 112)
v -16 -18 0
v -17 -18 0
v -17 -17 0
v -16 -17 0
v -15 -18 0
v -16 -18 0
v -16 -17 0
v -15 -17 0
v -14 -18 0
v -15 -18 0
v -15 -17 0
v -14 -17 0
v -13 -18 0
v -14 -18 0
v -14 -17 0
v -13 -17 0
v -12 -18 0
v -13 -18 0
v -13 -17 0
v -12 -17 0
v -11 -18 0
v -12 -18 0
v -12 -17 0
v -11 -17 0
v -10 -18 0
v -11 -18 0
v -11 -17 0
v -10 -17 0
v -16 -17 0
v -17 -17 0
v -17 -16 0
v -16 -16 0
v -15 -17 0
v -16 -17 0
v -16 -16 0
v -15 -16 0
v -14 -17 0
v -15 -17 0
v -15 -16 0
v -14 -16 0
v -13 -17 0
v -14 -17 0
v -14 -16 0
v -13 -16 0
v -12 -17 0
v -13 -17 0
v -13 -16 0
v -12 -16 0
v -11 -17 0
v -12 -17 0
v -12 -16 0
v -11 -16 0
v -10 -17 0
v -11 -17 0
v -11 -16 0
v -10 -16 0
v -16 -16 0
v -17 -16 0
v -17 -15 0
v -16 -15 0
v -15 -16 0
v -16 -16 0
v -16 -15 0
v -15 -15 0
v -14 -16 0
v -15 -16 0
v -15 -15 0
v -14 -15 0
v -13 -16 0
v -14 -16 0
v -14 -15 0
v -13 -15 0
v -12 -16 0
v -13 -16 0
v -13 -15 0
v -12 -15 0
v -11 -16 0
v -12 -16 0
v -12 -15 0
v -11 -15 0
v -10 -16 0
v -11 -16 0
v -11 -15 0
v -10 -15 0
v -16 -15 0
v -17 -15 0
v -17 -14 0
v -16 -14 0
v -15 -15 0
v -16 -15 0
v -16 -14 0
v -15 -14 0
v -14 -15 0
v -15 -15 0
v -15 -14 0
v -14 -14 0
v -13 -15 0
v -14 -15 0
v -14 -14 0
v -13 -14 0
v -12 -15 0
v -13 -15 0
v -13 -14 0
v -12 -14 0
v -11 -15 0
v -12 -15 0
v -12 -14 0
v -11 -14 0
v -10 -15 0
v -11 -15 0
v -11 -14 0
v -10 -14 0

# Texture cooridinates (Count = 40)
vt 0.1875 0.4193549
vt 0.21875 0.4193549
vt 0.21875 0.4516129
vt 0.1875 0.4516129
vt 0.15625 0.4193549
vt 0.15625 0.4516129
vt 0.125 0.4193549
vt 0.125 0.4516129
vt 0.09375 0.4193549
vt 0.09375 0.4516129
vt 0.0625 0.4193549
vt 0.0625 0.4516129
vt 0.03125 0.4193549
vt 0.03125 0.4516129
vt 0 0.4193549
vt 0 0.4516129
vt 0.21875 0.483871
vt 0.1875 0.483871
vt 0.15625 0.483871
vt 0.125 0.483871
vt 0.09375 0.483871
vt 0.0625 0.483871
vt 0.03125 0.483871
vt 0 0.483871
vt 0.21875 0.516129
vt 0.1875 0.516129
vt 0.15625 0.516129
vt 0.125 0.516129
vt 0.09375 0.516129
vt 0.0625 0.516129
vt 0.03125 0.516129
vt 0 0.516129
vt 0.21875 0.5483871
vt 0.1875 0.5483871
vt 0.15625 0.5483871
vt 0.125 0.5483871
vt 0.09375 0.5483871
vt 0.0625 0.5483871
vt 0.03125 0.5483871
vt 0 0.5483871

# Normal
vn 0 0 -1

# Mesh description
g Nivel2_mesh_0019

# Faces
f 1/1/1 2/2/1 3/3/1 4/4/1
f 5/5/1 6/1/1 7/4/1 8/6/1
f 9/7/1 10/5/1 11/6/1 12/8/1
f 13/9/1 14/7/1 15/8/1 16/10/1
f 17/11/1 18/9/1 19/10/1 20/12/1
f 21/13/1 22/11/1 23/12/1 24/14/1
f 25/15/1 26/13/1 27/14/1 28/16/1
f 29/4/1 30/3/1 31/17/1 32/18/1
f 33/6/1 34/4/1 35/18/1 36/19/1
f 37/8/1 38/6/1 39/19/1 40/20/1
f 41/10/1 42/8/1 43/20/1 44/21/1
f 45/12/1 46/10/1 47/21/1 48/22/1
f 49/14/1 50/12/1 51/22/1 52/23/1
f 53/16/1 54/14/1 55/23/1 56/24/1
f 57/18/1 58/17/1 59/25/1 60/26/1
f 61/19/1 62/18/1 63/26/1 64/27/1
f 65/20/1 66/19/1 67/27/1 68/28/1
f 69/21/1 70/20/1 71/28/1 72/29/1
f 73/22/1 74/21/1 75/29/1 76/30/1
f 77/23/1 78/22/1 79/30/1 80/31/1
f 81/24/1 82/23/1 83/31/1 84/32/1
f 85/26/1 86/25/1 87/33/1 88/34/1
f 89/27/1 90/26/1 91/34/1 92/35/1
f 93/28/1 94/27/1 95/35/1 96/36/1
f 97/29/1 98/28/1 99/36/1 100/37/1
f 101/30/1 102/29/1 103/37/1 104/38/1
f 105/31/1 106/30/1 107/38/1 108/39/1
f 109/32/1 110/31/1 111/39/1 112/40/1

