# Tiled2Unity generated file. Do not modify by hand.
# Wavefront file for 'Nivel2_mesh_0008.obj'

# Vertices (Count = 60)
v -27 -63 0
v -28 -63 0
v -28 -62 0
v -27 -62 0
v -26 -63 0
v -27 -63 0
v -27 -62 0
v -26 -62 0
v -25 -63 0
v -26 -63 0
v -26 -62 0
v -25 -62 0
v -24 -63 0
v -25 -63 0
v -25 -62 0
v -24 -62 0
v -23 -63 0
v -24 -63 0
v -24 -62 0
v -23 -62 0
v -27 -62 0
v -28 -62 0
v -28 -61 0
v -27 -61 0
v -26 -62 0
v -27 -62 0
v -27 -61 0
v -26 -61 0
v -25 -62 0
v -26 -62 0
v -26 -61 0
v -25 -61 0
v -24 -62 0
v -25 -62 0
v -25 -61 0
v -24 -61 0
v -23 -62 0
v -24 -62 0
v -24 -61 0
v -23 -61 0
v -27 -61 0
v -28 -61 0
v -28 -60 0
v -27 -60 0
v -26 -61 0
v -27 -61 0
v -27 -60 0
v -26 -60 0
v -25 -61 0
v -26 -61 0
v -26 -60 0
v -25 -60 0
v -24 -61 0
v -25 -61 0
v -25 -60 0
v -24 -60 0
v -23 -61 0
v -24 -61 0
v -24 -60 0
v -23 -60 0

# Texture cooridinates (Count = 24)
vt 0.4324324 0.9189189
vt 0.4594595 0.9189189
vt 0.4594595 0.9459459
vt 0.4324324 0.9459459
vt 0.4054054 0.9189189
vt 0.4054054 0.9459459
vt 0.3783784 0.9189189
vt 0.3783784 0.9459459
vt 0.3513514 0.9189189
vt 0.3513514 0.9459459
vt 0.3243243 0.9189189
vt 0.3243243 0.9459459
vt 0.4594595 0.972973
vt 0.4324324 0.972973
vt 0.4054054 0.972973
vt 0.3783784 0.972973
vt 0.3513514 0.972973
vt 0.3243243 0.972973
vt 0.4594595 1
vt 0.4324324 1
vt 0.4054054 1
vt 0.3783784 1
vt 0.3513514 1
vt 0.3243243 1

# Normal
vn 0 0 -1

# Mesh description
g Nivel2_mesh_0008

# Faces
f 1/1/1 2/2/1 3/3/1 4/4/1
f 5/5/1 6/1/1 7/4/1 8/6/1
f 9/7/1 10/5/1 11/6/1 12/8/1
f 13/9/1 14/7/1 15/8/1 16/10/1
f 17/11/1 18/9/1 19/10/1 20/12/1
f 21/4/1 22/3/1 23/13/1 24/14/1
f 25/6/1 26/4/1 27/14/1 28/15/1
f 29/8/1 30/6/1 31/15/1 32/16/1
f 33/10/1 34/8/1 35/16/1 36/17/1
f 37/12/1 38/10/1 39/17/1 40/18/1
f 41/14/1 42/13/1 43/19/1 44/20/1
f 45/15/1 46/14/1 47/20/1 48/21/1
f 49/16/1 50/15/1 51/21/1 52/22/1
f 53/17/1 54/16/1 55/22/1 56/23/1
f 57/18/1 58/17/1 59/23/1 60/24/1

