# Tiled2Unity generated file. Do not modify by hand.
# Wavefront file for 'Nivel2_mesh_0037.obj'

# Vertices (Count = 200)
v -27 -66 0
v -28 -66 0
v -28 -65 0
v -27 -65 0
v -26 -66 0
v -27 -66 0
v -27 -65 0
v -26 -65 0
v -25 -66 0
v -26 -66 0
v -26 -65 0
v -25 -65 0
v -24 -66 0
v -25 -66 0
v -25 -65 0
v -24 -65 0
v -23 -66 0
v -24 -66 0
v -24 -65 0
v -23 -65 0
v -27 -65 0
v -28 -65 0
v -28 -64 0
v -27 -64 0
v -26 -65 0
v -27 -65 0
v -27 -64 0
v -26 -64 0
v -25 -65 0
v -26 -65 0
v -26 -64 0
v -25 -64 0
v -24 -65 0
v -25 -65 0
v -25 -64 0
v -24 -64 0
v -23 -65 0
v -24 -65 0
v -24 -64 0
v -23 -64 0
v -27 -64 0
v -28 -64 0
v -28 -63 0
v -27 -63 0
v -26 -64 0
v -27 -64 0
v -27 -63 0
v -26 -63 0
v -25 -64 0
v -26 -64 0
v -26 -63 0
v -25 -63 0
v -24 -64 0
v -25 -64 0
v -25 -63 0
v -24 -63 0
v -23 -64 0
v -24 -64 0
v -24 -63 0
v -23 -63 0
v -27 -63 0
v -28 -63 0
v -28 -62 0
v -27 -62 0
v -26 -63 0
v -27 -63 0
v -27 -62 0
v -26 -62 0
v -25 -63 0
v -26 -63 0
v -26 -62 0
v -25 -62 0
v -24 -63 0
v -25 -63 0
v -25 -62 0
v -24 -62 0
v -23 -63 0
v -24 -63 0
v -24 -62 0
v -23 -62 0
v -27 -62 0
v -28 -62 0
v -28 -61 0
v -27 -61 0
v -26 -62 0
v -27 -62 0
v -27 -61 0
v -26 -61 0
v -25 -62 0
v -26 -62 0
v -26 -61 0
v -25 -61 0
v -24 -62 0
v -25 -62 0
v -25 -61 0
v -24 -61 0
v -23 -62 0
v -24 -62 0
v -24 -61 0
v -23 -61 0
v -7 -36 0
v -8 -36 0
v -8 -35 0
v -7 -35 0
v -6 -36 0
v -7 -36 0
v -7 -35 0
v -6 -35 0
v -5 -36 0
v -6 -36 0
v -6 -35 0
v -5 -35 0
v -4 -36 0
v -5 -36 0
v -5 -35 0
v -4 -35 0
v -3 -36 0
v -4 -36 0
v -4 -35 0
v -3 -35 0
v -7 -35 0
v -8 -35 0
v -8 -34 0
v -7 -34 0
v -6 -35 0
v -7 -35 0
v -7 -34 0
v -6 -34 0
v -5 -35 0
v -6 -35 0
v -6 -34 0
v -5 -34 0
v -4 -35 0
v -5 -35 0
v -5 -34 0
v -4 -34 0
v -3 -35 0
v -4 -35 0
v -4 -34 0
v -3 -34 0
v -7 -34 0
v -8 -34 0
v -8 -33 0
v -7 -33 0
v -6 -34 0
v -7 -34 0
v -7 -33 0
v -6 -33 0
v -5 -34 0
v -6 -34 0
v -6 -33 0
v -5 -33 0
v -4 -34 0
v -5 -34 0
v -5 -33 0
v -4 -33 0
v -3 -34 0
v -4 -34 0
v -4 -33 0
v -3 -33 0
v -7 -33 0
v -8 -33 0
v -8 -32 0
v -7 -32 0
v -6 -33 0
v -7 -33 0
v -7 -32 0
v -6 -32 0
v -5 -33 0
v -6 -33 0
v -6 -32 0
v -5 -32 0
v -4 -33 0
v -5 -33 0
v -5 -32 0
v -4 -32 0
v -3 -33 0
v -4 -33 0
v -4 -32 0
v -3 -32 0
v -7 -32 0
v -8 -32 0
v -8 -31 0
v -7 -31 0
v -6 -32 0
v -7 -32 0
v -7 -31 0
v -6 -31 0
v -5 -32 0
v -6 -32 0
v -6 -31 0
v -5 -31 0
v -4 -32 0
v -5 -32 0
v -5 -31 0
v -4 -31 0
v -3 -32 0
v -4 -32 0
v -4 -31 0
v -3 -31 0

# Texture cooridinates (Count = 72)
vt 0.8125 0.7741935
vt 0.84375 0.7741935
vt 0.84375 0.8064516
vt 0.8125 0.8064516
vt 0.78125 0.7741935
vt 0.78125 0.8064516
vt 0.75 0.7741935
vt 0.75 0.8064516
vt 0.71875 0.7741935
vt 0.71875 0.8064516
vt 0.6875 0.7741935
vt 0.6875 0.8064516
vt 0.84375 0.8387097
vt 0.8125 0.8387097
vt 0.78125 0.8387097
vt 0.75 0.8387097
vt 0.71875 0.8387097
vt 0.6875 0.8387097
vt 0.84375 0.8709677
vt 0.8125 0.8709677
vt 0.78125 0.8709677
vt 0.75 0.8709677
vt 0.71875 0.8709677
vt 0.6875 0.8709677
vt 0.84375 0.9032258
vt 0.8125 0.9032258
vt 0.78125 0.9032258
vt 0.75 0.9032258
vt 0.71875 0.9032258
vt 0.6875 0.9032258
vt 0.84375 0.9354839
vt 0.8125 0.9354839
vt 0.78125 0.9354839
vt 0.75 0.9354839
vt 0.71875 0.9354839
vt 0.6875 0.9354839
vt 0.625 0.6774194
vt 0.65625 0.6774194
vt 0.65625 0.7096775
vt 0.625 0.7096775
vt 0.59375 0.6774194
vt 0.59375 0.7096775
vt 0.5625 0.6774194
vt 0.5625 0.7096775
vt 0.53125 0.6774194
vt 0.53125 0.7096775
vt 0.5 0.6774194
vt 0.5 0.7096775
vt 0.65625 0.7419355
vt 0.625 0.7419355
vt 0.59375 0.7419355
vt 0.5625 0.7419355
vt 0.53125 0.7419355
vt 0.5 0.7419355
vt 0.65625 0.7741935
vt 0.625 0.7741935
vt 0.59375 0.7741935
vt 0.5625 0.7741935
vt 0.53125 0.7741935
vt 0.5 0.7741935
vt 0.65625 0.8064516
vt 0.625 0.8064516
vt 0.59375 0.8064516
vt 0.5625 0.8064516
vt 0.53125 0.8064516
vt 0.5 0.8064516
vt 0.65625 0.8387097
vt 0.625 0.8387097
vt 0.59375 0.8387097
vt 0.5625 0.8387097
vt 0.53125 0.8387097
vt 0.5 0.8387097

# Normal
vn 0 0 -1

# Mesh description
g Nivel2_mesh_0037

# Faces
f 1/1/1 2/2/1 3/3/1 4/4/1
f 5/5/1 6/1/1 7/4/1 8/6/1
f 9/7/1 10/5/1 11/6/1 12/8/1
f 13/9/1 14/7/1 15/8/1 16/10/1
f 17/11/1 18/9/1 19/10/1 20/12/1
f 21/4/1 22/3/1 23/13/1 24/14/1
f 25/6/1 26/4/1 27/14/1 28/15/1
f 29/8/1 30/6/1 31/15/1 32/16/1
f 33/10/1 34/8/1 35/16/1 36/17/1
f 37/12/1 38/10/1 39/17/1 40/18/1
f 41/14/1 42/13/1 43/19/1 44/20/1
f 45/15/1 46/14/1 47/20/1 48/21/1
f 49/16/1 50/15/1 51/21/1 52/22/1
f 53/17/1 54/16/1 55/22/1 56/23/1
f 57/18/1 58/17/1 59/23/1 60/24/1
f 61/20/1 62/19/1 63/25/1 64/26/1
f 65/21/1 66/20/1 67/26/1 68/27/1
f 69/22/1 70/21/1 71/27/1 72/28/1
f 73/23/1 74/22/1 75/28/1 76/29/1
f 77/24/1 78/23/1 79/29/1 80/30/1
f 81/26/1 82/25/1 83/31/1 84/32/1
f 85/27/1 86/26/1 87/32/1 88/33/1
f 89/28/1 90/27/1 91/33/1 92/34/1
f 93/29/1 94/28/1 95/34/1 96/35/1
f 97/30/1 98/29/1 99/35/1 100/36/1
f 101/37/1 102/38/1 103/39/1 104/40/1
f 105/41/1 106/37/1 107/40/1 108/42/1
f 109/43/1 110/41/1 111/42/1 112/44/1
f 113/45/1 114/43/1 115/44/1 116/46/1
f 117/47/1 118/45/1 119/46/1 120/48/1
f 121/40/1 122/39/1 123/49/1 124/50/1
f 125/42/1 126/40/1 127/50/1 128/51/1
f 129/44/1 130/42/1 131/51/1 132/52/1
f 133/46/1 134/44/1 135/52/1 136/53/1
f 137/48/1 138/46/1 139/53/1 140/54/1
f 141/50/1 142/49/1 143/55/1 144/56/1
f 145/51/1 146/50/1 147/56/1 148/57/1
f 149/52/1 150/51/1 151/57/1 152/58/1
f 153/53/1 154/52/1 155/58/1 156/59/1
f 157/54/1 158/53/1 159/59/1 160/60/1
f 161/56/1 162/55/1 163/61/1 164/62/1
f 165/57/1 166/56/1 167/62/1 168/63/1
f 169/58/1 170/57/1 171/63/1 172/64/1
f 173/59/1 174/58/1 175/64/1 176/65/1
f 177/60/1 178/59/1 179/65/1 180/66/1
f 181/62/1 182/61/1 183/67/1 184/68/1
f 185/63/1 186/62/1 187/68/1 188/69/1
f 189/64/1 190/63/1 191/69/1 192/70/1
f 193/65/1 194/64/1 195/70/1 196/71/1
f 197/66/1 198/65/1 199/71/1 200/72/1

