# Tiled2Unity generated file. Do not modify by hand.
# Wavefront file for 'Nivel2_mesh_0007.obj'

# Vertices (Count = 72)
v -27 -72 0
v -28 -72 0
v -28 -71 0
v -27 -71 0
v -26 -72 0
v -27 -72 0
v -27 -71 0
v -26 -71 0
v -25 -72 0
v -26 -72 0
v -26 -71 0
v -25 -71 0
v -24 -72 0
v -25 -72 0
v -25 -71 0
v -24 -71 0
v -23 -72 0
v -24 -72 0
v -24 -71 0
v -23 -71 0
v -22 -72 0
v -23 -72 0
v -23 -71 0
v -22 -71 0
v -21 -72 0
v -22 -72 0
v -22 -71 0
v -21 -71 0
v -20 -72 0
v -21 -72 0
v -21 -71 0
v -20 -71 0
v -19 -72 0
v -20 -72 0
v -20 -71 0
v -19 -71 0
v -12 -72 0
v -13 -72 0
v -13 -71 0
v -12 -71 0
v -11 -72 0
v -12 -72 0
v -12 -71 0
v -11 -71 0
v -10 -72 0
v -11 -72 0
v -11 -71 0
v -10 -71 0
v -9 -72 0
v -10 -72 0
v -10 -71 0
v -9 -71 0
v -8 -72 0
v -9 -72 0
v -9 -71 0
v -8 -71 0
v -7 -72 0
v -8 -72 0
v -8 -71 0
v -7 -71 0
v -6 -72 0
v -7 -72 0
v -7 -71 0
v -6 -71 0
v -5 -72 0
v -6 -72 0
v -6 -71 0
v -5 -71 0
v -4 -72 0
v -5 -72 0
v -5 -71 0
v -4 -71 0

# Texture cooridinates (Count = 4)
vt 0.92 0.01999998
vt 0.93 0.01999998
vt 0.93 0.02999997
vt 0.92 0.02999997

# Normal
vn 0 0 -1

# Mesh description
g Nivel2_mesh_0007

# Faces
f 1/1/1 2/2/1 3/3/1 4/4/1
f 5/1/1 6/2/1 7/3/1 8/4/1
f 9/1/1 10/2/1 11/3/1 12/4/1
f 13/1/1 14/2/1 15/3/1 16/4/1
f 17/1/1 18/2/1 19/3/1 20/4/1
f 21/1/1 22/2/1 23/3/1 24/4/1
f 25/1/1 26/2/1 27/3/1 28/4/1
f 29/1/1 30/2/1 31/3/1 32/4/1
f 33/1/1 34/2/1 35/3/1 36/4/1
f 37/1/1 38/2/1 39/3/1 40/4/1
f 41/1/1 42/2/1 43/3/1 44/4/1
f 45/1/1 46/2/1 47/3/1 48/4/1
f 49/1/1 50/2/1 51/3/1 52/4/1
f 53/1/1 54/2/1 55/3/1 56/4/1
f 57/1/1 58/2/1 59/3/1 60/4/1
f 61/1/1 62/2/1 63/3/1 64/4/1
f 65/1/1 66/2/1 67/3/1 68/4/1
f 69/1/1 70/2/1 71/3/1 72/4/1

