# Tiled2Unity generated file. Do not modify by hand.
# Wavefront file for 'Nivel2_mesh_0006.obj'

# Vertices (Count = 548)
v -28 -63 0
v -29 -63 0
v -29 -62 0
v -28 -62 0
v -27 -63 0
v -28 -63 0
v -28 -62 0
v -27 -62 0
v -26 -63 0
v -27 -63 0
v -27 -62 0
v -26 -62 0
v -25 -63 0
v -26 -63 0
v -26 -62 0
v -25 -62 0
v -24 -63 0
v -25 -63 0
v -25 -62 0
v -24 -62 0
v -23 -63 0
v -24 -63 0
v -24 -62 0
v -23 -62 0
v -22 -63 0
v -23 -63 0
v -23 -62 0
v -22 -62 0
v -35 -62 0
v -36 -62 0
v -36 -61 0
v -35 -61 0
v -34 -62 0
v -35 -62 0
v -35 -61 0
v -34 -61 0
v -28 -62 0
v -29 -62 0
v -29 -61 0
v -28 -61 0
v -27 -62 0
v -28 -62 0
v -28 -61 0
v -27 -61 0
v -26 -62 0
v -27 -62 0
v -27 -61 0
v -26 -61 0
v -25 -62 0
v -26 -62 0
v -26 -61 0
v -25 -61 0
v -24 -62 0
v -25 -62 0
v -25 -61 0
v -24 -61 0
v -23 -62 0
v -24 -62 0
v -24 -61 0
v -23 -61 0
v -22 -62 0
v -23 -62 0
v -23 -61 0
v -22 -61 0
v -35 -61 0
v -36 -61 0
v -36 -60 0
v -35 -60 0
v -34 -61 0
v -35 -61 0
v -35 -60 0
v -34 -60 0
v -28 -61 0
v -29 -61 0
v -29 -60 0
v -28 -60 0
v -27 -61 0
v -28 -61 0
v -28 -60 0
v -27 -60 0
v -26 -61 0
v -27 -61 0
v -27 -60 0
v -26 -60 0
v -25 -61 0
v -26 -61 0
v -26 -60 0
v -25 -60 0
v -24 -61 0
v -25 -61 0
v -25 -60 0
v -24 -60 0
v -23 -61 0
v -24 -61 0
v -24 -60 0
v -23 -60 0
v -22 -61 0
v -23 -61 0
v -23 -60 0
v -22 -60 0
v -28 -60 0
v -29 -60 0
v -29 -59 0
v -28 -59 0
v -27 -60 0
v -28 -60 0
v -28 -59 0
v -27 -59 0
v -26 -60 0
v -27 -60 0
v -27 -59 0
v -26 -59 0
v -25 -60 0
v -26 -60 0
v -26 -59 0
v -25 -59 0
v -24 -60 0
v -25 -60 0
v -25 -59 0
v -24 -59 0
v -23 -60 0
v -24 -60 0
v -24 -59 0
v -23 -59 0
v -22 -60 0
v -23 -60 0
v -23 -59 0
v -22 -59 0
v -28 -59 0
v -29 -59 0
v -29 -58 0
v -28 -58 0
v -27 -59 0
v -28 -59 0
v -28 -58 0
v -27 -58 0
v -26 -59 0
v -27 -59 0
v -27 -58 0
v -26 -58 0
v -25 -59 0
v -26 -59 0
v -26 -58 0
v -25 -58 0
v -24 -59 0
v -25 -59 0
v -25 -58 0
v -24 -58 0
v -23 -59 0
v -24 -59 0
v -24 -58 0
v -23 -58 0
v -22 -59 0
v -23 -59 0
v -23 -58 0
v -22 -58 0
v -26 -58 0
v -27 -58 0
v -27 -57 0
v -26 -57 0
v -25 -58 0
v -26 -58 0
v -26 -57 0
v -25 -57 0
v -24 -58 0
v -25 -58 0
v -25 -57 0
v -24 -57 0
v -23 -58 0
v -24 -58 0
v -24 -57 0
v -23 -57 0
v -22 -58 0
v -23 -58 0
v -23 -57 0
v -22 -57 0
v -25 -45 0
v -26 -45 0
v -26 -44 0
v -25 -44 0
v -24 -45 0
v -25 -45 0
v -25 -44 0
v -24 -44 0
v -23 -45 0
v -24 -45 0
v -24 -44 0
v -23 -44 0
v -22 -45 0
v -23 -45 0
v -23 -44 0
v -22 -44 0
v -21 -45 0
v -22 -45 0
v -22 -44 0
v -21 -44 0
v -25 -44 0
v -26 -44 0
v -26 -43 0
v -25 -43 0
v -24 -44 0
v -25 -44 0
v -25 -43 0
v -24 -43 0
v -23 -44 0
v -24 -44 0
v -24 -43 0
v -23 -43 0
v -22 -44 0
v -23 -44 0
v -23 -43 0
v -22 -43 0
v -21 -44 0
v -22 -44 0
v -22 -43 0
v -21 -43 0
v -25 -43 0
v -26 -43 0
v -26 -42 0
v -25 -42 0
v -24 -43 0
v -25 -43 0
v -25 -42 0
v -24 -42 0
v -23 -43 0
v -24 -43 0
v -24 -42 0
v -23 -42 0
v -22 -43 0
v -23 -43 0
v -23 -42 0
v -22 -42 0
v -21 -43 0
v -22 -43 0
v -22 -42 0
v -21 -42 0
v -38 -33 0
v -39 -33 0
v -39 -32 0
v -38 -32 0
v -37 -33 0
v -38 -33 0
v -38 -32 0
v -37 -32 0
v -36 -33 0
v -37 -33 0
v -37 -32 0
v -36 -32 0
v -35 -33 0
v -36 -33 0
v -36 -32 0
v -35 -32 0
v -34 -33 0
v -35 -33 0
v -35 -32 0
v -34 -32 0
v -33 -33 0
v -34 -33 0
v -34 -32 0
v -33 -32 0
v -32 -33 0
v -33 -33 0
v -33 -32 0
v -32 -32 0
v -31 -33 0
v -32 -33 0
v -32 -32 0
v -31 -32 0
v -30 -33 0
v -31 -33 0
v -31 -32 0
v -30 -32 0
v -29 -33 0
v -30 -33 0
v -30 -32 0
v -29 -32 0
v -28 -33 0
v -29 -33 0
v -29 -32 0
v -28 -32 0
v -27 -33 0
v -28 -33 0
v -28 -32 0
v -27 -32 0
v -26 -33 0
v -27 -33 0
v -27 -32 0
v -26 -32 0
v -25 -33 0
v -26 -33 0
v -26 -32 0
v -25 -32 0
v -24 -33 0
v -25 -33 0
v -25 -32 0
v -24 -32 0
v -38 -32 0
v -39 -32 0
v -39 -31 0
v -38 -31 0
v -37 -32 0
v -38 -32 0
v -38 -31 0
v -37 -31 0
v -36 -32 0
v -37 -32 0
v -37 -31 0
v -36 -31 0
v -35 -32 0
v -36 -32 0
v -36 -31 0
v -35 -31 0
v -34 -32 0
v -35 -32 0
v -35 -31 0
v -34 -31 0
v -33 -32 0
v -34 -32 0
v -34 -31 0
v -33 -31 0
v -32 -32 0
v -33 -32 0
v -33 -31 0
v -32 -31 0
v -31 -32 0
v -32 -32 0
v -32 -31 0
v -31 -31 0
v -30 -32 0
v -31 -32 0
v -31 -31 0
v -30 -31 0
v -29 -32 0
v -30 -32 0
v -30 -31 0
v -29 -31 0
v -28 -32 0
v -29 -32 0
v -29 -31 0
v -28 -31 0
v -27 -32 0
v -28 -32 0
v -28 -31 0
v -27 -31 0
v -26 -32 0
v -27 -32 0
v -27 -31 0
v -26 -31 0
v -25 -32 0
v -26 -32 0
v -26 -31 0
v -25 -31 0
v -24 -32 0
v -25 -32 0
v -25 -31 0
v -24 -31 0
v -22 -12 0
v -23 -12 0
v -23 -11 0
v -22 -11 0
v -21 -12 0
v -22 -12 0
v -22 -11 0
v -21 -11 0
v -20 -12 0
v -21 -12 0
v -21 -11 0
v -20 -11 0
v -22 -11 0
v -23 -11 0
v -23 -10 0
v -22 -10 0
v -21 -11 0
v -22 -11 0
v -22 -10 0
v -21 -10 0
v -20 -11 0
v -21 -11 0
v -21 -10 0
v -20 -10 0
v -21 -10 0
v -22 -10 0
v -22 -9 0
v -21 -9 0
v -20 -10 0
v -21 -10 0
v -21 -9 0
v -20 -9 0
v -19 -10 0
v -20 -10 0
v -20 -9 0
v -19 -9 0
v -18 -10 0
v -19 -10 0
v -19 -9 0
v -18 -9 0
v -17 -10 0
v -18 -10 0
v -18 -9 0
v -17 -9 0
v -16 -10 0
v -17 -10 0
v -17 -9 0
v -16 -9 0
v -15 -10 0
v -16 -10 0
v -16 -9 0
v -15 -9 0
v -14 -10 0
v -15 -10 0
v -15 -9 0
v -14 -9 0
v -13 -10 0
v -14 -10 0
v -14 -9 0
v -13 -9 0
v -12 -10 0
v -13 -10 0
v -13 -9 0
v -12 -9 0
v -11 -10 0
v -12 -10 0
v -12 -9 0
v -11 -9 0
v -21 -9 0
v -22 -9 0
v -22 -8 0
v -21 -8 0
v -20 -9 0
v -21 -9 0
v -21 -8 0
v -20 -8 0
v -19 -9 0
v -20 -9 0
v -20 -8 0
v -19 -8 0
v -18 -9 0
v -19 -9 0
v -19 -8 0
v -18 -8 0
v -17 -9 0
v -18 -9 0
v -18 -8 0
v -17 -8 0
v -16 -9 0
v -17 -9 0
v -17 -8 0
v -16 -8 0
v -15 -9 0
v -16 -9 0
v -16 -8 0
v -15 -8 0
v -14 -9 0
v -15 -9 0
v -15 -8 0
v -14 -8 0
v -13 -9 0
v -14 -9 0
v -14 -8 0
v -13 -8 0
v -12 -9 0
v -13 -9 0
v -13 -8 0
v -12 -8 0
v -11 -9 0
v -12 -9 0
v -12 -8 0
v -11 -8 0
v -21 -8 0
v -22 -8 0
v -22 -7 0
v -21 -7 0
v -20 -8 0
v -21 -8 0
v -21 -7 0
v -20 -7 0
v -19 -8 0
v -20 -8 0
v -20 -7 0
v -19 -7 0
v -21 -7 0
v -22 -7 0
v -22 -6 0
v -21 -6 0
v -20 -7 0
v -21 -7 0
v -21 -6 0
v -20 -6 0
v -19 -7 0
v -20 -7 0
v -20 -6 0
v -19 -6 0
v -20 -6 0
v -21 -6 0
v -21 -5 0
v -20 -5 0
v -19 -6 0
v -20 -6 0
v -20 -5 0
v -19 -5 0
v -18 -6 0
v -19 -6 0
v -19 -5 0
v -18 -5 0
v -20 -5 0
v -21 -5 0
v -21 -4 0
v -20 -4 0
v -19 -5 0
v -20 -5 0
v -20 -4 0
v -19 -4 0
v -18 -5 0
v -19 -5 0
v -19 -4 0
v -18 -4 0
v -19 -4 0
v -20 -4 0
v -20 -3 0
v -19 -3 0
v -18 -4 0
v -19 -4 0
v -19 -3 0
v -18 -3 0
v -19 -3 0
v -20 -3 0
v -20 -2 0
v -19 -2 0
v -18 -3 0
v -19 -3 0
v -19 -2 0
v -18 -2 0
v -19 -2 0
v -20 -2 0
v -20 -1 0
v -19 -1 0
v -18 -2 0
v -19 -2 0
v -19 -1 0
v -18 -1 0
v -19 -1 0
v -20 -1 0
v -20 0 0
v -19 0 0
v -18 -1 0
v -19 -1 0
v -19 0 0
v -18 0 0

# Texture cooridinates (Count = 129)
vt 0.4324324 0.6756757
vt 0.4594595 0.6756757
vt 0.4594595 0.7027027
vt 0.4324324 0.7027027
vt 0.4054054 0.6756757
vt 0.4054054 0.7027027
vt 0.3783784 0.6756757
vt 0.3783784 0.7027027
vt 0.3513514 0.6756757
vt 0.3513514 0.7027027
vt 0.3243243 0.6756757
vt 0.3243243 0.7027027
vt 0.2972973 0.6756757
vt 0.2972973 0.7027027
vt 0.2972973 0.7837838
vt 0.3243243 0.7837838
vt 0.3243243 0.8108108
vt 0.2972973 0.8108108
vt 0.7837838 0
vt 0.8108108 0
vt 0.8108108 0.02702701
vt 0.7837838 0.02702701
vt 0.8378378 0
vt 0.8378378 0.02702701
vt 0.4594595 0.7297298
vt 0.4324324 0.7297298
vt 0.4054054 0.7297298
vt 0.3783784 0.7297298
vt 0.3513514 0.7297298
vt 0.3243243 0.7297298
vt 0.2972973 0.7297298
vt 0.3243243 0.8378378
vt 0.2972973 0.8378378
vt 0.8108108 0.05405408
vt 0.7837838 0.05405408
vt 0.8378378 0.05405408
vt 0.3513514 0.9189189
vt 0.3243243 0.9189189
vt 0.3243243 0.9459459
vt 0.3513514 0.9459459
vt 0.3783784 0.9189189
vt 0.3783784 0.9459459
vt 0.4054054 0.9189189
vt 0.4054054 0.9459459
vt 0.4324324 0.9189189
vt 0.4324324 0.9459459
vt 0.4594595 0.9189189
vt 0.4594595 0.9459459
vt 0.3243243 0.7567568
vt 0.2972973 0.7567568
vt 0.3243243 0.8648649
vt 0.2972973 0.8648649
vt 0.3243243 0.972973
vt 0.3513514 0.972973
vt 0.3783784 0.972973
vt 0.4054054 0.972973
vt 0.4324324 0.972973
vt 0.4594595 0.972973
vt 0.3243243 1
vt 0.3513514 1
vt 0.3783784 1
vt 0.4054054 1
vt 0.4324324 1
vt 0.4594595 1
vt 0.3513514 0.8378378
vt 0.3513514 0.8648649
vt 0.4054054 0.8378378
vt 0.4324324 0.8378378
vt 0.4324324 0.8648649
vt 0.4054054 0.8648649
vt 0.3783784 0.8378378
vt 0.3783784 0.8648649
vt 0.9459459 0.2162162
vt 0.972973 0.2162162
vt 0.972973 0.2432432
vt 0.9459459 0.2432432
vt 0.9189189 0.2162162
vt 0.9189189 0.2432432
vt 0.8918919 0.2162162
vt 0.8918919 0.2432432
vt 0.8648649 0.2162162
vt 0.8648649 0.2432432
vt 0.8378378 0.2162162
vt 0.8378378 0.2432432
vt 0.8108108 0.2162162
vt 0.8108108 0.2432432
vt 0.7837838 0.2162162
vt 0.7837838 0.2432432
vt 0.7567568 0.2162162
vt 0.7567568 0.2432432
vt 0.7297297 0.2162162
vt 0.7297297 0.2432432
vt 0.7027027 0.2162162
vt 0.7027027 0.2432432
vt 0.6756757 0.2162162
vt 0.6756757 0.2432432
vt 0.6486486 0.2162162
vt 0.6486486 0.2432432
vt 0.6216216 0.2162162
vt 0.6216216 0.2432432
vt 0.5945946 0.2162162
vt 0.5945946 0.2432432
vt 0.5675676 0.2162162
vt 0.5675676 0.2432432
vt 0.972973 0.2702703
vt 0.9459459 0.2702703
vt 0.9189189 0.2702703
vt 0.8918919 0.2702703
vt 0.8648649 0.2702703
vt 0.8378378 0.2702703
vt 0.8108108 0.2702703
vt 0.7837838 0.2702703
vt 0.7567568 0.2702703
vt 0.7297297 0.2702703
vt 0.7027027 0.2702703
vt 0.6756757 0.2702703
vt 0.6486486 0.2702703
vt 0.6216216 0.2702703
vt 0.5945946 0.2702703
vt 0.5675676 0.2702703
vt 0.7567568 0
vt 0.7567568 0.02702701
vt 0.7567568 0.05405408
vt 0.8648649 0
vt 0.8918919 0
vt 0.8918919 0.02702701
vt 0.8648649 0.02702701
vt 0.8918919 0.05405408
vt 0.8648649 0.05405408

# Normal
vn 0 0 -1

# Mesh description
g Nivel2_mesh_0006

# Faces
f 1/1/1 2/2/1 3/3/1 4/4/1
f 5/5/1 6/1/1 7/4/1 8/6/1
f 9/7/1 10/5/1 11/6/1 12/8/1
f 13/9/1 14/7/1 15/8/1 16/10/1
f 17/11/1 18/9/1 19/10/1 20/12/1
f 21/13/1 22/11/1 23/12/1 24/14/1
f 25/15/1 26/16/1 27/17/1 28/18/1
f 29/19/1 30/20/1 31/21/1 32/22/1
f 33/20/1 34/23/1 35/24/1 36/21/1
f 37/4/1 38/3/1 39/25/1 40/26/1
f 41/6/1 42/4/1 43/26/1 44/27/1
f 45/8/1 46/6/1 47/27/1 48/28/1
f 49/10/1 50/8/1 51/28/1 52/29/1
f 53/12/1 54/10/1 55/29/1 56/30/1
f 57/14/1 58/12/1 59/30/1 60/31/1
f 61/18/1 62/17/1 63/32/1 64/33/1
f 65/22/1 66/21/1 67/34/1 68/35/1
f 69/21/1 70/24/1 71/36/1 72/34/1
f 73/37/1 74/38/1 75/39/1 76/40/1
f 77/41/1 78/37/1 79/40/1 80/42/1
f 81/43/1 82/41/1 83/42/1 84/44/1
f 85/45/1 86/43/1 87/44/1 88/46/1
f 89/47/1 90/45/1 91/46/1 92/48/1
f 93/31/1 94/30/1 95/49/1 96/50/1
f 97/33/1 98/32/1 99/51/1 100/52/1
f 101/40/1 102/39/1 103/53/1 104/54/1
f 105/42/1 106/40/1 107/54/1 108/55/1
f 109/44/1 110/42/1 111/55/1 112/56/1
f 113/46/1 114/44/1 115/56/1 116/57/1
f 117/48/1 118/46/1 119/57/1 120/58/1
f 121/50/1 122/49/1 123/16/1 124/15/1
f 125/33/1 126/32/1 127/51/1 128/52/1
f 129/54/1 130/53/1 131/59/1 132/60/1
f 133/55/1 134/54/1 135/60/1 136/61/1
f 137/56/1 138/55/1 139/61/1 140/62/1
f 141/57/1 142/56/1 143/62/1 144/63/1
f 145/58/1 146/57/1 147/63/1 148/64/1
f 149/32/1 150/65/1 151/66/1 152/51/1
f 153/33/1 154/32/1 155/51/1 156/52/1
f 157/67/1 158/68/1 159/69/1 160/70/1
f 161/71/1 162/67/1 163/70/1 164/72/1
f 165/65/1 166/71/1 167/72/1 168/66/1
f 169/32/1 170/65/1 171/66/1 172/51/1
f 173/33/1 174/32/1 175/51/1 176/52/1
f 177/45/1 178/47/1 179/48/1 180/46/1
f 181/43/1 182/45/1 183/46/1 184/44/1
f 185/41/1 186/43/1 187/44/1 188/42/1
f 189/37/1 190/41/1 191/42/1 192/40/1
f 193/38/1 194/37/1 195/40/1 196/39/1
f 197/46/1 198/48/1 199/58/1 200/57/1
f 201/44/1 202/46/1 203/57/1 204/56/1
f 205/42/1 206/44/1 207/56/1 208/55/1
f 209/40/1 210/42/1 211/55/1 212/54/1
f 213/39/1 214/40/1 215/54/1 216/53/1
f 217/57/1 218/58/1 219/64/1 220/63/1
f 221/56/1 222/57/1 223/63/1 224/62/1
f 225/55/1 226/56/1 227/62/1 228/61/1
f 229/54/1 230/55/1 231/61/1 232/60/1
f 233/53/1 234/54/1 235/60/1 236/59/1
f 237/73/1 238/74/1 239/75/1 240/76/1
f 241/77/1 242/73/1 243/76/1 244/78/1
f 245/79/1 246/77/1 247/78/1 248/80/1
f 249/81/1 250/79/1 251/80/1 252/82/1
f 253/83/1 254/81/1 255/82/1 256/84/1
f 257/85/1 258/83/1 259/84/1 260/86/1
f 261/87/1 262/85/1 263/86/1 264/88/1
f 265/89/1 266/87/1 267/88/1 268/90/1
f 269/91/1 270/89/1 271/90/1 272/92/1
f 273/93/1 274/91/1 275/92/1 276/94/1
f 277/95/1 278/93/1 279/94/1 280/96/1
f 281/97/1 282/95/1 283/96/1 284/98/1
f 285/99/1 286/97/1 287/98/1 288/100/1
f 289/101/1 290/99/1 291/100/1 292/102/1
f 293/103/1 294/101/1 295/102/1 296/104/1
f 297/76/1 298/75/1 299/105/1 300/106/1
f 301/78/1 302/76/1 303/106/1 304/107/1
f 305/80/1 306/78/1 307/107/1 308/108/1
f 309/82/1 310/80/1 311/108/1 312/109/1
f 313/84/1 314/82/1 315/109/1 316/110/1
f 317/86/1 318/84/1 319/110/1 320/111/1
f 321/88/1 322/86/1 323/111/1 324/112/1
f 325/90/1 326/88/1 327/112/1 328/113/1
f 329/92/1 330/90/1 331/113/1 332/114/1
f 333/94/1 334/92/1 335/114/1 336/115/1
f 337/96/1 338/94/1 339/115/1 340/116/1
f 341/98/1 342/96/1 343/116/1 344/117/1
f 345/100/1 346/98/1 347/117/1 348/118/1
f 349/102/1 350/100/1 351/118/1 352/119/1
f 353/104/1 354/102/1 355/119/1 356/120/1
f 357/19/1 358/20/1 359/21/1 360/22/1
f 361/121/1 362/19/1 363/22/1 364/122/1
f 365/20/1 366/23/1 367/24/1 368/21/1
f 369/22/1 370/21/1 371/34/1 372/35/1
f 373/122/1 374/22/1 375/35/1 376/123/1
f 377/21/1 378/24/1 379/36/1 380/34/1
f 381/19/1 382/20/1 383/21/1 384/22/1
f 385/124/1 386/125/1 387/126/1 388/127/1
f 389/23/1 390/124/1 391/127/1 392/24/1
f 393/124/1 394/125/1 395/126/1 396/127/1
f 397/23/1 398/124/1 399/127/1 400/24/1
f 401/124/1 402/125/1 403/126/1 404/127/1
f 405/23/1 406/124/1 407/127/1 408/24/1
f 409/124/1 410/125/1 411/126/1 412/127/1
f 413/23/1 414/124/1 415/127/1 416/24/1
f 417/124/1 418/125/1 419/126/1 420/127/1
f 421/23/1 422/124/1 423/127/1 424/24/1
f 425/22/1 426/21/1 427/34/1 428/35/1
f 429/127/1 430/126/1 431/128/1 432/129/1
f 433/24/1 434/127/1 435/129/1 436/36/1
f 437/127/1 438/126/1 439/128/1 440/129/1
f 441/24/1 442/127/1 443/129/1 444/36/1
f 445/127/1 446/126/1 447/128/1 448/129/1
f 449/24/1 450/127/1 451/129/1 452/36/1
f 453/127/1 454/126/1 455/128/1 456/129/1
f 457/24/1 458/127/1 459/129/1 460/36/1
f 461/127/1 462/126/1 463/128/1 464/129/1
f 465/24/1 466/127/1 467/129/1 468/36/1
f 469/19/1 470/20/1 471/21/1 472/22/1
f 473/121/1 474/19/1 475/22/1 476/122/1
f 477/20/1 478/23/1 479/24/1 480/21/1
f 481/22/1 482/21/1 483/34/1 484/35/1
f 485/122/1 486/22/1 487/35/1 488/123/1
f 489/21/1 490/24/1 491/36/1 492/34/1
f 493/19/1 494/20/1 495/21/1 496/22/1
f 497/121/1 498/19/1 499/22/1 500/122/1
f 501/20/1 502/23/1 503/24/1 504/21/1
f 505/22/1 506/21/1 507/34/1 508/35/1
f 509/122/1 510/22/1 511/35/1 512/123/1
f 513/21/1 514/24/1 515/36/1 516/34/1
f 517/19/1 518/20/1 519/21/1 520/22/1
f 521/20/1 522/23/1 523/24/1 524/21/1
f 525/22/1 526/21/1 527/34/1 528/35/1
f 529/21/1 530/24/1 531/36/1 532/34/1
f 533/19/1 534/20/1 535/21/1 536/22/1
f 537/20/1 538/23/1 539/24/1 540/21/1
f 541/22/1 542/21/1 543/34/1 544/35/1
f 545/21/1 546/24/1 547/36/1 548/34/1

