# Tiled2Unity generated file. Do not modify by hand.
# Wavefront file for 'Nivel2_mesh_0028.obj'

# Vertices (Count = 140)
v -10 -80 0
v -11 -80 0
v -11 -79 0
v -10 -79 0
v -9 -80 0
v -10 -80 0
v -10 -79 0
v -9 -79 0
v -8 -80 0
v -9 -80 0
v -9 -79 0
v -8 -79 0
v -7 -80 0
v -8 -80 0
v -8 -79 0
v -7 -79 0
v -6 -80 0
v -7 -80 0
v -7 -79 0
v -6 -79 0
v -10 -79 0
v -11 -79 0
v -11 -78 0
v -10 -78 0
v -9 -79 0
v -10 -79 0
v -10 -78 0
v -9 -78 0
v -8 -79 0
v -9 -79 0
v -9 -78 0
v -8 -78 0
v -7 -79 0
v -8 -79 0
v -8 -78 0
v -7 -78 0
v -6 -79 0
v -7 -79 0
v -7 -78 0
v -6 -78 0
v -20 -27 0
v -21 -27 0
v -21 -26 0
v -20 -26 0
v -19 -27 0
v -20 -27 0
v -20 -26 0
v -19 -26 0
v -18 -27 0
v -19 -27 0
v -19 -26 0
v -18 -26 0
v -17 -27 0
v -18 -27 0
v -18 -26 0
v -17 -26 0
v -16 -27 0
v -17 -27 0
v -17 -26 0
v -16 -26 0
v -20 -26 0
v -21 -26 0
v -21 -25 0
v -20 -25 0
v -19 -26 0
v -20 -26 0
v -20 -25 0
v -19 -25 0
v -18 -26 0
v -19 -26 0
v -19 -25 0
v -18 -25 0
v -17 -26 0
v -18 -26 0
v -18 -25 0
v -17 -25 0
v -16 -26 0
v -17 -26 0
v -17 -25 0
v -16 -25 0
v -20 -24 0
v -21 -24 0
v -21 -23 0
v -20 -23 0
v -19 -24 0
v -20 -24 0
v -20 -23 0
v -19 -23 0
v -18 -24 0
v -19 -24 0
v -19 -23 0
v -18 -23 0
v -17 -24 0
v -18 -24 0
v -18 -23 0
v -17 -23 0
v -16 -24 0
v -17 -24 0
v -17 -23 0
v -16 -23 0
v -20 -23 0
v -21 -23 0
v -21 -22 0
v -20 -22 0
v -19 -23 0
v -20 -23 0
v -20 -22 0
v -19 -22 0
v -18 -23 0
v -19 -23 0
v -19 -22 0
v -18 -22 0
v -17 -23 0
v -18 -23 0
v -18 -22 0
v -17 -22 0
v -16 -23 0
v -17 -23 0
v -17 -22 0
v -16 -22 0
v -20 -22 0
v -21 -22 0
v -21 -21 0
v -20 -21 0
v -19 -22 0
v -20 -22 0
v -20 -21 0
v -19 -21 0
v -18 -22 0
v -19 -22 0
v -19 -21 0
v -18 -21 0
v -17 -22 0
v -18 -22 0
v -18 -21 0
v -17 -21 0
v -16 -22 0
v -17 -22 0
v -17 -21 0
v -16 -21 0

# Texture cooridinates (Count = 54)
vt 0.46875 0.5806452
vt 0.5 0.5806452
vt 0.5 0.6129032
vt 0.46875 0.6129032
vt 0.4375 0.5806452
vt 0.4375 0.6129032
vt 0.40625 0.5806452
vt 0.40625 0.6129032
vt 0.375 0.5806452
vt 0.375 0.6129032
vt 0.34375 0.5806452
vt 0.34375 0.6129032
vt 0.5 0.6451613
vt 0.46875 0.6451613
vt 0.4375 0.6451613
vt 0.40625 0.6451613
vt 0.375 0.6451613
vt 0.34375 0.6451613
vt 0.78125 0.5806452
vt 0.8125 0.5806452
vt 0.8125 0.6129032
vt 0.78125 0.6129032
vt 0.75 0.5806452
vt 0.75 0.6129032
vt 0.71875 0.5806452
vt 0.71875 0.6129032
vt 0.6875 0.5806452
vt 0.6875 0.6129032
vt 0.65625 0.5806452
vt 0.65625 0.6129032
vt 0.8125 0.6451613
vt 0.78125 0.6451613
vt 0.75 0.6451613
vt 0.71875 0.6451613
vt 0.6875 0.6451613
vt 0.65625 0.6451613
vt 0.8125 0.6774194
vt 0.78125 0.6774194
vt 0.75 0.6774194
vt 0.71875 0.6774194
vt 0.6875 0.6774194
vt 0.65625 0.6774194
vt 0.8125 0.7096775
vt 0.78125 0.7096775
vt 0.75 0.7096775
vt 0.71875 0.7096775
vt 0.6875 0.7096775
vt 0.65625 0.7096775
vt 0.8125 0.7419355
vt 0.78125 0.7419355
vt 0.75 0.7419355
vt 0.71875 0.7419355
vt 0.6875 0.7419355
vt 0.65625 0.7419355

# Normal
vn 0 0 -1

# Mesh description
g Nivel2_mesh_0028

# Faces
f 1/1/1 2/2/1 3/3/1 4/4/1
f 5/5/1 6/1/1 7/4/1 8/6/1
f 9/7/1 10/5/1 11/6/1 12/8/1
f 13/9/1 14/7/1 15/8/1 16/10/1
f 17/11/1 18/9/1 19/10/1 20/12/1
f 21/4/1 22/3/1 23/13/1 24/14/1
f 25/6/1 26/4/1 27/14/1 28/15/1
f 29/8/1 30/6/1 31/15/1 32/16/1
f 33/10/1 34/8/1 35/16/1 36/17/1
f 37/12/1 38/10/1 39/17/1 40/18/1
f 41/19/1 42/20/1 43/21/1 44/22/1
f 45/23/1 46/19/1 47/22/1 48/24/1
f 49/25/1 50/23/1 51/24/1 52/26/1
f 53/27/1 54/25/1 55/26/1 56/28/1
f 57/29/1 58/27/1 59/28/1 60/30/1
f 61/22/1 62/21/1 63/31/1 64/32/1
f 65/24/1 66/22/1 67/32/1 68/33/1
f 69/26/1 70/24/1 71/33/1 72/34/1
f 73/28/1 74/26/1 75/34/1 76/35/1
f 77/30/1 78/28/1 79/35/1 80/36/1
f 81/32/1 82/31/1 83/37/1 84/38/1
f 85/33/1 86/32/1 87/38/1 88/39/1
f 89/34/1 90/33/1 91/39/1 92/40/1
f 93/35/1 94/34/1 95/40/1 96/41/1
f 97/36/1 98/35/1 99/41/1 100/42/1
f 101/38/1 102/37/1 103/43/1 104/44/1
f 105/39/1 106/38/1 107/44/1 108/45/1
f 109/40/1 110/39/1 111/45/1 112/46/1
f 113/41/1 114/40/1 115/46/1 116/47/1
f 117/42/1 118/41/1 119/47/1 120/48/1
f 121/44/1 122/43/1 123/49/1 124/50/1
f 125/45/1 126/44/1 127/50/1 128/51/1
f 129/46/1 130/45/1 131/51/1 132/52/1
f 133/47/1 134/46/1 135/52/1 136/53/1
f 137/48/1 138/47/1 139/53/1 140/54/1

