# Tiled2Unity generated file. Do not modify by hand.
# Wavefront file for 'Nivel2_mesh_0044.obj'

# Vertices (Count = 180)
v -10 -79 0
v -11 -79 0
v -11 -78 0
v -10 -78 0
v -9 -79 0
v -10 -79 0
v -10 -78 0
v -9 -78 0
v -8 -79 0
v -9 -79 0
v -9 -78 0
v -8 -78 0
v -7 -79 0
v -8 -79 0
v -8 -78 0
v -7 -78 0
v -6 -79 0
v -7 -79 0
v -7 -78 0
v -6 -78 0
v -10 -78 0
v -11 -78 0
v -11 -77 0
v -10 -77 0
v -9 -78 0
v -10 -78 0
v -10 -77 0
v -9 -77 0
v -8 -78 0
v -9 -78 0
v -9 -77 0
v -8 -77 0
v -7 -78 0
v -8 -78 0
v -8 -77 0
v -7 -77 0
v -6 -78 0
v -7 -78 0
v -7 -77 0
v -6 -77 0
v -10 -77 0
v -11 -77 0
v -11 -76 0
v -10 -76 0
v -9 -77 0
v -10 -77 0
v -10 -76 0
v -9 -76 0
v -8 -77 0
v -9 -77 0
v -9 -76 0
v -8 -76 0
v -7 -77 0
v -8 -77 0
v -8 -76 0
v -7 -76 0
v -6 -77 0
v -7 -77 0
v -7 -76 0
v -6 -76 0
v -20 -26 0
v -21 -26 0
v -21 -25 0
v -20 -25 0
v -19 -26 0
v -20 -26 0
v -20 -25 0
v -19 -25 0
v -18 -26 0
v -19 -26 0
v -19 -25 0
v -18 -25 0
v -17 -26 0
v -18 -26 0
v -18 -25 0
v -17 -25 0
v -16 -26 0
v -17 -26 0
v -17 -25 0
v -16 -25 0
v -20 -25 0
v -21 -25 0
v -21 -24 0
v -20 -24 0
v -19 -25 0
v -20 -25 0
v -20 -24 0
v -19 -24 0
v -18 -25 0
v -19 -25 0
v -19 -24 0
v -18 -24 0
v -17 -25 0
v -18 -25 0
v -18 -24 0
v -17 -24 0
v -16 -25 0
v -17 -25 0
v -17 -24 0
v -16 -24 0
v -20 -24 0
v -21 -24 0
v -21 -23 0
v -20 -23 0
v -19 -24 0
v -20 -24 0
v -20 -23 0
v -19 -23 0
v -18 -24 0
v -19 -24 0
v -19 -23 0
v -18 -23 0
v -17 -24 0
v -18 -24 0
v -18 -23 0
v -17 -23 0
v -16 -24 0
v -17 -24 0
v -17 -23 0
v -16 -23 0
v -20 -22 0
v -21 -22 0
v -21 -21 0
v -20 -21 0
v -19 -22 0
v -20 -22 0
v -20 -21 0
v -19 -21 0
v -18 -22 0
v -19 -22 0
v -19 -21 0
v -18 -21 0
v -17 -22 0
v -18 -22 0
v -18 -21 0
v -17 -21 0
v -16 -22 0
v -17 -22 0
v -17 -21 0
v -16 -21 0
v -20 -21 0
v -21 -21 0
v -21 -20 0
v -20 -20 0
v -19 -21 0
v -20 -21 0
v -20 -20 0
v -19 -20 0
v -18 -21 0
v -19 -21 0
v -19 -20 0
v -18 -20 0
v -17 -21 0
v -18 -21 0
v -18 -20 0
v -17 -20 0
v -16 -21 0
v -17 -21 0
v -17 -20 0
v -16 -20 0
v -20 -20 0
v -21 -20 0
v -21 -19 0
v -20 -19 0
v -19 -20 0
v -20 -20 0
v -20 -19 0
v -19 -19 0
v -18 -20 0
v -19 -20 0
v -19 -19 0
v -18 -19 0
v -17 -20 0
v -18 -20 0
v -18 -19 0
v -17 -19 0
v -16 -20 0
v -17 -20 0
v -17 -19 0
v -16 -19 0

# Texture cooridinates (Count = 48)
vt 0.46875 0.6774194
vt 0.5 0.6774194
vt 0.5 0.7096775
vt 0.46875 0.7096775
vt 0.4375 0.6774194
vt 0.4375 0.7096775
vt 0.40625 0.6774194
vt 0.40625 0.7096775
vt 0.375 0.6774194
vt 0.375 0.7096775
vt 0.34375 0.6774194
vt 0.34375 0.7096775
vt 0.5 0.7419355
vt 0.46875 0.7419355
vt 0.4375 0.7419355
vt 0.40625 0.7419355
vt 0.375 0.7419355
vt 0.34375 0.7419355
vt 0.5 0.7741935
vt 0.46875 0.7741935
vt 0.4375 0.7741935
vt 0.40625 0.7741935
vt 0.375 0.7741935
vt 0.34375 0.7741935
vt 0.78125 0.6451613
vt 0.8125 0.6451613
vt 0.8125 0.6774194
vt 0.78125 0.6774194
vt 0.75 0.6451613
vt 0.75 0.6774194
vt 0.71875 0.6451613
vt 0.71875 0.6774194
vt 0.6875 0.6451613
vt 0.6875 0.6774194
vt 0.65625 0.6451613
vt 0.65625 0.6774194
vt 0.8125 0.7096775
vt 0.78125 0.7096775
vt 0.75 0.7096775
vt 0.71875 0.7096775
vt 0.6875 0.7096775
vt 0.65625 0.7096775
vt 0.8125 0.7419355
vt 0.78125 0.7419355
vt 0.75 0.7419355
vt 0.71875 0.7419355
vt 0.6875 0.7419355
vt 0.65625 0.7419355

# Normal
vn 0 0 -1

# Mesh description
g Nivel2_mesh_0044

# Faces
f 1/1/1 2/2/1 3/3/1 4/4/1
f 5/5/1 6/1/1 7/4/1 8/6/1
f 9/7/1 10/5/1 11/6/1 12/8/1
f 13/9/1 14/7/1 15/8/1 16/10/1
f 17/11/1 18/9/1 19/10/1 20/12/1
f 21/4/1 22/3/1 23/13/1 24/14/1
f 25/6/1 26/4/1 27/14/1 28/15/1
f 29/8/1 30/6/1 31/15/1 32/16/1
f 33/10/1 34/8/1 35/16/1 36/17/1
f 37/12/1 38/10/1 39/17/1 40/18/1
f 41/14/1 42/13/1 43/19/1 44/20/1
f 45/15/1 46/14/1 47/20/1 48/21/1
f 49/16/1 50/15/1 51/21/1 52/22/1
f 53/17/1 54/16/1 55/22/1 56/23/1
f 57/18/1 58/17/1 59/23/1 60/24/1
f 61/25/1 62/26/1 63/27/1 64/28/1
f 65/29/1 66/25/1 67/28/1 68/30/1
f 69/31/1 70/29/1 71/30/1 72/32/1
f 73/33/1 74/31/1 75/32/1 76/34/1
f 77/35/1 78/33/1 79/34/1 80/36/1
f 81/28/1 82/27/1 83/37/1 84/38/1
f 85/30/1 86/28/1 87/38/1 88/39/1
f 89/32/1 90/30/1 91/39/1 92/40/1
f 93/34/1 94/32/1 95/40/1 96/41/1
f 97/36/1 98/34/1 99/41/1 100/42/1
f 101/38/1 102/37/1 103/43/1 104/44/1
f 105/39/1 106/38/1 107/44/1 108/45/1
f 109/40/1 110/39/1 111/45/1 112/46/1
f 113/41/1 114/40/1 115/46/1 116/47/1
f 117/42/1 118/41/1 119/47/1 120/48/1
f 121/25/1 122/26/1 123/27/1 124/28/1
f 125/29/1 126/25/1 127/28/1 128/30/1
f 129/31/1 130/29/1 131/30/1 132/32/1
f 133/33/1 134/31/1 135/32/1 136/34/1
f 137/35/1 138/33/1 139/34/1 140/36/1
f 141/28/1 142/27/1 143/37/1 144/38/1
f 145/30/1 146/28/1 147/38/1 148/39/1
f 149/32/1 150/30/1 151/39/1 152/40/1
f 153/34/1 154/32/1 155/40/1 156/41/1
f 157/36/1 158/34/1 159/41/1 160/42/1
f 161/38/1 162/37/1 163/43/1 164/44/1
f 165/39/1 166/38/1 167/44/1 168/45/1
f 169/40/1 170/39/1 171/45/1 172/46/1
f 173/41/1 174/40/1 175/46/1 176/47/1
f 177/42/1 178/41/1 179/47/1 180/48/1

