# Tiled2Unity generated file. Do not modify by hand.
# Wavefront file for 'Nivel2_mesh_0026.obj'

# Vertices (Count = 200)
v -15 -26 0
v -16 -26 0
v -16 -25 0
v -15 -25 0
v -14 -26 0
v -15 -26 0
v -15 -25 0
v -14 -25 0
v -13 -26 0
v -14 -26 0
v -14 -25 0
v -13 -25 0
v -12 -26 0
v -13 -26 0
v -13 -25 0
v -12 -25 0
v -11 -26 0
v -12 -26 0
v -12 -25 0
v -11 -25 0
v -15 -25 0
v -16 -25 0
v -16 -24 0
v -15 -24 0
v -14 -25 0
v -15 -25 0
v -15 -24 0
v -14 -24 0
v -13 -25 0
v -14 -25 0
v -14 -24 0
v -13 -24 0
v -12 -25 0
v -13 -25 0
v -13 -24 0
v -12 -24 0
v -11 -25 0
v -12 -25 0
v -12 -24 0
v -11 -24 0
v -15 -24 0
v -16 -24 0
v -16 -23 0
v -15 -23 0
v -14 -24 0
v -15 -24 0
v -15 -23 0
v -14 -23 0
v -13 -24 0
v -14 -24 0
v -14 -23 0
v -13 -23 0
v -12 -24 0
v -13 -24 0
v -13 -23 0
v -12 -23 0
v -11 -24 0
v -12 -24 0
v -12 -23 0
v -11 -23 0
v -15 -22 0
v -16 -22 0
v -16 -21 0
v -15 -21 0
v -14 -22 0
v -15 -22 0
v -15 -21 0
v -14 -21 0
v -13 -22 0
v -14 -22 0
v -14 -21 0
v -13 -21 0
v -12 -22 0
v -13 -22 0
v -13 -21 0
v -12 -21 0
v -11 -22 0
v -12 -22 0
v -12 -21 0
v -11 -21 0
v -15 -21 0
v -16 -21 0
v -16 -20 0
v -15 -20 0
v -14 -21 0
v -15 -21 0
v -15 -20 0
v -14 -20 0
v -13 -21 0
v -14 -21 0
v -14 -20 0
v -13 -20 0
v -12 -21 0
v -13 -21 0
v -13 -20 0
v -12 -20 0
v -11 -21 0
v -12 -21 0
v -12 -20 0
v -11 -20 0
v -15 -20 0
v -16 -20 0
v -16 -19 0
v -15 -19 0
v -14 -20 0
v -15 -20 0
v -15 -19 0
v -14 -19 0
v -13 -20 0
v -14 -20 0
v -14 -19 0
v -13 -19 0
v -12 -20 0
v -13 -20 0
v -13 -19 0
v -12 -19 0
v -11 -20 0
v -12 -20 0
v -12 -19 0
v -11 -19 0
v -14 -13 0
v -15 -13 0
v -15 -12 0
v -14 -12 0
v -13 -13 0
v -14 -13 0
v -14 -12 0
v -13 -12 0
v -12 -13 0
v -13 -13 0
v -13 -12 0
v -12 -12 0
v -11 -13 0
v -12 -13 0
v -12 -12 0
v -11 -12 0
v -14 -12 0
v -15 -12 0
v -15 -11 0
v -14 -11 0
v -13 -12 0
v -14 -12 0
v -14 -11 0
v -13 -11 0
v -12 -12 0
v -13 -12 0
v -13 -11 0
v -12 -11 0
v -11 -12 0
v -12 -12 0
v -12 -11 0
v -11 -11 0
v -14 -11 0
v -15 -11 0
v -15 -10 0
v -14 -10 0
v -13 -11 0
v -14 -11 0
v -14 -10 0
v -13 -10 0
v -12 -11 0
v -13 -11 0
v -13 -10 0
v -12 -10 0
v -11 -11 0
v -12 -11 0
v -12 -10 0
v -11 -10 0
v -14 -10 0
v -15 -10 0
v -15 -9 0
v -14 -9 0
v -13 -10 0
v -14 -10 0
v -14 -9 0
v -13 -9 0
v -12 -10 0
v -13 -10 0
v -13 -9 0
v -12 -9 0
v -11 -10 0
v -12 -10 0
v -12 -9 0
v -11 -9 0
v -14 -9 0
v -15 -9 0
v -15 -8 0
v -14 -8 0
v -13 -9 0
v -14 -9 0
v -14 -8 0
v -13 -8 0
v -12 -9 0
v -13 -9 0
v -13 -8 0
v -12 -8 0
v -11 -9 0
v -12 -9 0
v -12 -8 0
v -11 -8 0

# Texture cooridinates (Count = 54)
vt 0.15625 0.3225806
vt 0.1875 0.3225806
vt 0.1875 0.3548387
vt 0.15625 0.3548387
vt 0.125 0.3225806
vt 0.125 0.3548387
vt 0.09375 0.3225806
vt 0.09375 0.3548387
vt 0.0625 0.3225806
vt 0.0625 0.3548387
vt 0.03125 0.3225806
vt 0.03125 0.3548387
vt 0.1875 0.3870968
vt 0.15625 0.3870968
vt 0.125 0.3870968
vt 0.09375 0.3870968
vt 0.0625 0.3870968
vt 0.03125 0.3870968
vt 0.1875 0.4193549
vt 0.15625 0.4193549
vt 0.125 0.4193549
vt 0.09375 0.4193549
vt 0.0625 0.4193549
vt 0.03125 0.4193549
vt 0.53125 0.8387097
vt 0.5625 0.8387097
vt 0.5625 0.8709677
vt 0.53125 0.8709677
vt 0.5 0.8387097
vt 0.5 0.8709677
vt 0.46875 0.8387097
vt 0.46875 0.8709677
vt 0.4375 0.8387097
vt 0.4375 0.8709677
vt 0.5625 0.9032258
vt 0.53125 0.9032258
vt 0.5 0.9032258
vt 0.46875 0.9032258
vt 0.4375 0.9032258
vt 0.5625 0.9354839
vt 0.53125 0.9354839
vt 0.5 0.9354839
vt 0.46875 0.9354839
vt 0.4375 0.9354839
vt 0.5625 0.967742
vt 0.53125 0.967742
vt 0.5 0.967742
vt 0.46875 0.967742
vt 0.4375 0.967742
vt 0.5625 1
vt 0.53125 1
vt 0.5 1
vt 0.46875 1
vt 0.4375 1

# Normal
vn 0 0 -1

# Mesh description
g Nivel2_mesh_0026

# Faces
f 1/1/1 2/2/1 3/3/1 4/4/1
f 5/5/1 6/1/1 7/4/1 8/6/1
f 9/7/1 10/5/1 11/6/1 12/8/1
f 13/9/1 14/7/1 15/8/1 16/10/1
f 17/11/1 18/9/1 19/10/1 20/12/1
f 21/4/1 22/3/1 23/13/1 24/14/1
f 25/6/1 26/4/1 27/14/1 28/15/1
f 29/8/1 30/6/1 31/15/1 32/16/1
f 33/10/1 34/8/1 35/16/1 36/17/1
f 37/12/1 38/10/1 39/17/1 40/18/1
f 41/14/1 42/13/1 43/19/1 44/20/1
f 45/15/1 46/14/1 47/20/1 48/21/1
f 49/16/1 50/15/1 51/21/1 52/22/1
f 53/17/1 54/16/1 55/22/1 56/23/1
f 57/18/1 58/17/1 59/23/1 60/24/1
f 61/1/1 62/2/1 63/3/1 64/4/1
f 65/5/1 66/1/1 67/4/1 68/6/1
f 69/7/1 70/5/1 71/6/1 72/8/1
f 73/9/1 74/7/1 75/8/1 76/10/1
f 77/11/1 78/9/1 79/10/1 80/12/1
f 81/4/1 82/3/1 83/13/1 84/14/1
f 85/6/1 86/4/1 87/14/1 88/15/1
f 89/8/1 90/6/1 91/15/1 92/16/1
f 93/10/1 94/8/1 95/16/1 96/17/1
f 97/12/1 98/10/1 99/17/1 100/18/1
f 101/14/1 102/13/1 103/19/1 104/20/1
f 105/15/1 106/14/1 107/20/1 108/21/1
f 109/16/1 110/15/1 111/21/1 112/22/1
f 113/17/1 114/16/1 115/22/1 116/23/1
f 117/18/1 118/17/1 119/23/1 120/24/1
f 121/25/1 122/26/1 123/27/1 124/28/1
f 125/29/1 126/25/1 127/28/1 128/30/1
f 129/31/1 130/29/1 131/30/1 132/32/1
f 133/33/1 134/31/1 135/32/1 136/34/1
f 137/28/1 138/27/1 139/35/1 140/36/1
f 141/30/1 142/28/1 143/36/1 144/37/1
f 145/32/1 146/30/1 147/37/1 148/38/1
f 149/34/1 150/32/1 151/38/1 152/39/1
f 153/36/1 154/35/1 155/40/1 156/41/1
f 157/37/1 158/36/1 159/41/1 160/42/1
f 161/38/1 162/37/1 163/42/1 164/43/1
f 165/39/1 166/38/1 167/43/1 168/44/1
f 169/41/1 170/40/1 171/45/1 172/46/1
f 173/42/1 174/41/1 175/46/1 176/47/1
f 177/43/1 178/42/1 179/47/1 180/48/1
f 181/44/1 182/43/1 183/48/1 184/49/1
f 185/46/1 186/45/1 187/50/1 188/51/1
f 189/47/1 190/46/1 191/51/1 192/52/1
f 193/48/1 194/47/1 195/52/1 196/53/1
f 197/49/1 198/48/1 199/53/1 200/54/1

