# Tiled2Unity generated file. Do not modify by hand.
# Wavefront file for 'Nivel2_mesh_0018.obj'

# Vertices (Count = 180)
v -12 -44 0
v -13 -44 0
v -13 -43 0
v -12 -43 0
v -11 -44 0
v -12 -44 0
v -12 -43 0
v -11 -43 0
v -10 -44 0
v -11 -44 0
v -11 -43 0
v -10 -43 0
v -9 -44 0
v -10 -44 0
v -10 -43 0
v -9 -43 0
v -8 -44 0
v -9 -44 0
v -9 -43 0
v -8 -43 0
v -12 -43 0
v -13 -43 0
v -13 -42 0
v -12 -42 0
v -11 -43 0
v -12 -43 0
v -12 -42 0
v -11 -42 0
v -10 -43 0
v -11 -43 0
v -11 -42 0
v -10 -42 0
v -9 -43 0
v -10 -43 0
v -10 -42 0
v -9 -42 0
v -8 -43 0
v -9 -43 0
v -9 -42 0
v -8 -42 0
v -12 -42 0
v -13 -42 0
v -13 -41 0
v -12 -41 0
v -11 -42 0
v -12 -42 0
v -12 -41 0
v -11 -41 0
v -10 -42 0
v -11 -42 0
v -11 -41 0
v -10 -41 0
v -9 -42 0
v -10 -42 0
v -10 -41 0
v -9 -41 0
v -8 -42 0
v -9 -42 0
v -9 -41 0
v -8 -41 0
v -12 -41 0
v -13 -41 0
v -13 -40 0
v -12 -40 0
v -11 -41 0
v -12 -41 0
v -12 -40 0
v -11 -40 0
v -10 -41 0
v -11 -41 0
v -11 -40 0
v -10 -40 0
v -9 -41 0
v -10 -41 0
v -10 -40 0
v -9 -40 0
v -8 -41 0
v -9 -41 0
v -9 -40 0
v -8 -40 0
v -4 -10 0
v -5 -10 0
v -5 -9 0
v -4 -9 0
v -3 -10 0
v -4 -10 0
v -4 -9 0
v -3 -9 0
v -2 -10 0
v -3 -10 0
v -3 -9 0
v -2 -9 0
v -1 -10 0
v -2 -10 0
v -2 -9 0
v -1 -9 0
v 0 -10 0
v -1 -10 0
v -1 -9 0
v 0 -9 0
v -4 -9 0
v -5 -9 0
v -5 -8 0
v -4 -8 0
v -3 -9 0
v -4 -9 0
v -4 -8 0
v -3 -8 0
v -2 -9 0
v -3 -9 0
v -3 -8 0
v -2 -8 0
v -1 -9 0
v -2 -9 0
v -2 -8 0
v -1 -8 0
v 0 -9 0
v -1 -9 0
v -1 -8 0
v 0 -8 0
v -4 -8 0
v -5 -8 0
v -5 -7 0
v -4 -7 0
v -3 -8 0
v -4 -8 0
v -4 -7 0
v -3 -7 0
v -2 -8 0
v -3 -8 0
v -3 -7 0
v -2 -7 0
v -1 -8 0
v -2 -8 0
v -2 -7 0
v -1 -7 0
v 0 -8 0
v -1 -8 0
v -1 -7 0
v 0 -7 0
v -4 -7 0
v -5 -7 0
v -5 -6 0
v -4 -6 0
v -3 -7 0
v -4 -7 0
v -4 -6 0
v -3 -6 0
v -2 -7 0
v -3 -7 0
v -3 -6 0
v -2 -6 0
v -1 -7 0
v -2 -7 0
v -2 -6 0
v -1 -6 0
v 0 -7 0
v -1 -7 0
v -1 -6 0
v 0 -6 0
v -4 -6 0
v -5 -6 0
v -5 -5 0
v -4 -5 0
v -3 -6 0
v -4 -6 0
v -4 -5 0
v -3 -5 0
v -2 -6 0
v -3 -6 0
v -3 -5 0
v -2 -5 0
v -1 -6 0
v -2 -6 0
v -2 -5 0
v -1 -5 0
v 0 -6 0
v -1 -6 0
v -1 -5 0
v 0 -5 0

# Texture cooridinates (Count = 66)
vt 0.96875 0.6451613
vt 1 0.6451613
vt 1 0.6774194
vt 0.96875 0.6774194
vt 0.9375 0.6451613
vt 0.9375 0.6774194
vt 0.90625 0.6451613
vt 0.90625 0.6774194
vt 0.875 0.6451613
vt 0.875 0.6774194
vt 0.84375 0.6451613
vt 0.84375 0.6774194
vt 1 0.7096775
vt 0.96875 0.7096775
vt 0.9375 0.7096775
vt 0.90625 0.7096775
vt 0.875 0.7096775
vt 0.84375 0.7096775
vt 1 0.7419355
vt 0.96875 0.7419355
vt 0.9375 0.7419355
vt 0.90625 0.7419355
vt 0.875 0.7419355
vt 0.84375 0.7419355
vt 1 0.7741935
vt 0.96875 0.7741935
vt 0.9375 0.7741935
vt 0.90625 0.7741935
vt 0.875 0.7741935
vt 0.84375 0.7741935
vt 0.96875 0.2580645
vt 1 0.2580645
vt 1 0.2903226
vt 0.96875 0.2903226
vt 0.9375 0.2580645
vt 0.9375 0.2903226
vt 0.90625 0.2580645
vt 0.90625 0.2903226
vt 0.875 0.2580645
vt 0.875 0.2903226
vt 0.84375 0.2580645
vt 0.84375 0.2903226
vt 1 0.3225806
vt 0.96875 0.3225806
vt 0.9375 0.3225806
vt 0.90625 0.3225806
vt 0.875 0.3225806
vt 0.84375 0.3225806
vt 1 0.3548387
vt 0.96875 0.3548387
vt 0.9375 0.3548387
vt 0.90625 0.3548387
vt 0.875 0.3548387
vt 0.84375 0.3548387
vt 1 0.3870968
vt 0.96875 0.3870968
vt 0.9375 0.3870968
vt 0.90625 0.3870968
vt 0.875 0.3870968
vt 0.84375 0.3870968
vt 1 0.4193549
vt 0.96875 0.4193549
vt 0.9375 0.4193549
vt 0.90625 0.4193549
vt 0.875 0.4193549
vt 0.84375 0.4193549

# Normal
vn 0 0 -1

# Mesh description
g Nivel2_mesh_0018

# Faces
f 1/1/1 2/2/1 3/3/1 4/4/1
f 5/5/1 6/1/1 7/4/1 8/6/1
f 9/7/1 10/5/1 11/6/1 12/8/1
f 13/9/1 14/7/1 15/8/1 16/10/1
f 17/11/1 18/9/1 19/10/1 20/12/1
f 21/4/1 22/3/1 23/13/1 24/14/1
f 25/6/1 26/4/1 27/14/1 28/15/1
f 29/8/1 30/6/1 31/15/1 32/16/1
f 33/10/1 34/8/1 35/16/1 36/17/1
f 37/12/1 38/10/1 39/17/1 40/18/1
f 41/14/1 42/13/1 43/19/1 44/20/1
f 45/15/1 46/14/1 47/20/1 48/21/1
f 49/16/1 50/15/1 51/21/1 52/22/1
f 53/17/1 54/16/1 55/22/1 56/23/1
f 57/18/1 58/17/1 59/23/1 60/24/1
f 61/20/1 62/19/1 63/25/1 64/26/1
f 65/21/1 66/20/1 67/26/1 68/27/1
f 69/22/1 70/21/1 71/27/1 72/28/1
f 73/23/1 74/22/1 75/28/1 76/29/1
f 77/24/1 78/23/1 79/29/1 80/30/1
f 81/31/1 82/32/1 83/33/1 84/34/1
f 85/35/1 86/31/1 87/34/1 88/36/1
f 89/37/1 90/35/1 91/36/1 92/38/1
f 93/39/1 94/37/1 95/38/1 96/40/1
f 97/41/1 98/39/1 99/40/1 100/42/1
f 101/34/1 102/33/1 103/43/1 104/44/1
f 105/36/1 106/34/1 107/44/1 108/45/1
f 109/38/1 110/36/1 111/45/1 112/46/1
f 113/40/1 114/38/1 115/46/1 116/47/1
f 117/42/1 118/40/1 119/47/1 120/48/1
f 121/44/1 122/43/1 123/49/1 124/50/1
f 125/45/1 126/44/1 127/50/1 128/51/1
f 129/46/1 130/45/1 131/51/1 132/52/1
f 133/47/1 134/46/1 135/52/1 136/53/1
f 137/48/1 138/47/1 139/53/1 140/54/1
f 141/50/1 142/49/1 143/55/1 144/56/1
f 145/51/1 146/50/1 147/56/1 148/57/1
f 149/52/1 150/51/1 151/57/1 152/58/1
f 153/53/1 154/52/1 155/58/1 156/59/1
f 157/54/1 158/53/1 159/59/1 160/60/1
f 161/56/1 162/55/1 163/61/1 164/62/1
f 165/57/1 166/56/1 167/62/1 168/63/1
f 169/58/1 170/57/1 171/63/1 172/64/1
f 173/59/1 174/58/1 175/64/1 176/65/1
f 177/60/1 178/59/1 179/65/1 180/66/1

