# Tiled2Unity generated file. Do not modify by hand.
# Wavefront file for 'Nivel2_mesh_0022.obj'

# Vertices (Count = 228)
v -23 -51 0
v -24 -51 0
v -24 -50 0
v -23 -50 0
v -22 -51 0
v -23 -51 0
v -23 -50 0
v -22 -50 0
v -21 -51 0
v -22 -51 0
v -22 -50 0
v -21 -50 0
v -20 -51 0
v -21 -51 0
v -21 -50 0
v -20 -50 0
v -19 -51 0
v -20 -51 0
v -20 -50 0
v -19 -50 0
v -23 -50 0
v -24 -50 0
v -24 -49 0
v -23 -49 0
v -22 -50 0
v -23 -50 0
v -23 -49 0
v -22 -49 0
v -21 -50 0
v -22 -50 0
v -22 -49 0
v -21 -49 0
v -20 -50 0
v -21 -50 0
v -21 -49 0
v -20 -49 0
v -19 -50 0
v -20 -50 0
v -20 -49 0
v -19 -49 0
v -28 -49 0
v -29 -49 0
v -29 -48 0
v -28 -48 0
v -27 -49 0
v -28 -49 0
v -28 -48 0
v -27 -48 0
v -26 -49 0
v -27 -49 0
v -27 -48 0
v -26 -48 0
v -25 -49 0
v -26 -49 0
v -26 -48 0
v -25 -48 0
v -24 -49 0
v -25 -49 0
v -25 -48 0
v -24 -48 0
v -23 -49 0
v -24 -49 0
v -24 -48 0
v -23 -48 0
v -22 -49 0
v -23 -49 0
v -23 -48 0
v -22 -48 0
v -21 -49 0
v -22 -49 0
v -22 -48 0
v -21 -48 0
v -20 -49 0
v -21 -49 0
v -21 -48 0
v -20 -48 0
v -19 -49 0
v -20 -49 0
v -20 -48 0
v -19 -48 0
v -28 -48 0
v -29 -48 0
v -29 -47 0
v -28 -47 0
v -27 -48 0
v -28 -48 0
v -28 -47 0
v -27 -47 0
v -26 -48 0
v -27 -48 0
v -27 -47 0
v -26 -47 0
v -25 -48 0
v -26 -48 0
v -26 -47 0
v -25 -47 0
v -24 -48 0
v -25 -48 0
v -25 -47 0
v -24 -47 0
v -23 -48 0
v -24 -48 0
v -24 -47 0
v -23 -47 0
v -22 -48 0
v -23 -48 0
v -23 -47 0
v -22 -47 0
v -21 -48 0
v -22 -48 0
v -22 -47 0
v -21 -47 0
v -20 -48 0
v -21 -48 0
v -21 -47 0
v -20 -47 0
v -19 -48 0
v -20 -48 0
v -20 -47 0
v -19 -47 0
v -28 -47 0
v -29 -47 0
v -29 -46 0
v -28 -46 0
v -27 -47 0
v -28 -47 0
v -28 -46 0
v -27 -46 0
v -26 -47 0
v -27 -47 0
v -27 -46 0
v -26 -46 0
v -25 -47 0
v -26 -47 0
v -26 -46 0
v -25 -46 0
v -24 -47 0
v -25 -47 0
v -25 -46 0
v -24 -46 0
v -23 -47 0
v -24 -47 0
v -24 -46 0
v -23 -46 0
v -28 -46 0
v -29 -46 0
v -29 -45 0
v -28 -45 0
v -27 -46 0
v -28 -46 0
v -28 -45 0
v -27 -45 0
v -26 -46 0
v -27 -46 0
v -27 -45 0
v -26 -45 0
v -25 -46 0
v -26 -46 0
v -26 -45 0
v -25 -45 0
v -24 -46 0
v -25 -46 0
v -25 -45 0
v -24 -45 0
v -23 -46 0
v -24 -46 0
v -24 -45 0
v -23 -45 0
v -28 -45 0
v -29 -45 0
v -29 -44 0
v -28 -44 0
v -27 -45 0
v -28 -45 0
v -28 -44 0
v -27 -44 0
v -26 -45 0
v -27 -45 0
v -27 -44 0
v -26 -44 0
v -25 -45 0
v -26 -45 0
v -26 -44 0
v -25 -44 0
v -24 -45 0
v -25 -45 0
v -25 -44 0
v -24 -44 0
v -23 -45 0
v -24 -45 0
v -24 -44 0
v -23 -44 0
v -28 -44 0
v -29 -44 0
v -29 -43 0
v -28 -43 0
v -27 -44 0
v -28 -44 0
v -28 -43 0
v -27 -43 0
v -26 -44 0
v -27 -44 0
v -27 -43 0
v -26 -43 0
v -25 -44 0
v -26 -44 0
v -26 -43 0
v -25 -43 0
v -24 -44 0
v -25 -44 0
v -25 -43 0
v -24 -43 0
v -23 -44 0
v -24 -44 0
v -24 -43 0
v -23 -43 0
v -25 -43 0
v -26 -43 0
v -26 -42 0
v -25 -42 0
v -24 -43 0
v -25 -43 0
v -25 -42 0
v -24 -42 0
v -23 -43 0
v -24 -43 0
v -24 -42 0
v -23 -42 0

# Texture cooridinates (Count = 54)
vt 0.96875 0.6451613
vt 1 0.6451613
vt 1 0.6774194
vt 0.96875 0.6774194
vt 0.9375 0.6451613
vt 0.9375 0.6774194
vt 0.90625 0.6451613
vt 0.90625 0.6774194
vt 0.875 0.6451613
vt 0.875 0.6774194
vt 0.84375 0.6451613
vt 0.84375 0.6774194
vt 1 0.7096775
vt 0.96875 0.7096775
vt 0.9375 0.7096775
vt 0.90625 0.7096775
vt 0.875 0.7096775
vt 0.84375 0.7096775
vt 0.65625 0.3548387
vt 0.6875 0.3548387
vt 0.6875 0.3870968
vt 0.65625 0.3870968
vt 0.625 0.3548387
vt 0.625 0.3870968
vt 0.59375 0.3548387
vt 0.59375 0.3870968
vt 1 0.7419355
vt 0.96875 0.7419355
vt 0.9375 0.7419355
vt 0.90625 0.7419355
vt 0.875 0.7419355
vt 0.84375 0.7419355
vt 0.6875 0.4193549
vt 0.65625 0.4193549
vt 0.625 0.4193549
vt 0.59375 0.4193549
vt 1 0.7741935
vt 0.96875 0.7741935
vt 0.9375 0.7741935
vt 0.90625 0.7741935
vt 0.875 0.7741935
vt 0.84375 0.7741935
vt 0.6875 0.4516129
vt 0.65625 0.4516129
vt 0.625 0.4516129
vt 0.59375 0.4516129
vt 0.6875 0.483871
vt 0.65625 0.483871
vt 0.625 0.483871
vt 0.59375 0.483871
vt 0.6875 0.516129
vt 0.65625 0.516129
vt 0.625 0.516129
vt 0.59375 0.516129

# Normal
vn 0 0 -1

# Mesh description
g Nivel2_mesh_0022

# Faces
f 1/1/1 2/2/1 3/3/1 4/4/1
f 5/5/1 6/1/1 7/4/1 8/6/1
f 9/7/1 10/5/1 11/6/1 12/8/1
f 13/9/1 14/7/1 15/8/1 16/10/1
f 17/11/1 18/9/1 19/10/1 20/12/1
f 21/4/1 22/3/1 23/13/1 24/14/1
f 25/6/1 26/4/1 27/14/1 28/15/1
f 29/8/1 30/6/1 31/15/1 32/16/1
f 33/10/1 34/8/1 35/16/1 36/17/1
f 37/12/1 38/10/1 39/17/1 40/18/1
f 41/19/1 42/20/1 43/21/1 44/22/1
f 45/19/1 46/20/1 47/21/1 48/22/1
f 49/19/1 50/20/1 51/21/1 52/22/1
f 53/23/1 54/19/1 55/22/1 56/24/1
f 57/25/1 58/23/1 59/24/1 60/26/1
f 61/14/1 62/13/1 63/27/1 64/28/1
f 65/15/1 66/14/1 67/28/1 68/29/1
f 69/16/1 70/15/1 71/29/1 72/30/1
f 73/17/1 74/16/1 75/30/1 76/31/1
f 77/18/1 78/17/1 79/31/1 80/32/1
f 81/22/1 82/21/1 83/33/1 84/34/1
f 85/22/1 86/21/1 87/33/1 88/34/1
f 89/22/1 90/21/1 91/33/1 92/34/1
f 93/24/1 94/22/1 95/34/1 96/35/1
f 97/26/1 98/24/1 99/35/1 100/36/1
f 101/28/1 102/27/1 103/37/1 104/38/1
f 105/29/1 106/28/1 107/38/1 108/39/1
f 109/30/1 110/29/1 111/39/1 112/40/1
f 113/31/1 114/30/1 115/40/1 116/41/1
f 117/32/1 118/31/1 119/41/1 120/42/1
f 121/34/1 122/33/1 123/43/1 124/44/1
f 125/34/1 126/33/1 127/43/1 128/44/1
f 129/34/1 130/33/1 131/43/1 132/44/1
f 133/35/1 134/34/1 135/44/1 136/45/1
f 137/36/1 138/35/1 139/45/1 140/46/1
f 141/25/1 142/23/1 143/24/1 144/26/1
f 145/44/1 146/43/1 147/47/1 148/48/1
f 149/44/1 150/43/1 151/47/1 152/48/1
f 153/44/1 154/43/1 155/47/1 156/48/1
f 157/45/1 158/44/1 159/48/1 160/49/1
f 161/46/1 162/45/1 163/49/1 164/50/1
f 165/26/1 166/24/1 167/35/1 168/36/1
f 169/48/1 170/47/1 171/51/1 172/52/1
f 173/48/1 174/47/1 175/51/1 176/52/1
f 177/48/1 178/47/1 179/51/1 180/52/1
f 181/49/1 182/48/1 183/52/1 184/53/1
f 185/50/1 186/49/1 187/53/1 188/54/1
f 189/36/1 190/35/1 191/45/1 192/46/1
f 193/48/1 194/47/1 195/51/1 196/52/1
f 197/49/1 198/48/1 199/52/1 200/53/1
f 201/50/1 202/49/1 203/53/1 204/54/1
f 205/50/1 206/49/1 207/53/1 208/54/1
f 209/50/1 210/49/1 211/53/1 212/54/1
f 213/46/1 214/45/1 215/49/1 216/50/1
f 217/48/1 218/47/1 219/51/1 220/52/1
f 221/49/1 222/48/1 223/52/1 224/53/1
f 225/50/1 226/49/1 227/53/1 228/54/1

