# Tiled2Unity generated file. Do not modify by hand.
# Wavefront file for 'Nivel2_mesh_0012.obj'

# Vertices (Count = 308)
v -26 -80 0
v -27 -80 0
v -27 -79 0
v -26 -79 0
v -25 -80 0
v -26 -80 0
v -26 -79 0
v -25 -79 0
v -24 -80 0
v -25 -80 0
v -25 -79 0
v -24 -79 0
v -23 -80 0
v -24 -80 0
v -24 -79 0
v -23 -79 0
v -26 -79 0
v -27 -79 0
v -27 -78 0
v -26 -78 0
v -25 -79 0
v -26 -79 0
v -26 -78 0
v -25 -78 0
v -24 -79 0
v -25 -79 0
v -25 -78 0
v -24 -78 0
v -23 -79 0
v -24 -79 0
v -24 -78 0
v -23 -78 0
v -26 -78 0
v -27 -78 0
v -27 -77 0
v -26 -77 0
v -25 -78 0
v -26 -78 0
v -26 -77 0
v -25 -77 0
v -24 -78 0
v -25 -78 0
v -25 -77 0
v -24 -77 0
v -23 -78 0
v -24 -78 0
v -24 -77 0
v -23 -77 0
v -26 -77 0
v -27 -77 0
v -27 -76 0
v -26 -76 0
v -25 -77 0
v -26 -77 0
v -26 -76 0
v -25 -76 0
v -24 -77 0
v -25 -77 0
v -25 -76 0
v -24 -76 0
v -23 -77 0
v -24 -77 0
v -24 -76 0
v -23 -76 0
v -26 -76 0
v -27 -76 0
v -27 -75 0
v -26 -75 0
v -25 -76 0
v -26 -76 0
v -26 -75 0
v -25 -75 0
v -24 -76 0
v -25 -76 0
v -25 -75 0
v -24 -75 0
v -23 -76 0
v -24 -76 0
v -24 -75 0
v -23 -75 0
v -12 -47 0
v -13 -47 0
v -13 -46 0
v -12 -46 0
v -11 -47 0
v -12 -47 0
v -12 -46 0
v -11 -46 0
v -10 -47 0
v -11 -47 0
v -11 -46 0
v -10 -46 0
v -9 -47 0
v -10 -47 0
v -10 -46 0
v -9 -46 0
v -8 -47 0
v -9 -47 0
v -9 -46 0
v -8 -46 0
v -7 -47 0
v -8 -47 0
v -8 -46 0
v -7 -46 0
v -6 -47 0
v -7 -47 0
v -7 -46 0
v -6 -46 0
v -5 -47 0
v -6 -47 0
v -6 -46 0
v -5 -46 0
v -12 -46 0
v -13 -46 0
v -13 -45 0
v -12 -45 0
v -11 -46 0
v -12 -46 0
v -12 -45 0
v -11 -45 0
v -10 -46 0
v -11 -46 0
v -11 -45 0
v -10 -45 0
v -9 -46 0
v -10 -46 0
v -10 -45 0
v -9 -45 0
v -8 -46 0
v -9 -46 0
v -9 -45 0
v -8 -45 0
v -7 -46 0
v -8 -46 0
v -8 -45 0
v -7 -45 0
v -6 -46 0
v -7 -46 0
v -7 -45 0
v -6 -45 0
v -5 -46 0
v -6 -46 0
v -6 -45 0
v -5 -45 0
v -8 -45 0
v -9 -45 0
v -9 -44 0
v -8 -44 0
v -7 -45 0
v -8 -45 0
v -8 -44 0
v -7 -44 0
v -6 -45 0
v -7 -45 0
v -7 -44 0
v -6 -44 0
v -5 -45 0
v -6 -45 0
v -6 -44 0
v -5 -44 0
v -8 -44 0
v -9 -44 0
v -9 -43 0
v -8 -43 0
v -7 -44 0
v -8 -44 0
v -8 -43 0
v -7 -43 0
v -6 -44 0
v -7 -44 0
v -7 -43 0
v -6 -43 0
v -5 -44 0
v -6 -44 0
v -6 -43 0
v -5 -43 0
v -8 -43 0
v -9 -43 0
v -9 -42 0
v -8 -42 0
v -7 -43 0
v -8 -43 0
v -8 -42 0
v -7 -42 0
v -6 -43 0
v -7 -43 0
v -7 -42 0
v -6 -42 0
v -5 -43 0
v -6 -43 0
v -6 -42 0
v -5 -42 0
v -8 -42 0
v -9 -42 0
v -9 -41 0
v -8 -41 0
v -7 -42 0
v -8 -42 0
v -8 -41 0
v -7 -41 0
v -6 -42 0
v -7 -42 0
v -7 -41 0
v -6 -41 0
v -5 -42 0
v -6 -42 0
v -6 -41 0
v -5 -41 0
v -4 -15 0
v -5 -15 0
v -5 -14 0
v -4 -14 0
v -3 -15 0
v -4 -15 0
v -4 -14 0
v -3 -14 0
v -2 -15 0
v -3 -15 0
v -3 -14 0
v -2 -14 0
v -1 -15 0
v -2 -15 0
v -2 -14 0
v -1 -14 0
v 0 -15 0
v -1 -15 0
v -1 -14 0
v 0 -14 0
v -4 -14 0
v -5 -14 0
v -5 -13 0
v -4 -13 0
v -3 -14 0
v -4 -14 0
v -4 -13 0
v -3 -13 0
v -2 -14 0
v -3 -14 0
v -3 -13 0
v -2 -13 0
v -1 -14 0
v -2 -14 0
v -2 -13 0
v -1 -13 0
v 0 -14 0
v -1 -14 0
v -1 -13 0
v 0 -13 0
v -4 -12 0
v -5 -12 0
v -5 -11 0
v -4 -11 0
v -3 -12 0
v -4 -12 0
v -4 -11 0
v -3 -11 0
v -2 -12 0
v -3 -12 0
v -3 -11 0
v -2 -11 0
v -1 -12 0
v -2 -12 0
v -2 -11 0
v -1 -11 0
v 0 -12 0
v -1 -12 0
v -1 -11 0
v 0 -11 0
v -4 -11 0
v -5 -11 0
v -5 -10 0
v -4 -10 0
v -3 -11 0
v -4 -11 0
v -4 -10 0
v -3 -10 0
v -2 -11 0
v -3 -11 0
v -3 -10 0
v -2 -10 0
v -1 -11 0
v -2 -11 0
v -2 -10 0
v -1 -10 0
v 0 -11 0
v -1 -11 0
v -1 -10 0
v 0 -10 0
v -4 -10 0
v -5 -10 0
v -5 -9 0
v -4 -9 0
v -3 -10 0
v -4 -10 0
v -4 -9 0
v -3 -9 0
v -2 -10 0
v -3 -10 0
v -3 -9 0
v -2 -9 0
v -1 -10 0
v -2 -10 0
v -2 -9 0
v -1 -9 0
v 0 -10 0
v -1 -10 0
v -1 -9 0
v 0 -9 0

# Texture cooridinates (Count = 74)
vt 0.53125 0.8387097
vt 0.5625 0.8387097
vt 0.5625 0.8709677
vt 0.53125 0.8709677
vt 0.5 0.8387097
vt 0.5 0.8709677
vt 0.46875 0.8387097
vt 0.46875 0.8709677
vt 0.4375 0.8387097
vt 0.4375 0.8709677
vt 0.5625 0.9032258
vt 0.53125 0.9032258
vt 0.5 0.9032258
vt 0.46875 0.9032258
vt 0.4375 0.9032258
vt 0.5625 0.9354839
vt 0.53125 0.9354839
vt 0.5 0.9354839
vt 0.46875 0.9354839
vt 0.4375 0.9354839
vt 0.5625 0.967742
vt 0.53125 0.967742
vt 0.5 0.967742
vt 0.46875 0.967742
vt 0.4375 0.967742
vt 0.5625 1
vt 0.53125 1
vt 0.5 1
vt 0.46875 1
vt 0.4375 1
vt 0.78125 0.5806452
vt 0.8125 0.5806452
vt 0.8125 0.6129032
vt 0.78125 0.6129032
vt 0.75 0.5806452
vt 0.75 0.6129032
vt 0.71875 0.5806452
vt 0.71875 0.6129032
vt 0.65625 0.8709677
vt 0.6875 0.8709677
vt 0.6875 0.9032258
vt 0.65625 0.9032258
vt 0.625 0.8709677
vt 0.625 0.9032258
vt 0.59375 0.8709677
vt 0.59375 0.9032258
vt 0.8125 0.6451613
vt 0.78125 0.6451613
vt 0.75 0.6451613
vt 0.71875 0.6451613
vt 0.6875 0.6129032
vt 0.6875 0.6451613
vt 0.6875 0.5806452
vt 0.65625 0.5806452
vt 0.65625 0.6129032
vt 0.65625 0.6451613
vt 0.8125 0.6774194
vt 0.78125 0.6774194
vt 0.75 0.6774194
vt 0.71875 0.6774194
vt 0.6875 0.6774194
vt 0.65625 0.6774194
vt 0.8125 0.7096775
vt 0.78125 0.7096775
vt 0.75 0.7096775
vt 0.71875 0.7096775
vt 0.6875 0.7096775
vt 0.65625 0.7096775
vt 0.8125 0.7419355
vt 0.78125 0.7419355
vt 0.75 0.7419355
vt 0.71875 0.7419355
vt 0.6875 0.7419355
vt 0.65625 0.7419355

# Normal
vn 0 0 -1

# Mesh description
g Nivel2_mesh_0012

# Faces
f 1/1/1 2/2/1 3/3/1 4/4/1
f 5/5/1 6/1/1 7/4/1 8/6/1
f 9/7/1 10/5/1 11/6/1 12/8/1
f 13/9/1 14/7/1 15/8/1 16/10/1
f 17/4/1 18/3/1 19/11/1 20/12/1
f 21/6/1 22/4/1 23/12/1 24/13/1
f 25/8/1 26/6/1 27/13/1 28/14/1
f 29/10/1 30/8/1 31/14/1 32/15/1
f 33/12/1 34/11/1 35/16/1 36/17/1
f 37/13/1 38/12/1 39/17/1 40/18/1
f 41/14/1 42/13/1 43/18/1 44/19/1
f 45/15/1 46/14/1 47/19/1 48/20/1
f 49/17/1 50/16/1 51/21/1 52/22/1
f 53/18/1 54/17/1 55/22/1 56/23/1
f 57/19/1 58/18/1 59/23/1 60/24/1
f 61/20/1 62/19/1 63/24/1 64/25/1
f 65/22/1 66/21/1 67/26/1 68/27/1
f 69/23/1 70/22/1 71/27/1 72/28/1
f 73/24/1 74/23/1 75/28/1 76/29/1
f 77/25/1 78/24/1 79/29/1 80/30/1
f 81/31/1 82/32/1 83/33/1 84/34/1
f 85/35/1 86/31/1 87/34/1 88/36/1
f 89/37/1 90/35/1 91/36/1 92/38/1
f 93/39/1 94/40/1 95/41/1 96/42/1
f 97/43/1 98/39/1 99/42/1 100/44/1
f 101/45/1 102/43/1 103/44/1 104/46/1
f 105/45/1 106/43/1 107/44/1 108/46/1
f 109/45/1 110/43/1 111/44/1 112/46/1
f 113/34/1 114/33/1 115/47/1 116/48/1
f 117/36/1 118/34/1 119/48/1 120/49/1
f 121/38/1 122/36/1 123/49/1 124/50/1
f 125/51/1 126/38/1 127/50/1 128/52/1
f 129/1/1 130/2/1 131/3/1 132/4/1
f 133/5/1 134/1/1 135/4/1 136/6/1
f 137/7/1 138/5/1 139/6/1 140/8/1
f 141/9/1 142/7/1 143/8/1 144/10/1
f 145/4/1 146/3/1 147/11/1 148/12/1
f 149/6/1 150/4/1 151/12/1 152/13/1
f 153/8/1 154/6/1 155/13/1 156/14/1
f 157/10/1 158/8/1 159/14/1 160/15/1
f 161/12/1 162/11/1 163/16/1 164/17/1
f 165/13/1 166/12/1 167/17/1 168/18/1
f 169/14/1 170/13/1 171/18/1 172/19/1
f 173/15/1 174/14/1 175/19/1 176/20/1
f 177/17/1 178/16/1 179/21/1 180/22/1
f 181/18/1 182/17/1 183/22/1 184/23/1
f 185/19/1 186/18/1 187/23/1 188/24/1
f 189/20/1 190/19/1 191/24/1 192/25/1
f 193/22/1 194/21/1 195/26/1 196/27/1
f 197/23/1 198/22/1 199/27/1 200/28/1
f 201/24/1 202/23/1 203/28/1 204/29/1
f 205/25/1 206/24/1 207/29/1 208/30/1
f 209/31/1 210/32/1 211/33/1 212/34/1
f 213/35/1 214/31/1 215/34/1 216/36/1
f 217/37/1 218/35/1 219/36/1 220/38/1
f 221/53/1 222/37/1 223/38/1 224/51/1
f 225/54/1 226/53/1 227/51/1 228/55/1
f 229/34/1 230/33/1 231/47/1 232/48/1
f 233/36/1 234/34/1 235/48/1 236/49/1
f 237/38/1 238/36/1 239/49/1 240/50/1
f 241/51/1 242/38/1 243/50/1 244/52/1
f 245/55/1 246/51/1 247/52/1 248/56/1
f 249/48/1 250/47/1 251/57/1 252/58/1
f 253/49/1 254/48/1 255/58/1 256/59/1
f 257/50/1 258/49/1 259/59/1 260/60/1
f 261/52/1 262/50/1 263/60/1 264/61/1
f 265/56/1 266/52/1 267/61/1 268/62/1
f 269/58/1 270/57/1 271/63/1 272/64/1
f 273/59/1 274/58/1 275/64/1 276/65/1
f 277/60/1 278/59/1 279/65/1 280/66/1
f 281/61/1 282/60/1 283/66/1 284/67/1
f 285/62/1 286/61/1 287/67/1 288/68/1
f 289/64/1 290/63/1 291/69/1 292/70/1
f 293/65/1 294/64/1 295/70/1 296/71/1
f 297/66/1 298/65/1 299/71/1 300/72/1
f 301/67/1 302/66/1 303/72/1 304/73/1
f 305/68/1 306/67/1 307/73/1 308/74/1

