# Tiled2Unity generated file. Do not modify by hand.
# Wavefront file for 'Nivel2_mesh_0042.obj'

# Vertices (Count = 720)
v -38 -23 0
v -39 -23 0
v -39 -22 0
v -38 -22 0
v -37 -23 0
v -38 -23 0
v -38 -22 0
v -37 -22 0
v -36 -23 0
v -37 -23 0
v -37 -22 0
v -36 -22 0
v -35 -23 0
v -36 -23 0
v -36 -22 0
v -35 -22 0
v -34 -23 0
v -35 -23 0
v -35 -22 0
v -34 -22 0
v -33 -23 0
v -34 -23 0
v -34 -22 0
v -33 -22 0
v -32 -23 0
v -33 -23 0
v -33 -22 0
v -32 -22 0
v -31 -23 0
v -32 -23 0
v -32 -22 0
v -31 -22 0
v -30 -23 0
v -31 -23 0
v -31 -22 0
v -30 -22 0
v -29 -23 0
v -30 -23 0
v -30 -22 0
v -29 -22 0
v -28 -23 0
v -29 -23 0
v -29 -22 0
v -28 -22 0
v -27 -23 0
v -28 -23 0
v -28 -22 0
v -27 -22 0
v -38 -22 0
v -39 -22 0
v -39 -21 0
v -38 -21 0
v -37 -22 0
v -38 -22 0
v -38 -21 0
v -37 -21 0
v -36 -22 0
v -37 -22 0
v -37 -21 0
v -36 -21 0
v -35 -22 0
v -36 -22 0
v -36 -21 0
v -35 -21 0
v -34 -22 0
v -35 -22 0
v -35 -21 0
v -34 -21 0
v -33 -22 0
v -34 -22 0
v -34 -21 0
v -33 -21 0
v -32 -22 0
v -33 -22 0
v -33 -21 0
v -32 -21 0
v -31 -22 0
v -32 -22 0
v -32 -21 0
v -31 -21 0
v -30 -22 0
v -31 -22 0
v -31 -21 0
v -30 -21 0
v -29 -22 0
v -30 -22 0
v -30 -21 0
v -29 -21 0
v -28 -22 0
v -29 -22 0
v -29 -21 0
v -28 -21 0
v -27 -22 0
v -28 -22 0
v -28 -21 0
v -27 -21 0
v -38 -21 0
v -39 -21 0
v -39 -20 0
v -38 -20 0
v -37 -21 0
v -38 -21 0
v -38 -20 0
v -37 -20 0
v -36 -21 0
v -37 -21 0
v -37 -20 0
v -36 -20 0
v -35 -21 0
v -36 -21 0
v -36 -20 0
v -35 -20 0
v -34 -21 0
v -35 -21 0
v -35 -20 0
v -34 -20 0
v -33 -21 0
v -34 -21 0
v -34 -20 0
v -33 -20 0
v -32 -21 0
v -33 -21 0
v -33 -20 0
v -32 -20 0
v -31 -21 0
v -32 -21 0
v -32 -20 0
v -31 -20 0
v -30 -21 0
v -31 -21 0
v -31 -20 0
v -30 -20 0
v -29 -21 0
v -30 -21 0
v -30 -20 0
v -29 -20 0
v -28 -21 0
v -29 -21 0
v -29 -20 0
v -28 -20 0
v -27 -21 0
v -28 -21 0
v -28 -20 0
v -27 -20 0
v -38 -20 0
v -39 -20 0
v -39 -19 0
v -38 -19 0
v -37 -20 0
v -38 -20 0
v -38 -19 0
v -37 -19 0
v -36 -20 0
v -37 -20 0
v -37 -19 0
v -36 -19 0
v -35 -20 0
v -36 -20 0
v -36 -19 0
v -35 -19 0
v -34 -20 0
v -35 -20 0
v -35 -19 0
v -34 -19 0
v -33 -20 0
v -34 -20 0
v -34 -19 0
v -33 -19 0
v -32 -20 0
v -33 -20 0
v -33 -19 0
v -32 -19 0
v -31 -20 0
v -32 -20 0
v -32 -19 0
v -31 -19 0
v -30 -20 0
v -31 -20 0
v -31 -19 0
v -30 -19 0
v -29 -20 0
v -30 -20 0
v -30 -19 0
v -29 -19 0
v -28 -20 0
v -29 -20 0
v -29 -19 0
v -28 -19 0
v -27 -20 0
v -28 -20 0
v -28 -19 0
v -27 -19 0
v -38 -19 0
v -39 -19 0
v -39 -18 0
v -38 -18 0
v -37 -19 0
v -38 -19 0
v -38 -18 0
v -37 -18 0
v -36 -19 0
v -37 -19 0
v -37 -18 0
v -36 -18 0
v -35 -19 0
v -36 -19 0
v -36 -18 0
v -35 -18 0
v -34 -19 0
v -35 -19 0
v -35 -18 0
v -34 -18 0
v -33 -19 0
v -34 -19 0
v -34 -18 0
v -33 -18 0
v -32 -19 0
v -33 -19 0
v -33 -18 0
v -32 -18 0
v -31 -19 0
v -32 -19 0
v -32 -18 0
v -31 -18 0
v -30 -19 0
v -31 -19 0
v -31 -18 0
v -30 -18 0
v -29 -19 0
v -30 -19 0
v -30 -18 0
v -29 -18 0
v -28 -19 0
v -29 -19 0
v -29 -18 0
v -28 -18 0
v -27 -19 0
v -28 -19 0
v -28 -18 0
v -27 -18 0
v -38 -18 0
v -39 -18 0
v -39 -17 0
v -38 -17 0
v -37 -18 0
v -38 -18 0
v -38 -17 0
v -37 -17 0
v -36 -18 0
v -37 -18 0
v -37 -17 0
v -36 -17 0
v -35 -18 0
v -36 -18 0
v -36 -17 0
v -35 -17 0
v -34 -18 0
v -35 -18 0
v -35 -17 0
v -34 -17 0
v -33 -18 0
v -34 -18 0
v -34 -17 0
v -33 -17 0
v -32 -18 0
v -33 -18 0
v -33 -17 0
v -32 -17 0
v -31 -18 0
v -32 -18 0
v -32 -17 0
v -31 -17 0
v -30 -18 0
v -31 -18 0
v -31 -17 0
v -30 -17 0
v -29 -18 0
v -30 -18 0
v -30 -17 0
v -29 -17 0
v -28 -18 0
v -29 -18 0
v -29 -17 0
v -28 -17 0
v -27 -18 0
v -28 -18 0
v -28 -17 0
v -27 -17 0
v -38 -17 0
v -39 -17 0
v -39 -16 0
v -38 -16 0
v -37 -17 0
v -38 -17 0
v -38 -16 0
v -37 -16 0
v -36 -17 0
v -37 -17 0
v -37 -16 0
v -36 -16 0
v -35 -17 0
v -36 -17 0
v -36 -16 0
v -35 -16 0
v -34 -17 0
v -35 -17 0
v -35 -16 0
v -34 -16 0
v -33 -17 0
v -34 -17 0
v -34 -16 0
v -33 -16 0
v -32 -17 0
v -33 -17 0
v -33 -16 0
v -32 -16 0
v -31 -17 0
v -32 -17 0
v -32 -16 0
v -31 -16 0
v -30 -17 0
v -31 -17 0
v -31 -16 0
v -30 -16 0
v -29 -17 0
v -30 -17 0
v -30 -16 0
v -29 -16 0
v -28 -17 0
v -29 -17 0
v -29 -16 0
v -28 -16 0
v -27 -17 0
v -28 -17 0
v -28 -16 0
v -27 -16 0
v -38 -16 0
v -39 -16 0
v -39 -15 0
v -38 -15 0
v -37 -16 0
v -38 -16 0
v -38 -15 0
v -37 -15 0
v -36 -16 0
v -37 -16 0
v -37 -15 0
v -36 -15 0
v -35 -16 0
v -36 -16 0
v -36 -15 0
v -35 -15 0
v -34 -16 0
v -35 -16 0
v -35 -15 0
v -34 -15 0
v -33 -16 0
v -34 -16 0
v -34 -15 0
v -33 -15 0
v -32 -16 0
v -33 -16 0
v -33 -15 0
v -32 -15 0
v -31 -16 0
v -32 -16 0
v -32 -15 0
v -31 -15 0
v -30 -16 0
v -31 -16 0
v -31 -15 0
v -30 -15 0
v -29 -16 0
v -30 -16 0
v -30 -15 0
v -29 -15 0
v -28 -16 0
v -29 -16 0
v -29 -15 0
v -28 -15 0
v -27 -16 0
v -28 -16 0
v -28 -15 0
v -27 -15 0
v -38 -15 0
v -39 -15 0
v -39 -14 0
v -38 -14 0
v -37 -15 0
v -38 -15 0
v -38 -14 0
v -37 -14 0
v -36 -15 0
v -37 -15 0
v -37 -14 0
v -36 -14 0
v -35 -15 0
v -36 -15 0
v -36 -14 0
v -35 -14 0
v -34 -15 0
v -35 -15 0
v -35 -14 0
v -34 -14 0
v -33 -15 0
v -34 -15 0
v -34 -14 0
v -33 -14 0
v -32 -15 0
v -33 -15 0
v -33 -14 0
v -32 -14 0
v -31 -15 0
v -32 -15 0
v -32 -14 0
v -31 -14 0
v -30 -15 0
v -31 -15 0
v -31 -14 0
v -30 -14 0
v -29 -15 0
v -30 -15 0
v -30 -14 0
v -29 -14 0
v -28 -15 0
v -29 -15 0
v -29 -14 0
v -28 -14 0
v -27 -15 0
v -28 -15 0
v -28 -14 0
v -27 -14 0
v -38 -14 0
v -39 -14 0
v -39 -13 0
v -38 -13 0
v -37 -14 0
v -38 -14 0
v -38 -13 0
v -37 -13 0
v -36 -14 0
v -37 -14 0
v -37 -13 0
v -36 -13 0
v -35 -14 0
v -36 -14 0
v -36 -13 0
v -35 -13 0
v -34 -14 0
v -35 -14 0
v -35 -13 0
v -34 -13 0
v -33 -14 0
v -34 -14 0
v -34 -13 0
v -33 -13 0
v -32 -14 0
v -33 -14 0
v -33 -13 0
v -32 -13 0
v -31 -14 0
v -32 -14 0
v -32 -13 0
v -31 -13 0
v -30 -14 0
v -31 -14 0
v -31 -13 0
v -30 -13 0
v -29 -14 0
v -30 -14 0
v -30 -13 0
v -29 -13 0
v -28 -14 0
v -29 -14 0
v -29 -13 0
v -28 -13 0
v -27 -14 0
v -28 -14 0
v -28 -13 0
v -27 -13 0
v -38 -13 0
v -39 -13 0
v -39 -12 0
v -38 -12 0
v -37 -13 0
v -38 -13 0
v -38 -12 0
v -37 -12 0
v -36 -13 0
v -37 -13 0
v -37 -12 0
v -36 -12 0
v -35 -13 0
v -36 -13 0
v -36 -12 0
v -35 -12 0
v -34 -13 0
v -35 -13 0
v -35 -12 0
v -34 -12 0
v -33 -13 0
v -34 -13 0
v -34 -12 0
v -33 -12 0
v -32 -13 0
v -33 -13 0
v -33 -12 0
v -32 -12 0
v -31 -13 0
v -32 -13 0
v -32 -12 0
v -31 -12 0
v -30 -13 0
v -31 -13 0
v -31 -12 0
v -30 -12 0
v -29 -13 0
v -30 -13 0
v -30 -12 0
v -29 -12 0
v -28 -13 0
v -29 -13 0
v -29 -12 0
v -28 -12 0
v -27 -13 0
v -28 -13 0
v -28 -12 0
v -27 -12 0
v -38 -12 0
v -39 -12 0
v -39 -11 0
v -38 -11 0
v -37 -12 0
v -38 -12 0
v -38 -11 0
v -37 -11 0
v -36 -12 0
v -37 -12 0
v -37 -11 0
v -36 -11 0
v -35 -12 0
v -36 -12 0
v -36 -11 0
v -35 -11 0
v -34 -12 0
v -35 -12 0
v -35 -11 0
v -34 -11 0
v -33 -12 0
v -34 -12 0
v -34 -11 0
v -33 -11 0
v -32 -12 0
v -33 -12 0
v -33 -11 0
v -32 -11 0
v -31 -12 0
v -32 -12 0
v -32 -11 0
v -31 -11 0
v -30 -12 0
v -31 -12 0
v -31 -11 0
v -30 -11 0
v -29 -12 0
v -30 -12 0
v -30 -11 0
v -29 -11 0
v -28 -12 0
v -29 -12 0
v -29 -11 0
v -28 -11 0
v -27 -12 0
v -28 -12 0
v -28 -11 0
v -27 -11 0
v -38 -11 0
v -39 -11 0
v -39 -10 0
v -38 -10 0
v -37 -11 0
v -38 -11 0
v -38 -10 0
v -37 -10 0
v -36 -11 0
v -37 -11 0
v -37 -10 0
v -36 -10 0
v -35 -11 0
v -36 -11 0
v -36 -10 0
v -35 -10 0
v -34 -11 0
v -35 -11 0
v -35 -10 0
v -34 -10 0
v -33 -11 0
v -34 -11 0
v -34 -10 0
v -33 -10 0
v -32 -11 0
v -33 -11 0
v -33 -10 0
v -32 -10 0
v -31 -11 0
v -32 -11 0
v -32 -10 0
v -31 -10 0
v -30 -11 0
v -31 -11 0
v -31 -10 0
v -30 -10 0
v -29 -11 0
v -30 -11 0
v -30 -10 0
v -29 -10 0
v -28 -11 0
v -29 -11 0
v -29 -10 0
v -28 -10 0
v -27 -11 0
v -28 -11 0
v -28 -10 0
v -27 -10 0
v -38 -10 0
v -39 -10 0
v -39 -9 0
v -38 -9 0
v -37 -10 0
v -38 -10 0
v -38 -9 0
v -37 -9 0
v -36 -10 0
v -37 -10 0
v -37 -9 0
v -36 -9 0
v -35 -10 0
v -36 -10 0
v -36 -9 0
v -35 -9 0
v -34 -10 0
v -35 -10 0
v -35 -9 0
v -34 -9 0
v -33 -10 0
v -34 -10 0
v -34 -9 0
v -33 -9 0
v -32 -10 0
v -33 -10 0
v -33 -9 0
v -32 -9 0
v -31 -10 0
v -32 -10 0
v -32 -9 0
v -31 -9 0
v -30 -10 0
v -31 -10 0
v -31 -9 0
v -30 -9 0
v -29 -10 0
v -30 -10 0
v -30 -9 0
v -29 -9 0
v -28 -10 0
v -29 -10 0
v -29 -9 0
v -28 -9 0
v -27 -10 0
v -28 -10 0
v -28 -9 0
v -27 -9 0
v -38 -9 0
v -39 -9 0
v -39 -8 0
v -38 -8 0
v -37 -9 0
v -38 -9 0
v -38 -8 0
v -37 -8 0
v -36 -9 0
v -37 -9 0
v -37 -8 0
v -36 -8 0
v -35 -9 0
v -36 -9 0
v -36 -8 0
v -35 -8 0
v -34 -9 0
v -35 -9 0
v -35 -8 0
v -34 -8 0
v -33 -9 0
v -34 -9 0
v -34 -8 0
v -33 -8 0
v -32 -9 0
v -33 -9 0
v -33 -8 0
v -32 -8 0
v -31 -9 0
v -32 -9 0
v -32 -8 0
v -31 -8 0
v -30 -9 0
v -31 -9 0
v -31 -8 0
v -30 -8 0
v -29 -9 0
v -30 -9 0
v -30 -8 0
v -29 -8 0
v -28 -9 0
v -29 -9 0
v -29 -8 0
v -28 -8 0
v -27 -9 0
v -28 -9 0
v -28 -8 0
v -27 -8 0

# Texture cooridinates (Count = 208)
vt 0.8918919 0.1621622
vt 0.9189189 0.1621622
vt 0.9189189 0.1891892
vt 0.8918919 0.1891892
vt 0.8648649 0.1621622
vt 0.8648649 0.1891892
vt 0.8378378 0.1621622
vt 0.8378378 0.1891892
vt 0.8108108 0.1621622
vt 0.8108108 0.1891892
vt 0.7837838 0.1621622
vt 0.7837838 0.1891892
vt 0.7567568 0.1621622
vt 0.7567568 0.1891892
vt 0.7297297 0.1621622
vt 0.7297297 0.1891892
vt 0.7027027 0.1621622
vt 0.7027027 0.1891892
vt 0.6756757 0.1621622
vt 0.6756757 0.1891892
vt 0.6486486 0.1621622
vt 0.6486486 0.1891892
vt 0.6216216 0.1621622
vt 0.6216216 0.1891892
vt 0.5945946 0.1621622
vt 0.5945946 0.1891892
vt 0.9189189 0.2162162
vt 0.8918919 0.2162162
vt 0.8648649 0.2162162
vt 0.8378378 0.2162162
vt 0.8108108 0.2162162
vt 0.7837838 0.2162162
vt 0.7567568 0.2162162
vt 0.7297297 0.2162162
vt 0.7027027 0.2162162
vt 0.6756757 0.2162162
vt 0.6486486 0.2162162
vt 0.6216216 0.2162162
vt 0.5945946 0.2162162
vt 0.9189189 0.2432432
vt 0.8918919 0.2432432
vt 0.8648649 0.2432432
vt 0.8378378 0.2432432
vt 0.8108108 0.2432432
vt 0.7837838 0.2432432
vt 0.7567568 0.2432432
vt 0.7297297 0.2432432
vt 0.7027027 0.2432432
vt 0.6756757 0.2432432
vt 0.6486486 0.2432432
vt 0.6216216 0.2432432
vt 0.5945946 0.2432432
vt 0.9189189 0.2702703
vt 0.8918919 0.2702703
vt 0.8648649 0.2702703
vt 0.8378378 0.2702703
vt 0.8108108 0.2702703
vt 0.7837838 0.2702703
vt 0.7567568 0.2702703
vt 0.7297297 0.2702703
vt 0.7027027 0.2702703
vt 0.6756757 0.2702703
vt 0.6486486 0.2702703
vt 0.6216216 0.2702703
vt 0.5945946 0.2702703
vt 0.9189189 0.2972973
vt 0.8918919 0.2972973
vt 0.8648649 0.2972973
vt 0.8378378 0.2972973
vt 0.8108108 0.2972973
vt 0.7837838 0.2972973
vt 0.7567568 0.2972973
vt 0.7297297 0.2972973
vt 0.7027027 0.2972973
vt 0.6756757 0.2972973
vt 0.6486486 0.2972973
vt 0.6216216 0.2972973
vt 0.5945946 0.2972973
vt 0.9189189 0.3243243
vt 0.8918919 0.3243243
vt 0.8648649 0.3243243
vt 0.8378378 0.3243243
vt 0.8108108 0.3243243
vt 0.7837838 0.3243243
vt 0.7567568 0.3243243
vt 0.7297297 0.3243243
vt 0.7027027 0.3243243
vt 0.6756757 0.3243243
vt 0.6486486 0.3243243
vt 0.6216216 0.3243243
vt 0.5945946 0.3243243
vt 0.9189189 0.3513514
vt 0.8918919 0.3513514
vt 0.8648649 0.3513514
vt 0.8378378 0.3513514
vt 0.8108108 0.3513514
vt 0.7837838 0.3513514
vt 0.7567568 0.3513514
vt 0.7297297 0.3513514
vt 0.7027027 0.3513514
vt 0.6756757 0.3513514
vt 0.6486486 0.3513514
vt 0.6216216 0.3513514
vt 0.5945946 0.3513514
vt 0.9189189 0.3783784
vt 0.8918919 0.3783784
vt 0.8648649 0.3783784
vt 0.8378378 0.3783784
vt 0.8108108 0.3783784
vt 0.7837838 0.3783784
vt 0.7567568 0.3783784
vt 0.7297297 0.3783784
vt 0.7027027 0.3783784
vt 0.6756757 0.3783784
vt 0.6486486 0.3783784
vt 0.6216216 0.3783784
vt 0.5945946 0.3783784
vt 0.9189189 0.4054054
vt 0.8918919 0.4054054
vt 0.8648649 0.4054054
vt 0.8378378 0.4054054
vt 0.8108108 0.4054054
vt 0.7837838 0.4054054
vt 0.7567568 0.4054054
vt 0.7297297 0.4054054
vt 0.7027027 0.4054054
vt 0.6756757 0.4054054
vt 0.6486486 0.4054054
vt 0.6216216 0.4054054
vt 0.5945946 0.4054054
vt 0.9189189 0.4324324
vt 0.8918919 0.4324324
vt 0.8648649 0.4324324
vt 0.8378378 0.4324324
vt 0.8108108 0.4324324
vt 0.7837838 0.4324324
vt 0.7567568 0.4324324
vt 0.7297297 0.4324324
vt 0.7027027 0.4324324
vt 0.6756757 0.4324324
vt 0.6486486 0.4324324
vt 0.6216216 0.4324324
vt 0.5945946 0.4324324
vt 0.9189189 0.4594595
vt 0.8918919 0.4594595
vt 0.8648649 0.4594595
vt 0.8378378 0.4594595
vt 0.8108108 0.4594595
vt 0.7837838 0.4594595
vt 0.7567568 0.4594595
vt 0.7297297 0.4594595
vt 0.7027027 0.4594595
vt 0.6756757 0.4594595
vt 0.6486486 0.4594595
vt 0.6216216 0.4594595
vt 0.5945946 0.4594595
vt 0.9189189 0.4864865
vt 0.8918919 0.4864865
vt 0.8648649 0.4864865
vt 0.8378378 0.4864865
vt 0.8108108 0.4864865
vt 0.7837838 0.4864865
vt 0.7567568 0.4864865
vt 0.7297297 0.4864865
vt 0.7027027 0.4864865
vt 0.6756757 0.4864865
vt 0.6486486 0.4864865
vt 0.6216216 0.4864865
vt 0.5945946 0.4864865
vt 0.9189189 0.5135135
vt 0.8918919 0.5135135
vt 0.8648649 0.5135135
vt 0.8378378 0.5135135
vt 0.8108108 0.5135135
vt 0.7837838 0.5135135
vt 0.7567568 0.5135135
vt 0.7297297 0.5135135
vt 0.7027027 0.5135135
vt 0.6756757 0.5135135
vt 0.6486486 0.5135135
vt 0.6216216 0.5135135
vt 0.5945946 0.5135135
vt 0.9189189 0.5405406
vt 0.8918919 0.5405406
vt 0.8648649 0.5405406
vt 0.8378378 0.5405406
vt 0.8108108 0.5405406
vt 0.7837838 0.5405406
vt 0.7567568 0.5405406
vt 0.7297297 0.5405406
vt 0.7027027 0.5405406
vt 0.6756757 0.5405406
vt 0.6486486 0.5405406
vt 0.6216216 0.5405406
vt 0.5945946 0.5405406
vt 0.9189189 0.5675676
vt 0.8918919 0.5675676
vt 0.8648649 0.5675676
vt 0.8378378 0.5675676
vt 0.8108108 0.5675676
vt 0.7837838 0.5675676
vt 0.7567568 0.5675676
vt 0.7297297 0.5675676
vt 0.7027027 0.5675676
vt 0.6756757 0.5675676
vt 0.6486486 0.5675676
vt 0.6216216 0.5675676
vt 0.5945946 0.5675676

# Normal
vn 0 0 -1

# Mesh description
g Nivel2_mesh_0042

# Faces
f 1/1/1 2/2/1 3/3/1 4/4/1
f 5/5/1 6/1/1 7/4/1 8/6/1
f 9/7/1 10/5/1 11/6/1 12/8/1
f 13/9/1 14/7/1 15/8/1 16/10/1
f 17/11/1 18/9/1 19/10/1 20/12/1
f 21/13/1 22/11/1 23/12/1 24/14/1
f 25/15/1 26/13/1 27/14/1 28/16/1
f 29/17/1 30/15/1 31/16/1 32/18/1
f 33/19/1 34/17/1 35/18/1 36/20/1
f 37/21/1 38/19/1 39/20/1 40/22/1
f 41/23/1 42/21/1 43/22/1 44/24/1
f 45/25/1 46/23/1 47/24/1 48/26/1
f 49/4/1 50/3/1 51/27/1 52/28/1
f 53/6/1 54/4/1 55/28/1 56/29/1
f 57/8/1 58/6/1 59/29/1 60/30/1
f 61/10/1 62/8/1 63/30/1 64/31/1
f 65/12/1 66/10/1 67/31/1 68/32/1
f 69/14/1 70/12/1 71/32/1 72/33/1
f 73/16/1 74/14/1 75/33/1 76/34/1
f 77/18/1 78/16/1 79/34/1 80/35/1
f 81/20/1 82/18/1 83/35/1 84/36/1
f 85/22/1 86/20/1 87/36/1 88/37/1
f 89/24/1 90/22/1 91/37/1 92/38/1
f 93/26/1 94/24/1 95/38/1 96/39/1
f 97/28/1 98/27/1 99/40/1 100/41/1
f 101/29/1 102/28/1 103/41/1 104/42/1
f 105/30/1 106/29/1 107/42/1 108/43/1
f 109/31/1 110/30/1 111/43/1 112/44/1
f 113/32/1 114/31/1 115/44/1 116/45/1
f 117/33/1 118/32/1 119/45/1 120/46/1
f 121/34/1 122/33/1 123/46/1 124/47/1
f 125/35/1 126/34/1 127/47/1 128/48/1
f 129/36/1 130/35/1 131/48/1 132/49/1
f 133/37/1 134/36/1 135/49/1 136/50/1
f 137/38/1 138/37/1 139/50/1 140/51/1
f 141/39/1 142/38/1 143/51/1 144/52/1
f 145/41/1 146/40/1 147/53/1 148/54/1
f 149/42/1 150/41/1 151/54/1 152/55/1
f 153/43/1 154/42/1 155/55/1 156/56/1
f 157/44/1 158/43/1 159/56/1 160/57/1
f 161/45/1 162/44/1 163/57/1 164/58/1
f 165/46/1 166/45/1 167/58/1 168/59/1
f 169/47/1 170/46/1 171/59/1 172/60/1
f 173/48/1 174/47/1 175/60/1 176/61/1
f 177/49/1 178/48/1 179/61/1 180/62/1
f 181/50/1 182/49/1 183/62/1 184/63/1
f 185/51/1 186/50/1 187/63/1 188/64/1
f 189/52/1 190/51/1 191/64/1 192/65/1
f 193/54/1 194/53/1 195/66/1 196/67/1
f 197/55/1 198/54/1 199/67/1 200/68/1
f 201/56/1 202/55/1 203/68/1 204/69/1
f 205/57/1 206/56/1 207/69/1 208/70/1
f 209/58/1 210/57/1 211/70/1 212/71/1
f 213/59/1 214/58/1 215/71/1 216/72/1
f 217/60/1 218/59/1 219/72/1 220/73/1
f 221/61/1 222/60/1 223/73/1 224/74/1
f 225/62/1 226/61/1 227/74/1 228/75/1
f 229/63/1 230/62/1 231/75/1 232/76/1
f 233/64/1 234/63/1 235/76/1 236/77/1
f 237/65/1 238/64/1 239/77/1 240/78/1
f 241/67/1 242/66/1 243/79/1 244/80/1
f 245/68/1 246/67/1 247/80/1 248/81/1
f 249/69/1 250/68/1 251/81/1 252/82/1
f 253/70/1 254/69/1 255/82/1 256/83/1
f 257/71/1 258/70/1 259/83/1 260/84/1
f 261/72/1 262/71/1 263/84/1 264/85/1
f 265/73/1 266/72/1 267/85/1 268/86/1
f 269/74/1 270/73/1 271/86/1 272/87/1
f 273/75/1 274/74/1 275/87/1 276/88/1
f 277/76/1 278/75/1 279/88/1 280/89/1
f 281/77/1 282/76/1 283/89/1 284/90/1
f 285/78/1 286/77/1 287/90/1 288/91/1
f 289/80/1 290/79/1 291/92/1 292/93/1
f 293/81/1 294/80/1 295/93/1 296/94/1
f 297/82/1 298/81/1 299/94/1 300/95/1
f 301/83/1 302/82/1 303/95/1 304/96/1
f 305/84/1 306/83/1 307/96/1 308/97/1
f 309/85/1 310/84/1 311/97/1 312/98/1
f 313/86/1 314/85/1 315/98/1 316/99/1
f 317/87/1 318/86/1 319/99/1 320/100/1
f 321/88/1 322/87/1 323/100/1 324/101/1
f 325/89/1 326/88/1 327/101/1 328/102/1
f 329/90/1 330/89/1 331/102/1 332/103/1
f 333/91/1 334/90/1 335/103/1 336/104/1
f 337/93/1 338/92/1 339/105/1 340/106/1
f 341/94/1 342/93/1 343/106/1 344/107/1
f 345/95/1 346/94/1 347/107/1 348/108/1
f 349/96/1 350/95/1 351/108/1 352/109/1
f 353/97/1 354/96/1 355/109/1 356/110/1
f 357/98/1 358/97/1 359/110/1 360/111/1
f 361/99/1 362/98/1 363/111/1 364/112/1
f 365/100/1 366/99/1 367/112/1 368/113/1
f 369/101/1 370/100/1 371/113/1 372/114/1
f 373/102/1 374/101/1 375/114/1 376/115/1
f 377/103/1 378/102/1 379/115/1 380/116/1
f 381/104/1 382/103/1 383/116/1 384/117/1
f 385/106/1 386/105/1 387/118/1 388/119/1
f 389/107/1 390/106/1 391/119/1 392/120/1
f 393/108/1 394/107/1 395/120/1 396/121/1
f 397/109/1 398/108/1 399/121/1 400/122/1
f 401/110/1 402/109/1 403/122/1 404/123/1
f 405/111/1 406/110/1 407/123/1 408/124/1
f 409/112/1 410/111/1 411/124/1 412/125/1
f 413/113/1 414/112/1 415/125/1 416/126/1
f 417/114/1 418/113/1 419/126/1 420/127/1
f 421/115/1 422/114/1 423/127/1 424/128/1
f 425/116/1 426/115/1 427/128/1 428/129/1
f 429/117/1 430/116/1 431/129/1 432/130/1
f 433/119/1 434/118/1 435/131/1 436/132/1
f 437/120/1 438/119/1 439/132/1 440/133/1
f 441/121/1 442/120/1 443/133/1 444/134/1
f 445/122/1 446/121/1 447/134/1 448/135/1
f 449/123/1 450/122/1 451/135/1 452/136/1
f 453/124/1 454/123/1 455/136/1 456/137/1
f 457/125/1 458/124/1 459/137/1 460/138/1
f 461/126/1 462/125/1 463/138/1 464/139/1
f 465/127/1 466/126/1 467/139/1 468/140/1
f 469/128/1 470/127/1 471/140/1 472/141/1
f 473/129/1 474/128/1 475/141/1 476/142/1
f 477/130/1 478/129/1 479/142/1 480/143/1
f 481/132/1 482/131/1 483/144/1 484/145/1
f 485/133/1 486/132/1 487/145/1 488/146/1
f 489/134/1 490/133/1 491/146/1 492/147/1
f 493/135/1 494/134/1 495/147/1 496/148/1
f 497/136/1 498/135/1 499/148/1 500/149/1
f 501/137/1 502/136/1 503/149/1 504/150/1
f 505/138/1 506/137/1 507/150/1 508/151/1
f 509/139/1 510/138/1 511/151/1 512/152/1
f 513/140/1 514/139/1 515/152/1 516/153/1
f 517/141/1 518/140/1 519/153/1 520/154/1
f 521/142/1 522/141/1 523/154/1 524/155/1
f 525/143/1 526/142/1 527/155/1 528/156/1
f 529/145/1 530/144/1 531/157/1 532/158/1
f 533/146/1 534/145/1 535/158/1 536/159/1
f 537/147/1 538/146/1 539/159/1 540/160/1
f 541/148/1 542/147/1 543/160/1 544/161/1
f 545/149/1 546/148/1 547/161/1 548/162/1
f 549/150/1 550/149/1 551/162/1 552/163/1
f 553/151/1 554/150/1 555/163/1 556/164/1
f 557/152/1 558/151/1 559/164/1 560/165/1
f 561/153/1 562/152/1 563/165/1 564/166/1
f 565/154/1 566/153/1 567/166/1 568/167/1
f 569/155/1 570/154/1 571/167/1 572/168/1
f 573/156/1 574/155/1 575/168/1 576/169/1
f 577/158/1 578/157/1 579/170/1 580/171/1
f 581/159/1 582/158/1 583/171/1 584/172/1
f 585/160/1 586/159/1 587/172/1 588/173/1
f 589/161/1 590/160/1 591/173/1 592/174/1
f 593/162/1 594/161/1 595/174/1 596/175/1
f 597/163/1 598/162/1 599/175/1 600/176/1
f 601/164/1 602/163/1 603/176/1 604/177/1
f 605/165/1 606/164/1 607/177/1 608/178/1
f 609/166/1 610/165/1 611/178/1 612/179/1
f 613/167/1 614/166/1 615/179/1 616/180/1
f 617/168/1 618/167/1 619/180/1 620/181/1
f 621/169/1 622/168/1 623/181/1 624/182/1
f 625/171/1 626/170/1 627/183/1 628/184/1
f 629/172/1 630/171/1 631/184/1 632/185/1
f 633/173/1 634/172/1 635/185/1 636/186/1
f 637/174/1 638/173/1 639/186/1 640/187/1
f 641/175/1 642/174/1 643/187/1 644/188/1
f 645/176/1 646/175/1 647/188/1 648/189/1
f 649/177/1 650/176/1 651/189/1 652/190/1
f 653/178/1 654/177/1 655/190/1 656/191/1
f 657/179/1 658/178/1 659/191/1 660/192/1
f 661/180/1 662/179/1 663/192/1 664/193/1
f 665/181/1 666/180/1 667/193/1 668/194/1
f 669/182/1 670/181/1 671/194/1 672/195/1
f 673/184/1 674/183/1 675/196/1 676/197/1
f 677/185/1 678/184/1 679/197/1 680/198/1
f 681/186/1 682/185/1 683/198/1 684/199/1
f 685/187/1 686/186/1 687/199/1 688/200/1
f 689/188/1 690/187/1 691/200/1 692/201/1
f 693/189/1 694/188/1 695/201/1 696/202/1
f 697/190/1 698/189/1 699/202/1 700/203/1
f 701/191/1 702/190/1 703/203/1 704/204/1
f 705/192/1 706/191/1 707/204/1 708/205/1
f 709/193/1 710/192/1 711/205/1 712/206/1
f 713/194/1 714/193/1 715/206/1 716/207/1
f 717/195/1 718/194/1 719/207/1 720/208/1

