# Tiled2Unity generated file. Do not modify by hand.
# Wavefront file for 'Nivel2_mesh_0049.obj'

# Vertices (Count = 188)
v -27 -74 0
v -28 -74 0
v -28 -73 0
v -27 -73 0
v -26 -74 0
v -27 -74 0
v -27 -73 0
v -26 -73 0
v -25 -74 0
v -26 -74 0
v -26 -73 0
v -25 -73 0
v -24 -74 0
v -25 -74 0
v -25 -73 0
v -24 -73 0
v -23 -74 0
v -24 -74 0
v -24 -73 0
v -23 -73 0
v -27 -73 0
v -28 -73 0
v -28 -72 0
v -27 -72 0
v -26 -73 0
v -27 -73 0
v -27 -72 0
v -26 -72 0
v -25 -73 0
v -26 -73 0
v -26 -72 0
v -25 -72 0
v -24 -73 0
v -25 -73 0
v -25 -72 0
v -24 -72 0
v -23 -73 0
v -24 -73 0
v -24 -72 0
v -23 -72 0
v -27 -72 0
v -28 -72 0
v -28 -71 0
v -27 -71 0
v -26 -72 0
v -27 -72 0
v -27 -71 0
v -26 -71 0
v -25 -72 0
v -26 -72 0
v -26 -71 0
v -25 -71 0
v -24 -72 0
v -25 -72 0
v -25 -71 0
v -24 -71 0
v -23 -72 0
v -24 -72 0
v -24 -71 0
v -23 -71 0
v -27 -71 0
v -28 -71 0
v -28 -70 0
v -27 -70 0
v -26 -71 0
v -27 -71 0
v -27 -70 0
v -26 -70 0
v -25 -71 0
v -26 -71 0
v -26 -70 0
v -25 -70 0
v -24 -71 0
v -25 -71 0
v -25 -70 0
v -24 -70 0
v -23 -71 0
v -24 -71 0
v -24 -70 0
v -23 -70 0
v -27 -70 0
v -28 -70 0
v -28 -69 0
v -27 -69 0
v -26 -70 0
v -27 -70 0
v -27 -69 0
v -26 -69 0
v -25 -70 0
v -26 -70 0
v -26 -69 0
v -25 -69 0
v -24 -70 0
v -25 -70 0
v -25 -69 0
v -24 -69 0
v -23 -70 0
v -24 -70 0
v -24 -69 0
v -23 -69 0
v -27 -69 0
v -28 -69 0
v -28 -68 0
v -27 -68 0
v -26 -69 0
v -27 -69 0
v -27 -68 0
v -26 -68 0
v -25 -69 0
v -26 -69 0
v -26 -68 0
v -25 -68 0
v -27 -67 0
v -28 -67 0
v -28 -66 0
v -27 -66 0
v -26 -67 0
v -27 -67 0
v -27 -66 0
v -26 -66 0
v -25 -67 0
v -26 -67 0
v -26 -66 0
v -25 -66 0
v -27 -66 0
v -28 -66 0
v -28 -65 0
v -27 -65 0
v -26 -66 0
v -27 -66 0
v -27 -65 0
v -26 -65 0
v -25 -66 0
v -26 -66 0
v -26 -65 0
v -25 -65 0
v -27 -65 0
v -28 -65 0
v -28 -64 0
v -27 -64 0
v -26 -65 0
v -27 -65 0
v -27 -64 0
v -26 -64 0
v -25 -65 0
v -26 -65 0
v -26 -64 0
v -25 -64 0
v -27 -64 0
v -28 -64 0
v -28 -63 0
v -27 -63 0
v -26 -64 0
v -27 -64 0
v -27 -63 0
v -26 -63 0
v -25 -64 0
v -26 -64 0
v -26 -63 0
v -25 -63 0
v -24 -64 0
v -25 -64 0
v -25 -63 0
v -24 -63 0
v -23 -64 0
v -24 -64 0
v -24 -63 0
v -23 -63 0
v -27 -63 0
v -28 -63 0
v -28 -62 0
v -27 -62 0
v -26 -63 0
v -27 -63 0
v -27 -62 0
v -26 -62 0
v -25 -63 0
v -26 -63 0
v -26 -62 0
v -25 -62 0
v -24 -63 0
v -25 -63 0
v -25 -62 0
v -24 -62 0
v -23 -63 0
v -24 -63 0
v -24 -62 0
v -23 -62 0

# Texture cooridinates (Count = 30)
vt 0.1 0.9
vt 0.11 0.9
vt 0.11 0.91
vt 0.1 0.91
vt 0.09 0.9
vt 0.09 0.91
vt 0.08 0.9
vt 0.08 0.91
vt 0.07 0.9
vt 0.07 0.91
vt 0.06 0.9
vt 0.06 0.91
vt 0.11 0.92
vt 0.1 0.92
vt 0.09 0.92
vt 0.08 0.92
vt 0.07 0.92
vt 0.06 0.92
vt 0.11 0.93
vt 0.1 0.93
vt 0.09 0.93
vt 0.08 0.93
vt 0.07 0.93
vt 0.06 0.93
vt 0.11 0.94
vt 0.1 0.94
vt 0.09 0.94
vt 0.08 0.94
vt 0.07 0.94
vt 0.06 0.94

# Normal
vn 0 0 -1

# Mesh description
g Nivel2_mesh_0049

# Faces
f 1/1/1 2/2/1 3/3/1 4/4/1
f 5/5/1 6/1/1 7/4/1 8/6/1
f 9/7/1 10/5/1 11/6/1 12/8/1
f 13/9/1 14/7/1 15/8/1 16/10/1
f 17/11/1 18/9/1 19/10/1 20/12/1
f 21/1/1 22/2/1 23/3/1 24/4/1
f 25/5/1 26/1/1 27/4/1 28/6/1
f 29/7/1 30/5/1 31/6/1 32/8/1
f 33/9/1 34/7/1 35/8/1 36/10/1
f 37/11/1 38/9/1 39/10/1 40/12/1
f 41/1/1 42/2/1 43/3/1 44/4/1
f 45/5/1 46/1/1 47/4/1 48/6/1
f 49/7/1 50/5/1 51/6/1 52/8/1
f 53/9/1 54/7/1 55/8/1 56/10/1
f 57/11/1 58/9/1 59/10/1 60/12/1
f 61/4/1 62/3/1 63/13/1 64/14/1
f 65/6/1 66/4/1 67/14/1 68/15/1
f 69/8/1 70/6/1 71/15/1 72/16/1
f 73/10/1 74/8/1 75/16/1 76/17/1
f 77/12/1 78/10/1 79/17/1 80/18/1
f 81/14/1 82/13/1 83/19/1 84/20/1
f 85/15/1 86/14/1 87/20/1 88/21/1
f 89/16/1 90/15/1 91/21/1 92/22/1
f 93/17/1 94/16/1 95/22/1 96/23/1
f 97/18/1 98/17/1 99/23/1 100/24/1
f 101/20/1 102/19/1 103/25/1 104/26/1
f 105/21/1 106/20/1 107/26/1 108/27/1
f 109/22/1 110/21/1 111/27/1 112/28/1
f 113/1/1 114/2/1 115/3/1 116/4/1
f 117/5/1 118/1/1 119/4/1 120/6/1
f 121/7/1 122/5/1 123/6/1 124/8/1
f 125/1/1 126/2/1 127/3/1 128/4/1
f 129/5/1 130/1/1 131/4/1 132/6/1
f 133/7/1 134/5/1 135/6/1 136/8/1
f 137/4/1 138/3/1 139/13/1 140/14/1
f 141/6/1 142/4/1 143/14/1 144/15/1
f 145/8/1 146/6/1 147/15/1 148/16/1
f 149/14/1 150/13/1 151/19/1 152/20/1
f 153/15/1 154/14/1 155/20/1 156/21/1
f 157/16/1 158/15/1 159/21/1 160/22/1
f 161/17/1 162/16/1 163/22/1 164/23/1
f 165/18/1 166/17/1 167/23/1 168/24/1
f 169/20/1 170/19/1 171/25/1 172/26/1
f 173/21/1 174/20/1 175/26/1 176/27/1
f 177/22/1 178/21/1 179/27/1 180/28/1
f 181/23/1 182/22/1 183/28/1 184/29/1
f 185/24/1 186/23/1 187/29/1 188/30/1

