# Tiled2Unity generated file. Do not modify by hand.
# Wavefront file for 'Nivel2_mesh_0058.obj'

# Vertices (Count = 544)
v -49 -144 0
v -50 -144 0
v -50 -143 0
v -49 -143 0
v -48 -144 0
v -49 -144 0
v -49 -143 0
v -48 -143 0
v -47 -144 0
v -48 -144 0
v -48 -143 0
v -47 -143 0
v -46 -144 0
v -47 -144 0
v -47 -143 0
v -46 -143 0
v -45 -144 0
v -46 -144 0
v -46 -143 0
v -45 -143 0
v -44 -144 0
v -45 -144 0
v -45 -143 0
v -44 -143 0
v -39 -144 0
v -40 -144 0
v -40 -143 0
v -39 -143 0
v -38 -144 0
v -39 -144 0
v -39 -143 0
v -38 -143 0
v -37 -144 0
v -38 -144 0
v -38 -143 0
v -37 -143 0
v -36 -144 0
v -37 -144 0
v -37 -143 0
v -36 -143 0
v -35 -144 0
v -36 -144 0
v -36 -143 0
v -35 -143 0
v -34 -144 0
v -35 -144 0
v -35 -143 0
v -34 -143 0
v -33 -144 0
v -34 -144 0
v -34 -143 0
v -33 -143 0
v -32 -144 0
v -33 -144 0
v -33 -143 0
v -32 -143 0
v -31 -144 0
v -32 -144 0
v -32 -143 0
v -31 -143 0
v -30 -144 0
v -31 -144 0
v -31 -143 0
v -30 -143 0
v -29 -144 0
v -30 -144 0
v -30 -143 0
v -29 -143 0
v -28 -144 0
v -29 -144 0
v -29 -143 0
v -28 -143 0
v -27 -144 0
v -28 -144 0
v -28 -143 0
v -27 -143 0
v -26 -144 0
v -27 -144 0
v -27 -143 0
v -26 -143 0
v -25 -144 0
v -26 -144 0
v -26 -143 0
v -25 -143 0
v -24 -144 0
v -25 -144 0
v -25 -143 0
v -24 -143 0
v -23 -144 0
v -24 -144 0
v -24 -143 0
v -23 -143 0
v -22 -144 0
v -23 -144 0
v -23 -143 0
v -22 -143 0
v -21 -144 0
v -22 -144 0
v -22 -143 0
v -21 -143 0
v -20 -144 0
v -21 -144 0
v -21 -143 0
v -20 -143 0
v -19 -144 0
v -20 -144 0
v -20 -143 0
v -19 -143 0
v -18 -144 0
v -19 -144 0
v -19 -143 0
v -18 -143 0
v -17 -144 0
v -18 -144 0
v -18 -143 0
v -17 -143 0
v -16 -144 0
v -17 -144 0
v -17 -143 0
v -16 -143 0
v -15 -144 0
v -16 -144 0
v -16 -143 0
v -15 -143 0
v -14 -144 0
v -15 -144 0
v -15 -143 0
v -14 -143 0
v -13 -144 0
v -14 -144 0
v -14 -143 0
v -13 -143 0
v -12 -144 0
v -13 -144 0
v -13 -143 0
v -12 -143 0
v -11 -144 0
v -12 -144 0
v -12 -143 0
v -11 -143 0
v -10 -144 0
v -11 -144 0
v -11 -143 0
v -10 -143 0
v -9 -144 0
v -10 -144 0
v -10 -143 0
v -9 -143 0
v -8 -144 0
v -9 -144 0
v -9 -143 0
v -8 -143 0
v -7 -144 0
v -8 -144 0
v -8 -143 0
v -7 -143 0
v -6 -144 0
v -7 -144 0
v -7 -143 0
v -6 -143 0
v -5 -144 0
v -6 -144 0
v -6 -143 0
v -5 -143 0
v -4 -144 0
v -5 -144 0
v -5 -143 0
v -4 -143 0
v -3 -144 0
v -4 -144 0
v -4 -143 0
v -3 -143 0
v -2 -144 0
v -3 -144 0
v -3 -143 0
v -2 -143 0
v -1 -144 0
v -2 -144 0
v -2 -143 0
v -1 -143 0
v 0 -144 0
v -1 -144 0
v -1 -143 0
v 0 -143 0
v -49 -143 0
v -50 -143 0
v -50 -142 0
v -49 -142 0
v -48 -143 0
v -49 -143 0
v -49 -142 0
v -48 -142 0
v -47 -143 0
v -48 -143 0
v -48 -142 0
v -47 -142 0
v -46 -143 0
v -47 -143 0
v -47 -142 0
v -46 -142 0
v -45 -143 0
v -46 -143 0
v -46 -142 0
v -45 -142 0
v -44 -143 0
v -45 -143 0
v -45 -142 0
v -44 -142 0
v -39 -143 0
v -40 -143 0
v -40 -142 0
v -39 -142 0
v -38 -143 0
v -39 -143 0
v -39 -142 0
v -38 -142 0
v -37 -143 0
v -38 -143 0
v -38 -142 0
v -37 -142 0
v -36 -143 0
v -37 -143 0
v -37 -142 0
v -36 -142 0
v -35 -143 0
v -36 -143 0
v -36 -142 0
v -35 -142 0
v -34 -143 0
v -35 -143 0
v -35 -142 0
v -34 -142 0
v -33 -143 0
v -34 -143 0
v -34 -142 0
v -33 -142 0
v -32 -143 0
v -33 -143 0
v -33 -142 0
v -32 -142 0
v -31 -143 0
v -32 -143 0
v -32 -142 0
v -31 -142 0
v -30 -143 0
v -31 -143 0
v -31 -142 0
v -30 -142 0
v -29 -143 0
v -30 -143 0
v -30 -142 0
v -29 -142 0
v -28 -143 0
v -29 -143 0
v -29 -142 0
v -28 -142 0
v -27 -143 0
v -28 -143 0
v -28 -142 0
v -27 -142 0
v -26 -143 0
v -27 -143 0
v -27 -142 0
v -26 -142 0
v -25 -143 0
v -26 -143 0
v -26 -142 0
v -25 -142 0
v -24 -143 0
v -25 -143 0
v -25 -142 0
v -24 -142 0
v -23 -143 0
v -24 -143 0
v -24 -142 0
v -23 -142 0
v -22 -143 0
v -23 -143 0
v -23 -142 0
v -22 -142 0
v -21 -143 0
v -22 -143 0
v -22 -142 0
v -21 -142 0
v -20 -143 0
v -21 -143 0
v -21 -142 0
v -20 -142 0
v -19 -143 0
v -20 -143 0
v -20 -142 0
v -19 -142 0
v -18 -143 0
v -19 -143 0
v -19 -142 0
v -18 -142 0
v -17 -143 0
v -18 -143 0
v -18 -142 0
v -17 -142 0
v -16 -143 0
v -17 -143 0
v -17 -142 0
v -16 -142 0
v -15 -143 0
v -16 -143 0
v -16 -142 0
v -15 -142 0
v -14 -143 0
v -15 -143 0
v -15 -142 0
v -14 -142 0
v -13 -143 0
v -14 -143 0
v -14 -142 0
v -13 -142 0
v -12 -143 0
v -13 -143 0
v -13 -142 0
v -12 -142 0
v -11 -143 0
v -12 -143 0
v -12 -142 0
v -11 -142 0
v -10 -143 0
v -11 -143 0
v -11 -142 0
v -10 -142 0
v -9 -143 0
v -10 -143 0
v -10 -142 0
v -9 -142 0
v -8 -143 0
v -9 -143 0
v -9 -142 0
v -8 -142 0
v -7 -143 0
v -8 -143 0
v -8 -142 0
v -7 -142 0
v -6 -143 0
v -7 -143 0
v -7 -142 0
v -6 -142 0
v -5 -143 0
v -6 -143 0
v -6 -142 0
v -5 -142 0
v -4 -143 0
v -5 -143 0
v -5 -142 0
v -4 -142 0
v -3 -143 0
v -4 -143 0
v -4 -142 0
v -3 -142 0
v -2 -143 0
v -3 -143 0
v -3 -142 0
v -2 -142 0
v -1 -143 0
v -2 -143 0
v -2 -142 0
v -1 -142 0
v 0 -143 0
v -1 -143 0
v -1 -142 0
v 0 -142 0
v -42 -62 0
v -43 -62 0
v -43 -61 0
v -42 -61 0
v -41 -62 0
v -42 -62 0
v -42 -61 0
v -41 -61 0
v -40 -62 0
v -41 -62 0
v -41 -61 0
v -40 -61 0
v -39 -62 0
v -40 -62 0
v -40 -61 0
v -39 -61 0
v -38 -62 0
v -39 -62 0
v -39 -61 0
v -38 -61 0
v -37 -62 0
v -38 -62 0
v -38 -61 0
v -37 -61 0
v -49 -33 0
v -50 -33 0
v -50 -32 0
v -49 -32 0
v -48 -33 0
v -49 -33 0
v -49 -32 0
v -48 -32 0
v -47 -33 0
v -48 -33 0
v -48 -32 0
v -47 -32 0
v -46 -33 0
v -47 -33 0
v -47 -32 0
v -46 -32 0
v -45 -33 0
v -46 -33 0
v -46 -32 0
v -45 -32 0
v -44 -33 0
v -45 -33 0
v -45 -32 0
v -44 -32 0
v -43 -33 0
v -44 -33 0
v -44 -32 0
v -43 -32 0
v -42 -33 0
v -43 -33 0
v -43 -32 0
v -42 -32 0
v -41 -33 0
v -42 -33 0
v -42 -32 0
v -41 -32 0
v -40 -33 0
v -41 -33 0
v -41 -32 0
v -40 -32 0
v -39 -33 0
v -40 -33 0
v -40 -32 0
v -39 -32 0
v -38 -33 0
v -39 -33 0
v -39 -32 0
v -38 -32 0
v -37 -33 0
v -38 -33 0
v -38 -32 0
v -37 -32 0
v -36 -33 0
v -37 -33 0
v -37 -32 0
v -36 -32 0
v -35 -33 0
v -36 -33 0
v -36 -32 0
v -35 -32 0
v -34 -33 0
v -35 -33 0
v -35 -32 0
v -34 -32 0
v -33 -33 0
v -34 -33 0
v -34 -32 0
v -33 -32 0
v -32 -33 0
v -33 -33 0
v -33 -32 0
v -32 -32 0
v -31 -33 0
v -32 -33 0
v -32 -32 0
v -31 -32 0
v -30 -33 0
v -31 -33 0
v -31 -32 0
v -30 -32 0
v -29 -33 0
v -30 -33 0
v -30 -32 0
v -29 -32 0
v -28 -33 0
v -29 -33 0
v -29 -32 0
v -28 -32 0
v -43 -32 0
v -44 -32 0
v -44 -31 0
v -43 -31 0
v -42 -32 0
v -43 -32 0
v -43 -31 0
v -42 -31 0
v -41 -32 0
v -42 -32 0
v -42 -31 0
v -41 -31 0
v -40 -32 0
v -41 -32 0
v -41 -31 0
v -40 -31 0
v -39 -32 0
v -40 -32 0
v -40 -31 0
v -39 -31 0
v -38 -32 0
v -39 -32 0
v -39 -31 0
v -38 -31 0
v -37 -32 0
v -38 -32 0
v -38 -31 0
v -37 -31 0
v -36 -32 0
v -37 -32 0
v -37 -31 0
v -36 -31 0
v -35 -32 0
v -36 -32 0
v -36 -31 0
v -35 -31 0
v -34 -32 0
v -35 -32 0
v -35 -31 0
v -34 -31 0
v -33 -32 0
v -34 -32 0
v -34 -31 0
v -33 -31 0
v -32 -32 0
v -33 -32 0
v -33 -31 0
v -32 -31 0
v -31 -32 0
v -32 -32 0
v -32 -31 0
v -31 -31 0
v -30 -32 0
v -31 -32 0
v -31 -31 0
v -30 -31 0
v -29 -32 0
v -30 -32 0
v -30 -31 0
v -29 -31 0
v -28 -32 0
v -29 -32 0
v -29 -31 0
v -28 -31 0

# Texture cooridinates (Count = 46)
vt 0.8648649 0
vt 0.8918919 0
vt 0.8918919 0.02702701
vt 0.8648649 0.02702701
vt 0.8378378 0
vt 0.8378378 0.02702701
vt 0.8918919 0.05405408
vt 0.8648649 0.05405408
vt 0.8378378 0.05405408
vt 0.6486486 0.2162162
vt 0.6756757 0.2162162
vt 0.6756757 0.2432432
vt 0.6486486 0.2432432
vt 0.6216216 0.2162162
vt 0.6216216 0.2432432
vt 0.5945946 0.2162162
vt 0.5945946 0.2432432
vt 0.5675676 0.2162162
vt 0.5675676 0.2432432
vt 0.9459459 0.2432432
vt 0.972973 0.2432432
vt 0.972973 0.2702703
vt 0.9459459 0.2702703
vt 0.9189189 0.2432432
vt 0.9189189 0.2702703
vt 0.8918919 0.2432432
vt 0.8918919 0.2702703
vt 0.8648649 0.2432432
vt 0.8648649 0.2702703
vt 0.8378378 0.2432432
vt 0.8378378 0.2702703
vt 0.8108108 0.2432432
vt 0.8108108 0.2702703
vt 0.7837838 0.2432432
vt 0.7837838 0.2702703
vt 0.7567568 0.2432432
vt 0.7567568 0.2702703
vt 0.7297297 0.2432432
vt 0.7297297 0.2702703
vt 0.7027027 0.2432432
vt 0.7027027 0.2702703
vt 0.6756757 0.2702703
vt 0.6486486 0.2702703
vt 0.6216216 0.2702703
vt 0.5945946 0.2702703
vt 0.5675676 0.2702703

# Normal
vn 0 0 -1

# Mesh description
g Nivel2_mesh_0058

# Faces
f 1/1/1 2/2/1 3/3/1 4/4/1
f 5/5/1 6/1/1 7/4/1 8/6/1
f 9/1/1 10/2/1 11/3/1 12/4/1
f 13/5/1 14/1/1 15/4/1 16/6/1
f 17/1/1 18/2/1 19/3/1 20/4/1
f 21/5/1 22/1/1 23/4/1 24/6/1
f 25/1/1 26/2/1 27/3/1 28/4/1
f 29/5/1 30/1/1 31/4/1 32/6/1
f 33/1/1 34/2/1 35/3/1 36/4/1
f 37/5/1 38/1/1 39/4/1 40/6/1
f 41/1/1 42/2/1 43/3/1 44/4/1
f 45/5/1 46/1/1 47/4/1 48/6/1
f 49/1/1 50/2/1 51/3/1 52/4/1
f 53/5/1 54/1/1 55/4/1 56/6/1
f 57/1/1 58/2/1 59/3/1 60/4/1
f 61/5/1 62/1/1 63/4/1 64/6/1
f 65/1/1 66/2/1 67/3/1 68/4/1
f 69/5/1 70/1/1 71/4/1 72/6/1
f 73/1/1 74/2/1 75/3/1 76/4/1
f 77/5/1 78/1/1 79/4/1 80/6/1
f 81/1/1 82/2/1 83/3/1 84/4/1
f 85/5/1 86/1/1 87/4/1 88/6/1
f 89/1/1 90/2/1 91/3/1 92/4/1
f 93/5/1 94/1/1 95/4/1 96/6/1
f 97/1/1 98/2/1 99/3/1 100/4/1
f 101/5/1 102/1/1 103/4/1 104/6/1
f 105/1/1 106/2/1 107/3/1 108/4/1
f 109/5/1 110/1/1 111/4/1 112/6/1
f 113/1/1 114/2/1 115/3/1 116/4/1
f 117/5/1 118/1/1 119/4/1 120/6/1
f 121/1/1 122/2/1 123/3/1 124/4/1
f 125/5/1 126/1/1 127/4/1 128/6/1
f 129/1/1 130/2/1 131/3/1 132/4/1
f 133/5/1 134/1/1 135/4/1 136/6/1
f 137/1/1 138/2/1 139/3/1 140/4/1
f 141/5/1 142/1/1 143/4/1 144/6/1
f 145/1/1 146/2/1 147/3/1 148/4/1
f 149/5/1 150/1/1 151/4/1 152/6/1
f 153/1/1 154/2/1 155/3/1 156/4/1
f 157/5/1 158/1/1 159/4/1 160/6/1
f 161/1/1 162/2/1 163/3/1 164/4/1
f 165/5/1 166/1/1 167/4/1 168/6/1
f 169/1/1 170/2/1 171/3/1 172/4/1
f 173/5/1 174/1/1 175/4/1 176/6/1
f 177/1/1 178/2/1 179/3/1 180/4/1
f 181/5/1 182/1/1 183/4/1 184/6/1
f 185/4/1 186/3/1 187/7/1 188/8/1
f 189/6/1 190/4/1 191/8/1 192/9/1
f 193/4/1 194/3/1 195/7/1 196/8/1
f 197/6/1 198/4/1 199/8/1 200/9/1
f 201/4/1 202/3/1 203/7/1 204/8/1
f 205/6/1 206/4/1 207/8/1 208/9/1
f 209/4/1 210/3/1 211/7/1 212/8/1
f 213/6/1 214/4/1 215/8/1 216/9/1
f 217/4/1 218/3/1 219/7/1 220/8/1
f 221/6/1 222/4/1 223/8/1 224/9/1
f 225/4/1 226/3/1 227/7/1 228/8/1
f 229/6/1 230/4/1 231/8/1 232/9/1
f 233/4/1 234/3/1 235/7/1 236/8/1
f 237/6/1 238/4/1 239/8/1 240/9/1
f 241/4/1 242/3/1 243/7/1 244/8/1
f 245/6/1 246/4/1 247/8/1 248/9/1
f 249/4/1 250/3/1 251/7/1 252/8/1
f 253/6/1 254/4/1 255/8/1 256/9/1
f 257/4/1 258/3/1 259/7/1 260/8/1
f 261/6/1 262/4/1 263/8/1 264/9/1
f 265/4/1 266/3/1 267/7/1 268/8/1
f 269/6/1 270/4/1 271/8/1 272/9/1
f 273/4/1 274/3/1 275/7/1 276/8/1
f 277/6/1 278/4/1 279/8/1 280/9/1
f 281/4/1 282/3/1 283/7/1 284/8/1
f 285/6/1 286/4/1 287/8/1 288/9/1
f 289/4/1 290/3/1 291/7/1 292/8/1
f 293/6/1 294/4/1 295/8/1 296/9/1
f 297/4/1 298/3/1 299/7/1 300/8/1
f 301/6/1 302/4/1 303/8/1 304/9/1
f 305/4/1 306/3/1 307/7/1 308/8/1
f 309/6/1 310/4/1 311/8/1 312/9/1
f 313/4/1 314/3/1 315/7/1 316/8/1
f 317/6/1 318/4/1 319/8/1 320/9/1
f 321/4/1 322/3/1 323/7/1 324/8/1
f 325/6/1 326/4/1 327/8/1 328/9/1
f 329/4/1 330/3/1 331/7/1 332/8/1
f 333/6/1 334/4/1 335/8/1 336/9/1
f 337/4/1 338/3/1 339/7/1 340/8/1
f 341/6/1 342/4/1 343/8/1 344/9/1
f 345/4/1 346/3/1 347/7/1 348/8/1
f 349/6/1 350/4/1 351/8/1 352/9/1
f 353/4/1 354/3/1 355/7/1 356/8/1
f 357/6/1 358/4/1 359/8/1 360/9/1
f 361/4/1 362/3/1 363/7/1 364/8/1
f 365/6/1 366/4/1 367/8/1 368/9/1
f 369/4/1 370/3/1 371/7/1 372/8/1
f 373/6/1 374/4/1 375/8/1 376/9/1
f 377/4/1 378/3/1 379/7/1 380/8/1
f 381/6/1 382/4/1 383/8/1 384/9/1
f 385/4/1 386/3/1 387/7/1 388/8/1
f 389/6/1 390/4/1 391/8/1 392/9/1
f 393/6/1 394/4/1 395/8/1 396/9/1
f 397/4/1 398/3/1 399/7/1 400/8/1
f 401/6/1 402/4/1 403/8/1 404/9/1
f 405/4/1 406/3/1 407/7/1 408/8/1
f 409/6/1 410/4/1 411/8/1 412/9/1
f 413/4/1 414/3/1 415/7/1 416/8/1
f 417/6/1 418/4/1 419/8/1 420/9/1
f 421/4/1 422/3/1 423/7/1 424/8/1
f 425/6/1 426/4/1 427/8/1 428/9/1
f 429/4/1 430/3/1 431/7/1 432/8/1
f 433/6/1 434/4/1 435/8/1 436/9/1
f 437/4/1 438/3/1 439/7/1 440/8/1
f 441/6/1 442/4/1 443/8/1 444/9/1
f 445/4/1 446/3/1 447/7/1 448/8/1
f 449/6/1 450/4/1 451/8/1 452/9/1
f 453/4/1 454/3/1 455/7/1 456/8/1
f 457/6/1 458/4/1 459/8/1 460/9/1
f 461/10/1 462/11/1 463/12/1 464/13/1
f 465/14/1 466/10/1 467/13/1 468/15/1
f 469/16/1 470/14/1 471/15/1 472/17/1
f 473/18/1 474/16/1 475/17/1 476/19/1
f 477/18/1 478/16/1 479/17/1 480/19/1
f 481/20/1 482/21/1 483/22/1 484/23/1
f 485/24/1 486/20/1 487/23/1 488/25/1
f 489/26/1 490/24/1 491/25/1 492/27/1
f 493/28/1 494/26/1 495/27/1 496/29/1
f 497/30/1 498/28/1 499/29/1 500/31/1
f 501/32/1 502/30/1 503/31/1 504/33/1
f 505/34/1 506/32/1 507/33/1 508/35/1
f 509/36/1 510/34/1 511/35/1 512/37/1
f 513/38/1 514/36/1 515/37/1 516/39/1
f 517/40/1 518/38/1 519/39/1 520/41/1
f 521/12/1 522/40/1 523/41/1 524/42/1
f 525/13/1 526/12/1 527/42/1 528/43/1
f 529/15/1 530/13/1 531/43/1 532/44/1
f 533/17/1 534/15/1 535/44/1 536/45/1
f 537/19/1 538/17/1 539/45/1 540/46/1
f 541/19/1 542/17/1 543/45/1 544/46/1

