# Tiled2Unity generated file. Do not modify by hand.
# Wavefront file for 'Nivel2_mesh_0024.obj'

# Vertices (Count = 120)
v -10 -55 0
v -11 -55 0
v -11 -54 0
v -10 -54 0
v -9 -55 0
v -10 -55 0
v -10 -54 0
v -9 -54 0
v -8 -55 0
v -9 -55 0
v -9 -54 0
v -8 -54 0
v -7 -55 0
v -8 -55 0
v -8 -54 0
v -7 -54 0
v -6 -55 0
v -7 -55 0
v -7 -54 0
v -6 -54 0
v -10 -54 0
v -11 -54 0
v -11 -53 0
v -10 -53 0
v -9 -54 0
v -10 -54 0
v -10 -53 0
v -9 -53 0
v -8 -54 0
v -9 -54 0
v -9 -53 0
v -8 -53 0
v -7 -54 0
v -8 -54 0
v -8 -53 0
v -7 -53 0
v -6 -54 0
v -7 -54 0
v -7 -53 0
v -6 -53 0
v -10 -53 0
v -11 -53 0
v -11 -52 0
v -10 -52 0
v -9 -53 0
v -10 -53 0
v -10 -52 0
v -9 -52 0
v -8 -53 0
v -9 -53 0
v -9 -52 0
v -8 -52 0
v -7 -53 0
v -8 -53 0
v -8 -52 0
v -7 -52 0
v -6 -53 0
v -7 -53 0
v -7 -52 0
v -6 -52 0
v -17 -6 0
v -18 -6 0
v -18 -5 0
v -17 -5 0
v -16 -6 0
v -17 -6 0
v -17 -5 0
v -16 -5 0
v -15 -6 0
v -16 -6 0
v -16 -5 0
v -15 -5 0
v -14 -6 0
v -15 -6 0
v -15 -5 0
v -14 -5 0
v -13 -6 0
v -14 -6 0
v -14 -5 0
v -13 -5 0
v -17 -5 0
v -18 -5 0
v -18 -4 0
v -17 -4 0
v -16 -5 0
v -17 -5 0
v -17 -4 0
v -16 -4 0
v -15 -5 0
v -16 -5 0
v -16 -4 0
v -15 -4 0
v -14 -5 0
v -15 -5 0
v -15 -4 0
v -14 -4 0
v -13 -5 0
v -14 -5 0
v -14 -4 0
v -13 -4 0
v -17 -4 0
v -18 -4 0
v -18 -3 0
v -17 -3 0
v -16 -4 0
v -17 -4 0
v -17 -3 0
v -16 -3 0
v -15 -4 0
v -16 -4 0
v -16 -3 0
v -15 -3 0
v -14 -4 0
v -15 -4 0
v -15 -3 0
v -14 -3 0
v -13 -4 0
v -14 -4 0
v -14 -3 0
v -13 -3 0

# Texture cooridinates (Count = 48)
vt 0.46875 0.6774194
vt 0.5 0.6774194
vt 0.5 0.7096775
vt 0.46875 0.7096775
vt 0.4375 0.6774194
vt 0.4375 0.7096775
vt 0.40625 0.6774194
vt 0.40625 0.7096775
vt 0.375 0.6774194
vt 0.375 0.7096775
vt 0.34375 0.6774194
vt 0.34375 0.7096775
vt 0.5 0.7419355
vt 0.46875 0.7419355
vt 0.4375 0.7419355
vt 0.40625 0.7419355
vt 0.375 0.7419355
vt 0.34375 0.7419355
vt 0.5 0.7741935
vt 0.46875 0.7741935
vt 0.4375 0.7741935
vt 0.40625 0.7741935
vt 0.375 0.7741935
vt 0.34375 0.7741935
vt 0.53125 0.4516129
vt 0.5625 0.4516129
vt 0.5625 0.483871
vt 0.53125 0.483871
vt 0.5 0.4516129
vt 0.5 0.483871
vt 0.46875 0.4516129
vt 0.46875 0.483871
vt 0.4375 0.4516129
vt 0.4375 0.483871
vt 0.40625 0.4516129
vt 0.40625 0.483871
vt 0.5625 0.516129
vt 0.53125 0.516129
vt 0.5 0.516129
vt 0.46875 0.516129
vt 0.4375 0.516129
vt 0.40625 0.516129
vt 0.5625 0.5483871
vt 0.53125 0.5483871
vt 0.5 0.5483871
vt 0.46875 0.5483871
vt 0.4375 0.5483871
vt 0.40625 0.5483871

# Normal
vn 0 0 -1

# Mesh description
g Nivel2_mesh_0024

# Faces
f 1/1/1 2/2/1 3/3/1 4/4/1
f 5/5/1 6/1/1 7/4/1 8/6/1
f 9/7/1 10/5/1 11/6/1 12/8/1
f 13/9/1 14/7/1 15/8/1 16/10/1
f 17/11/1 18/9/1 19/10/1 20/12/1
f 21/4/1 22/3/1 23/13/1 24/14/1
f 25/6/1 26/4/1 27/14/1 28/15/1
f 29/8/1 30/6/1 31/15/1 32/16/1
f 33/10/1 34/8/1 35/16/1 36/17/1
f 37/12/1 38/10/1 39/17/1 40/18/1
f 41/14/1 42/13/1 43/19/1 44/20/1
f 45/15/1 46/14/1 47/20/1 48/21/1
f 49/16/1 50/15/1 51/21/1 52/22/1
f 53/17/1 54/16/1 55/22/1 56/23/1
f 57/18/1 58/17/1 59/23/1 60/24/1
f 61/25/1 62/26/1 63/27/1 64/28/1
f 65/29/1 66/25/1 67/28/1 68/30/1
f 69/31/1 70/29/1 71/30/1 72/32/1
f 73/33/1 74/31/1 75/32/1 76/34/1
f 77/35/1 78/33/1 79/34/1 80/36/1
f 81/28/1 82/27/1 83/37/1 84/38/1
f 85/30/1 86/28/1 87/38/1 88/39/1
f 89/32/1 90/30/1 91/39/1 92/40/1
f 93/34/1 94/32/1 95/40/1 96/41/1
f 97/36/1 98/34/1 99/41/1 100/42/1
f 101/38/1 102/37/1 103/43/1 104/44/1
f 105/39/1 106/38/1 107/44/1 108/45/1
f 109/40/1 110/39/1 111/45/1 112/46/1
f 113/41/1 114/40/1 115/46/1 116/47/1
f 117/42/1 118/41/1 119/47/1 120/48/1

