# Tiled2Unity generated file. Do not modify by hand.
# Wavefront file for 'Nivel2_mesh_0010.obj'

# Vertices (Count = 80)
v -10 -56 0
v -11 -56 0
v -11 -55 0
v -10 -55 0
v -9 -56 0
v -10 -56 0
v -10 -55 0
v -9 -55 0
v -8 -56 0
v -9 -56 0
v -9 -55 0
v -8 -55 0
v -7 -56 0
v -8 -56 0
v -8 -55 0
v -7 -55 0
v -6 -56 0
v -7 -56 0
v -7 -55 0
v -6 -55 0
v -10 -55 0
v -11 -55 0
v -11 -54 0
v -10 -54 0
v -9 -55 0
v -10 -55 0
v -10 -54 0
v -9 -54 0
v -8 -55 0
v -9 -55 0
v -9 -54 0
v -8 -54 0
v -7 -55 0
v -8 -55 0
v -8 -54 0
v -7 -54 0
v -6 -55 0
v -7 -55 0
v -7 -54 0
v -6 -54 0
v -17 -7 0
v -18 -7 0
v -18 -6 0
v -17 -6 0
v -16 -7 0
v -17 -7 0
v -17 -6 0
v -16 -6 0
v -15 -7 0
v -16 -7 0
v -16 -6 0
v -15 -6 0
v -14 -7 0
v -15 -7 0
v -15 -6 0
v -14 -6 0
v -13 -7 0
v -14 -7 0
v -14 -6 0
v -13 -6 0
v -17 -6 0
v -18 -6 0
v -18 -5 0
v -17 -5 0
v -16 -6 0
v -17 -6 0
v -17 -5 0
v -16 -5 0
v -15 -6 0
v -16 -6 0
v -16 -5 0
v -15 -5 0
v -14 -6 0
v -15 -6 0
v -15 -5 0
v -14 -5 0
v -13 -6 0
v -14 -6 0
v -14 -5 0
v -13 -5 0

# Texture cooridinates (Count = 36)
vt 0.46875 0.5806452
vt 0.5 0.5806452
vt 0.5 0.6129032
vt 0.46875 0.6129032
vt 0.4375 0.5806452
vt 0.4375 0.6129032
vt 0.40625 0.5806452
vt 0.40625 0.6129032
vt 0.375 0.5806452
vt 0.375 0.6129032
vt 0.34375 0.5806452
vt 0.34375 0.6129032
vt 0.5 0.6451613
vt 0.46875 0.6451613
vt 0.4375 0.6451613
vt 0.40625 0.6451613
vt 0.375 0.6451613
vt 0.34375 0.6451613
vt 0.53125 0.3870968
vt 0.5625 0.3870968
vt 0.5625 0.4193549
vt 0.53125 0.4193549
vt 0.5 0.3870968
vt 0.5 0.4193549
vt 0.46875 0.3870968
vt 0.46875 0.4193549
vt 0.4375 0.3870968
vt 0.4375 0.4193549
vt 0.40625 0.3870968
vt 0.40625 0.4193549
vt 0.5625 0.4516129
vt 0.53125 0.4516129
vt 0.5 0.4516129
vt 0.46875 0.4516129
vt 0.4375 0.4516129
vt 0.40625 0.4516129

# Normal
vn 0 0 -1

# Mesh description
g Nivel2_mesh_0010

# Faces
f 1/1/1 2/2/1 3/3/1 4/4/1
f 5/5/1 6/1/1 7/4/1 8/6/1
f 9/7/1 10/5/1 11/6/1 12/8/1
f 13/9/1 14/7/1 15/8/1 16/10/1
f 17/11/1 18/9/1 19/10/1 20/12/1
f 21/4/1 22/3/1 23/13/1 24/14/1
f 25/6/1 26/4/1 27/14/1 28/15/1
f 29/8/1 30/6/1 31/15/1 32/16/1
f 33/10/1 34/8/1 35/16/1 36/17/1
f 37/12/1 38/10/1 39/17/1 40/18/1
f 41/19/1 42/20/1 43/21/1 44/22/1
f 45/23/1 46/19/1 47/22/1 48/24/1
f 49/25/1 50/23/1 51/24/1 52/26/1
f 53/27/1 54/25/1 55/26/1 56/28/1
f 57/29/1 58/27/1 59/28/1 60/30/1
f 61/22/1 62/21/1 63/31/1 64/32/1
f 65/24/1 66/22/1 67/32/1 68/33/1
f 69/26/1 70/24/1 71/33/1 72/34/1
f 73/28/1 74/26/1 75/34/1 76/35/1
f 77/30/1 78/28/1 79/35/1 80/36/1

