# Tiled2Unity generated file. Do not modify by hand.
# Wavefront file for 'Nivel2_mesh_0021.obj'

# Vertices (Count = 80)
v -11 -36 0
v -12 -36 0
v -12 -35 0
v -11 -35 0
v -10 -36 0
v -11 -36 0
v -11 -35 0
v -10 -35 0
v -9 -36 0
v -10 -36 0
v -10 -35 0
v -9 -35 0
v -8 -36 0
v -9 -36 0
v -9 -35 0
v -8 -35 0
v -7 -36 0
v -8 -36 0
v -8 -35 0
v -7 -35 0
v -11 -35 0
v -12 -35 0
v -12 -34 0
v -11 -34 0
v -10 -35 0
v -11 -35 0
v -11 -34 0
v -10 -34 0
v -9 -35 0
v -10 -35 0
v -10 -34 0
v -9 -34 0
v -8 -35 0
v -9 -35 0
v -9 -34 0
v -8 -34 0
v -7 -35 0
v -8 -35 0
v -8 -34 0
v -7 -34 0
v -11 -34 0
v -12 -34 0
v -12 -33 0
v -11 -33 0
v -10 -34 0
v -11 -34 0
v -11 -33 0
v -10 -33 0
v -9 -34 0
v -10 -34 0
v -10 -33 0
v -9 -33 0
v -8 -34 0
v -9 -34 0
v -9 -33 0
v -8 -33 0
v -7 -34 0
v -8 -34 0
v -8 -33 0
v -7 -33 0
v -11 -33 0
v -12 -33 0
v -12 -32 0
v -11 -32 0
v -10 -33 0
v -11 -33 0
v -11 -32 0
v -10 -32 0
v -9 -33 0
v -10 -33 0
v -10 -32 0
v -9 -32 0
v -8 -33 0
v -9 -33 0
v -9 -32 0
v -8 -32 0
v -7 -33 0
v -8 -33 0
v -8 -32 0
v -7 -32 0

# Texture cooridinates (Count = 30)
vt 0.96875 0.7741935
vt 1 0.7741935
vt 1 0.8064516
vt 0.96875 0.8064516
vt 0.9375 0.7741935
vt 0.9375 0.8064516
vt 0.90625 0.7741935
vt 0.90625 0.8064516
vt 0.875 0.7741935
vt 0.875 0.8064516
vt 0.84375 0.7741935
vt 0.84375 0.8064516
vt 1 0.8387097
vt 0.96875 0.8387097
vt 0.9375 0.8387097
vt 0.90625 0.8387097
vt 0.875 0.8387097
vt 0.84375 0.8387097
vt 1 0.8709677
vt 0.96875 0.8709677
vt 0.9375 0.8709677
vt 0.90625 0.8709677
vt 0.875 0.8709677
vt 0.84375 0.8709677
vt 1 0.9032258
vt 0.96875 0.9032258
vt 0.9375 0.9032258
vt 0.90625 0.9032258
vt 0.875 0.9032258
vt 0.84375 0.9032258

# Normal
vn 0 0 -1

# Mesh description
g Nivel2_mesh_0021

# Faces
f 1/1/1 2/2/1 3/3/1 4/4/1
f 5/5/1 6/1/1 7/4/1 8/6/1
f 9/7/1 10/5/1 11/6/1 12/8/1
f 13/9/1 14/7/1 15/8/1 16/10/1
f 17/11/1 18/9/1 19/10/1 20/12/1
f 21/4/1 22/3/1 23/13/1 24/14/1
f 25/6/1 26/4/1 27/14/1 28/15/1
f 29/8/1 30/6/1 31/15/1 32/16/1
f 33/10/1 34/8/1 35/16/1 36/17/1
f 37/12/1 38/10/1 39/17/1 40/18/1
f 41/14/1 42/13/1 43/19/1 44/20/1
f 45/15/1 46/14/1 47/20/1 48/21/1
f 49/16/1 50/15/1 51/21/1 52/22/1
f 53/17/1 54/16/1 55/22/1 56/23/1
f 57/18/1 58/17/1 59/23/1 60/24/1
f 61/20/1 62/19/1 63/25/1 64/26/1
f 65/21/1 66/20/1 67/26/1 68/27/1
f 69/22/1 70/21/1 71/27/1 72/28/1
f 73/23/1 74/22/1 75/28/1 76/29/1
f 77/24/1 78/23/1 79/29/1 80/30/1

