# Tiled2Unity generated file. Do not modify by hand.
# Wavefront file for 'Nivel2_mesh_0059.obj'

# Vertices (Count = 912)
v -28 -137 0
v -29 -137 0
v -29 -136 0
v -28 -136 0
v -27 -137 0
v -28 -137 0
v -28 -136 0
v -27 -136 0
v -8 -137 0
v -9 -137 0
v -9 -136 0
v -8 -136 0
v -7 -137 0
v -8 -137 0
v -8 -136 0
v -7 -136 0
v -1 -137 0
v -2 -137 0
v -2 -136 0
v -1 -136 0
v 0 -137 0
v -1 -137 0
v -1 -136 0
v 0 -136 0
v -28 -136 0
v -29 -136 0
v -29 -135 0
v -28 -135 0
v -27 -136 0
v -28 -136 0
v -28 -135 0
v -27 -135 0
v -8 -136 0
v -9 -136 0
v -9 -135 0
v -8 -135 0
v -7 -136 0
v -8 -136 0
v -8 -135 0
v -7 -135 0
v -1 -136 0
v -2 -136 0
v -2 -135 0
v -1 -135 0
v 0 -136 0
v -1 -136 0
v -1 -135 0
v 0 -135 0
v -28 -135 0
v -29 -135 0
v -29 -134 0
v -28 -134 0
v -27 -135 0
v -28 -135 0
v -28 -134 0
v -27 -134 0
v -8 -135 0
v -9 -135 0
v -9 -134 0
v -8 -134 0
v -7 -135 0
v -8 -135 0
v -8 -134 0
v -7 -134 0
v -1 -135 0
v -2 -135 0
v -2 -134 0
v -1 -134 0
v 0 -135 0
v -1 -135 0
v -1 -134 0
v 0 -134 0
v -42 -134 0
v -43 -134 0
v -43 -133 0
v -42 -133 0
v -41 -134 0
v -42 -134 0
v -42 -133 0
v -41 -133 0
v -42 -133 0
v -43 -133 0
v -43 -132 0
v -42 -132 0
v -41 -133 0
v -42 -133 0
v -42 -132 0
v -41 -132 0
v -35 -133 0
v -36 -133 0
v -36 -132 0
v -35 -132 0
v -34 -133 0
v -35 -133 0
v -35 -132 0
v -34 -132 0
v -42 -132 0
v -43 -132 0
v -43 -131 0
v -42 -131 0
v -41 -132 0
v -42 -132 0
v -42 -131 0
v -41 -131 0
v -35 -132 0
v -36 -132 0
v -36 -131 0
v -35 -131 0
v -34 -132 0
v -35 -132 0
v -35 -131 0
v -34 -131 0
v -35 -131 0
v -36 -131 0
v -36 -130 0
v -35 -130 0
v -34 -131 0
v -35 -131 0
v -35 -130 0
v -34 -130 0
v -32 -131 0
v -33 -131 0
v -33 -130 0
v -32 -130 0
v -31 -131 0
v -32 -131 0
v -32 -130 0
v -31 -130 0
v -32 -130 0
v -33 -130 0
v -33 -129 0
v -32 -129 0
v -31 -130 0
v -32 -130 0
v -32 -129 0
v -31 -129 0
v -32 -129 0
v -33 -129 0
v -33 -128 0
v -32 -128 0
v -31 -129 0
v -32 -129 0
v -32 -128 0
v -31 -128 0
v -40 -127 0
v -41 -127 0
v -41 -126 0
v -40 -126 0
v -39 -127 0
v -40 -127 0
v -40 -126 0
v -39 -126 0
v -40 -126 0
v -41 -126 0
v -41 -125 0
v -40 -125 0
v -39 -126 0
v -40 -126 0
v -40 -125 0
v -39 -125 0
v -40 -125 0
v -41 -125 0
v -41 -124 0
v -40 -124 0
v -39 -125 0
v -40 -125 0
v -40 -124 0
v -39 -124 0
v -9 -124 0
v -10 -124 0
v -10 -123 0
v -9 -123 0
v -8 -124 0
v -9 -124 0
v -9 -123 0
v -8 -123 0
v -31 -123 0
v -32 -123 0
v -32 -122 0
v -31 -122 0
v -30 -123 0
v -31 -123 0
v -31 -122 0
v -30 -122 0
v -9 -123 0
v -10 -123 0
v -10 -122 0
v -9 -122 0
v -8 -123 0
v -9 -123 0
v -9 -122 0
v -8 -122 0
v -4 -123 0
v -5 -123 0
v -5 -122 0
v -4 -122 0
v -3 -123 0
v -4 -123 0
v -4 -122 0
v -3 -122 0
v -31 -122 0
v -32 -122 0
v -32 -121 0
v -31 -121 0
v -30 -122 0
v -31 -122 0
v -31 -121 0
v -30 -121 0
v -27 -122 0
v -28 -122 0
v -28 -121 0
v -27 -121 0
v -26 -122 0
v -27 -122 0
v -27 -121 0
v -26 -121 0
v -9 -122 0
v -10 -122 0
v -10 -121 0
v -9 -121 0
v -8 -122 0
v -9 -122 0
v -9 -121 0
v -8 -121 0
v -4 -122 0
v -5 -122 0
v -5 -121 0
v -4 -121 0
v -3 -122 0
v -4 -122 0
v -4 -121 0
v -3 -121 0
v -31 -121 0
v -32 -121 0
v -32 -120 0
v -31 -120 0
v -30 -121 0
v -31 -121 0
v -31 -120 0
v -30 -120 0
v -27 -121 0
v -28 -121 0
v -28 -120 0
v -27 -120 0
v -26 -121 0
v -27 -121 0
v -27 -120 0
v -26 -120 0
v -4 -121 0
v -5 -121 0
v -5 -120 0
v -4 -120 0
v -3 -121 0
v -4 -121 0
v -4 -120 0
v -3 -120 0
v -27 -120 0
v -28 -120 0
v -28 -119 0
v -27 -119 0
v -26 -120 0
v -27 -120 0
v -27 -119 0
v -26 -119 0
v -24 -117 0
v -25 -117 0
v -25 -116 0
v -24 -116 0
v -23 -117 0
v -24 -117 0
v -24 -116 0
v -23 -116 0
v -9 -117 0
v -10 -117 0
v -10 -116 0
v -9 -116 0
v -8 -117 0
v -9 -117 0
v -9 -116 0
v -8 -116 0
v -24 -116 0
v -25 -116 0
v -25 -115 0
v -24 -115 0
v -23 -116 0
v -24 -116 0
v -24 -115 0
v -23 -115 0
v -9 -116 0
v -10 -116 0
v -10 -115 0
v -9 -115 0
v -8 -116 0
v -9 -116 0
v -9 -115 0
v -8 -115 0
v -24 -115 0
v -25 -115 0
v -25 -114 0
v -24 -114 0
v -23 -115 0
v -24 -115 0
v -24 -114 0
v -23 -114 0
v -9 -115 0
v -10 -115 0
v -10 -114 0
v -9 -114 0
v -8 -115 0
v -9 -115 0
v -9 -114 0
v -8 -114 0
v -38 -112 0
v -39 -112 0
v -39 -111 0
v -38 -111 0
v -37 -112 0
v -38 -112 0
v -38 -111 0
v -37 -111 0
v -21 -112 0
v -22 -112 0
v -22 -111 0
v -21 -111 0
v -20 -112 0
v -21 -112 0
v -21 -111 0
v -20 -111 0
v -6 -112 0
v -7 -112 0
v -7 -111 0
v -6 -111 0
v -5 -112 0
v -6 -112 0
v -6 -111 0
v -5 -111 0
v -38 -111 0
v -39 -111 0
v -39 -110 0
v -38 -110 0
v -37 -111 0
v -38 -111 0
v -38 -110 0
v -37 -110 0
v -21 -111 0
v -22 -111 0
v -22 -110 0
v -21 -110 0
v -20 -111 0
v -21 -111 0
v -21 -110 0
v -20 -110 0
v -6 -111 0
v -7 -111 0
v -7 -110 0
v -6 -110 0
v -5 -111 0
v -6 -111 0
v -6 -110 0
v -5 -110 0
v -38 -110 0
v -39 -110 0
v -39 -109 0
v -38 -109 0
v -37 -110 0
v -38 -110 0
v -38 -109 0
v -37 -109 0
v -36 -110 0
v -37 -110 0
v -37 -109 0
v -36 -109 0
v -35 -110 0
v -36 -110 0
v -36 -109 0
v -35 -109 0
v -21 -110 0
v -22 -110 0
v -22 -109 0
v -21 -109 0
v -20 -110 0
v -21 -110 0
v -21 -109 0
v -20 -109 0
v -6 -110 0
v -7 -110 0
v -7 -109 0
v -6 -109 0
v -5 -110 0
v -6 -110 0
v -6 -109 0
v -5 -109 0
v -36 -109 0
v -37 -109 0
v -37 -108 0
v -36 -108 0
v -35 -109 0
v -36 -109 0
v -36 -108 0
v -35 -108 0
v -36 -108 0
v -37 -108 0
v -37 -107 0
v -36 -107 0
v -35 -108 0
v -36 -108 0
v -36 -107 0
v -35 -107 0
v -40 -106 0
v -41 -106 0
v -41 -105 0
v -40 -105 0
v -39 -106 0
v -40 -106 0
v -40 -105 0
v -39 -105 0
v -35 -106 0
v -36 -106 0
v -36 -105 0
v -35 -105 0
v -34 -106 0
v -35 -106 0
v -35 -105 0
v -34 -105 0
v -26 -106 0
v -27 -106 0
v -27 -105 0
v -26 -105 0
v -25 -106 0
v -26 -106 0
v -26 -105 0
v -25 -105 0
v -40 -105 0
v -41 -105 0
v -41 -104 0
v -40 -104 0
v -39 -105 0
v -40 -105 0
v -40 -104 0
v -39 -104 0
v -35 -105 0
v -36 -105 0
v -36 -104 0
v -35 -104 0
v -34 -105 0
v -35 -105 0
v -35 -104 0
v -34 -104 0
v -26 -105 0
v -27 -105 0
v -27 -104 0
v -26 -104 0
v -25 -105 0
v -26 -105 0
v -26 -104 0
v -25 -104 0
v -2 -105 0
v -3 -105 0
v -3 -104 0
v -2 -104 0
v -1 -105 0
v -2 -105 0
v -2 -104 0
v -1 -104 0
v -46 -104 0
v -47 -104 0
v -47 -103 0
v -46 -103 0
v -45 -104 0
v -46 -104 0
v -46 -103 0
v -45 -103 0
v -40 -104 0
v -41 -104 0
v -41 -103 0
v -40 -103 0
v -39 -104 0
v -40 -104 0
v -40 -103 0
v -39 -103 0
v -35 -104 0
v -36 -104 0
v -36 -103 0
v -35 -103 0
v -34 -104 0
v -35 -104 0
v -35 -103 0
v -34 -103 0
v -26 -104 0
v -27 -104 0
v -27 -103 0
v -26 -103 0
v -25 -104 0
v -26 -104 0
v -26 -103 0
v -25 -103 0
v -2 -104 0
v -3 -104 0
v -3 -103 0
v -2 -103 0
v -1 -104 0
v -2 -104 0
v -2 -103 0
v -1 -103 0
v -46 -103 0
v -47 -103 0
v -47 -102 0
v -46 -102 0
v -45 -103 0
v -46 -103 0
v -46 -102 0
v -45 -102 0
v -2 -103 0
v -3 -103 0
v -3 -102 0
v -2 -102 0
v -1 -103 0
v -2 -103 0
v -2 -102 0
v -1 -102 0
v -46 -102 0
v -47 -102 0
v -47 -101 0
v -46 -101 0
v -45 -102 0
v -46 -102 0
v -46 -101 0
v -45 -101 0
v -29 -102 0
v -30 -102 0
v -30 -101 0
v -29 -101 0
v -28 -102 0
v -29 -102 0
v -29 -101 0
v -28 -101 0
v -29 -101 0
v -30 -101 0
v -30 -100 0
v -29 -100 0
v -28 -101 0
v -29 -101 0
v -29 -100 0
v -28 -100 0
v -8 -101 0
v -9 -101 0
v -9 -100 0
v -8 -100 0
v -7 -101 0
v -8 -101 0
v -8 -100 0
v -7 -100 0
v -29 -100 0
v -30 -100 0
v -30 -99 0
v -29 -99 0
v -28 -100 0
v -29 -100 0
v -29 -99 0
v -28 -99 0
v -8 -100 0
v -9 -100 0
v -9 -99 0
v -8 -99 0
v -7 -100 0
v -8 -100 0
v -8 -99 0
v -7 -99 0
v -8 -99 0
v -9 -99 0
v -9 -98 0
v -8 -98 0
v -7 -99 0
v -8 -99 0
v -8 -98 0
v -7 -98 0
v -41 -96 0
v -42 -96 0
v -42 -95 0
v -41 -95 0
v -40 -96 0
v -41 -96 0
v -41 -95 0
v -40 -95 0
v -41 -95 0
v -42 -95 0
v -42 -94 0
v -41 -94 0
v -40 -95 0
v -41 -95 0
v -41 -94 0
v -40 -94 0
v -41 -94 0
v -42 -94 0
v -42 -93 0
v -41 -93 0
v -40 -94 0
v -41 -94 0
v -41 -93 0
v -40 -93 0
v -49 -88 0
v -50 -88 0
v -50 -87 0
v -49 -87 0
v -48 -88 0
v -49 -88 0
v -49 -87 0
v -48 -87 0
v -46 -88 0
v -47 -88 0
v -47 -87 0
v -46 -87 0
v -45 -88 0
v -46 -88 0
v -46 -87 0
v -45 -87 0
v -49 -87 0
v -50 -87 0
v -50 -86 0
v -49 -86 0
v -48 -87 0
v -49 -87 0
v -49 -86 0
v -48 -86 0
v -46 -87 0
v -47 -87 0
v -47 -86 0
v -46 -86 0
v -45 -87 0
v -46 -87 0
v -46 -86 0
v -45 -86 0
v -49 -86 0
v -50 -86 0
v -50 -85 0
v -49 -85 0
v -48 -86 0
v -49 -86 0
v -49 -85 0
v -48 -85 0
v -46 -86 0
v -47 -86 0
v -47 -85 0
v -46 -85 0
v -45 -86 0
v -46 -86 0
v -46 -85 0
v -45 -85 0
v -41 -83 0
v -42 -83 0
v -42 -82 0
v -41 -82 0
v -40 -83 0
v -41 -83 0
v -41 -82 0
v -40 -82 0
v -41 -82 0
v -42 -82 0
v -42 -81 0
v -41 -81 0
v -40 -82 0
v -41 -82 0
v -41 -81 0
v -40 -81 0
v -41 -81 0
v -42 -81 0
v -42 -80 0
v -41 -80 0
v -40 -81 0
v -41 -81 0
v -41 -80 0
v -40 -80 0
v -43 -75 0
v -44 -75 0
v -44 -74 0
v -43 -74 0
v -42 -75 0
v -43 -75 0
v -43 -74 0
v -42 -74 0
v -43 -74 0
v -44 -74 0
v -44 -73 0
v -43 -73 0
v -42 -74 0
v -43 -74 0
v -43 -73 0
v -42 -73 0
v -43 -73 0
v -44 -73 0
v -44 -72 0
v -43 -72 0
v -42 -73 0
v -43 -73 0
v -43 -72 0
v -42 -72 0
v -41 -67 0
v -42 -67 0
v -42 -66 0
v -41 -66 0
v -40 -67 0
v -41 -67 0
v -41 -66 0
v -40 -66 0
v -41 -66 0
v -42 -66 0
v -42 -65 0
v -41 -65 0
v -40 -66 0
v -41 -66 0
v -41 -65 0
v -40 -65 0
v -41 -65 0
v -42 -65 0
v -42 -64 0
v -41 -64 0
v -40 -65 0
v -41 -65 0
v -41 -64 0
v -40 -64 0
v -43 -56 0
v -44 -56 0
v -44 -55 0
v -43 -55 0
v -42 -56 0
v -43 -56 0
v -43 -55 0
v -42 -55 0
v -43 -55 0
v -44 -55 0
v -44 -54 0
v -43 -54 0
v -42 -55 0
v -43 -55 0
v -43 -54 0
v -42 -54 0
v -43 -54 0
v -44 -54 0
v -44 -53 0
v -43 -53 0
v -42 -54 0
v -43 -54 0
v -43 -53 0
v -42 -53 0
v -39 -53 0
v -40 -53 0
v -40 -52 0
v -39 -52 0
v -38 -53 0
v -39 -53 0
v -39 -52 0
v -38 -52 0
v -39 -52 0
v -40 -52 0
v -40 -51 0
v -39 -51 0
v -38 -52 0
v -39 -52 0
v -39 -51 0
v -38 -51 0
v -44 -51 0
v -45 -51 0
v -45 -50 0
v -44 -50 0
v -43 -51 0
v -44 -51 0
v -44 -50 0
v -43 -50 0
v -39 -51 0
v -40 -51 0
v -40 -50 0
v -39 -50 0
v -38 -51 0
v -39 -51 0
v -39 -50 0
v -38 -50 0
v -47 -50 0
v -48 -50 0
v -48 -49 0
v -47 -49 0
v -46 -50 0
v -47 -50 0
v -47 -49 0
v -46 -49 0
v -44 -50 0
v -45 -50 0
v -45 -49 0
v -44 -49 0
v -43 -50 0
v -44 -50 0
v -44 -49 0
v -43 -49 0
v -47 -49 0
v -48 -49 0
v -48 -48 0
v -47 -48 0
v -46 -49 0
v -47 -49 0
v -47 -48 0
v -46 -48 0
v -44 -49 0
v -45 -49 0
v -45 -48 0
v -44 -48 0
v -43 -49 0
v -44 -49 0
v -44 -48 0
v -43 -48 0
v -47 -48 0
v -48 -48 0
v -48 -47 0
v -47 -47 0
v -46 -48 0
v -47 -48 0
v -47 -47 0
v -46 -47 0
v -44 -48 0
v -45 -48 0
v -45 -47 0
v -44 -47 0
v -43 -48 0
v -44 -48 0
v -44 -47 0
v -43 -47 0
v -44 -47 0
v -45 -47 0
v -45 -46 0
v -44 -46 0
v -43 -47 0
v -44 -47 0
v -44 -46 0
v -43 -46 0
v -41 -47 0
v -42 -47 0
v -42 -46 0
v -41 -46 0
v -40 -47 0
v -41 -47 0
v -41 -46 0
v -40 -46 0
v -44 -46 0
v -45 -46 0
v -45 -45 0
v -44 -45 0
v -43 -46 0
v -44 -46 0
v -44 -45 0
v -43 -45 0
v -41 -46 0
v -42 -46 0
v -42 -45 0
v -41 -45 0
v -40 -46 0
v -41 -46 0
v -41 -45 0
v -40 -45 0
v -47 -45 0
v -48 -45 0
v -48 -44 0
v -47 -44 0
v -46 -45 0
v -47 -45 0
v -47 -44 0
v -46 -44 0
v -41 -45 0
v -42 -45 0
v -42 -44 0
v -41 -44 0
v -40 -45 0
v -41 -45 0
v -41 -44 0
v -40 -44 0
v -47 -44 0
v -48 -44 0
v -48 -43 0
v -47 -43 0
v -46 -44 0
v -47 -44 0
v -47 -43 0
v -46 -43 0
v -42 -44 0
v -43 -44 0
v -43 -43 0
v -42 -43 0
v -41 -44 0
v -42 -44 0
v -42 -43 0
v -41 -43 0
v -47 -43 0
v -48 -43 0
v -48 -42 0
v -47 -42 0
v -46 -43 0
v -47 -43 0
v -47 -42 0
v -46 -42 0
v -42 -43 0
v -43 -43 0
v -43 -42 0
v -42 -42 0
v -41 -43 0
v -42 -43 0
v -42 -42 0
v -41 -42 0
v -42 -42 0
v -43 -42 0
v -43 -41 0
v -42 -41 0
v -41 -42 0
v -42 -42 0
v -42 -41 0
v -41 -41 0

# Texture cooridinates (Count = 12)
vt 0.99 0.01999998
vt 1 0.01999998
vt 1 0.02999997
vt 0.99 0.02999997
vt 0.98 0.01999998
vt 0.98 0.02999997
vt 1 0.04000002
vt 0.99 0.04000002
vt 0.98 0.04000002
vt 1 0.05000001
vt 0.99 0.05000001
vt 0.98 0.05000001

# Normal
vn 0 0 -1

# Mesh description
g Nivel2_mesh_0059

# Faces
f 1/1/1 2/2/1 3/3/1 4/4/1
f 5/5/1 6/1/1 7/4/1 8/6/1
f 9/1/1 10/2/1 11/3/1 12/4/1
f 13/5/1 14/1/1 15/4/1 16/6/1
f 17/1/1 18/2/1 19/3/1 20/4/1
f 21/5/1 22/1/1 23/4/1 24/6/1
f 25/4/1 26/3/1 27/7/1 28/8/1
f 29/6/1 30/4/1 31/8/1 32/9/1
f 33/4/1 34/3/1 35/7/1 36/8/1
f 37/6/1 38/4/1 39/8/1 40/9/1
f 41/4/1 42/3/1 43/7/1 44/8/1
f 45/6/1 46/4/1 47/8/1 48/9/1
f 49/8/1 50/7/1 51/10/1 52/11/1
f 53/9/1 54/8/1 55/11/1 56/12/1
f 57/8/1 58/7/1 59/10/1 60/11/1
f 61/9/1 62/8/1 63/11/1 64/12/1
f 65/8/1 66/7/1 67/10/1 68/11/1
f 69/9/1 70/8/1 71/11/1 72/12/1
f 73/1/1 74/2/1 75/3/1 76/4/1
f 77/5/1 78/1/1 79/4/1 80/6/1
f 81/4/1 82/3/1 83/7/1 84/8/1
f 85/6/1 86/4/1 87/8/1 88/9/1
f 89/1/1 90/2/1 91/3/1 92/4/1
f 93/5/1 94/1/1 95/4/1 96/6/1
f 97/8/1 98/7/1 99/10/1 100/11/1
f 101/9/1 102/8/1 103/11/1 104/12/1
f 105/4/1 106/3/1 107/7/1 108/8/1
f 109/6/1 110/4/1 111/8/1 112/9/1
f 113/8/1 114/7/1 115/10/1 116/11/1
f 117/9/1 118/8/1 119/11/1 120/12/1
f 121/1/1 122/2/1 123/3/1 124/4/1
f 125/5/1 126/1/1 127/4/1 128/6/1
f 129/4/1 130/3/1 131/7/1 132/8/1
f 133/6/1 134/4/1 135/8/1 136/9/1
f 137/8/1 138/7/1 139/10/1 140/11/1
f 141/9/1 142/8/1 143/11/1 144/12/1
f 145/1/1 146/2/1 147/3/1 148/4/1
f 149/5/1 150/1/1 151/4/1 152/6/1
f 153/4/1 154/3/1 155/7/1 156/8/1
f 157/6/1 158/4/1 159/8/1 160/9/1
f 161/8/1 162/7/1 163/10/1 164/11/1
f 165/9/1 166/8/1 167/11/1 168/12/1
f 169/1/1 170/2/1 171/3/1 172/4/1
f 173/5/1 174/1/1 175/4/1 176/6/1
f 177/1/1 178/2/1 179/3/1 180/4/1
f 181/5/1 182/1/1 183/4/1 184/6/1
f 185/4/1 186/3/1 187/7/1 188/8/1
f 189/6/1 190/4/1 191/8/1 192/9/1
f 193/1/1 194/2/1 195/3/1 196/4/1
f 197/5/1 198/1/1 199/4/1 200/6/1
f 201/4/1 202/3/1 203/7/1 204/8/1
f 205/6/1 206/4/1 207/8/1 208/9/1
f 209/1/1 210/2/1 211/3/1 212/4/1
f 213/5/1 214/1/1 215/4/1 216/6/1
f 217/8/1 218/7/1 219/10/1 220/11/1
f 221/9/1 222/8/1 223/11/1 224/12/1
f 225/4/1 226/3/1 227/7/1 228/8/1
f 229/6/1 230/4/1 231/8/1 232/9/1
f 233/8/1 234/7/1 235/10/1 236/11/1
f 237/9/1 238/8/1 239/11/1 240/12/1
f 241/4/1 242/3/1 243/7/1 244/8/1
f 245/6/1 246/4/1 247/8/1 248/9/1
f 249/8/1 250/7/1 251/10/1 252/11/1
f 253/9/1 254/8/1 255/11/1 256/12/1
f 257/8/1 258/7/1 259/10/1 260/11/1
f 261/9/1 262/8/1 263/11/1 264/12/1
f 265/1/1 266/2/1 267/3/1 268/4/1
f 269/5/1 270/1/1 271/4/1 272/6/1
f 273/1/1 274/2/1 275/3/1 276/4/1
f 277/5/1 278/1/1 279/4/1 280/6/1
f 281/4/1 282/3/1 283/7/1 284/8/1
f 285/6/1 286/4/1 287/8/1 288/9/1
f 289/4/1 290/3/1 291/7/1 292/8/1
f 293/6/1 294/4/1 295/8/1 296/9/1
f 297/8/1 298/7/1 299/10/1 300/11/1
f 301/9/1 302/8/1 303/11/1 304/12/1
f 305/8/1 306/7/1 307/10/1 308/11/1
f 309/9/1 310/8/1 311/11/1 312/12/1
f 313/1/1 314/2/1 315/3/1 316/4/1
f 317/5/1 318/1/1 319/4/1 320/6/1
f 321/1/1 322/2/1 323/3/1 324/4/1
f 325/5/1 326/1/1 327/4/1 328/6/1
f 329/1/1 330/2/1 331/3/1 332/4/1
f 333/5/1 334/1/1 335/4/1 336/6/1
f 337/4/1 338/3/1 339/7/1 340/8/1
f 341/6/1 342/4/1 343/8/1 344/9/1
f 345/4/1 346/3/1 347/7/1 348/8/1
f 349/6/1 350/4/1 351/8/1 352/9/1
f 353/4/1 354/3/1 355/7/1 356/8/1
f 357/6/1 358/4/1 359/8/1 360/9/1
f 361/8/1 362/7/1 363/10/1 364/11/1
f 365/9/1 366/8/1 367/11/1 368/12/1
f 369/1/1 370/2/1 371/3/1 372/4/1
f 373/5/1 374/1/1 375/4/1 376/6/1
f 377/8/1 378/7/1 379/10/1 380/11/1
f 381/9/1 382/8/1 383/11/1 384/12/1
f 385/8/1 386/7/1 387/10/1 388/11/1
f 389/9/1 390/8/1 391/11/1 392/12/1
f 393/4/1 394/3/1 395/7/1 396/8/1
f 397/6/1 398/4/1 399/8/1 400/9/1
f 401/8/1 402/7/1 403/10/1 404/11/1
f 405/9/1 406/8/1 407/11/1 408/12/1
f 409/1/1 410/2/1 411/3/1 412/4/1
f 413/5/1 414/1/1 415/4/1 416/6/1
f 417/1/1 418/2/1 419/3/1 420/4/1
f 421/5/1 422/1/1 423/4/1 424/6/1
f 425/1/1 426/2/1 427/3/1 428/4/1
f 429/5/1 430/1/1 431/4/1 432/6/1
f 433/4/1 434/3/1 435/7/1 436/8/1
f 437/6/1 438/4/1 439/8/1 440/9/1
f 441/4/1 442/3/1 443/7/1 444/8/1
f 445/6/1 446/4/1 447/8/1 448/9/1
f 449/4/1 450/3/1 451/7/1 452/8/1
f 453/6/1 454/4/1 455/8/1 456/9/1
f 457/1/1 458/2/1 459/3/1 460/4/1
f 461/5/1 462/1/1 463/4/1 464/6/1
f 465/1/1 466/2/1 467/3/1 468/4/1
f 469/5/1 470/1/1 471/4/1 472/6/1
f 473/8/1 474/7/1 475/10/1 476/11/1
f 477/9/1 478/8/1 479/11/1 480/12/1
f 481/8/1 482/7/1 483/10/1 484/11/1
f 485/9/1 486/8/1 487/11/1 488/12/1
f 489/8/1 490/7/1 491/10/1 492/11/1
f 493/9/1 494/8/1 495/11/1 496/12/1
f 497/4/1 498/3/1 499/7/1 500/8/1
f 501/6/1 502/4/1 503/8/1 504/9/1
f 505/4/1 506/3/1 507/7/1 508/8/1
f 509/6/1 510/4/1 511/8/1 512/9/1
f 513/8/1 514/7/1 515/10/1 516/11/1
f 517/9/1 518/8/1 519/11/1 520/12/1
f 521/8/1 522/7/1 523/10/1 524/11/1
f 525/9/1 526/8/1 527/11/1 528/12/1
f 529/1/1 530/2/1 531/3/1 532/4/1
f 533/5/1 534/1/1 535/4/1 536/6/1
f 537/4/1 538/3/1 539/7/1 540/8/1
f 541/6/1 542/4/1 543/8/1 544/9/1
f 545/1/1 546/2/1 547/3/1 548/4/1
f 549/5/1 550/1/1 551/4/1 552/6/1
f 553/8/1 554/7/1 555/10/1 556/11/1
f 557/9/1 558/8/1 559/11/1 560/12/1
f 561/4/1 562/3/1 563/7/1 564/8/1
f 565/6/1 566/4/1 567/8/1 568/9/1
f 569/8/1 570/7/1 571/10/1 572/11/1
f 573/9/1 574/8/1 575/11/1 576/12/1
f 577/1/1 578/2/1 579/3/1 580/4/1
f 581/5/1 582/1/1 583/4/1 584/6/1
f 585/4/1 586/3/1 587/7/1 588/8/1
f 589/6/1 590/4/1 591/8/1 592/9/1
f 593/8/1 594/7/1 595/10/1 596/11/1
f 597/9/1 598/8/1 599/11/1 600/12/1
f 601/1/1 602/2/1 603/3/1 604/4/1
f 605/5/1 606/1/1 607/4/1 608/6/1
f 609/1/1 610/2/1 611/3/1 612/4/1
f 613/5/1 614/1/1 615/4/1 616/6/1
f 617/4/1 618/3/1 619/7/1 620/8/1
f 621/6/1 622/4/1 623/8/1 624/9/1
f 625/4/1 626/3/1 627/7/1 628/8/1
f 629/6/1 630/4/1 631/8/1 632/9/1
f 633/8/1 634/7/1 635/10/1 636/11/1
f 637/9/1 638/8/1 639/11/1 640/12/1
f 641/8/1 642/7/1 643/10/1 644/11/1
f 645/9/1 646/8/1 647/11/1 648/12/1
f 649/1/1 650/2/1 651/3/1 652/4/1
f 653/5/1 654/1/1 655/4/1 656/6/1
f 657/4/1 658/3/1 659/7/1 660/8/1
f 661/6/1 662/4/1 663/8/1 664/9/1
f 665/8/1 666/7/1 667/10/1 668/11/1
f 669/9/1 670/8/1 671/11/1 672/12/1
f 673/1/1 674/2/1 675/3/1 676/4/1
f 677/5/1 678/1/1 679/4/1 680/6/1
f 681/4/1 682/3/1 683/7/1 684/8/1
f 685/6/1 686/4/1 687/8/1 688/9/1
f 689/8/1 690/7/1 691/10/1 692/11/1
f 693/9/1 694/8/1 695/11/1 696/12/1
f 697/1/1 698/2/1 699/3/1 700/4/1
f 701/5/1 702/1/1 703/4/1 704/6/1
f 705/4/1 706/3/1 707/7/1 708/8/1
f 709/6/1 710/4/1 711/8/1 712/9/1
f 713/8/1 714/7/1 715/10/1 716/11/1
f 717/9/1 718/8/1 719/11/1 720/12/1
f 721/1/1 722/2/1 723/3/1 724/4/1
f 725/5/1 726/1/1 727/4/1 728/6/1
f 729/4/1 730/3/1 731/7/1 732/8/1
f 733/6/1 734/4/1 735/8/1 736/9/1
f 737/8/1 738/7/1 739/10/1 740/11/1
f 741/9/1 742/8/1 743/11/1 744/12/1
f 745/1/1 746/2/1 747/3/1 748/4/1
f 749/5/1 750/1/1 751/4/1 752/6/1
f 753/4/1 754/3/1 755/7/1 756/8/1
f 757/6/1 758/4/1 759/8/1 760/9/1
f 761/1/1 762/2/1 763/3/1 764/4/1
f 765/5/1 766/1/1 767/4/1 768/6/1
f 769/8/1 770/7/1 771/10/1 772/11/1
f 773/9/1 774/8/1 775/11/1 776/12/1
f 777/1/1 778/2/1 779/3/1 780/4/1
f 781/5/1 782/1/1 783/4/1 784/6/1
f 785/4/1 786/3/1 787/7/1 788/8/1
f 789/6/1 790/4/1 791/8/1 792/9/1
f 793/4/1 794/3/1 795/7/1 796/8/1
f 797/6/1 798/4/1 799/8/1 800/9/1
f 801/8/1 802/7/1 803/10/1 804/11/1
f 805/9/1 806/8/1 807/11/1 808/12/1
f 809/8/1 810/7/1 811/10/1 812/11/1
f 813/9/1 814/8/1 815/11/1 816/12/1
f 817/1/1 818/2/1 819/3/1 820/4/1
f 821/5/1 822/1/1 823/4/1 824/6/1
f 825/4/1 826/3/1 827/7/1 828/8/1
f 829/6/1 830/4/1 831/8/1 832/9/1
f 833/1/1 834/2/1 835/3/1 836/4/1
f 837/5/1 838/1/1 839/4/1 840/6/1
f 841/8/1 842/7/1 843/10/1 844/11/1
f 845/9/1 846/8/1 847/11/1 848/12/1
f 849/4/1 850/3/1 851/7/1 852/8/1
f 853/6/1 854/4/1 855/8/1 856/9/1
f 857/1/1 858/2/1 859/3/1 860/4/1
f 861/5/1 862/1/1 863/4/1 864/6/1
f 865/8/1 866/7/1 867/10/1 868/11/1
f 869/9/1 870/8/1 871/11/1 872/12/1
f 873/4/1 874/3/1 875/7/1 876/8/1
f 877/6/1 878/4/1 879/8/1 880/9/1
f 881/1/1 882/2/1 883/3/1 884/4/1
f 885/5/1 886/1/1 887/4/1 888/6/1
f 889/8/1 890/7/1 891/10/1 892/11/1
f 893/9/1 894/8/1 895/11/1 896/12/1
f 897/4/1 898/3/1 899/7/1 900/8/1
f 901/6/1 902/4/1 903/8/1 904/9/1
f 905/8/1 906/7/1 907/10/1 908/11/1
f 909/9/1 910/8/1 911/11/1 912/12/1

