# Tiled2Unity generated file. Do not modify by hand.
# Wavefront file for 'Nivel2_mesh_0053.obj'

# Vertices (Count = 940)
v -21 -70 0
v -22 -70 0
v -22 -69 0
v -21 -69 0
v -20 -70 0
v -21 -70 0
v -21 -69 0
v -20 -69 0
v -19 -70 0
v -20 -70 0
v -20 -69 0
v -19 -69 0
v -18 -70 0
v -19 -70 0
v -19 -69 0
v -18 -69 0
v -17 -70 0
v -18 -70 0
v -18 -69 0
v -17 -69 0
v -21 -69 0
v -22 -69 0
v -22 -68 0
v -21 -68 0
v -20 -69 0
v -21 -69 0
v -21 -68 0
v -20 -68 0
v -19 -69 0
v -20 -69 0
v -20 -68 0
v -19 -68 0
v -18 -69 0
v -19 -69 0
v -19 -68 0
v -18 -68 0
v -17 -69 0
v -18 -69 0
v -18 -68 0
v -17 -68 0
v -21 -68 0
v -22 -68 0
v -22 -67 0
v -21 -67 0
v -20 -68 0
v -21 -68 0
v -21 -67 0
v -20 -67 0
v -19 -68 0
v -20 -68 0
v -20 -67 0
v -19 -67 0
v -18 -68 0
v -19 -68 0
v -19 -67 0
v -18 -67 0
v -17 -68 0
v -18 -68 0
v -18 -67 0
v -17 -67 0
v -16 -67 0
v -17 -67 0
v -17 -66 0
v -16 -66 0
v -15 -67 0
v -16 -67 0
v -16 -66 0
v -15 -66 0
v -14 -67 0
v -15 -67 0
v -15 -66 0
v -14 -66 0
v -13 -67 0
v -14 -67 0
v -14 -66 0
v -13 -66 0
v -12 -67 0
v -13 -67 0
v -13 -66 0
v -12 -66 0
v -11 -67 0
v -12 -67 0
v -12 -66 0
v -11 -66 0
v -16 -66 0
v -17 -66 0
v -17 -65 0
v -16 -65 0
v -15 -66 0
v -16 -66 0
v -16 -65 0
v -15 -65 0
v -14 -66 0
v -15 -66 0
v -15 -65 0
v -14 -65 0
v -13 -66 0
v -14 -66 0
v -14 -65 0
v -13 -65 0
v -12 -66 0
v -13 -66 0
v -13 -65 0
v -12 -65 0
v -11 -66 0
v -12 -66 0
v -12 -65 0
v -11 -65 0
v -16 -65 0
v -17 -65 0
v -17 -64 0
v -16 -64 0
v -15 -65 0
v -16 -65 0
v -16 -64 0
v -15 -64 0
v -14 -65 0
v -15 -65 0
v -15 -64 0
v -14 -64 0
v -13 -65 0
v -14 -65 0
v -14 -64 0
v -13 -64 0
v -12 -65 0
v -13 -65 0
v -13 -64 0
v -12 -64 0
v -11 -65 0
v -12 -65 0
v -12 -64 0
v -11 -64 0
v -16 -64 0
v -17 -64 0
v -17 -63 0
v -16 -63 0
v -15 -64 0
v -16 -64 0
v -16 -63 0
v -15 -63 0
v -14 -64 0
v -15 -64 0
v -15 -63 0
v -14 -63 0
v -13 -64 0
v -14 -64 0
v -14 -63 0
v -13 -63 0
v -12 -64 0
v -13 -64 0
v -13 -63 0
v -12 -63 0
v -11 -64 0
v -12 -64 0
v -12 -63 0
v -11 -63 0
v -31 -58 0
v -32 -58 0
v -32 -57 0
v -31 -57 0
v -30 -58 0
v -31 -58 0
v -31 -57 0
v -30 -57 0
v -29 -58 0
v -30 -58 0
v -30 -57 0
v -29 -57 0
v -28 -58 0
v -29 -58 0
v -29 -57 0
v -28 -57 0
v -27 -58 0
v -28 -58 0
v -28 -57 0
v -27 -57 0
v -31 -57 0
v -32 -57 0
v -32 -56 0
v -31 -56 0
v -30 -57 0
v -31 -57 0
v -31 -56 0
v -30 -56 0
v -29 -57 0
v -30 -57 0
v -30 -56 0
v -29 -56 0
v -28 -57 0
v -29 -57 0
v -29 -56 0
v -28 -56 0
v -27 -57 0
v -28 -57 0
v -28 -56 0
v -27 -56 0
v -31 -56 0
v -32 -56 0
v -32 -55 0
v -31 -55 0
v -30 -56 0
v -31 -56 0
v -31 -55 0
v -30 -55 0
v -29 -56 0
v -30 -56 0
v -30 -55 0
v -29 -55 0
v -28 -56 0
v -29 -56 0
v -29 -55 0
v -28 -55 0
v -27 -56 0
v -28 -56 0
v -28 -55 0
v -27 -55 0
v -31 -55 0
v -32 -55 0
v -32 -54 0
v -31 -54 0
v -30 -55 0
v -31 -55 0
v -31 -54 0
v -30 -54 0
v -29 -55 0
v -30 -55 0
v -30 -54 0
v -29 -54 0
v -28 -55 0
v -29 -55 0
v -29 -54 0
v -28 -54 0
v -27 -55 0
v -28 -55 0
v -28 -54 0
v -27 -54 0
v -31 -54 0
v -32 -54 0
v -32 -53 0
v -31 -53 0
v -30 -54 0
v -31 -54 0
v -31 -53 0
v -30 -53 0
v -29 -54 0
v -30 -54 0
v -30 -53 0
v -29 -53 0
v -28 -54 0
v -29 -54 0
v -29 -53 0
v -28 -53 0
v -27 -54 0
v -28 -54 0
v -28 -53 0
v -27 -53 0
v -35 -31 0
v -36 -31 0
v -36 -30 0
v -35 -30 0
v -34 -31 0
v -35 -31 0
v -35 -30 0
v -34 -30 0
v -33 -31 0
v -34 -31 0
v -34 -30 0
v -33 -30 0
v -32 -31 0
v -33 -31 0
v -33 -30 0
v -32 -30 0
v -31 -31 0
v -32 -31 0
v -32 -30 0
v -31 -30 0
v -35 -30 0
v -36 -30 0
v -36 -29 0
v -35 -29 0
v -34 -30 0
v -35 -30 0
v -35 -29 0
v -34 -29 0
v -33 -30 0
v -34 -30 0
v -34 -29 0
v -33 -29 0
v -32 -30 0
v -33 -30 0
v -33 -29 0
v -32 -29 0
v -31 -30 0
v -32 -30 0
v -32 -29 0
v -31 -29 0
v -35 -29 0
v -36 -29 0
v -36 -28 0
v -35 -28 0
v -34 -29 0
v -35 -29 0
v -35 -28 0
v -34 -28 0
v -33 -29 0
v -34 -29 0
v -34 -28 0
v -33 -28 0
v -32 -29 0
v -33 -29 0
v -33 -28 0
v -32 -28 0
v -31 -29 0
v -32 -29 0
v -32 -28 0
v -31 -28 0
v -39 -27 0
v -40 -27 0
v -40 -26 0
v -39 -26 0
v -38 -27 0
v -39 -27 0
v -39 -26 0
v -38 -26 0
v -37 -27 0
v -38 -27 0
v -38 -26 0
v -37 -26 0
v -36 -27 0
v -37 -27 0
v -37 -26 0
v -36 -26 0
v -35 -27 0
v -36 -27 0
v -36 -26 0
v -35 -26 0
v -34 -27 0
v -35 -27 0
v -35 -26 0
v -34 -26 0
v -33 -27 0
v -34 -27 0
v -34 -26 0
v -33 -26 0
v -32 -27 0
v -33 -27 0
v -33 -26 0
v -32 -26 0
v -31 -27 0
v -32 -27 0
v -32 -26 0
v -31 -26 0
v -30 -27 0
v -31 -27 0
v -31 -26 0
v -30 -26 0
v -29 -27 0
v -30 -27 0
v -30 -26 0
v -29 -26 0
v -28 -27 0
v -29 -27 0
v -29 -26 0
v -28 -26 0
v -27 -27 0
v -28 -27 0
v -28 -26 0
v -27 -26 0
v -26 -27 0
v -27 -27 0
v -27 -26 0
v -26 -26 0
v -22 -27 0
v -23 -27 0
v -23 -26 0
v -22 -26 0
v -21 -27 0
v -22 -27 0
v -22 -26 0
v -21 -26 0
v -39 -26 0
v -40 -26 0
v -40 -25 0
v -39 -25 0
v -38 -26 0
v -39 -26 0
v -39 -25 0
v -38 -25 0
v -37 -26 0
v -38 -26 0
v -38 -25 0
v -37 -25 0
v -36 -26 0
v -37 -26 0
v -37 -25 0
v -36 -25 0
v -35 -26 0
v -36 -26 0
v -36 -25 0
v -35 -25 0
v -34 -26 0
v -35 -26 0
v -35 -25 0
v -34 -25 0
v -33 -26 0
v -34 -26 0
v -34 -25 0
v -33 -25 0
v -32 -26 0
v -33 -26 0
v -33 -25 0
v -32 -25 0
v -31 -26 0
v -32 -26 0
v -32 -25 0
v -31 -25 0
v -30 -26 0
v -31 -26 0
v -31 -25 0
v -30 -25 0
v -29 -26 0
v -30 -26 0
v -30 -25 0
v -29 -25 0
v -28 -26 0
v -29 -26 0
v -29 -25 0
v -28 -25 0
v -27 -26 0
v -28 -26 0
v -28 -25 0
v -27 -25 0
v -26 -26 0
v -27 -26 0
v -27 -25 0
v -26 -25 0
v -22 -26 0
v -23 -26 0
v -23 -25 0
v -22 -25 0
v -21 -26 0
v -22 -26 0
v -22 -25 0
v -21 -25 0
v -38 -25 0
v -39 -25 0
v -39 -24 0
v -38 -24 0
v -37 -25 0
v -38 -25 0
v -38 -24 0
v -37 -24 0
v -36 -25 0
v -37 -25 0
v -37 -24 0
v -36 -24 0
v -35 -25 0
v -36 -25 0
v -36 -24 0
v -35 -24 0
v -34 -25 0
v -35 -25 0
v -35 -24 0
v -34 -24 0
v -33 -25 0
v -34 -25 0
v -34 -24 0
v -33 -24 0
v -32 -25 0
v -33 -25 0
v -33 -24 0
v -32 -24 0
v -22 -25 0
v -23 -25 0
v -23 -24 0
v -22 -24 0
v -21 -25 0
v -22 -25 0
v -22 -24 0
v -21 -24 0
v -22 -24 0
v -23 -24 0
v -23 -23 0
v -22 -23 0
v -21 -24 0
v -22 -24 0
v -22 -23 0
v -21 -23 0
v -22 -23 0
v -23 -23 0
v -23 -22 0
v -22 -22 0
v -21 -23 0
v -22 -23 0
v -22 -22 0
v -21 -22 0
v -22 -22 0
v -23 -22 0
v -23 -21 0
v -22 -21 0
v -21 -22 0
v -22 -22 0
v -22 -21 0
v -21 -21 0
v -37 -21 0
v -38 -21 0
v -38 -20 0
v -37 -20 0
v -36 -21 0
v -37 -21 0
v -37 -20 0
v -36 -20 0
v -35 -21 0
v -36 -21 0
v -36 -20 0
v -35 -20 0
v -34 -21 0
v -35 -21 0
v -35 -20 0
v -34 -20 0
v -33 -21 0
v -34 -21 0
v -34 -20 0
v -33 -20 0
v -22 -21 0
v -23 -21 0
v -23 -20 0
v -22 -20 0
v -21 -21 0
v -22 -21 0
v -22 -20 0
v -21 -20 0
v -37 -20 0
v -38 -20 0
v -38 -19 0
v -37 -19 0
v -36 -20 0
v -37 -20 0
v -37 -19 0
v -36 -19 0
v -35 -20 0
v -36 -20 0
v -36 -19 0
v -35 -19 0
v -34 -20 0
v -35 -20 0
v -35 -19 0
v -34 -19 0
v -33 -20 0
v -34 -20 0
v -34 -19 0
v -33 -19 0
v -22 -20 0
v -23 -20 0
v -23 -19 0
v -22 -19 0
v -21 -20 0
v -22 -20 0
v -22 -19 0
v -21 -19 0
v -37 -19 0
v -38 -19 0
v -38 -18 0
v -37 -18 0
v -36 -19 0
v -37 -19 0
v -37 -18 0
v -36 -18 0
v -35 -19 0
v -36 -19 0
v -36 -18 0
v -35 -18 0
v -34 -19 0
v -35 -19 0
v -35 -18 0
v -34 -18 0
v -33 -19 0
v -34 -19 0
v -34 -18 0
v -33 -18 0
v -22 -19 0
v -23 -19 0
v -23 -18 0
v -22 -18 0
v -21 -19 0
v -22 -19 0
v -22 -18 0
v -21 -18 0
v -22 -18 0
v -23 -18 0
v -23 -17 0
v -22 -17 0
v -21 -18 0
v -22 -18 0
v -22 -17 0
v -21 -17 0
v -22 -17 0
v -23 -17 0
v -23 -16 0
v -22 -16 0
v -21 -17 0
v -22 -17 0
v -22 -16 0
v -21 -16 0
v -22 -16 0
v -23 -16 0
v -23 -15 0
v -22 -15 0
v -21 -16 0
v -22 -16 0
v -22 -15 0
v -21 -15 0
v -39 -15 0
v -40 -15 0
v -40 -14 0
v -39 -14 0
v -38 -15 0
v -39 -15 0
v -39 -14 0
v -38 -14 0
v -22 -15 0
v -23 -15 0
v -23 -14 0
v -22 -14 0
v -21 -15 0
v -22 -15 0
v -22 -14 0
v -21 -14 0
v -39 -14 0
v -40 -14 0
v -40 -13 0
v -39 -13 0
v -38 -14 0
v -39 -14 0
v -39 -13 0
v -38 -13 0
v -27 -14 0
v -28 -14 0
v -28 -13 0
v -27 -13 0
v -26 -14 0
v -27 -14 0
v -27 -13 0
v -26 -13 0
v -25 -14 0
v -26 -14 0
v -26 -13 0
v -25 -13 0
v -24 -14 0
v -25 -14 0
v -25 -13 0
v -24 -13 0
v -23 -14 0
v -24 -14 0
v -24 -13 0
v -23 -13 0
v -22 -14 0
v -23 -14 0
v -23 -13 0
v -22 -13 0
v -21 -14 0
v -22 -14 0
v -22 -13 0
v -21 -13 0
v -39 -13 0
v -40 -13 0
v -40 -12 0
v -39 -12 0
v -38 -13 0
v -39 -13 0
v -39 -12 0
v -38 -12 0
v -27 -13 0
v -28 -13 0
v -28 -12 0
v -27 -12 0
v -26 -13 0
v -27 -13 0
v -27 -12 0
v -26 -12 0
v -25 -13 0
v -26 -13 0
v -26 -12 0
v -25 -12 0
v -24 -13 0
v -25 -13 0
v -25 -12 0
v -24 -12 0
v -23 -13 0
v -24 -13 0
v -24 -12 0
v -23 -12 0
v -22 -13 0
v -23 -13 0
v -23 -12 0
v -22 -12 0
v -21 -13 0
v -22 -13 0
v -22 -12 0
v -21 -12 0
v -39 -12 0
v -40 -12 0
v -40 -11 0
v -39 -11 0
v -38 -12 0
v -39 -12 0
v -39 -11 0
v -38 -11 0
v -27 -12 0
v -28 -12 0
v -28 -11 0
v -27 -11 0
v -26 -12 0
v -27 -12 0
v -27 -11 0
v -26 -11 0
v -39 -11 0
v -40 -11 0
v -40 -10 0
v -39 -10 0
v -38 -11 0
v -39 -11 0
v -39 -10 0
v -38 -10 0
v -27 -11 0
v -28 -11 0
v -28 -10 0
v -27 -10 0
v -26 -11 0
v -27 -11 0
v -27 -10 0
v -26 -10 0
v -39 -10 0
v -40 -10 0
v -40 -9 0
v -39 -9 0
v -38 -10 0
v -39 -10 0
v -39 -9 0
v -38 -9 0
v -27 -10 0
v -28 -10 0
v -28 -9 0
v -27 -9 0
v -26 -10 0
v -27 -10 0
v -27 -9 0
v -26 -9 0
v -39 -9 0
v -40 -9 0
v -40 -8 0
v -39 -8 0
v -38 -9 0
v -39 -9 0
v -39 -8 0
v -38 -8 0
v -27 -9 0
v -28 -9 0
v -28 -8 0
v -27 -8 0
v -26 -9 0
v -27 -9 0
v -27 -8 0
v -26 -8 0
v -39 -8 0
v -40 -8 0
v -40 -7 0
v -39 -7 0
v -38 -8 0
v -39 -8 0
v -39 -7 0
v -38 -7 0
v -27 -8 0
v -28 -8 0
v -28 -7 0
v -27 -7 0
v -26 -8 0
v -27 -8 0
v -27 -7 0
v -26 -7 0
v -39 -7 0
v -40 -7 0
v -40 -6 0
v -39 -6 0
v -38 -7 0
v -39 -7 0
v -39 -6 0
v -38 -6 0
v -27 -7 0
v -28 -7 0
v -28 -6 0
v -27 -6 0
v -26 -7 0
v -27 -7 0
v -27 -6 0
v -26 -6 0
v -39 -6 0
v -40 -6 0
v -40 -5 0
v -39 -5 0
v -38 -6 0
v -39 -6 0
v -39 -5 0
v -38 -5 0
v -27 -6 0
v -28 -6 0
v -28 -5 0
v -27 -5 0
v -26 -6 0
v -27 -6 0
v -27 -5 0
v -26 -5 0
v -39 -5 0
v -40 -5 0
v -40 -4 0
v -39 -4 0
v -38 -5 0
v -39 -5 0
v -39 -4 0
v -38 -4 0
v -27 -5 0
v -28 -5 0
v -28 -4 0
v -27 -4 0
v -26 -5 0
v -27 -5 0
v -27 -4 0
v -26 -4 0
v -39 -4 0
v -40 -4 0
v -40 -3 0
v -39 -3 0
v -38 -4 0
v -39 -4 0
v -39 -3 0
v -38 -3 0
v -37 -4 0
v -38 -4 0
v -38 -3 0
v -37 -3 0
v -36 -4 0
v -37 -4 0
v -37 -3 0
v -36 -3 0
v -35 -4 0
v -36 -4 0
v -36 -3 0
v -35 -3 0
v -34 -4 0
v -35 -4 0
v -35 -3 0
v -34 -3 0
v -33 -4 0
v -34 -4 0
v -34 -3 0
v -33 -3 0
v -32 -4 0
v -33 -4 0
v -33 -3 0
v -32 -3 0
v -31 -4 0
v -32 -4 0
v -32 -3 0
v -31 -3 0
v -30 -4 0
v -31 -4 0
v -31 -3 0
v -30 -3 0
v -29 -4 0
v -30 -4 0
v -30 -3 0
v -29 -3 0
v -28 -4 0
v -29 -4 0
v -29 -3 0
v -28 -3 0
v -27 -4 0
v -28 -4 0
v -28 -3 0
v -27 -3 0
v -26 -4 0
v -27 -4 0
v -27 -3 0
v -26 -3 0
v -39 -3 0
v -40 -3 0
v -40 -2 0
v -39 -2 0
v -38 -3 0
v -39 -3 0
v -39 -2 0
v -38 -2 0
v -37 -3 0
v -38 -3 0
v -38 -2 0
v -37 -2 0
v -36 -3 0
v -37 -3 0
v -37 -2 0
v -36 -2 0
v -35 -3 0
v -36 -3 0
v -36 -2 0
v -35 -2 0
v -34 -3 0
v -35 -3 0
v -35 -2 0
v -34 -2 0
v -33 -3 0
v -34 -3 0
v -34 -2 0
v -33 -2 0
v -32 -3 0
v -33 -3 0
v -33 -2 0
v -32 -2 0
v -31 -3 0
v -32 -3 0
v -32 -2 0
v -31 -2 0
v -30 -3 0
v -31 -3 0
v -31 -2 0
v -30 -2 0
v -29 -3 0
v -30 -3 0
v -30 -2 0
v -29 -2 0
v -28 -3 0
v -29 -3 0
v -29 -2 0
v -28 -2 0
v -27 -3 0
v -28 -3 0
v -28 -2 0
v -27 -2 0
v -26 -3 0
v -27 -3 0
v -27 -2 0
v -26 -2 0

# Texture cooridinates (Count = 112)
vt 0.4324324 0.9189189
vt 0.4594595 0.9189189
vt 0.4594595 0.9459459
vt 0.4324324 0.9459459
vt 0.4054054 0.9189189
vt 0.4054054 0.9459459
vt 0.3783784 0.9189189
vt 0.3783784 0.9459459
vt 0.3513514 0.9189189
vt 0.3513514 0.9459459
vt 0.3243243 0.9189189
vt 0.3243243 0.9459459
vt 0.4594595 0.972973
vt 0.4324324 0.972973
vt 0.4054054 0.972973
vt 0.3783784 0.972973
vt 0.3513514 0.972973
vt 0.3243243 0.972973
vt 0.4594595 1
vt 0.4324324 1
vt 0.4054054 1
vt 0.3783784 1
vt 0.3513514 1
vt 0.3243243 1
vt 0.4864865 0.7297298
vt 0.5135135 0.7297298
vt 0.5135135 0.7567568
vt 0.4864865 0.7567568
vt 0.4594595 0.7297298
vt 0.4594595 0.7567568
vt 0.4324324 0.7297298
vt 0.4324324 0.7567568
vt 0.4054054 0.7297298
vt 0.4054054 0.7567568
vt 0.3783784 0.7297298
vt 0.3783784 0.7567568
vt 0.3513514 0.7297298
vt 0.3513514 0.7567568
vt 0.5135135 0.7837838
vt 0.4864865 0.7837838
vt 0.4594595 0.7837838
vt 0.4324324 0.7837838
vt 0.4054054 0.7837838
vt 0.3783784 0.7837838
vt 0.3513514 0.7837838
vt 0.5135135 0.8108108
vt 0.4864865 0.8108108
vt 0.4594595 0.8108108
vt 0.4324324 0.8108108
vt 0.4054054 0.8108108
vt 0.3783784 0.8108108
vt 0.3513514 0.8108108
vt 0.5135135 0.8378378
vt 0.4864865 0.8378378
vt 0.4594595 0.8378378
vt 0.4324324 0.8378378
vt 0.4054054 0.8378378
vt 0.3783784 0.8378378
vt 0.3513514 0.8378378
vt 0.3243243 0.7297298
vt 0.3243243 0.7567568
vt 0.3243243 0.7837838
vt 0.3243243 0.8108108
vt 0.3243243 0.8378378
vt 0.4594595 0.8648649
vt 0.4324324 0.8648649
vt 0.4054054 0.8648649
vt 0.3783784 0.8648649
vt 0.3513514 0.8648649
vt 0.3243243 0.8648649
vt 0.7837838 0
vt 0.8108108 0
vt 0.8108108 0.02702701
vt 0.7837838 0.02702701
vt 0.8918919 0.1891892
vt 0.9189189 0.1891892
vt 0.9189189 0.2162162
vt 0.8918919 0.2162162
vt 0.8648649 0.1891892
vt 0.8648649 0.2162162
vt 0.8378378 0.1891892
vt 0.8378378 0.2162162
vt 0.8108108 0.1891892
vt 0.8108108 0.2162162
vt 0.7837838 0.1891892
vt 0.7837838 0.2162162
vt 0.7567568 0.1891892
vt 0.7567568 0.2162162
vt 0.7297297 0.1891892
vt 0.7297297 0.2162162
vt 0.8378378 0
vt 0.8378378 0.02702701
vt 0.8108108 0.05405408
vt 0.7837838 0.05405408
vt 0.7567568 0.2432432
vt 0.7297297 0.2432432
vt 0.8378378 0.05405408
vt 0.9189189 0.2432432
vt 0.8918919 0.2432432
vt 0.8648649 0.2432432
vt 0.8378378 0.2432432
vt 0.8108108 0.2432432
vt 0.7837838 0.2432432
vt 0.8648649 0
vt 0.8918919 0
vt 0.8918919 0.02702701
vt 0.8648649 0.02702701
vt 0.7567568 0
vt 0.7567568 0.02702701
vt 0.8918919 0.05405408
vt 0.8648649 0.05405408
vt 0.7567568 0.05405408

# Normal
vn 0 0 -1

# Mesh description
g Nivel2_mesh_0053

# Faces
f 1/1/1 2/2/1 3/3/1 4/4/1
f 5/5/1 6/1/1 7/4/1 8/6/1
f 9/7/1 10/5/1 11/6/1 12/8/1
f 13/9/1 14/7/1 15/8/1 16/10/1
f 17/11/1 18/9/1 19/10/1 20/12/1
f 21/4/1 22/3/1 23/13/1 24/14/1
f 25/6/1 26/4/1 27/14/1 28/15/1
f 29/8/1 30/6/1 31/15/1 32/16/1
f 33/10/1 34/8/1 35/16/1 36/17/1
f 37/12/1 38/10/1 39/17/1 40/18/1
f 41/14/1 42/13/1 43/19/1 44/20/1
f 45/15/1 46/14/1 47/20/1 48/21/1
f 49/16/1 50/15/1 51/21/1 52/22/1
f 53/17/1 54/16/1 55/22/1 56/23/1
f 57/18/1 58/17/1 59/23/1 60/24/1
f 61/25/1 62/26/1 63/27/1 64/28/1
f 65/29/1 66/25/1 67/28/1 68/30/1
f 69/31/1 70/29/1 71/30/1 72/32/1
f 73/33/1 74/31/1 75/32/1 76/34/1
f 77/35/1 78/33/1 79/34/1 80/36/1
f 81/37/1 82/35/1 83/36/1 84/38/1
f 85/28/1 86/27/1 87/39/1 88/40/1
f 89/30/1 90/28/1 91/40/1 92/41/1
f 93/32/1 94/30/1 95/41/1 96/42/1
f 97/34/1 98/32/1 99/42/1 100/43/1
f 101/36/1 102/34/1 103/43/1 104/44/1
f 105/38/1 106/36/1 107/44/1 108/45/1
f 109/40/1 110/39/1 111/46/1 112/47/1
f 113/41/1 114/40/1 115/47/1 116/48/1
f 117/42/1 118/41/1 119/48/1 120/49/1
f 121/43/1 122/42/1 123/49/1 124/50/1
f 125/44/1 126/43/1 127/50/1 128/51/1
f 129/45/1 130/44/1 131/51/1 132/52/1
f 133/47/1 134/46/1 135/53/1 136/54/1
f 137/48/1 138/47/1 139/54/1 140/55/1
f 141/49/1 142/48/1 143/55/1 144/56/1
f 145/50/1 146/49/1 147/56/1 148/57/1
f 149/51/1 150/50/1 151/57/1 152/58/1
f 153/52/1 154/51/1 155/58/1 156/59/1
f 157/31/1 158/29/1 159/30/1 160/32/1
f 161/33/1 162/31/1 163/32/1 164/34/1
f 165/35/1 166/33/1 167/34/1 168/36/1
f 169/37/1 170/35/1 171/36/1 172/38/1
f 173/60/1 174/37/1 175/38/1 176/61/1
f 177/32/1 178/30/1 179/41/1 180/42/1
f 181/34/1 182/32/1 183/42/1 184/43/1
f 185/36/1 186/34/1 187/43/1 188/44/1
f 189/38/1 190/36/1 191/44/1 192/45/1
f 193/61/1 194/38/1 195/45/1 196/62/1
f 197/42/1 198/41/1 199/48/1 200/49/1
f 201/43/1 202/42/1 203/49/1 204/50/1
f 205/44/1 206/43/1 207/50/1 208/51/1
f 209/45/1 210/44/1 211/51/1 212/52/1
f 213/62/1 214/45/1 215/52/1 216/63/1
f 217/49/1 218/48/1 219/55/1 220/56/1
f 221/50/1 222/49/1 223/56/1 224/57/1
f 225/51/1 226/50/1 227/57/1 228/58/1
f 229/52/1 230/51/1 231/58/1 232/59/1
f 233/63/1 234/52/1 235/59/1 236/64/1
f 237/56/1 238/55/1 239/65/1 240/66/1
f 241/57/1 242/56/1 243/66/1 244/67/1
f 245/58/1 246/57/1 247/67/1 248/68/1
f 249/59/1 250/58/1 251/68/1 252/69/1
f 253/64/1 254/59/1 255/69/1 256/70/1
f 257/9/1 258/11/1 259/12/1 260/10/1
f 261/7/1 262/9/1 263/10/1 264/8/1
f 265/5/1 266/7/1 267/8/1 268/6/1
f 269/1/1 270/5/1 271/6/1 272/4/1
f 273/2/1 274/1/1 275/4/1 276/3/1
f 277/10/1 278/12/1 279/18/1 280/17/1
f 281/8/1 282/10/1 283/17/1 284/16/1
f 285/6/1 286/8/1 287/16/1 288/15/1
f 289/4/1 290/6/1 291/15/1 292/14/1
f 293/3/1 294/4/1 295/14/1 296/13/1
f 297/17/1 298/18/1 299/24/1 300/23/1
f 301/16/1 302/17/1 303/23/1 304/22/1
f 305/15/1 306/16/1 307/22/1 308/21/1
f 309/14/1 310/15/1 311/21/1 312/20/1
f 313/13/1 314/14/1 315/20/1 316/19/1
f 317/71/1 318/72/1 319/73/1 320/74/1
f 321/75/1 322/76/1 323/77/1 324/78/1
f 325/79/1 326/75/1 327/78/1 328/80/1
f 329/81/1 330/79/1 331/80/1 332/82/1
f 333/83/1 334/81/1 335/82/1 336/84/1
f 337/85/1 338/83/1 339/84/1 340/86/1
f 341/87/1 342/85/1 343/86/1 344/88/1
f 345/89/1 346/87/1 347/88/1 348/90/1
f 349/89/1 350/87/1 351/88/1 352/90/1
f 353/89/1 354/87/1 355/88/1 356/90/1
f 357/89/1 358/87/1 359/88/1 360/90/1
f 361/89/1 362/87/1 363/88/1 364/90/1
f 365/89/1 366/87/1 367/88/1 368/90/1
f 369/89/1 370/87/1 371/88/1 372/90/1
f 373/71/1 374/72/1 375/73/1 376/74/1
f 377/72/1 378/91/1 379/92/1 380/73/1
f 381/74/1 382/73/1 383/93/1 384/94/1
f 385/75/1 386/76/1 387/77/1 388/78/1
f 389/79/1 390/75/1 391/78/1 392/80/1
f 393/81/1 394/79/1 395/80/1 396/82/1
f 397/83/1 398/81/1 399/82/1 400/84/1
f 401/85/1 402/83/1 403/84/1 404/86/1
f 405/87/1 406/85/1 407/86/1 408/88/1
f 409/89/1 410/87/1 411/88/1 412/90/1
f 413/90/1 414/88/1 415/95/1 416/96/1
f 417/90/1 418/88/1 419/95/1 420/96/1
f 421/90/1 422/88/1 423/95/1 424/96/1
f 425/90/1 426/88/1 427/95/1 428/96/1
f 429/90/1 430/88/1 431/95/1 432/96/1
f 433/90/1 434/88/1 435/95/1 436/96/1
f 437/74/1 438/73/1 439/93/1 440/94/1
f 441/73/1 442/92/1 443/97/1 444/93/1
f 445/78/1 446/77/1 447/98/1 448/99/1
f 449/80/1 450/78/1 451/99/1 452/100/1
f 453/82/1 454/80/1 455/100/1 456/101/1
f 457/84/1 458/82/1 459/101/1 460/102/1
f 461/86/1 462/84/1 463/102/1 464/103/1
f 465/88/1 466/86/1 467/103/1 468/95/1
f 469/90/1 470/88/1 471/95/1 472/96/1
f 473/71/1 474/72/1 475/73/1 476/74/1
f 477/73/1 478/92/1 479/97/1 480/93/1
f 481/74/1 482/73/1 483/93/1 484/94/1
f 485/72/1 486/91/1 487/92/1 488/73/1
f 489/71/1 490/72/1 491/73/1 492/74/1
f 493/73/1 494/92/1 495/97/1 496/93/1
f 497/74/1 498/73/1 499/93/1 500/94/1
f 501/72/1 502/91/1 503/92/1 504/73/1
f 505/1/1 506/2/1 507/3/1 508/4/1
f 509/5/1 510/1/1 511/4/1 512/6/1
f 513/7/1 514/5/1 515/6/1 516/8/1
f 517/9/1 518/7/1 519/8/1 520/10/1
f 521/11/1 522/9/1 523/10/1 524/12/1
f 525/71/1 526/72/1 527/73/1 528/74/1
f 529/73/1 530/92/1 531/97/1 532/93/1
f 533/4/1 534/3/1 535/13/1 536/14/1
f 537/6/1 538/4/1 539/14/1 540/15/1
f 541/8/1 542/6/1 543/15/1 544/16/1
f 545/10/1 546/8/1 547/16/1 548/17/1
f 549/12/1 550/10/1 551/17/1 552/18/1
f 553/74/1 554/73/1 555/93/1 556/94/1
f 557/72/1 558/91/1 559/92/1 560/73/1
f 561/14/1 562/13/1 563/19/1 564/20/1
f 565/15/1 566/14/1 567/20/1 568/21/1
f 569/16/1 570/15/1 571/21/1 572/22/1
f 573/17/1 574/16/1 575/22/1 576/23/1
f 577/18/1 578/17/1 579/23/1 580/24/1
f 581/71/1 582/72/1 583/73/1 584/74/1
f 585/73/1 586/92/1 587/97/1 588/93/1
f 589/74/1 590/73/1 591/93/1 592/94/1
f 593/72/1 594/91/1 595/92/1 596/73/1
f 597/71/1 598/72/1 599/73/1 600/74/1
f 601/73/1 602/92/1 603/97/1 604/93/1
f 605/71/1 606/72/1 607/73/1 608/74/1
f 609/72/1 610/91/1 611/92/1 612/73/1
f 613/71/1 614/72/1 615/73/1 616/74/1
f 617/72/1 618/91/1 619/92/1 620/73/1
f 621/74/1 622/73/1 623/93/1 624/94/1
f 625/73/1 626/92/1 627/97/1 628/93/1
f 629/74/1 630/73/1 631/93/1 632/94/1
f 633/73/1 634/92/1 635/97/1 636/93/1
f 637/71/1 638/72/1 639/73/1 640/74/1
f 641/104/1 642/105/1 643/106/1 644/107/1
f 645/91/1 646/104/1 647/107/1 648/92/1
f 649/108/1 650/71/1 651/74/1 652/109/1
f 653/104/1 654/105/1 655/106/1 656/107/1
f 657/91/1 658/104/1 659/107/1 660/92/1
f 661/72/1 662/91/1 663/92/1 664/73/1
f 665/74/1 666/73/1 667/93/1 668/94/1
f 669/72/1 670/91/1 671/92/1 672/73/1
f 673/74/1 674/73/1 675/93/1 676/94/1
f 677/107/1 678/106/1 679/110/1 680/111/1
f 681/92/1 682/107/1 683/111/1 684/97/1
f 685/109/1 686/74/1 687/94/1 688/112/1
f 689/107/1 690/106/1 691/110/1 692/111/1
f 693/92/1 694/107/1 695/111/1 696/97/1
f 697/73/1 698/92/1 699/97/1 700/93/1
f 701/71/1 702/72/1 703/73/1 704/74/1
f 705/73/1 706/92/1 707/97/1 708/93/1
f 709/71/1 710/72/1 711/73/1 712/74/1
f 713/72/1 714/91/1 715/92/1 716/73/1
f 717/74/1 718/73/1 719/93/1 720/94/1
f 721/72/1 722/91/1 723/92/1 724/73/1
f 725/74/1 726/73/1 727/93/1 728/94/1
f 729/73/1 730/92/1 731/97/1 732/93/1
f 733/71/1 734/72/1 735/73/1 736/74/1
f 737/73/1 738/92/1 739/97/1 740/93/1
f 741/71/1 742/72/1 743/73/1 744/74/1
f 745/72/1 746/91/1 747/92/1 748/73/1
f 749/74/1 750/73/1 751/93/1 752/94/1
f 753/72/1 754/91/1 755/92/1 756/73/1
f 757/74/1 758/73/1 759/93/1 760/94/1
f 761/73/1 762/92/1 763/97/1 764/93/1
f 765/71/1 766/72/1 767/73/1 768/74/1
f 769/73/1 770/92/1 771/97/1 772/93/1
f 773/71/1 774/72/1 775/73/1 776/74/1
f 777/72/1 778/91/1 779/92/1 780/73/1
f 781/74/1 782/73/1 783/93/1 784/94/1
f 785/72/1 786/91/1 787/92/1 788/73/1
f 789/74/1 790/73/1 791/93/1 792/94/1
f 793/73/1 794/92/1 795/97/1 796/93/1
f 797/71/1 798/72/1 799/73/1 800/74/1
f 801/72/1 802/91/1 803/92/1 804/73/1
f 805/71/1 806/72/1 807/73/1 808/74/1
f 809/72/1 810/91/1 811/92/1 812/73/1
f 813/74/1 814/73/1 815/93/1 816/94/1
f 817/73/1 818/92/1 819/97/1 820/93/1
f 821/74/1 822/73/1 823/93/1 824/94/1
f 825/73/1 826/92/1 827/97/1 828/93/1
f 829/71/1 830/72/1 831/73/1 832/74/1
f 833/104/1 834/105/1 835/106/1 836/107/1
f 837/91/1 838/104/1 839/107/1 840/92/1
f 841/104/1 842/105/1 843/106/1 844/107/1
f 845/91/1 846/104/1 847/107/1 848/92/1
f 849/104/1 850/105/1 851/106/1 852/107/1
f 853/91/1 854/104/1 855/107/1 856/92/1
f 857/104/1 858/105/1 859/106/1 860/107/1
f 861/91/1 862/104/1 863/107/1 864/92/1
f 865/104/1 866/105/1 867/106/1 868/107/1
f 869/91/1 870/104/1 871/107/1 872/92/1
f 873/104/1 874/105/1 875/106/1 876/107/1
f 877/91/1 878/104/1 879/107/1 880/92/1
f 881/72/1 882/91/1 883/92/1 884/73/1
f 885/71/1 886/72/1 887/73/1 888/74/1
f 889/107/1 890/106/1 891/110/1 892/111/1
f 893/92/1 894/107/1 895/111/1 896/97/1
f 897/107/1 898/106/1 899/110/1 900/111/1
f 901/92/1 902/107/1 903/111/1 904/97/1
f 905/107/1 906/106/1 907/110/1 908/111/1
f 909/92/1 910/107/1 911/111/1 912/97/1
f 913/107/1 914/106/1 915/110/1 916/111/1
f 917/92/1 918/107/1 919/111/1 920/97/1
f 921/107/1 922/106/1 923/110/1 924/111/1
f 925/92/1 926/107/1 927/111/1 928/97/1
f 929/107/1 930/106/1 931/110/1 932/111/1
f 933/92/1 934/107/1 935/111/1 936/97/1
f 937/73/1 938/92/1 939/97/1 940/93/1

