# Tiled2Unity generated file. Do not modify by hand.
# Wavefront file for 'Nivel2_mesh_0015.obj'

# Vertices (Count = 40)
v -27 -52 0
v -28 -52 0
v -28 -51 0
v -27 -51 0
v -26 -52 0
v -27 -52 0
v -27 -51 0
v -26 -51 0
v -25 -52 0
v -26 -52 0
v -26 -51 0
v -25 -51 0
v -24 -52 0
v -25 -52 0
v -25 -51 0
v -24 -51 0
v -23 -52 0
v -24 -52 0
v -24 -51 0
v -23 -51 0
v -27 -51 0
v -28 -51 0
v -28 -50 0
v -27 -50 0
v -26 -51 0
v -27 -51 0
v -27 -50 0
v -26 -50 0
v -25 -51 0
v -26 -51 0
v -26 -50 0
v -25 -50 0
v -24 -51 0
v -25 -51 0
v -25 -50 0
v -24 -50 0
v -23 -51 0
v -24 -51 0
v -24 -50 0
v -23 -50 0

# Texture cooridinates (Count = 18)
vt 0.3125 0.5806452
vt 0.34375 0.5806452
vt 0.34375 0.6129032
vt 0.3125 0.6129032
vt 0.28125 0.5806452
vt 0.28125 0.6129032
vt 0.25 0.5806452
vt 0.25 0.6129032
vt 0.21875 0.5806452
vt 0.21875 0.6129032
vt 0.1875 0.5806452
vt 0.1875 0.6129032
vt 0.34375 0.6451613
vt 0.3125 0.6451613
vt 0.28125 0.6451613
vt 0.25 0.6451613
vt 0.21875 0.6451613
vt 0.1875 0.6451613

# Normal
vn 0 0 -1

# Mesh description
g Nivel2_mesh_0015

# Faces
f 1/1/1 2/2/1 3/3/1 4/4/1
f 5/5/1 6/1/1 7/4/1 8/6/1
f 9/7/1 10/5/1 11/6/1 12/8/1
f 13/9/1 14/7/1 15/8/1 16/10/1
f 17/11/1 18/9/1 19/10/1 20/12/1
f 21/4/1 22/3/1 23/13/1 24/14/1
f 25/6/1 26/4/1 27/14/1 28/15/1
f 29/8/1 30/6/1 31/15/1 32/16/1
f 33/10/1 34/8/1 35/16/1 36/17/1
f 37/12/1 38/10/1 39/17/1 40/18/1

