# Tiled2Unity generated file. Do not modify by hand.
# Wavefront file for 'Nivel2_mesh_0052.obj'

# Vertices (Count = 224)
v -19 -68 0
v -20 -68 0
v -20 -67 0
v -19 -67 0
v -18 -68 0
v -19 -68 0
v -19 -67 0
v -18 -67 0
v -17 -68 0
v -18 -68 0
v -18 -67 0
v -17 -67 0
v -16 -68 0
v -17 -68 0
v -17 -67 0
v -16 -67 0
v -15 -68 0
v -16 -68 0
v -16 -67 0
v -15 -67 0
v -19 -67 0
v -20 -67 0
v -20 -66 0
v -19 -66 0
v -18 -67 0
v -19 -67 0
v -19 -66 0
v -18 -66 0
v -17 -67 0
v -18 -67 0
v -18 -66 0
v -17 -66 0
v -16 -67 0
v -17 -67 0
v -17 -66 0
v -16 -66 0
v -15 -67 0
v -16 -67 0
v -16 -66 0
v -15 -66 0
v -19 -66 0
v -20 -66 0
v -20 -65 0
v -19 -65 0
v -18 -66 0
v -19 -66 0
v -19 -65 0
v -18 -65 0
v -17 -66 0
v -18 -66 0
v -18 -65 0
v -17 -65 0
v -16 -66 0
v -17 -66 0
v -17 -65 0
v -16 -65 0
v -15 -66 0
v -16 -66 0
v -16 -65 0
v -15 -65 0
v -25 -60 0
v -26 -60 0
v -26 -59 0
v -25 -59 0
v -24 -60 0
v -25 -60 0
v -25 -59 0
v -24 -59 0
v -23 -60 0
v -24 -60 0
v -24 -59 0
v -23 -59 0
v -22 -60 0
v -23 -60 0
v -23 -59 0
v -22 -59 0
v -21 -60 0
v -22 -60 0
v -22 -59 0
v -21 -59 0
v -25 -59 0
v -26 -59 0
v -26 -58 0
v -25 -58 0
v -24 -59 0
v -25 -59 0
v -25 -58 0
v -24 -58 0
v -23 -59 0
v -24 -59 0
v -24 -58 0
v -23 -58 0
v -22 -59 0
v -23 -59 0
v -23 -58 0
v -22 -58 0
v -21 -59 0
v -22 -59 0
v -22 -58 0
v -21 -58 0
v -20 -59 0
v -21 -59 0
v -21 -58 0
v -20 -58 0
v -19 -59 0
v -20 -59 0
v -20 -58 0
v -19 -58 0
v -35 -58 0
v -36 -58 0
v -36 -57 0
v -35 -57 0
v -34 -58 0
v -35 -58 0
v -35 -57 0
v -34 -57 0
v -25 -58 0
v -26 -58 0
v -26 -57 0
v -25 -57 0
v -24 -58 0
v -25 -58 0
v -25 -57 0
v -24 -57 0
v -23 -58 0
v -24 -58 0
v -24 -57 0
v -23 -57 0
v -22 -58 0
v -23 -58 0
v -23 -57 0
v -22 -57 0
v -21 -58 0
v -22 -58 0
v -22 -57 0
v -21 -57 0
v -20 -58 0
v -21 -58 0
v -21 -57 0
v -20 -57 0
v -19 -58 0
v -20 -58 0
v -20 -57 0
v -19 -57 0
v -23 -57 0
v -24 -57 0
v -24 -56 0
v -23 -56 0
v -22 -57 0
v -23 -57 0
v -23 -56 0
v -22 -56 0
v -21 -57 0
v -22 -57 0
v -22 -56 0
v -21 -56 0
v -20 -57 0
v -21 -57 0
v -21 -56 0
v -20 -56 0
v -19 -57 0
v -20 -57 0
v -20 -56 0
v -19 -56 0
v -33 -29 0
v -34 -29 0
v -34 -28 0
v -33 -28 0
v -32 -29 0
v -33 -29 0
v -33 -28 0
v -32 -28 0
v -31 -29 0
v -32 -29 0
v -32 -28 0
v -31 -28 0
v -30 -29 0
v -31 -29 0
v -31 -28 0
v -30 -28 0
v -29 -29 0
v -30 -29 0
v -30 -28 0
v -29 -28 0
v -33 -28 0
v -34 -28 0
v -34 -27 0
v -33 -27 0
v -32 -28 0
v -33 -28 0
v -33 -27 0
v -32 -27 0
v -31 -28 0
v -32 -28 0
v -32 -27 0
v -31 -27 0
v -30 -28 0
v -31 -28 0
v -31 -27 0
v -30 -27 0
v -29 -28 0
v -30 -28 0
v -30 -27 0
v -29 -27 0
v -33 -27 0
v -34 -27 0
v -34 -26 0
v -33 -26 0
v -32 -27 0
v -33 -27 0
v -33 -26 0
v -32 -26 0
v -31 -27 0
v -32 -27 0
v -32 -26 0
v -31 -26 0
v -30 -27 0
v -31 -27 0
v -31 -26 0
v -30 -26 0
v -29 -27 0
v -30 -27 0
v -30 -26 0
v -29 -26 0

# Texture cooridinates (Count = 48)
vt 0.4324324 0.9189189
vt 0.4594595 0.9189189
vt 0.4594595 0.9459459
vt 0.4324324 0.9459459
vt 0.4054054 0.9189189
vt 0.4054054 0.9459459
vt 0.3783784 0.9189189
vt 0.3783784 0.9459459
vt 0.3513514 0.9189189
vt 0.3513514 0.9459459
vt 0.3243243 0.9189189
vt 0.3243243 0.9459459
vt 0.4594595 0.972973
vt 0.4324324 0.972973
vt 0.4054054 0.972973
vt 0.3783784 0.972973
vt 0.3513514 0.972973
vt 0.3243243 0.972973
vt 0.4594595 1
vt 0.4324324 1
vt 0.4054054 1
vt 0.3783784 1
vt 0.3513514 1
vt 0.3243243 1
vt 0.4054054 0.7837838
vt 0.4324324 0.7837838
vt 0.4324324 0.8108108
vt 0.4054054 0.8108108
vt 0.3783784 0.7837838
vt 0.3783784 0.8108108
vt 0.3513514 0.7837838
vt 0.3513514 0.8108108
vt 0.3243243 0.7837838
vt 0.3243243 0.8108108
vt 0.2972973 0.7837838
vt 0.2972973 0.8108108
vt 0.4324324 0.8378378
vt 0.4054054 0.8378378
vt 0.3783784 0.8378378
vt 0.7837838 0.02702701
vt 0.8108108 0.02702701
vt 0.8108108 0.05405408
vt 0.7837838 0.05405408
vt 0.8378378 0.02702701
vt 0.8378378 0.05405408
vt 0.4324324 0.8648649
vt 0.4054054 0.8648649
vt 0.3783784 0.8648649

# Normal
vn 0 0 -1

# Mesh description
g Nivel2_mesh_0052

# Faces
f 1/1/1 2/2/1 3/3/1 4/4/1
f 5/5/1 6/1/1 7/4/1 8/6/1
f 9/7/1 10/5/1 11/6/1 12/8/1
f 13/9/1 14/7/1 15/8/1 16/10/1
f 17/11/1 18/9/1 19/10/1 20/12/1
f 21/4/1 22/3/1 23/13/1 24/14/1
f 25/6/1 26/4/1 27/14/1 28/15/1
f 29/8/1 30/6/1 31/15/1 32/16/1
f 33/10/1 34/8/1 35/16/1 36/17/1
f 37/12/1 38/10/1 39/17/1 40/18/1
f 41/14/1 42/13/1 43/19/1 44/20/1
f 45/15/1 46/14/1 47/20/1 48/21/1
f 49/16/1 50/15/1 51/21/1 52/22/1
f 53/17/1 54/16/1 55/22/1 56/23/1
f 57/18/1 58/17/1 59/23/1 60/24/1
f 61/25/1 62/26/1 63/27/1 64/28/1
f 65/29/1 66/25/1 67/28/1 68/30/1
f 69/31/1 70/29/1 71/30/1 72/32/1
f 73/33/1 74/31/1 75/32/1 76/34/1
f 77/35/1 78/33/1 79/34/1 80/36/1
f 81/28/1 82/27/1 83/37/1 84/38/1
f 85/30/1 86/28/1 87/38/1 88/39/1
f 89/9/1 90/11/1 91/12/1 92/10/1
f 93/7/1 94/9/1 95/10/1 96/8/1
f 97/5/1 98/7/1 99/8/1 100/6/1
f 101/1/1 102/5/1 103/6/1 104/4/1
f 105/2/1 106/1/1 107/4/1 108/3/1
f 109/40/1 110/41/1 111/42/1 112/43/1
f 113/41/1 114/44/1 115/45/1 116/42/1
f 117/38/1 118/37/1 119/46/1 120/47/1
f 121/39/1 122/38/1 123/47/1 124/48/1
f 125/10/1 126/12/1 127/18/1 128/17/1
f 129/8/1 130/10/1 131/17/1 132/16/1
f 133/6/1 134/8/1 135/16/1 136/15/1
f 137/4/1 138/6/1 139/15/1 140/14/1
f 141/3/1 142/4/1 143/14/1 144/13/1
f 145/17/1 146/18/1 147/24/1 148/23/1
f 149/16/1 150/17/1 151/23/1 152/22/1
f 153/15/1 154/16/1 155/22/1 156/21/1
f 157/14/1 158/15/1 159/21/1 160/20/1
f 161/13/1 162/14/1 163/20/1 164/19/1
f 165/1/1 166/2/1 167/3/1 168/4/1
f 169/5/1 170/1/1 171/4/1 172/6/1
f 173/7/1 174/5/1 175/6/1 176/8/1
f 177/9/1 178/7/1 179/8/1 180/10/1
f 181/11/1 182/9/1 183/10/1 184/12/1
f 185/4/1 186/3/1 187/13/1 188/14/1
f 189/6/1 190/4/1 191/14/1 192/15/1
f 193/8/1 194/6/1 195/15/1 196/16/1
f 197/10/1 198/8/1 199/16/1 200/17/1
f 201/12/1 202/10/1 203/17/1 204/18/1
f 205/14/1 206/13/1 207/19/1 208/20/1
f 209/15/1 210/14/1 211/20/1 212/21/1
f 213/16/1 214/15/1 215/21/1 216/22/1
f 217/17/1 218/16/1 219/22/1 220/23/1
f 221/18/1 222/17/1 223/23/1 224/24/1

