# Tiled2Unity generated file. Do not modify by hand.
# Wavefront file for 'Nivel1ChicoRemastered_mesh_0023.obj'

# Vertices (Count = 852)
v -130 -50 0
v -131 -50 0
v -131 -49 0
v -130 -49 0
v -129 -50 0
v -130 -50 0
v -130 -49 0
v -129 -49 0
v -120 -50 0
v -121 -50 0
v -121 -49 0
v -120 -49 0
v -119 -50 0
v -120 -50 0
v -120 -49 0
v -119 -49 0
v -112 -50 0
v -113 -50 0
v -113 -49 0
v -112 -49 0
v -111 -50 0
v -112 -50 0
v -112 -49 0
v -111 -49 0
v -103 -50 0
v -104 -50 0
v -104 -49 0
v -103 -49 0
v -102 -50 0
v -103 -50 0
v -103 -49 0
v -102 -49 0
v -97 -50 0
v -98 -50 0
v -98 -49 0
v -97 -49 0
v -96 -50 0
v -97 -50 0
v -97 -49 0
v -96 -49 0
v -93 -50 0
v -94 -50 0
v -94 -49 0
v -93 -49 0
v -92 -50 0
v -93 -50 0
v -93 -49 0
v -92 -49 0
v 0 -50 0
v -1 -50 0
v -1 -49 0
v 0 -49 0
v -130 -49 0
v -131 -49 0
v -131 -48 0
v -130 -48 0
v -129 -49 0
v -130 -49 0
v -130 -48 0
v -129 -48 0
v -123 -49 0
v -124 -49 0
v -124 -48 0
v -123 -48 0
v -122 -49 0
v -123 -49 0
v -123 -48 0
v -122 -48 0
v -120 -49 0
v -121 -49 0
v -121 -48 0
v -120 -48 0
v -119 -49 0
v -120 -49 0
v -120 -48 0
v -119 -48 0
v -112 -49 0
v -113 -49 0
v -113 -48 0
v -112 -48 0
v -111 -49 0
v -112 -49 0
v -112 -48 0
v -111 -48 0
v -103 -49 0
v -104 -49 0
v -104 -48 0
v -103 -48 0
v -102 -49 0
v -103 -49 0
v -103 -48 0
v -102 -48 0
v -97 -49 0
v -98 -49 0
v -98 -48 0
v -97 -48 0
v -96 -49 0
v -97 -49 0
v -97 -48 0
v -96 -48 0
v -93 -49 0
v -94 -49 0
v -94 -48 0
v -93 -48 0
v -92 -49 0
v -93 -49 0
v -93 -48 0
v -92 -48 0
v 0 -49 0
v -1 -49 0
v -1 -48 0
v 0 -48 0
v -130 -48 0
v -131 -48 0
v -131 -47 0
v -130 -47 0
v -129 -48 0
v -130 -48 0
v -130 -47 0
v -129 -47 0
v -123 -48 0
v -124 -48 0
v -124 -47 0
v -123 -47 0
v -122 -48 0
v -123 -48 0
v -123 -47 0
v -122 -47 0
v -120 -48 0
v -121 -48 0
v -121 -47 0
v -120 -47 0
v -119 -48 0
v -120 -48 0
v -120 -47 0
v -119 -47 0
v -112 -48 0
v -113 -48 0
v -113 -47 0
v -112 -47 0
v -111 -48 0
v -112 -48 0
v -112 -47 0
v -111 -47 0
v -103 -48 0
v -104 -48 0
v -104 -47 0
v -103 -47 0
v -102 -48 0
v -103 -48 0
v -103 -47 0
v -102 -47 0
v 0 -48 0
v -1 -48 0
v -1 -47 0
v 0 -47 0
v -123 -47 0
v -124 -47 0
v -124 -46 0
v -123 -46 0
v -122 -47 0
v -123 -47 0
v -123 -46 0
v -122 -46 0
v 0 -47 0
v -1 -47 0
v -1 -46 0
v 0 -46 0
v 0 -46 0
v -1 -46 0
v -1 -45 0
v 0 -45 0
v -31 -45 0
v -32 -45 0
v -32 -44 0
v -31 -44 0
v -30 -45 0
v -31 -45 0
v -31 -44 0
v -30 -44 0
v 0 -45 0
v -1 -45 0
v -1 -44 0
v 0 -44 0
v -127 -44 0
v -128 -44 0
v -128 -43 0
v -127 -43 0
v -126 -44 0
v -127 -44 0
v -127 -43 0
v -126 -43 0
v -118 -44 0
v -119 -44 0
v -119 -43 0
v -118 -43 0
v -117 -44 0
v -118 -44 0
v -118 -43 0
v -117 -43 0
v -99 -44 0
v -100 -44 0
v -100 -43 0
v -99 -43 0
v -98 -44 0
v -99 -44 0
v -99 -43 0
v -98 -43 0
v -31 -44 0
v -32 -44 0
v -32 -43 0
v -31 -43 0
v -30 -44 0
v -31 -44 0
v -31 -43 0
v -30 -43 0
v 0 -44 0
v -1 -44 0
v -1 -43 0
v 0 -43 0
v -127 -43 0
v -128 -43 0
v -128 -42 0
v -127 -42 0
v -126 -43 0
v -127 -43 0
v -127 -42 0
v -126 -42 0
v -118 -43 0
v -119 -43 0
v -119 -42 0
v -118 -42 0
v -117 -43 0
v -118 -43 0
v -118 -42 0
v -117 -42 0
v -103 -43 0
v -104 -43 0
v -104 -42 0
v -103 -42 0
v -102 -43 0
v -103 -43 0
v -103 -42 0
v -102 -42 0
v -99 -43 0
v -100 -43 0
v -100 -42 0
v -99 -42 0
v -98 -43 0
v -99 -43 0
v -99 -42 0
v -98 -42 0
v -31 -43 0
v -32 -43 0
v -32 -42 0
v -31 -42 0
v -30 -43 0
v -31 -43 0
v -31 -42 0
v -30 -42 0
v 0 -43 0
v -1 -43 0
v -1 -42 0
v 0 -42 0
v -130 -42 0
v -131 -42 0
v -131 -41 0
v -130 -41 0
v -129 -42 0
v -130 -42 0
v -130 -41 0
v -129 -41 0
v -127 -42 0
v -128 -42 0
v -128 -41 0
v -127 -41 0
v -126 -42 0
v -127 -42 0
v -127 -41 0
v -126 -41 0
v -122 -42 0
v -123 -42 0
v -123 -41 0
v -122 -41 0
v -121 -42 0
v -122 -42 0
v -122 -41 0
v -121 -41 0
v -118 -42 0
v -119 -42 0
v -119 -41 0
v -118 -41 0
v -117 -42 0
v -118 -42 0
v -118 -41 0
v -117 -41 0
v -103 -42 0
v -104 -42 0
v -104 -41 0
v -103 -41 0
v -102 -42 0
v -103 -42 0
v -103 -41 0
v -102 -41 0
v -99 -42 0
v -100 -42 0
v -100 -41 0
v -99 -41 0
v -98 -42 0
v -99 -42 0
v -99 -41 0
v -98 -41 0
v -97 -42 0
v -98 -42 0
v -98 -41 0
v -97 -41 0
v -96 -42 0
v -97 -42 0
v -97 -41 0
v -96 -41 0
v 0 -42 0
v -1 -42 0
v -1 -41 0
v 0 -41 0
v -130 -41 0
v -131 -41 0
v -131 -40 0
v -130 -40 0
v -129 -41 0
v -130 -41 0
v -130 -40 0
v -129 -40 0
v -122 -41 0
v -123 -41 0
v -123 -40 0
v -122 -40 0
v -121 -41 0
v -122 -41 0
v -122 -40 0
v -121 -40 0
v -103 -41 0
v -104 -41 0
v -104 -40 0
v -103 -40 0
v -102 -41 0
v -103 -41 0
v -103 -40 0
v -102 -40 0
v -97 -41 0
v -98 -41 0
v -98 -40 0
v -97 -40 0
v -96 -41 0
v -97 -41 0
v -97 -40 0
v -96 -40 0
v 0 -41 0
v -1 -41 0
v -1 -40 0
v 0 -40 0
v -130 -40 0
v -131 -40 0
v -131 -39 0
v -130 -39 0
v -129 -40 0
v -130 -40 0
v -130 -39 0
v -129 -39 0
v -122 -40 0
v -123 -40 0
v -123 -39 0
v -122 -39 0
v -121 -40 0
v -122 -40 0
v -122 -39 0
v -121 -39 0
v -104 -40 0
v -105 -40 0
v -105 -39 0
v -104 -39 0
v -103 -40 0
v -104 -40 0
v -104 -39 0
v -103 -39 0
v -97 -40 0
v -98 -40 0
v -98 -39 0
v -97 -39 0
v -96 -40 0
v -97 -40 0
v -97 -39 0
v -96 -39 0
v 0 -40 0
v -1 -40 0
v -1 -39 0
v 0 -39 0
v -104 -39 0
v -105 -39 0
v -105 -38 0
v -104 -38 0
v -103 -39 0
v -104 -39 0
v -104 -38 0
v -103 -38 0
v 0 -39 0
v -1 -39 0
v -1 -38 0
v 0 -38 0
v -104 -38 0
v -105 -38 0
v -105 -37 0
v -104 -37 0
v -103 -38 0
v -104 -38 0
v -104 -37 0
v -103 -37 0
v 0 -38 0
v -1 -38 0
v -1 -37 0
v 0 -37 0
v 0 -37 0
v -1 -37 0
v -1 -36 0
v 0 -36 0
v 0 -36 0
v -1 -36 0
v -1 -35 0
v 0 -35 0
v 0 -35 0
v -1 -35 0
v -1 -34 0
v 0 -34 0
v 0 -34 0
v -1 -34 0
v -1 -33 0
v 0 -33 0
v 0 -33 0
v -1 -33 0
v -1 -32 0
v 0 -32 0
v 0 -32 0
v -1 -32 0
v -1 -31 0
v 0 -31 0
v 0 -31 0
v -1 -31 0
v -1 -30 0
v 0 -30 0
v 0 -30 0
v -1 -30 0
v -1 -29 0
v 0 -29 0
v 0 -29 0
v -1 -29 0
v -1 -28 0
v 0 -28 0
v 0 -28 0
v -1 -28 0
v -1 -27 0
v 0 -27 0
v 0 -27 0
v -1 -27 0
v -1 -26 0
v 0 -26 0
v -87 -26 0
v -88 -26 0
v -88 -25 0
v -87 -25 0
v -86 -26 0
v -87 -26 0
v -87 -25 0
v -86 -25 0
v 0 -26 0
v -1 -26 0
v -1 -25 0
v 0 -25 0
v -87 -25 0
v -88 -25 0
v -88 -24 0
v -87 -24 0
v -86 -25 0
v -87 -25 0
v -87 -24 0
v -86 -24 0
v 0 -25 0
v -1 -25 0
v -1 -24 0
v 0 -24 0
v -89 -24 0
v -90 -24 0
v -90 -23 0
v -89 -23 0
v -88 -24 0
v -89 -24 0
v -89 -23 0
v -88 -23 0
v -87 -24 0
v -88 -24 0
v -88 -23 0
v -87 -23 0
v -86 -24 0
v -87 -24 0
v -87 -23 0
v -86 -23 0
v 0 -24 0
v -1 -24 0
v -1 -23 0
v 0 -23 0
v -89 -23 0
v -90 -23 0
v -90 -22 0
v -89 -22 0
v -88 -23 0
v -89 -23 0
v -89 -22 0
v -88 -22 0
v -37 -23 0
v -38 -23 0
v -38 -22 0
v -37 -22 0
v -36 -23 0
v -37 -23 0
v -37 -22 0
v -36 -22 0
v -23 -23 0
v -24 -23 0
v -24 -22 0
v -23 -22 0
v -22 -23 0
v -23 -23 0
v -23 -22 0
v -22 -22 0
v 0 -23 0
v -1 -23 0
v -1 -22 0
v 0 -22 0
v -89 -22 0
v -90 -22 0
v -90 -21 0
v -89 -21 0
v -88 -22 0
v -89 -22 0
v -89 -21 0
v -88 -21 0
v -37 -22 0
v -38 -22 0
v -38 -21 0
v -37 -21 0
v -36 -22 0
v -37 -22 0
v -37 -21 0
v -36 -21 0
v -23 -22 0
v -24 -22 0
v -24 -21 0
v -23 -21 0
v -22 -22 0
v -23 -22 0
v -23 -21 0
v -22 -21 0
v 0 -22 0
v -1 -22 0
v -1 -21 0
v 0 -21 0
v -69 -21 0
v -70 -21 0
v -70 -20 0
v -69 -20 0
v -68 -21 0
v -69 -21 0
v -69 -20 0
v -68 -20 0
v -37 -21 0
v -38 -21 0
v -38 -20 0
v -37 -20 0
v -36 -21 0
v -37 -21 0
v -37 -20 0
v -36 -20 0
v -23 -21 0
v -24 -21 0
v -24 -20 0
v -23 -20 0
v -22 -21 0
v -23 -21 0
v -23 -20 0
v -22 -20 0
v 0 -21 0
v -1 -21 0
v -1 -20 0
v 0 -20 0
v -92 -20 0
v -93 -20 0
v -93 -19 0
v -92 -19 0
v -91 -20 0
v -92 -20 0
v -92 -19 0
v -91 -19 0
v -69 -20 0
v -70 -20 0
v -70 -19 0
v -69 -19 0
v -68 -20 0
v -69 -20 0
v -69 -19 0
v -68 -19 0
v -12 -20 0
v -13 -20 0
v -13 -19 0
v -12 -19 0
v -11 -20 0
v -12 -20 0
v -12 -19 0
v -11 -19 0
v 0 -20 0
v -1 -20 0
v -1 -19 0
v 0 -19 0
v -92 -19 0
v -93 -19 0
v -93 -18 0
v -92 -18 0
v -91 -19 0
v -92 -19 0
v -92 -18 0
v -91 -18 0
v -69 -19 0
v -70 -19 0
v -70 -18 0
v -69 -18 0
v -68 -19 0
v -69 -19 0
v -69 -18 0
v -68 -18 0
v -12 -19 0
v -13 -19 0
v -13 -18 0
v -12 -18 0
v -11 -19 0
v -12 -19 0
v -12 -18 0
v -11 -18 0
v 0 -19 0
v -1 -19 0
v -1 -18 0
v 0 -18 0
v -92 -18 0
v -93 -18 0
v -93 -17 0
v -92 -17 0
v -91 -18 0
v -92 -18 0
v -92 -17 0
v -91 -17 0
v -72 -18 0
v -73 -18 0
v -73 -17 0
v -72 -17 0
v -71 -18 0
v -72 -18 0
v -72 -17 0
v -71 -17 0
v -12 -18 0
v -13 -18 0
v -13 -17 0
v -12 -17 0
v -11 -18 0
v -12 -18 0
v -12 -17 0
v -11 -17 0
v 0 -18 0
v -1 -18 0
v -1 -17 0
v 0 -17 0
v -72 -17 0
v -73 -17 0
v -73 -16 0
v -72 -16 0
v -71 -17 0
v -72 -17 0
v -72 -16 0
v -71 -16 0
v 0 -17 0
v -1 -17 0
v -1 -16 0
v 0 -16 0
v -72 -16 0
v -73 -16 0
v -73 -15 0
v -72 -15 0
v -71 -16 0
v -72 -16 0
v -72 -15 0
v -71 -15 0
v 0 -16 0
v -1 -16 0
v -1 -15 0
v 0 -15 0
v 0 -15 0
v -1 -15 0
v -1 -14 0
v 0 -14 0
v -86 -14 0
v -87 -14 0
v -87 -13 0
v -86 -13 0
v -85 -14 0
v -86 -14 0
v -86 -13 0
v -85 -13 0
v -75 -14 0
v -76 -14 0
v -76 -13 0
v -75 -13 0
v -74 -14 0
v -75 -14 0
v -75 -13 0
v -74 -13 0
v -66 -14 0
v -67 -14 0
v -67 -13 0
v -66 -13 0
v -65 -14 0
v -66 -14 0
v -66 -13 0
v -65 -13 0
v 0 -14 0
v -1 -14 0
v -1 -13 0
v 0 -13 0
v -86 -13 0
v -87 -13 0
v -87 -12 0
v -86 -12 0
v -85 -13 0
v -86 -13 0
v -86 -12 0
v -85 -12 0
v -75 -13 0
v -76 -13 0
v -76 -12 0
v -75 -12 0
v -74 -13 0
v -75 -13 0
v -75 -12 0
v -74 -12 0
v -66 -13 0
v -67 -13 0
v -67 -12 0
v -66 -12 0
v -65 -13 0
v -66 -13 0
v -66 -12 0
v -65 -12 0
v -64 -13 0
v -65 -13 0
v -65 -12 0
v -64 -12 0
v -63 -13 0
v -64 -13 0
v -64 -12 0
v -63 -12 0
v -22 -13 0
v -23 -13 0
v -23 -12 0
v -22 -12 0
v 0 -13 0
v -1 -13 0
v -1 -12 0
v 0 -12 0
v -86 -12 0
v -87 -12 0
v -87 -11 0
v -86 -11 0
v -85 -12 0
v -86 -12 0
v -86 -11 0
v -85 -11 0
v -75 -12 0
v -76 -12 0
v -76 -11 0
v -75 -11 0
v -74 -12 0
v -75 -12 0
v -75 -11 0
v -74 -11 0
v -66 -12 0
v -67 -12 0
v -67 -11 0
v -66 -11 0
v -65 -12 0
v -66 -12 0
v -66 -11 0
v -65 -11 0
v -64 -12 0
v -65 -12 0
v -65 -11 0
v -64 -11 0
v -63 -12 0
v -64 -12 0
v -64 -11 0
v -63 -11 0
v 0 -12 0
v -1 -12 0
v -1 -11 0
v 0 -11 0
v -64 -11 0
v -65 -11 0
v -65 -10 0
v -64 -10 0
v -63 -11 0
v -64 -11 0
v -64 -10 0
v -63 -10 0
v 0 -11 0
v -1 -11 0
v -1 -10 0
v 0 -10 0
v 0 -10 0
v -1 -10 0
v -1 -9 0
v 0 -9 0
v -77 -9 0
v -78 -9 0
v -78 -8 0
v -77 -8 0
v -76 -9 0
v -77 -9 0
v -77 -8 0
v -76 -8 0
v 0 -9 0
v -1 -9 0
v -1 -8 0
v 0 -8 0
v -77 -8 0
v -78 -8 0
v -78 -7 0
v -77 -7 0
v -76 -8 0
v -77 -8 0
v -77 -7 0
v -76 -7 0
v -77 -7 0
v -78 -7 0
v -78 -6 0
v -77 -6 0
v -76 -7 0
v -77 -7 0
v -77 -6 0
v -76 -6 0

# Texture cooridinates (Count = 32)
vt 0.99 0.01999998
vt 1 0.01999998
vt 1 0.02999997
vt 0.99 0.02999997
vt 0.98 0.01999998
vt 0.98 0.02999997
vt 1 0.04000002
vt 0.99 0.04000002
vt 0.98 0.04000002
vt 0.91 0.01999998
vt 0.92 0.01999998
vt 0.92 0.02999997
vt 0.91 0.02999997
vt 1 0.05000001
vt 0.99 0.05000001
vt 0.98 0.05000001
vt 0.95 0.01999998
vt 0.96 0.01999998
vt 0.96 0.02999997
vt 0.95 0.02999997
vt 0.94 0.01999998
vt 0.94 0.02999997
vt 0.96 0.04000002
vt 0.95 0.04000002
vt 0.94 0.04000002
vt 0.96 0.05000001
vt 0.95 0.05000001
vt 0.94 0.05000001
vt 0.9 0.02999997
vt 0.91 0.04000002
vt 0.9 0.04000002
vt 0.92 0.04000002

# Normal
vn 0 0 -1

# Mesh description
g Nivel1ChicoRemastered_mesh_0023

# Faces
f 1/1/1 2/2/1 3/3/1 4/4/1
f 5/5/1 6/1/1 7/4/1 8/6/1
f 9/1/1 10/2/1 11/3/1 12/4/1
f 13/5/1 14/1/1 15/4/1 16/6/1
f 17/1/1 18/2/1 19/3/1 20/4/1
f 21/5/1 22/1/1 23/4/1 24/6/1
f 25/1/1 26/2/1 27/3/1 28/4/1
f 29/5/1 30/1/1 31/4/1 32/6/1
f 33/4/1 34/3/1 35/7/1 36/8/1
f 37/6/1 38/4/1 39/8/1 40/9/1
f 41/4/1 42/3/1 43/7/1 44/8/1
f 45/6/1 46/4/1 47/8/1 48/9/1
f 49/10/1 50/11/1 51/12/1 52/13/1
f 53/4/1 54/3/1 55/7/1 56/8/1
f 57/6/1 58/4/1 59/8/1 60/9/1
f 61/1/1 62/2/1 63/3/1 64/4/1
f 65/5/1 66/1/1 67/4/1 68/6/1
f 69/4/1 70/3/1 71/7/1 72/8/1
f 73/6/1 74/4/1 75/8/1 76/9/1
f 77/4/1 78/3/1 79/7/1 80/8/1
f 81/6/1 82/4/1 83/8/1 84/9/1
f 85/4/1 86/3/1 87/7/1 88/8/1
f 89/6/1 90/4/1 91/8/1 92/9/1
f 93/8/1 94/7/1 95/14/1 96/15/1
f 97/9/1 98/8/1 99/15/1 100/16/1
f 101/8/1 102/7/1 103/14/1 104/15/1
f 105/9/1 106/8/1 107/15/1 108/16/1
f 109/10/1 110/11/1 111/12/1 112/13/1
f 113/8/1 114/7/1 115/14/1 116/15/1
f 117/9/1 118/8/1 119/15/1 120/16/1
f 121/4/1 122/3/1 123/7/1 124/8/1
f 125/6/1 126/4/1 127/8/1 128/9/1
f 129/8/1 130/7/1 131/14/1 132/15/1
f 133/9/1 134/8/1 135/15/1 136/16/1
f 137/8/1 138/7/1 139/14/1 140/15/1
f 141/9/1 142/8/1 143/15/1 144/16/1
f 145/8/1 146/7/1 147/14/1 148/15/1
f 149/9/1 150/8/1 151/15/1 152/16/1
f 153/10/1 154/11/1 155/12/1 156/13/1
f 157/8/1 158/7/1 159/14/1 160/15/1
f 161/9/1 162/8/1 163/15/1 164/16/1
f 165/10/1 166/11/1 167/12/1 168/13/1
f 169/10/1 170/11/1 171/12/1 172/13/1
f 173/17/1 174/18/1 175/19/1 176/20/1
f 177/21/1 178/17/1 179/20/1 180/22/1
f 181/10/1 182/11/1 183/12/1 184/13/1
f 185/1/1 186/2/1 187/3/1 188/4/1
f 189/5/1 190/1/1 191/4/1 192/6/1
f 193/1/1 194/2/1 195/3/1 196/4/1
f 197/5/1 198/1/1 199/4/1 200/6/1
f 201/1/1 202/2/1 203/3/1 204/4/1
f 205/5/1 206/1/1 207/4/1 208/6/1
f 209/20/1 210/19/1 211/23/1 212/24/1
f 213/22/1 214/20/1 215/24/1 216/25/1
f 217/10/1 218/11/1 219/12/1 220/13/1
f 221/4/1 222/3/1 223/7/1 224/8/1
f 225/6/1 226/4/1 227/8/1 228/9/1
f 229/4/1 230/3/1 231/7/1 232/8/1
f 233/6/1 234/4/1 235/8/1 236/9/1
f 237/1/1 238/2/1 239/3/1 240/4/1
f 241/5/1 242/1/1 243/4/1 244/6/1
f 245/4/1 246/3/1 247/7/1 248/8/1
f 249/6/1 250/4/1 251/8/1 252/9/1
f 253/24/1 254/23/1 255/26/1 256/27/1
f 257/25/1 258/24/1 259/27/1 260/28/1
f 261/10/1 262/11/1 263/12/1 264/13/1
f 265/1/1 266/2/1 267/3/1 268/4/1
f 269/5/1 270/1/1 271/4/1 272/6/1
f 273/8/1 274/7/1 275/14/1 276/15/1
f 277/9/1 278/8/1 279/15/1 280/16/1
f 281/1/1 282/2/1 283/3/1 284/4/1
f 285/5/1 286/1/1 287/4/1 288/6/1
f 289/8/1 290/7/1 291/14/1 292/15/1
f 293/9/1 294/8/1 295/15/1 296/16/1
f 297/4/1 298/3/1 299/7/1 300/8/1
f 301/6/1 302/4/1 303/8/1 304/9/1
f 305/8/1 306/7/1 307/14/1 308/15/1
f 309/9/1 310/8/1 311/15/1 312/16/1
f 313/1/1 314/2/1 315/3/1 316/4/1
f 317/5/1 318/1/1 319/4/1 320/6/1
f 321/10/1 322/11/1 323/12/1 324/13/1
f 325/4/1 326/3/1 327/7/1 328/8/1
f 329/6/1 330/4/1 331/8/1 332/9/1
f 333/4/1 334/3/1 335/7/1 336/8/1
f 337/6/1 338/4/1 339/8/1 340/9/1
f 341/8/1 342/7/1 343/14/1 344/15/1
f 345/9/1 346/8/1 347/15/1 348/16/1
f 349/4/1 350/3/1 351/7/1 352/8/1
f 353/6/1 354/4/1 355/8/1 356/9/1
f 357/10/1 358/11/1 359/12/1 360/13/1
f 361/8/1 362/7/1 363/14/1 364/15/1
f 365/9/1 366/8/1 367/15/1 368/16/1
f 369/8/1 370/7/1 371/14/1 372/15/1
f 373/9/1 374/8/1 375/15/1 376/16/1
f 377/1/1 378/2/1 379/3/1 380/4/1
f 381/5/1 382/1/1 383/4/1 384/6/1
f 385/8/1 386/7/1 387/14/1 388/15/1
f 389/9/1 390/8/1 391/15/1 392/16/1
f 393/10/1 394/11/1 395/12/1 396/13/1
f 397/4/1 398/3/1 399/7/1 400/8/1
f 401/6/1 402/4/1 403/8/1 404/9/1
f 405/10/1 406/11/1 407/12/1 408/13/1
f 409/8/1 410/7/1 411/14/1 412/15/1
f 413/9/1 414/8/1 415/15/1 416/16/1
f 417/10/1 418/11/1 419/12/1 420/13/1
f 421/10/1 422/11/1 423/12/1 424/13/1
f 425/10/1 426/11/1 427/12/1 428/13/1
f 429/10/1 430/11/1 431/12/1 432/13/1
f 433/10/1 434/11/1 435/12/1 436/13/1
f 437/10/1 438/11/1 439/12/1 440/13/1
f 441/10/1 442/11/1 443/12/1 444/13/1
f 445/10/1 446/11/1 447/12/1 448/13/1
f 449/10/1 450/11/1 451/12/1 452/13/1
f 453/10/1 454/11/1 455/12/1 456/13/1
f 457/10/1 458/11/1 459/12/1 460/13/1
f 461/10/1 462/11/1 463/12/1 464/13/1
f 465/1/1 466/2/1 467/3/1 468/4/1
f 469/5/1 470/1/1 471/4/1 472/6/1
f 473/10/1 474/11/1 475/12/1 476/13/1
f 477/4/1 478/3/1 479/7/1 480/8/1
f 481/6/1 482/4/1 483/8/1 484/9/1
f 485/10/1 486/11/1 487/12/1 488/13/1
f 489/1/1 490/2/1 491/3/1 492/4/1
f 493/5/1 494/1/1 495/4/1 496/6/1
f 497/8/1 498/7/1 499/14/1 500/15/1
f 501/9/1 502/8/1 503/15/1 504/16/1
f 505/10/1 506/11/1 507/12/1 508/13/1
f 509/4/1 510/3/1 511/7/1 512/8/1
f 513/6/1 514/4/1 515/8/1 516/9/1
f 517/1/1 518/2/1 519/3/1 520/4/1
f 521/5/1 522/1/1 523/4/1 524/6/1
f 525/1/1 526/2/1 527/3/1 528/4/1
f 529/5/1 530/1/1 531/4/1 532/6/1
f 533/10/1 534/11/1 535/12/1 536/13/1
f 537/8/1 538/7/1 539/14/1 540/15/1
f 541/9/1 542/8/1 543/15/1 544/16/1
f 545/4/1 546/3/1 547/7/1 548/8/1
f 549/6/1 550/4/1 551/8/1 552/9/1
f 553/4/1 554/3/1 555/7/1 556/8/1
f 557/6/1 558/4/1 559/8/1 560/9/1
f 561/10/1 562/11/1 563/12/1 564/13/1
f 565/1/1 566/2/1 567/3/1 568/4/1
f 569/5/1 570/1/1 571/4/1 572/6/1
f 573/8/1 574/7/1 575/14/1 576/15/1
f 577/9/1 578/8/1 579/15/1 580/16/1
f 581/8/1 582/7/1 583/14/1 584/15/1
f 585/9/1 586/8/1 587/15/1 588/16/1
f 589/10/1 590/11/1 591/12/1 592/13/1
f 593/1/1 594/2/1 595/3/1 596/4/1
f 597/5/1 598/1/1 599/4/1 600/6/1
f 601/4/1 602/3/1 603/7/1 604/8/1
f 605/6/1 606/4/1 607/8/1 608/9/1
f 609/1/1 610/2/1 611/3/1 612/4/1
f 613/5/1 614/1/1 615/4/1 616/6/1
f 617/10/1 618/11/1 619/12/1 620/13/1
f 621/4/1 622/3/1 623/7/1 624/8/1
f 625/6/1 626/4/1 627/8/1 628/9/1
f 629/8/1 630/7/1 631/14/1 632/15/1
f 633/9/1 634/8/1 635/15/1 636/16/1
f 637/4/1 638/3/1 639/7/1 640/8/1
f 641/6/1 642/4/1 643/8/1 644/9/1
f 645/10/1 646/11/1 647/12/1 648/13/1
f 649/8/1 650/7/1 651/14/1 652/15/1
f 653/9/1 654/8/1 655/15/1 656/16/1
f 657/1/1 658/2/1 659/3/1 660/4/1
f 661/5/1 662/1/1 663/4/1 664/6/1
f 665/8/1 666/7/1 667/14/1 668/15/1
f 669/9/1 670/8/1 671/15/1 672/16/1
f 673/10/1 674/11/1 675/12/1 676/13/1
f 677/4/1 678/3/1 679/7/1 680/8/1
f 681/6/1 682/4/1 683/8/1 684/9/1
f 685/10/1 686/11/1 687/12/1 688/13/1
f 689/8/1 690/7/1 691/14/1 692/15/1
f 693/9/1 694/8/1 695/15/1 696/16/1
f 697/10/1 698/11/1 699/12/1 700/13/1
f 701/10/1 702/11/1 703/12/1 704/13/1
f 705/1/1 706/2/1 707/3/1 708/4/1
f 709/5/1 710/1/1 711/4/1 712/6/1
f 713/1/1 714/2/1 715/3/1 716/4/1
f 717/5/1 718/1/1 719/4/1 720/6/1
f 721/1/1 722/2/1 723/3/1 724/4/1
f 725/5/1 726/1/1 727/4/1 728/6/1
f 729/10/1 730/11/1 731/12/1 732/13/1
f 733/4/1 734/3/1 735/7/1 736/8/1
f 737/6/1 738/4/1 739/8/1 740/9/1
f 741/4/1 742/3/1 743/7/1 744/8/1
f 745/6/1 746/4/1 747/8/1 748/9/1
f 749/4/1 750/3/1 751/7/1 752/8/1
f 753/6/1 754/4/1 755/8/1 756/9/1
f 757/1/1 758/2/1 759/3/1 760/4/1
f 761/5/1 762/1/1 763/4/1 764/6/1
f 765/29/1 766/13/1 767/30/1 768/31/1
f 769/10/1 770/11/1 771/12/1 772/13/1
f 773/8/1 774/7/1 775/14/1 776/15/1
f 777/9/1 778/8/1 779/15/1 780/16/1
f 781/8/1 782/7/1 783/14/1 784/15/1
f 785/9/1 786/8/1 787/15/1 788/16/1
f 789/8/1 790/7/1 791/14/1 792/15/1
f 793/9/1 794/8/1 795/15/1 796/16/1
f 797/4/1 798/3/1 799/7/1 800/8/1
f 801/6/1 802/4/1 803/8/1 804/9/1
f 805/10/1 806/11/1 807/12/1 808/13/1
f 809/8/1 810/7/1 811/14/1 812/15/1
f 813/9/1 814/8/1 815/15/1 816/16/1
f 817/10/1 818/11/1 819/12/1 820/13/1
f 821/10/1 822/11/1 823/12/1 824/13/1
f 825/1/1 826/2/1 827/3/1 828/4/1
f 829/5/1 830/1/1 831/4/1 832/6/1
f 833/13/1 834/12/1 835/32/1 836/30/1
f 837/4/1 838/3/1 839/7/1 840/8/1
f 841/6/1 842/4/1 843/8/1 844/9/1
f 845/8/1 846/7/1 847/14/1 848/15/1
f 849/9/1 850/8/1 851/15/1 852/16/1

