# Tiled2Unity generated file. Do not modify by hand.
# Wavefront file for 'Nivel1ChicoRemastered_mesh_0025.obj'

# Vertices (Count = 936)
v -130 -50 0
v -131 -50 0
v -131 -49 0
v -130 -49 0
v -129 -50 0
v -130 -50 0
v -130 -49 0
v -129 -49 0
v -120 -50 0
v -121 -50 0
v -121 -49 0
v -120 -49 0
v -119 -50 0
v -120 -50 0
v -120 -49 0
v -119 -49 0
v -113 -50 0
v -114 -50 0
v -114 -49 0
v -113 -49 0
v -112 -50 0
v -113 -50 0
v -113 -49 0
v -112 -49 0
v -111 -50 0
v -112 -50 0
v -112 -49 0
v -111 -49 0
v -110 -50 0
v -111 -50 0
v -111 -49 0
v -110 -49 0
v -103 -50 0
v -104 -50 0
v -104 -49 0
v -103 -49 0
v -102 -50 0
v -103 -50 0
v -103 -49 0
v -102 -49 0
v -97 -50 0
v -98 -50 0
v -98 -49 0
v -97 -49 0
v -96 -50 0
v -97 -50 0
v -97 -49 0
v -96 -49 0
v -93 -50 0
v -94 -50 0
v -94 -49 0
v -93 -49 0
v -92 -50 0
v -93 -50 0
v -93 -49 0
v -92 -49 0
v -29 -50 0
v -30 -50 0
v -30 -49 0
v -29 -49 0
v 0 -50 0
v -1 -50 0
v -1 -49 0
v 0 -49 0
v -130 -49 0
v -131 -49 0
v -131 -48 0
v -130 -48 0
v -129 -49 0
v -130 -49 0
v -130 -48 0
v -129 -48 0
v -123 -49 0
v -124 -49 0
v -124 -48 0
v -123 -48 0
v -122 -49 0
v -123 -49 0
v -123 -48 0
v -122 -48 0
v -120 -49 0
v -121 -49 0
v -121 -48 0
v -120 -48 0
v -119 -49 0
v -120 -49 0
v -120 -48 0
v -119 -48 0
v -113 -49 0
v -114 -49 0
v -114 -48 0
v -113 -48 0
v -112 -49 0
v -113 -49 0
v -113 -48 0
v -112 -48 0
v -111 -49 0
v -112 -49 0
v -112 -48 0
v -111 -48 0
v -110 -49 0
v -111 -49 0
v -111 -48 0
v -110 -48 0
v -103 -49 0
v -104 -49 0
v -104 -48 0
v -103 -48 0
v -102 -49 0
v -103 -49 0
v -103 -48 0
v -102 -48 0
v -97 -49 0
v -98 -49 0
v -98 -48 0
v -97 -48 0
v -96 -49 0
v -97 -49 0
v -97 -48 0
v -96 -48 0
v -93 -49 0
v -94 -49 0
v -94 -48 0
v -93 -48 0
v -92 -49 0
v -93 -49 0
v -93 -48 0
v -92 -48 0
v 0 -49 0
v -1 -49 0
v -1 -48 0
v 0 -48 0
v -130 -48 0
v -131 -48 0
v -131 -47 0
v -130 -47 0
v -129 -48 0
v -130 -48 0
v -130 -47 0
v -129 -47 0
v -123 -48 0
v -124 -48 0
v -124 -47 0
v -123 -47 0
v -122 -48 0
v -123 -48 0
v -123 -47 0
v -122 -47 0
v -120 -48 0
v -121 -48 0
v -121 -47 0
v -120 -47 0
v -119 -48 0
v -120 -48 0
v -120 -47 0
v -119 -47 0
v -113 -48 0
v -114 -48 0
v -114 -47 0
v -113 -47 0
v -112 -48 0
v -113 -48 0
v -113 -47 0
v -112 -47 0
v -111 -48 0
v -112 -48 0
v -112 -47 0
v -111 -47 0
v -110 -48 0
v -111 -48 0
v -111 -47 0
v -110 -47 0
v -103 -48 0
v -104 -48 0
v -104 -47 0
v -103 -47 0
v -102 -48 0
v -103 -48 0
v -103 -47 0
v -102 -47 0
v 0 -48 0
v -1 -48 0
v -1 -47 0
v 0 -47 0
v -123 -47 0
v -124 -47 0
v -124 -46 0
v -123 -46 0
v -122 -47 0
v -123 -47 0
v -123 -46 0
v -122 -46 0
v 0 -47 0
v -1 -47 0
v -1 -46 0
v 0 -46 0
v 0 -46 0
v -1 -46 0
v -1 -45 0
v 0 -45 0
v -31 -45 0
v -32 -45 0
v -32 -44 0
v -31 -44 0
v -30 -45 0
v -31 -45 0
v -31 -44 0
v -30 -44 0
v 0 -45 0
v -1 -45 0
v -1 -44 0
v 0 -44 0
v -127 -44 0
v -128 -44 0
v -128 -43 0
v -127 -43 0
v -126 -44 0
v -127 -44 0
v -127 -43 0
v -126 -43 0
v -118 -44 0
v -119 -44 0
v -119 -43 0
v -118 -43 0
v -117 -44 0
v -118 -44 0
v -118 -43 0
v -117 -43 0
v -99 -44 0
v -100 -44 0
v -100 -43 0
v -99 -43 0
v -98 -44 0
v -99 -44 0
v -99 -43 0
v -98 -43 0
v -31 -44 0
v -32 -44 0
v -32 -43 0
v -31 -43 0
v -30 -44 0
v -31 -44 0
v -31 -43 0
v -30 -43 0
v 0 -44 0
v -1 -44 0
v -1 -43 0
v 0 -43 0
v -127 -43 0
v -128 -43 0
v -128 -42 0
v -127 -42 0
v -126 -43 0
v -127 -43 0
v -127 -42 0
v -126 -42 0
v -118 -43 0
v -119 -43 0
v -119 -42 0
v -118 -42 0
v -117 -43 0
v -118 -43 0
v -118 -42 0
v -117 -42 0
v -103 -43 0
v -104 -43 0
v -104 -42 0
v -103 -42 0
v -102 -43 0
v -103 -43 0
v -103 -42 0
v -102 -42 0
v -99 -43 0
v -100 -43 0
v -100 -42 0
v -99 -42 0
v -98 -43 0
v -99 -43 0
v -99 -42 0
v -98 -42 0
v -31 -43 0
v -32 -43 0
v -32 -42 0
v -31 -42 0
v -30 -43 0
v -31 -43 0
v -31 -42 0
v -30 -42 0
v 0 -43 0
v -1 -43 0
v -1 -42 0
v 0 -42 0
v -130 -42 0
v -131 -42 0
v -131 -41 0
v -130 -41 0
v -129 -42 0
v -130 -42 0
v -130 -41 0
v -129 -41 0
v -127 -42 0
v -128 -42 0
v -128 -41 0
v -127 -41 0
v -126 -42 0
v -127 -42 0
v -127 -41 0
v -126 -41 0
v -122 -42 0
v -123 -42 0
v -123 -41 0
v -122 -41 0
v -121 -42 0
v -122 -42 0
v -122 -41 0
v -121 -41 0
v -118 -42 0
v -119 -42 0
v -119 -41 0
v -118 -41 0
v -117 -42 0
v -118 -42 0
v -118 -41 0
v -117 -41 0
v -103 -42 0
v -104 -42 0
v -104 -41 0
v -103 -41 0
v -102 -42 0
v -103 -42 0
v -103 -41 0
v -102 -41 0
v -99 -42 0
v -100 -42 0
v -100 -41 0
v -99 -41 0
v -98 -42 0
v -99 -42 0
v -99 -41 0
v -98 -41 0
v -97 -42 0
v -98 -42 0
v -98 -41 0
v -97 -41 0
v -96 -42 0
v -97 -42 0
v -97 -41 0
v -96 -41 0
v -35 -42 0
v -36 -42 0
v -36 -41 0
v -35 -41 0
v 0 -42 0
v -1 -42 0
v -1 -41 0
v 0 -41 0
v -130 -41 0
v -131 -41 0
v -131 -40 0
v -130 -40 0
v -129 -41 0
v -130 -41 0
v -130 -40 0
v -129 -40 0
v -122 -41 0
v -123 -41 0
v -123 -40 0
v -122 -40 0
v -121 -41 0
v -122 -41 0
v -122 -40 0
v -121 -40 0
v -103 -41 0
v -104 -41 0
v -104 -40 0
v -103 -40 0
v -102 -41 0
v -103 -41 0
v -103 -40 0
v -102 -40 0
v -97 -41 0
v -98 -41 0
v -98 -40 0
v -97 -40 0
v -96 -41 0
v -97 -41 0
v -97 -40 0
v -96 -40 0
v 0 -41 0
v -1 -41 0
v -1 -40 0
v 0 -40 0
v -130 -40 0
v -131 -40 0
v -131 -39 0
v -130 -39 0
v -129 -40 0
v -130 -40 0
v -130 -39 0
v -129 -39 0
v -122 -40 0
v -123 -40 0
v -123 -39 0
v -122 -39 0
v -121 -40 0
v -122 -40 0
v -122 -39 0
v -121 -39 0
v -104 -40 0
v -105 -40 0
v -105 -39 0
v -104 -39 0
v -103 -40 0
v -104 -40 0
v -104 -39 0
v -103 -39 0
v -97 -40 0
v -98 -40 0
v -98 -39 0
v -97 -39 0
v -96 -40 0
v -97 -40 0
v -97 -39 0
v -96 -39 0
v 0 -40 0
v -1 -40 0
v -1 -39 0
v 0 -39 0
v -104 -39 0
v -105 -39 0
v -105 -38 0
v -104 -38 0
v -103 -39 0
v -104 -39 0
v -104 -38 0
v -103 -38 0
v 0 -39 0
v -1 -39 0
v -1 -38 0
v 0 -38 0
v -104 -38 0
v -105 -38 0
v -105 -37 0
v -104 -37 0
v -103 -38 0
v -104 -38 0
v -104 -37 0
v -103 -37 0
v 0 -38 0
v -1 -38 0
v -1 -37 0
v 0 -37 0
v 0 -37 0
v -1 -37 0
v -1 -36 0
v 0 -36 0
v 0 -36 0
v -1 -36 0
v -1 -35 0
v 0 -35 0
v 0 -35 0
v -1 -35 0
v -1 -34 0
v 0 -34 0
v 0 -34 0
v -1 -34 0
v -1 -33 0
v 0 -33 0
v -35 -33 0
v -36 -33 0
v -36 -32 0
v -35 -32 0
v 0 -33 0
v -1 -33 0
v -1 -32 0
v 0 -32 0
v 0 -32 0
v -1 -32 0
v -1 -31 0
v 0 -31 0
v 0 -31 0
v -1 -31 0
v -1 -30 0
v 0 -30 0
v 0 -30 0
v -1 -30 0
v -1 -29 0
v 0 -29 0
v 0 -29 0
v -1 -29 0
v -1 -28 0
v 0 -28 0
v 0 -28 0
v -1 -28 0
v -1 -27 0
v 0 -27 0
v 0 -27 0
v -1 -27 0
v -1 -26 0
v 0 -26 0
v -87 -26 0
v -88 -26 0
v -88 -25 0
v -87 -25 0
v -86 -26 0
v -87 -26 0
v -87 -25 0
v -86 -25 0
v 0 -26 0
v -1 -26 0
v -1 -25 0
v 0 -25 0
v -87 -25 0
v -88 -25 0
v -88 -24 0
v -87 -24 0
v -86 -25 0
v -87 -25 0
v -87 -24 0
v -86 -24 0
v 0 -25 0
v -1 -25 0
v -1 -24 0
v 0 -24 0
v -89 -24 0
v -90 -24 0
v -90 -23 0
v -89 -23 0
v -88 -24 0
v -89 -24 0
v -89 -23 0
v -88 -23 0
v -87 -24 0
v -88 -24 0
v -88 -23 0
v -87 -23 0
v -86 -24 0
v -87 -24 0
v -87 -23 0
v -86 -23 0
v 0 -24 0
v -1 -24 0
v -1 -23 0
v 0 -23 0
v -89 -23 0
v -90 -23 0
v -90 -22 0
v -89 -22 0
v -88 -23 0
v -89 -23 0
v -89 -22 0
v -88 -22 0
v -37 -23 0
v -38 -23 0
v -38 -22 0
v -37 -22 0
v -36 -23 0
v -37 -23 0
v -37 -22 0
v -36 -22 0
v -23 -23 0
v -24 -23 0
v -24 -22 0
v -23 -22 0
v -22 -23 0
v -23 -23 0
v -23 -22 0
v -22 -22 0
v 0 -23 0
v -1 -23 0
v -1 -22 0
v 0 -22 0
v -89 -22 0
v -90 -22 0
v -90 -21 0
v -89 -21 0
v -88 -22 0
v -89 -22 0
v -89 -21 0
v -88 -21 0
v -37 -22 0
v -38 -22 0
v -38 -21 0
v -37 -21 0
v -36 -22 0
v -37 -22 0
v -37 -21 0
v -36 -21 0
v -23 -22 0
v -24 -22 0
v -24 -21 0
v -23 -21 0
v -22 -22 0
v -23 -22 0
v -23 -21 0
v -22 -21 0
v 0 -22 0
v -1 -22 0
v -1 -21 0
v 0 -21 0
v -69 -21 0
v -70 -21 0
v -70 -20 0
v -69 -20 0
v -68 -21 0
v -69 -21 0
v -69 -20 0
v -68 -20 0
v -56 -21 0
v -57 -21 0
v -57 -20 0
v -56 -20 0
v -37 -21 0
v -38 -21 0
v -38 -20 0
v -37 -20 0
v -36 -21 0
v -37 -21 0
v -37 -20 0
v -36 -20 0
v -23 -21 0
v -24 -21 0
v -24 -20 0
v -23 -20 0
v -22 -21 0
v -23 -21 0
v -23 -20 0
v -22 -20 0
v -21 -21 0
v -22 -21 0
v -22 -20 0
v -21 -20 0
v 0 -21 0
v -1 -21 0
v -1 -20 0
v 0 -20 0
v -92 -20 0
v -93 -20 0
v -93 -19 0
v -92 -19 0
v -91 -20 0
v -92 -20 0
v -92 -19 0
v -91 -19 0
v -69 -20 0
v -70 -20 0
v -70 -19 0
v -69 -19 0
v -68 -20 0
v -69 -20 0
v -69 -19 0
v -68 -19 0
v -21 -20 0
v -22 -20 0
v -22 -19 0
v -21 -19 0
v -12 -20 0
v -13 -20 0
v -13 -19 0
v -12 -19 0
v -11 -20 0
v -12 -20 0
v -12 -19 0
v -11 -19 0
v 0 -20 0
v -1 -20 0
v -1 -19 0
v 0 -19 0
v -92 -19 0
v -93 -19 0
v -93 -18 0
v -92 -18 0
v -91 -19 0
v -92 -19 0
v -92 -18 0
v -91 -18 0
v -69 -19 0
v -70 -19 0
v -70 -18 0
v -69 -18 0
v -68 -19 0
v -69 -19 0
v -69 -18 0
v -68 -18 0
v -21 -19 0
v -22 -19 0
v -22 -18 0
v -21 -18 0
v -12 -19 0
v -13 -19 0
v -13 -18 0
v -12 -18 0
v -11 -19 0
v -12 -19 0
v -12 -18 0
v -11 -18 0
v 0 -19 0
v -1 -19 0
v -1 -18 0
v 0 -18 0
v -92 -18 0
v -93 -18 0
v -93 -17 0
v -92 -17 0
v -91 -18 0
v -92 -18 0
v -92 -17 0
v -91 -17 0
v -72 -18 0
v -73 -18 0
v -73 -17 0
v -72 -17 0
v -71 -18 0
v -72 -18 0
v -72 -17 0
v -71 -17 0
v -21 -18 0
v -22 -18 0
v -22 -17 0
v -21 -17 0
v -12 -18 0
v -13 -18 0
v -13 -17 0
v -12 -17 0
v -11 -18 0
v -12 -18 0
v -12 -17 0
v -11 -17 0
v 0 -18 0
v -1 -18 0
v -1 -17 0
v 0 -17 0
v -72 -17 0
v -73 -17 0
v -73 -16 0
v -72 -16 0
v -71 -17 0
v -72 -17 0
v -72 -16 0
v -71 -16 0
v -21 -17 0
v -22 -17 0
v -22 -16 0
v -21 -16 0
v 0 -17 0
v -1 -17 0
v -1 -16 0
v 0 -16 0
v -72 -16 0
v -73 -16 0
v -73 -15 0
v -72 -15 0
v -71 -16 0
v -72 -16 0
v -72 -15 0
v -71 -15 0
v -21 -16 0
v -22 -16 0
v -22 -15 0
v -21 -15 0
v 0 -16 0
v -1 -16 0
v -1 -15 0
v 0 -15 0
v -21 -15 0
v -22 -15 0
v -22 -14 0
v -21 -14 0
v 0 -15 0
v -1 -15 0
v -1 -14 0
v 0 -14 0
v -86 -14 0
v -87 -14 0
v -87 -13 0
v -86 -13 0
v -85 -14 0
v -86 -14 0
v -86 -13 0
v -85 -13 0
v -75 -14 0
v -76 -14 0
v -76 -13 0
v -75 -13 0
v -74 -14 0
v -75 -14 0
v -75 -13 0
v -74 -13 0
v -66 -14 0
v -67 -14 0
v -67 -13 0
v -66 -13 0
v -65 -14 0
v -66 -14 0
v -66 -13 0
v -65 -13 0
v -21 -14 0
v -22 -14 0
v -22 -13 0
v -21 -13 0
v 0 -14 0
v -1 -14 0
v -1 -13 0
v 0 -13 0
v -86 -13 0
v -87 -13 0
v -87 -12 0
v -86 -12 0
v -85 -13 0
v -86 -13 0
v -86 -12 0
v -85 -12 0
v -75 -13 0
v -76 -13 0
v -76 -12 0
v -75 -12 0
v -74 -13 0
v -75 -13 0
v -75 -12 0
v -74 -12 0
v -66 -13 0
v -67 -13 0
v -67 -12 0
v -66 -12 0
v -65 -13 0
v -66 -13 0
v -66 -12 0
v -65 -12 0
v -64 -13 0
v -65 -13 0
v -65 -12 0
v -64 -12 0
v -63 -13 0
v -64 -13 0
v -64 -12 0
v -63 -12 0
v -25 -13 0
v -26 -13 0
v -26 -12 0
v -25 -12 0
v -24 -13 0
v -25 -13 0
v -25 -12 0
v -24 -12 0
v -22 -13 0
v -23 -13 0
v -23 -12 0
v -22 -12 0
v -21 -13 0
v -22 -13 0
v -22 -12 0
v -21 -12 0
v 0 -13 0
v -1 -13 0
v -1 -12 0
v 0 -12 0
v -86 -12 0
v -87 -12 0
v -87 -11 0
v -86 -11 0
v -85 -12 0
v -86 -12 0
v -86 -11 0
v -85 -11 0
v -75 -12 0
v -76 -12 0
v -76 -11 0
v -75 -11 0
v -74 -12 0
v -75 -12 0
v -75 -11 0
v -74 -11 0
v -66 -12 0
v -67 -12 0
v -67 -11 0
v -66 -11 0
v -65 -12 0
v -66 -12 0
v -66 -11 0
v -65 -11 0
v -64 -12 0
v -65 -12 0
v -65 -11 0
v -64 -11 0
v -63 -12 0
v -64 -12 0
v -64 -11 0
v -63 -11 0
v 0 -12 0
v -1 -12 0
v -1 -11 0
v 0 -11 0
v -64 -11 0
v -65 -11 0
v -65 -10 0
v -64 -10 0
v -63 -11 0
v -64 -11 0
v -64 -10 0
v -63 -10 0
v 0 -11 0
v -1 -11 0
v -1 -10 0
v 0 -10 0
v 0 -10 0
v -1 -10 0
v -1 -9 0
v 0 -9 0
v -77 -9 0
v -78 -9 0
v -78 -8 0
v -77 -8 0
v -76 -9 0
v -77 -9 0
v -77 -8 0
v -76 -8 0
v 0 -9 0
v -1 -9 0
v -1 -8 0
v 0 -8 0
v -77 -8 0
v -78 -8 0
v -78 -7 0
v -77 -7 0
v -76 -8 0
v -77 -8 0
v -77 -7 0
v -76 -7 0
v -77 -7 0
v -78 -7 0
v -78 -6 0
v -77 -6 0
v -76 -7 0
v -77 -7 0
v -77 -6 0
v -76 -6 0

# Texture cooridinates (Count = 49)
vt 0.99 0.01999998
vt 1 0.01999998
vt 1 0.02999997
vt 0.99 0.02999997
vt 0.98 0.01999998
vt 0.98 0.02999997
vt 0.91 0.16
vt 0.92 0.16
vt 0.92 0.17
vt 0.91 0.17
vt 0.9 0.16
vt 0.9 0.17
vt 1 0.04000002
vt 0.99 0.04000002
vt 0.98 0.04000002
vt 0.91 0.04000002
vt 0.9 0.04000002
vt 0.9 0.05000001
vt 0.91 0.05000001
vt 0.92 0.18
vt 0.91 0.18
vt 0.9 0.18
vt 1 0.05000001
vt 0.99 0.05000001
vt 0.98 0.05000001
vt 0.88 0.04000002
vt 0.89 0.04000002
vt 0.89 0.05000001
vt 0.88 0.05000001
vt 0.92 0.19
vt 0.91 0.19
vt 0.9 0.19
vt 0.95 0.01999998
vt 0.96 0.01999998
vt 0.96 0.02999997
vt 0.95 0.02999997
vt 0.94 0.01999998
vt 0.94 0.02999997
vt 0.96 0.04000002
vt 0.95 0.04000002
vt 0.94 0.04000002
vt 0.96 0.05000001
vt 0.95 0.05000001
vt 0.94 0.05000001
vt 0.89 0.15
vt 0.9 0.15
vt 0.89 0.16
vt 0.92 0.04000002
vt 0.92 0.05000001

# Normal
vn 0 0 -1

# Mesh description
g Nivel1ChicoRemastered_mesh_0025

# Faces
f 1/1/1 2/2/1 3/3/1 4/4/1
f 5/5/1 6/1/1 7/4/1 8/6/1
f 9/1/1 10/2/1 11/3/1 12/4/1
f 13/5/1 14/1/1 15/4/1 16/6/1
f 17/1/1 18/2/1 19/3/1 20/4/1
f 21/5/1 22/1/1 23/4/1 24/6/1
f 25/7/1 26/8/1 27/9/1 28/10/1
f 29/11/1 30/7/1 31/10/1 32/12/1
f 33/1/1 34/2/1 35/3/1 36/4/1
f 37/5/1 38/1/1 39/4/1 40/6/1
f 41/4/1 42/3/1 43/13/1 44/14/1
f 45/6/1 46/4/1 47/14/1 48/15/1
f 49/4/1 50/3/1 51/13/1 52/14/1
f 53/6/1 54/4/1 55/14/1 56/15/1
f 57/16/1 58/17/1 59/18/1 60/19/1
f 61/17/1 62/16/1 63/19/1 64/18/1
f 65/4/1 66/3/1 67/13/1 68/14/1
f 69/6/1 70/4/1 71/14/1 72/15/1
f 73/1/1 74/2/1 75/3/1 76/4/1
f 77/5/1 78/1/1 79/4/1 80/6/1
f 81/4/1 82/3/1 83/13/1 84/14/1
f 85/6/1 86/4/1 87/14/1 88/15/1
f 89/4/1 90/3/1 91/13/1 92/14/1
f 93/6/1 94/4/1 95/14/1 96/15/1
f 97/10/1 98/9/1 99/20/1 100/21/1
f 101/12/1 102/10/1 103/21/1 104/22/1
f 105/4/1 106/3/1 107/13/1 108/14/1
f 109/6/1 110/4/1 111/14/1 112/15/1
f 113/14/1 114/13/1 115/23/1 116/24/1
f 117/15/1 118/14/1 119/24/1 120/25/1
f 121/14/1 122/13/1 123/23/1 124/24/1
f 125/15/1 126/14/1 127/24/1 128/25/1
f 129/26/1 130/27/1 131/28/1 132/29/1
f 133/14/1 134/13/1 135/23/1 136/24/1
f 137/15/1 138/14/1 139/24/1 140/25/1
f 141/4/1 142/3/1 143/13/1 144/14/1
f 145/6/1 146/4/1 147/14/1 148/15/1
f 149/14/1 150/13/1 151/23/1 152/24/1
f 153/15/1 154/14/1 155/24/1 156/25/1
f 157/14/1 158/13/1 159/23/1 160/24/1
f 161/15/1 162/14/1 163/24/1 164/25/1
f 165/21/1 166/20/1 167/30/1 168/31/1
f 169/22/1 170/21/1 171/31/1 172/32/1
f 173/14/1 174/13/1 175/23/1 176/24/1
f 177/15/1 178/14/1 179/24/1 180/25/1
f 181/26/1 182/27/1 183/28/1 184/29/1
f 185/14/1 186/13/1 187/23/1 188/24/1
f 189/15/1 190/14/1 191/24/1 192/25/1
f 193/26/1 194/27/1 195/28/1 196/29/1
f 197/26/1 198/27/1 199/28/1 200/29/1
f 201/33/1 202/34/1 203/35/1 204/36/1
f 205/37/1 206/33/1 207/36/1 208/38/1
f 209/26/1 210/27/1 211/28/1 212/29/1
f 213/1/1 214/2/1 215/3/1 216/4/1
f 217/5/1 218/1/1 219/4/1 220/6/1
f 221/1/1 222/2/1 223/3/1 224/4/1
f 225/5/1 226/1/1 227/4/1 228/6/1
f 229/1/1 230/2/1 231/3/1 232/4/1
f 233/5/1 234/1/1 235/4/1 236/6/1
f 237/36/1 238/35/1 239/39/1 240/40/1
f 241/38/1 242/36/1 243/40/1 244/41/1
f 245/26/1 246/27/1 247/28/1 248/29/1
f 249/4/1 250/3/1 251/13/1 252/14/1
f 253/6/1 254/4/1 255/14/1 256/15/1
f 257/4/1 258/3/1 259/13/1 260/14/1
f 261/6/1 262/4/1 263/14/1 264/15/1
f 265/1/1 266/2/1 267/3/1 268/4/1
f 269/5/1 270/1/1 271/4/1 272/6/1
f 273/4/1 274/3/1 275/13/1 276/14/1
f 277/6/1 278/4/1 279/14/1 280/15/1
f 281/40/1 282/39/1 283/42/1 284/43/1
f 285/41/1 286/40/1 287/43/1 288/44/1
f 289/26/1 290/27/1 291/28/1 292/29/1
f 293/1/1 294/2/1 295/3/1 296/4/1
f 297/5/1 298/1/1 299/4/1 300/6/1
f 301/14/1 302/13/1 303/23/1 304/24/1
f 305/15/1 306/14/1 307/24/1 308/25/1
f 309/1/1 310/2/1 311/3/1 312/4/1
f 313/5/1 314/1/1 315/4/1 316/6/1
f 317/14/1 318/13/1 319/23/1 320/24/1
f 321/15/1 322/14/1 323/24/1 324/25/1
f 325/4/1 326/3/1 327/13/1 328/14/1
f 329/6/1 330/4/1 331/14/1 332/15/1
f 333/14/1 334/13/1 335/23/1 336/24/1
f 337/15/1 338/14/1 339/24/1 340/25/1
f 341/1/1 342/2/1 343/3/1 344/4/1
f 345/5/1 346/1/1 347/4/1 348/6/1
f 349/16/1 350/17/1 351/18/1 352/19/1
f 353/17/1 354/16/1 355/19/1 356/18/1
f 357/4/1 358/3/1 359/13/1 360/14/1
f 361/6/1 362/4/1 363/14/1 364/15/1
f 365/4/1 366/3/1 367/13/1 368/14/1
f 369/6/1 370/4/1 371/14/1 372/15/1
f 373/14/1 374/13/1 375/23/1 376/24/1
f 377/15/1 378/14/1 379/24/1 380/25/1
f 381/4/1 382/3/1 383/13/1 384/14/1
f 385/6/1 386/4/1 387/14/1 388/15/1
f 389/26/1 390/27/1 391/28/1 392/29/1
f 393/14/1 394/13/1 395/23/1 396/24/1
f 397/15/1 398/14/1 399/24/1 400/25/1
f 401/14/1 402/13/1 403/23/1 404/24/1
f 405/15/1 406/14/1 407/24/1 408/25/1
f 409/1/1 410/2/1 411/3/1 412/4/1
f 413/5/1 414/1/1 415/4/1 416/6/1
f 417/14/1 418/13/1 419/23/1 420/24/1
f 421/15/1 422/14/1 423/24/1 424/25/1
f 425/26/1 426/27/1 427/28/1 428/29/1
f 429/4/1 430/3/1 431/13/1 432/14/1
f 433/6/1 434/4/1 435/14/1 436/15/1
f 437/26/1 438/27/1 439/28/1 440/29/1
f 441/14/1 442/13/1 443/23/1 444/24/1
f 445/15/1 446/14/1 447/24/1 448/25/1
f 449/26/1 450/27/1 451/28/1 452/29/1
f 453/26/1 454/27/1 455/28/1 456/29/1
f 457/26/1 458/27/1 459/28/1 460/29/1
f 461/26/1 462/27/1 463/28/1 464/29/1
f 465/26/1 466/27/1 467/28/1 468/29/1
f 469/16/1 470/17/1 471/18/1 472/19/1
f 473/26/1 474/27/1 475/28/1 476/29/1
f 477/26/1 478/27/1 479/28/1 480/29/1
f 481/26/1 482/27/1 483/28/1 484/29/1
f 485/26/1 486/27/1 487/28/1 488/29/1
f 489/26/1 490/27/1 491/28/1 492/29/1
f 493/26/1 494/27/1 495/28/1 496/29/1
f 497/26/1 498/27/1 499/28/1 500/29/1
f 501/1/1 502/2/1 503/3/1 504/4/1
f 505/5/1 506/1/1 507/4/1 508/6/1
f 509/17/1 510/16/1 511/19/1 512/18/1
f 513/4/1 514/3/1 515/13/1 516/14/1
f 517/6/1 518/4/1 519/14/1 520/15/1
f 521/26/1 522/27/1 523/28/1 524/29/1
f 525/1/1 526/2/1 527/3/1 528/4/1
f 529/5/1 530/1/1 531/4/1 532/6/1
f 533/14/1 534/13/1 535/23/1 536/24/1
f 537/15/1 538/14/1 539/24/1 540/25/1
f 541/26/1 542/27/1 543/28/1 544/29/1
f 545/4/1 546/3/1 547/13/1 548/14/1
f 549/6/1 550/4/1 551/14/1 552/15/1
f 553/1/1 554/2/1 555/3/1 556/4/1
f 557/5/1 558/1/1 559/4/1 560/6/1
f 561/1/1 562/2/1 563/3/1 564/4/1
f 565/5/1 566/1/1 567/4/1 568/6/1
f 569/26/1 570/27/1 571/28/1 572/29/1
f 573/14/1 574/13/1 575/23/1 576/24/1
f 577/15/1 578/14/1 579/24/1 580/25/1
f 581/4/1 582/3/1 583/13/1 584/14/1
f 585/6/1 586/4/1 587/14/1 588/15/1
f 589/4/1 590/3/1 591/13/1 592/14/1
f 593/6/1 594/4/1 595/14/1 596/15/1
f 597/26/1 598/27/1 599/28/1 600/29/1
f 601/1/1 602/2/1 603/3/1 604/4/1
f 605/5/1 606/1/1 607/4/1 608/6/1
f 609/16/1 610/17/1 611/18/1 612/19/1
f 613/14/1 614/13/1 615/23/1 616/24/1
f 617/15/1 618/14/1 619/24/1 620/25/1
f 621/14/1 622/13/1 623/23/1 624/24/1
f 625/15/1 626/14/1 627/24/1 628/25/1
f 629/27/1 630/26/1 631/29/1 632/28/1
f 633/26/1 634/27/1 635/28/1 636/29/1
f 637/1/1 638/2/1 639/3/1 640/4/1
f 641/5/1 642/1/1 643/4/1 644/6/1
f 645/4/1 646/3/1 647/13/1 648/14/1
f 649/6/1 650/4/1 651/14/1 652/15/1
f 653/27/1 654/26/1 655/29/1 656/28/1
f 657/1/1 658/2/1 659/3/1 660/4/1
f 661/5/1 662/1/1 663/4/1 664/6/1
f 665/26/1 666/27/1 667/28/1 668/29/1
f 669/4/1 670/3/1 671/13/1 672/14/1
f 673/6/1 674/4/1 675/14/1 676/15/1
f 677/14/1 678/13/1 679/23/1 680/24/1
f 681/15/1 682/14/1 683/24/1 684/25/1
f 685/27/1 686/26/1 687/29/1 688/28/1
f 689/4/1 690/3/1 691/13/1 692/14/1
f 693/6/1 694/4/1 695/14/1 696/15/1
f 697/26/1 698/27/1 699/28/1 700/29/1
f 701/14/1 702/13/1 703/23/1 704/24/1
f 705/15/1 706/14/1 707/24/1 708/25/1
f 709/1/1 710/2/1 711/3/1 712/4/1
f 713/5/1 714/1/1 715/4/1 716/6/1
f 717/27/1 718/26/1 719/29/1 720/28/1
f 721/14/1 722/13/1 723/23/1 724/24/1
f 725/15/1 726/14/1 727/24/1 728/25/1
f 729/26/1 730/27/1 731/28/1 732/29/1
f 733/4/1 734/3/1 735/13/1 736/14/1
f 737/6/1 738/4/1 739/14/1 740/15/1
f 741/27/1 742/26/1 743/29/1 744/28/1
f 745/26/1 746/27/1 747/28/1 748/29/1
f 749/14/1 750/13/1 751/23/1 752/24/1
f 753/15/1 754/14/1 755/24/1 756/25/1
f 757/27/1 758/26/1 759/29/1 760/28/1
f 761/26/1 762/27/1 763/28/1 764/29/1
f 765/27/1 766/26/1 767/29/1 768/28/1
f 769/26/1 770/27/1 771/28/1 772/29/1
f 773/1/1 774/2/1 775/3/1 776/4/1
f 777/5/1 778/1/1 779/4/1 780/6/1
f 781/1/1 782/2/1 783/3/1 784/4/1
f 785/5/1 786/1/1 787/4/1 788/6/1
f 789/1/1 790/2/1 791/3/1 792/4/1
f 793/5/1 794/1/1 795/4/1 796/6/1
f 797/27/1 798/26/1 799/29/1 800/28/1
f 801/26/1 802/27/1 803/28/1 804/29/1
f 805/4/1 806/3/1 807/13/1 808/14/1
f 809/6/1 810/4/1 811/14/1 812/15/1
f 813/4/1 814/3/1 815/13/1 816/14/1
f 817/6/1 818/4/1 819/14/1 820/15/1
f 821/4/1 822/3/1 823/13/1 824/14/1
f 825/6/1 826/4/1 827/14/1 828/15/1
f 829/1/1 830/2/1 831/3/1 832/4/1
f 833/5/1 834/1/1 835/4/1 836/6/1
f 837/45/1 838/46/1 839/11/1 840/47/1
f 841/45/1 842/46/1 843/11/1 844/47/1
f 845/45/1 846/46/1 847/11/1 848/47/1
f 849/17/1 850/27/1 851/28/1 852/18/1
f 853/26/1 854/27/1 855/28/1 856/29/1
f 857/14/1 858/13/1 859/23/1 860/24/1
f 861/15/1 862/14/1 863/24/1 864/25/1
f 865/14/1 866/13/1 867/23/1 868/24/1
f 869/15/1 870/14/1 871/24/1 872/25/1
f 873/14/1 874/13/1 875/23/1 876/24/1
f 877/15/1 878/14/1 879/24/1 880/25/1
f 881/4/1 882/3/1 883/13/1 884/14/1
f 885/6/1 886/4/1 887/14/1 888/15/1
f 889/26/1 890/27/1 891/28/1 892/29/1
f 893/14/1 894/13/1 895/23/1 896/24/1
f 897/15/1 898/14/1 899/24/1 900/25/1
f 901/26/1 902/27/1 903/28/1 904/29/1
f 905/26/1 906/27/1 907/28/1 908/29/1
f 909/1/1 910/2/1 911/3/1 912/4/1
f 913/5/1 914/1/1 915/4/1 916/6/1
f 917/16/1 918/48/1 919/49/1 920/19/1
f 921/4/1 922/3/1 923/13/1 924/14/1
f 925/6/1 926/4/1 927/14/1 928/15/1
f 929/14/1 930/13/1 931/23/1 932/24/1
f 933/15/1 934/14/1 935/24/1 936/25/1

