# Tiled2Unity generated file. Do not modify by hand.
# Wavefront file for 'Nivel1ChicoRemastered_mesh_0026.obj'

# Vertices (Count = 80)
v -115 -14 0
v -116 -14 0
v -116 -13 0
v -115 -13 0
v -114 -14 0
v -115 -14 0
v -115 -13 0
v -114 -13 0
v -113 -14 0
v -114 -14 0
v -114 -13 0
v -113 -13 0
v -112 -14 0
v -113 -14 0
v -113 -13 0
v -112 -13 0
v -115 -13 0
v -116 -13 0
v -116 -12 0
v -115 -12 0
v -114 -13 0
v -115 -13 0
v -115 -12 0
v -114 -12 0
v -113 -13 0
v -114 -13 0
v -114 -12 0
v -113 -12 0
v -112 -13 0
v -113 -13 0
v -113 -12 0
v -112 -12 0
v -115 -12 0
v -116 -12 0
v -116 -11 0
v -115 -11 0
v -114 -12 0
v -115 -12 0
v -115 -11 0
v -114 -11 0
v -113 -12 0
v -114 -12 0
v -114 -11 0
v -113 -11 0
v -112 -12 0
v -113 -12 0
v -113 -11 0
v -112 -11 0
v -115 -11 0
v -116 -11 0
v -116 -10 0
v -115 -10 0
v -114 -11 0
v -115 -11 0
v -115 -10 0
v -114 -10 0
v -113 -11 0
v -114 -11 0
v -114 -10 0
v -113 -10 0
v -112 -11 0
v -113 -11 0
v -113 -10 0
v -112 -10 0
v -115 -10 0
v -116 -10 0
v -116 -9 0
v -115 -9 0
v -114 -10 0
v -115 -10 0
v -115 -9 0
v -114 -9 0
v -113 -10 0
v -114 -10 0
v -114 -9 0
v -113 -9 0
v -112 -10 0
v -113 -10 0
v -113 -9 0
v -112 -9 0

# Texture cooridinates (Count = 30)
vt 0.5 0.86
vt 0.51 0.86
vt 0.51 0.87
vt 0.5 0.87
vt 0.49 0.86
vt 0.49 0.87
vt 0.48 0.86
vt 0.48 0.87
vt 0.47 0.86
vt 0.47 0.87
vt 0.51 0.88
vt 0.5 0.88
vt 0.49 0.88
vt 0.48 0.88
vt 0.47 0.88
vt 0.51 0.89
vt 0.5 0.89
vt 0.49 0.89
vt 0.48 0.89
vt 0.47 0.89
vt 0.51 0.9
vt 0.5 0.9
vt 0.49 0.9
vt 0.48 0.9
vt 0.47 0.9
vt 0.51 0.91
vt 0.5 0.91
vt 0.49 0.91
vt 0.48 0.91
vt 0.47 0.91

# Normal
vn 0 0 -1

# Mesh description
g Nivel1ChicoRemastered_mesh_0026

# Faces
f 1/1/1 2/2/1 3/3/1 4/4/1
f 5/5/1 6/1/1 7/4/1 8/6/1
f 9/7/1 10/5/1 11/6/1 12/8/1
f 13/9/1 14/7/1 15/8/1 16/10/1
f 17/4/1 18/3/1 19/11/1 20/12/1
f 21/6/1 22/4/1 23/12/1 24/13/1
f 25/8/1 26/6/1 27/13/1 28/14/1
f 29/10/1 30/8/1 31/14/1 32/15/1
f 33/12/1 34/11/1 35/16/1 36/17/1
f 37/13/1 38/12/1 39/17/1 40/18/1
f 41/14/1 42/13/1 43/18/1 44/19/1
f 45/15/1 46/14/1 47/19/1 48/20/1
f 49/17/1 50/16/1 51/21/1 52/22/1
f 53/18/1 54/17/1 55/22/1 56/23/1
f 57/19/1 58/18/1 59/23/1 60/24/1
f 61/20/1 62/19/1 63/24/1 64/25/1
f 65/22/1 66/21/1 67/26/1 68/27/1
f 69/23/1 70/22/1 71/27/1 72/28/1
f 73/24/1 74/23/1 75/28/1 76/29/1
f 77/25/1 78/24/1 79/29/1 80/30/1

