# Tiled2Unity generated file. Do not modify by hand.
# Wavefront file for 'Nivel1ChicoRemastered_mesh_0007.obj'

# Vertices (Count = 292)
v -118 -38 0
v -119 -38 0
v -119 -37 0
v -118 -37 0
v -117 -38 0
v -118 -38 0
v -118 -37 0
v -117 -37 0
v -116 -38 0
v -117 -38 0
v -117 -37 0
v -116 -37 0
v -115 -38 0
v -116 -38 0
v -116 -37 0
v -115 -37 0
v -114 -38 0
v -115 -38 0
v -115 -37 0
v -114 -37 0
v -113 -38 0
v -114 -38 0
v -114 -37 0
v -113 -37 0
v -112 -38 0
v -113 -38 0
v -113 -37 0
v -112 -37 0
v -111 -38 0
v -112 -38 0
v -112 -37 0
v -111 -37 0
v -110 -38 0
v -111 -38 0
v -111 -37 0
v -110 -37 0
v -109 -38 0
v -110 -38 0
v -110 -37 0
v -109 -37 0
v -118 -37 0
v -119 -37 0
v -119 -36 0
v -118 -36 0
v -117 -37 0
v -118 -37 0
v -118 -36 0
v -117 -36 0
v -116 -37 0
v -117 -37 0
v -117 -36 0
v -116 -36 0
v -115 -37 0
v -116 -37 0
v -116 -36 0
v -115 -36 0
v -114 -37 0
v -115 -37 0
v -115 -36 0
v -114 -36 0
v -113 -37 0
v -114 -37 0
v -114 -36 0
v -113 -36 0
v -112 -37 0
v -113 -37 0
v -113 -36 0
v -112 -36 0
v -111 -37 0
v -112 -37 0
v -112 -36 0
v -111 -36 0
v -110 -37 0
v -111 -37 0
v -111 -36 0
v -110 -36 0
v -109 -37 0
v -110 -37 0
v -110 -36 0
v -109 -36 0
v -118 -36 0
v -119 -36 0
v -119 -35 0
v -118 -35 0
v -117 -36 0
v -118 -36 0
v -118 -35 0
v -117 -35 0
v -116 -36 0
v -117 -36 0
v -117 -35 0
v -116 -35 0
v -115 -36 0
v -116 -36 0
v -116 -35 0
v -115 -35 0
v -114 -36 0
v -115 -36 0
v -115 -35 0
v -114 -35 0
v -113 -36 0
v -114 -36 0
v -114 -35 0
v -113 -35 0
v -112 -36 0
v -113 -36 0
v -113 -35 0
v -112 -35 0
v -111 -36 0
v -112 -36 0
v -112 -35 0
v -111 -35 0
v -110 -36 0
v -111 -36 0
v -111 -35 0
v -110 -35 0
v -109 -36 0
v -110 -36 0
v -110 -35 0
v -109 -35 0
v -118 -35 0
v -119 -35 0
v -119 -34 0
v -118 -34 0
v -117 -35 0
v -118 -35 0
v -118 -34 0
v -117 -34 0
v -116 -35 0
v -117 -35 0
v -117 -34 0
v -116 -34 0
v -115 -35 0
v -116 -35 0
v -116 -34 0
v -115 -34 0
v -114 -35 0
v -115 -35 0
v -115 -34 0
v -114 -34 0
v -113 -35 0
v -114 -35 0
v -114 -34 0
v -113 -34 0
v -112 -35 0
v -113 -35 0
v -113 -34 0
v -112 -34 0
v -111 -35 0
v -112 -35 0
v -112 -34 0
v -111 -34 0
v -110 -35 0
v -111 -35 0
v -111 -34 0
v -110 -34 0
v -109 -35 0
v -110 -35 0
v -110 -34 0
v -109 -34 0
v -118 -34 0
v -119 -34 0
v -119 -33 0
v -118 -33 0
v -117 -34 0
v -118 -34 0
v -118 -33 0
v -117 -33 0
v -116 -34 0
v -117 -34 0
v -117 -33 0
v -116 -33 0
v -115 -34 0
v -116 -34 0
v -116 -33 0
v -115 -33 0
v -114 -34 0
v -115 -34 0
v -115 -33 0
v -114 -33 0
v -113 -34 0
v -114 -34 0
v -114 -33 0
v -113 -33 0
v -112 -34 0
v -113 -34 0
v -113 -33 0
v -112 -33 0
v -111 -34 0
v -112 -34 0
v -112 -33 0
v -111 -33 0
v -110 -34 0
v -111 -34 0
v -111 -33 0
v -110 -33 0
v -109 -34 0
v -110 -34 0
v -110 -33 0
v -109 -33 0
v -115 -33 0
v -116 -33 0
v -116 -32 0
v -115 -32 0
v -114 -33 0
v -115 -33 0
v -115 -32 0
v -114 -32 0
v -113 -33 0
v -114 -33 0
v -114 -32 0
v -113 -32 0
v -112 -33 0
v -113 -33 0
v -113 -32 0
v -112 -32 0
v -115 -32 0
v -116 -32 0
v -116 -31 0
v -115 -31 0
v -114 -32 0
v -115 -32 0
v -115 -31 0
v -114 -31 0
v -113 -32 0
v -114 -32 0
v -114 -31 0
v -113 -31 0
v -112 -32 0
v -113 -32 0
v -113 -31 0
v -112 -31 0
v -109 -13 0
v -110 -13 0
v -110 -12 0
v -109 -12 0
v -108 -13 0
v -109 -13 0
v -109 -12 0
v -108 -12 0
v -107 -13 0
v -108 -13 0
v -108 -12 0
v -107 -12 0
v -109 -12 0
v -110 -12 0
v -110 -11 0
v -109 -11 0
v -108 -12 0
v -109 -12 0
v -109 -11 0
v -108 -11 0
v -107 -12 0
v -108 -12 0
v -108 -11 0
v -107 -11 0
v -109 -11 0
v -110 -11 0
v -110 -10 0
v -109 -10 0
v -108 -11 0
v -109 -11 0
v -109 -10 0
v -108 -10 0
v -107 -11 0
v -108 -11 0
v -108 -10 0
v -107 -10 0
v -109 -10 0
v -110 -10 0
v -110 -9 0
v -109 -9 0
v -108 -10 0
v -109 -10 0
v -109 -9 0
v -108 -9 0
v -107 -10 0
v -108 -10 0
v -108 -9 0
v -107 -9 0
v -109 -9 0
v -110 -9 0
v -110 -8 0
v -109 -8 0
v -108 -9 0
v -109 -9 0
v -109 -8 0
v -108 -8 0
v -107 -9 0
v -108 -9 0
v -108 -8 0
v -107 -8 0

# Texture cooridinates (Count = 83)
vt 0.51 0.86
vt 0.52 0.86
vt 0.52 0.87
vt 0.51 0.87
vt 0.53 0.86
vt 0.53 0.87
vt 0.49 0.78
vt 0.5 0.78
vt 0.5 0.79
vt 0.49 0.79
vt 0.48 0.78
vt 0.48 0.79
vt 0.47 0.78
vt 0.47 0.79
vt 0.46 0.78
vt 0.46 0.79
vt 0.46 0.86
vt 0.47 0.86
vt 0.47 0.87
vt 0.46 0.87
vt 0.45 0.86
vt 0.45 0.87
vt 0.52 0.88
vt 0.51 0.88
vt 0.53 0.88
vt 0.47 0.88
vt 0.46 0.88
vt 0.45 0.88
vt 0.52 0.89
vt 0.51 0.89
vt 0.53 0.89
vt 0.5 0.8
vt 0.49 0.8
vt 0.48 0.8
vt 0.47 0.8
vt 0.46 0.8
vt 0.47 0.89
vt 0.46 0.89
vt 0.45 0.89
vt 0.52 0.9
vt 0.51 0.9
vt 0.53 0.9
vt 0.5 0.81
vt 0.49 0.81
vt 0.48 0.81
vt 0.47 0.81
vt 0.46 0.81
vt 0.47 0.9
vt 0.46 0.9
vt 0.45 0.9
vt 0.52 0.91
vt 0.51 0.91
vt 0.53 0.91
vt 0.5 0.82
vt 0.49 0.82
vt 0.48 0.82
vt 0.47 0.82
vt 0.46 0.82
vt 0.47 0.91
vt 0.46 0.91
vt 0.45 0.91
vt 0.5 0.83
vt 0.49 0.83
vt 0.48 0.83
vt 0.47 0.83
vt 0.46 0.83
vt 0.5 0.84
vt 0.49 0.84
vt 0.48 0.84
vt 0.47 0.84
vt 0.46 0.84
vt 0.3 0.94
vt 0.31 0.94
vt 0.31 0.95
vt 0.3 0.95
vt 0.29 0.94
vt 0.29 0.95
vt 0.28 0.94
vt 0.28 0.95
vt 0.31 0.96
vt 0.3 0.96
vt 0.29 0.96
vt 0.28 0.96

# Normal
vn 0 0 -1

# Mesh description
g Nivel1ChicoRemastered_mesh_0007

# Faces
f 1/1/1 2/2/1 3/3/1 4/4/1
f 5/2/1 6/5/1 7/6/1 8/3/1
f 9/1/1 10/2/1 11/3/1 12/4/1
f 13/7/1 14/8/1 15/9/1 16/10/1
f 17/11/1 18/7/1 19/10/1 20/12/1
f 21/13/1 22/11/1 23/12/1 24/14/1
f 25/15/1 26/13/1 27/14/1 28/16/1
f 29/17/1 30/18/1 31/19/1 32/20/1
f 33/21/1 34/17/1 35/20/1 36/22/1
f 37/17/1 38/18/1 39/19/1 40/20/1
f 41/4/1 42/3/1 43/23/1 44/24/1
f 45/3/1 46/6/1 47/25/1 48/23/1
f 49/4/1 50/3/1 51/23/1 52/24/1
f 53/7/1 54/8/1 55/9/1 56/10/1
f 57/11/1 58/7/1 59/10/1 60/12/1
f 61/13/1 62/11/1 63/12/1 64/14/1
f 65/15/1 66/13/1 67/14/1 68/16/1
f 69/20/1 70/19/1 71/26/1 72/27/1
f 73/22/1 74/20/1 75/27/1 76/28/1
f 77/20/1 78/19/1 79/26/1 80/27/1
f 81/24/1 82/23/1 83/29/1 84/30/1
f 85/23/1 86/25/1 87/31/1 88/29/1
f 89/24/1 90/23/1 91/29/1 92/30/1
f 93/10/1 94/9/1 95/32/1 96/33/1
f 97/12/1 98/10/1 99/33/1 100/34/1
f 101/14/1 102/12/1 103/34/1 104/35/1
f 105/16/1 106/14/1 107/35/1 108/36/1
f 109/27/1 110/26/1 111/37/1 112/38/1
f 113/28/1 114/27/1 115/38/1 116/39/1
f 117/27/1 118/26/1 119/37/1 120/38/1
f 121/30/1 122/29/1 123/40/1 124/41/1
f 125/29/1 126/31/1 127/42/1 128/40/1
f 129/30/1 130/29/1 131/40/1 132/41/1
f 133/33/1 134/32/1 135/43/1 136/44/1
f 137/34/1 138/33/1 139/44/1 140/45/1
f 141/35/1 142/34/1 143/45/1 144/46/1
f 145/36/1 146/35/1 147/46/1 148/47/1
f 149/38/1 150/37/1 151/48/1 152/49/1
f 153/39/1 154/38/1 155/49/1 156/50/1
f 157/38/1 158/37/1 159/48/1 160/49/1
f 161/41/1 162/40/1 163/51/1 164/52/1
f 165/40/1 166/42/1 167/53/1 168/51/1
f 169/41/1 170/40/1 171/51/1 172/52/1
f 173/44/1 174/43/1 175/54/1 176/55/1
f 177/45/1 178/44/1 179/55/1 180/56/1
f 181/46/1 182/45/1 183/56/1 184/57/1
f 185/47/1 186/46/1 187/57/1 188/58/1
f 189/49/1 190/48/1 191/59/1 192/60/1
f 193/50/1 194/49/1 195/60/1 196/61/1
f 197/49/1 198/48/1 199/59/1 200/60/1
f 201/55/1 202/54/1 203/62/1 204/63/1
f 205/56/1 206/55/1 207/63/1 208/64/1
f 209/57/1 210/56/1 211/64/1 212/65/1
f 213/58/1 214/57/1 215/65/1 216/66/1
f 217/63/1 218/62/1 219/67/1 220/68/1
f 221/64/1 222/63/1 223/68/1 224/69/1
f 225/65/1 226/64/1 227/69/1 228/70/1
f 229/66/1 230/65/1 231/70/1 232/71/1
f 233/72/1 234/73/1 235/74/1 236/75/1
f 237/76/1 238/72/1 239/75/1 240/77/1
f 241/78/1 242/76/1 243/77/1 244/79/1
f 245/72/1 246/73/1 247/74/1 248/75/1
f 249/76/1 250/72/1 251/75/1 252/77/1
f 253/78/1 254/76/1 255/77/1 256/79/1
f 257/72/1 258/73/1 259/74/1 260/75/1
f 261/76/1 262/72/1 263/75/1 264/77/1
f 265/78/1 266/76/1 267/77/1 268/79/1
f 269/75/1 270/74/1 271/80/1 272/81/1
f 273/77/1 274/75/1 275/81/1 276/82/1
f 277/79/1 278/77/1 279/82/1 280/83/1
f 281/75/1 282/74/1 283/80/1 284/81/1
f 285/77/1 286/75/1 287/81/1 288/82/1
f 289/79/1 290/77/1 291/82/1 292/83/1

