# Tiled2Unity generated file. Do not modify by hand.
# Wavefront file for 'Nivel1ChicoRemastered_mesh_0006.obj'

# Vertices (Count = 260)
v -118 -38 0
v -119 -38 0
v -119 -37 0
v -118 -37 0
v -117 -38 0
v -118 -38 0
v -118 -37 0
v -117 -37 0
v -116 -38 0
v -117 -38 0
v -117 -37 0
v -116 -37 0
v -115 -38 0
v -116 -38 0
v -116 -37 0
v -115 -37 0
v -114 -38 0
v -115 -38 0
v -115 -37 0
v -114 -37 0
v -113 -38 0
v -114 -38 0
v -114 -37 0
v -113 -37 0
v -112 -38 0
v -113 -38 0
v -113 -37 0
v -112 -37 0
v -111 -38 0
v -112 -38 0
v -112 -37 0
v -111 -37 0
v -110 -38 0
v -111 -38 0
v -111 -37 0
v -110 -37 0
v -109 -38 0
v -110 -38 0
v -110 -37 0
v -109 -37 0
v -118 -37 0
v -119 -37 0
v -119 -36 0
v -118 -36 0
v -117 -37 0
v -118 -37 0
v -118 -36 0
v -117 -36 0
v -116 -37 0
v -117 -37 0
v -117 -36 0
v -116 -36 0
v -115 -37 0
v -116 -37 0
v -116 -36 0
v -115 -36 0
v -114 -37 0
v -115 -37 0
v -115 -36 0
v -114 -36 0
v -113 -37 0
v -114 -37 0
v -114 -36 0
v -113 -36 0
v -112 -37 0
v -113 -37 0
v -113 -36 0
v -112 -36 0
v -111 -37 0
v -112 -37 0
v -112 -36 0
v -111 -36 0
v -110 -37 0
v -111 -37 0
v -111 -36 0
v -110 -36 0
v -109 -37 0
v -110 -37 0
v -110 -36 0
v -109 -36 0
v -118 -36 0
v -119 -36 0
v -119 -35 0
v -118 -35 0
v -117 -36 0
v -118 -36 0
v -118 -35 0
v -117 -35 0
v -116 -36 0
v -117 -36 0
v -117 -35 0
v -116 -35 0
v -115 -36 0
v -116 -36 0
v -116 -35 0
v -115 -35 0
v -114 -36 0
v -115 -36 0
v -115 -35 0
v -114 -35 0
v -113 -36 0
v -114 -36 0
v -114 -35 0
v -113 -35 0
v -112 -36 0
v -113 -36 0
v -113 -35 0
v -112 -35 0
v -111 -36 0
v -112 -36 0
v -112 -35 0
v -111 -35 0
v -110 -36 0
v -111 -36 0
v -111 -35 0
v -110 -35 0
v -109 -36 0
v -110 -36 0
v -110 -35 0
v -109 -35 0
v -118 -35 0
v -119 -35 0
v -119 -34 0
v -118 -34 0
v -117 -35 0
v -118 -35 0
v -118 -34 0
v -117 -34 0
v -116 -35 0
v -117 -35 0
v -117 -34 0
v -116 -34 0
v -115 -35 0
v -116 -35 0
v -116 -34 0
v -115 -34 0
v -114 -35 0
v -115 -35 0
v -115 -34 0
v -114 -34 0
v -113 -35 0
v -114 -35 0
v -114 -34 0
v -113 -34 0
v -112 -35 0
v -113 -35 0
v -113 -34 0
v -112 -34 0
v -111 -35 0
v -112 -35 0
v -112 -34 0
v -111 -34 0
v -110 -35 0
v -111 -35 0
v -111 -34 0
v -110 -34 0
v -109 -35 0
v -110 -35 0
v -110 -34 0
v -109 -34 0
v -118 -34 0
v -119 -34 0
v -119 -33 0
v -118 -33 0
v -117 -34 0
v -118 -34 0
v -118 -33 0
v -117 -33 0
v -116 -34 0
v -117 -34 0
v -117 -33 0
v -116 -33 0
v -115 -34 0
v -116 -34 0
v -116 -33 0
v -115 -33 0
v -114 -34 0
v -115 -34 0
v -115 -33 0
v -114 -33 0
v -113 -34 0
v -114 -34 0
v -114 -33 0
v -113 -33 0
v -112 -34 0
v -113 -34 0
v -113 -33 0
v -112 -33 0
v -111 -34 0
v -112 -34 0
v -112 -33 0
v -111 -33 0
v -110 -34 0
v -111 -34 0
v -111 -33 0
v -110 -33 0
v -109 -34 0
v -110 -34 0
v -110 -33 0
v -109 -33 0
v -109 -13 0
v -110 -13 0
v -110 -12 0
v -109 -12 0
v -108 -13 0
v -109 -13 0
v -109 -12 0
v -108 -12 0
v -107 -13 0
v -108 -13 0
v -108 -12 0
v -107 -12 0
v -109 -12 0
v -110 -12 0
v -110 -11 0
v -109 -11 0
v -108 -12 0
v -109 -12 0
v -109 -11 0
v -108 -11 0
v -107 -12 0
v -108 -12 0
v -108 -11 0
v -107 -11 0
v -109 -11 0
v -110 -11 0
v -110 -10 0
v -109 -10 0
v -108 -11 0
v -109 -11 0
v -109 -10 0
v -108 -10 0
v -107 -11 0
v -108 -11 0
v -108 -10 0
v -107 -10 0
v -109 -10 0
v -110 -10 0
v -110 -9 0
v -109 -9 0
v -108 -10 0
v -109 -10 0
v -109 -9 0
v -108 -9 0
v -107 -10 0
v -108 -10 0
v -108 -9 0
v -107 -9 0
v -109 -9 0
v -110 -9 0
v -110 -8 0
v -109 -8 0
v -108 -9 0
v -109 -9 0
v -109 -8 0
v -108 -8 0
v -107 -9 0
v -108 -9 0
v -108 -8 0
v -107 -8 0

# Texture cooridinates (Count = 66)
vt 0.51 0.86
vt 0.52 0.86
vt 0.52 0.87
vt 0.51 0.87
vt 0.53 0.86
vt 0.53 0.87
vt 0.5 0.86
vt 0.5 0.87
vt 0.49 0.86
vt 0.49 0.87
vt 0.48 0.86
vt 0.48 0.87
vt 0.47 0.86
vt 0.47 0.87
vt 0.46 0.86
vt 0.46 0.87
vt 0.45 0.86
vt 0.45 0.87
vt 0.52 0.88
vt 0.51 0.88
vt 0.53 0.88
vt 0.5 0.88
vt 0.49 0.88
vt 0.48 0.88
vt 0.47 0.88
vt 0.46 0.88
vt 0.45 0.88
vt 0.52 0.89
vt 0.51 0.89
vt 0.53 0.89
vt 0.5 0.89
vt 0.49 0.89
vt 0.48 0.89
vt 0.47 0.89
vt 0.46 0.89
vt 0.45 0.89
vt 0.52 0.9
vt 0.51 0.9
vt 0.53 0.9
vt 0.5 0.9
vt 0.49 0.9
vt 0.48 0.9
vt 0.47 0.9
vt 0.46 0.9
vt 0.45 0.9
vt 0.52 0.91
vt 0.51 0.91
vt 0.53 0.91
vt 0.5 0.91
vt 0.49 0.91
vt 0.48 0.91
vt 0.47 0.91
vt 0.46 0.91
vt 0.45 0.91
vt 0.3 0.94
vt 0.31 0.94
vt 0.31 0.95
vt 0.3 0.95
vt 0.29 0.94
vt 0.29 0.95
vt 0.28 0.94
vt 0.28 0.95
vt 0.31 0.96
vt 0.3 0.96
vt 0.29 0.96
vt 0.28 0.96

# Normal
vn 0 0 -1

# Mesh description
g Nivel1ChicoRemastered_mesh_0006

# Faces
f 1/1/1 2/2/1 3/3/1 4/4/1
f 5/2/1 6/5/1 7/6/1 8/3/1
f 9/1/1 10/2/1 11/3/1 12/4/1
f 13/7/1 14/1/1 15/4/1 16/8/1
f 17/9/1 18/7/1 19/8/1 20/10/1
f 21/11/1 22/9/1 23/10/1 24/12/1
f 25/13/1 26/11/1 27/12/1 28/14/1
f 29/15/1 30/13/1 31/14/1 32/16/1
f 33/17/1 34/15/1 35/16/1 36/18/1
f 37/15/1 38/13/1 39/14/1 40/16/1
f 41/4/1 42/3/1 43/19/1 44/20/1
f 45/3/1 46/6/1 47/21/1 48/19/1
f 49/4/1 50/3/1 51/19/1 52/20/1
f 53/8/1 54/4/1 55/20/1 56/22/1
f 57/10/1 58/8/1 59/22/1 60/23/1
f 61/12/1 62/10/1 63/23/1 64/24/1
f 65/14/1 66/12/1 67/24/1 68/25/1
f 69/16/1 70/14/1 71/25/1 72/26/1
f 73/18/1 74/16/1 75/26/1 76/27/1
f 77/16/1 78/14/1 79/25/1 80/26/1
f 81/20/1 82/19/1 83/28/1 84/29/1
f 85/19/1 86/21/1 87/30/1 88/28/1
f 89/20/1 90/19/1 91/28/1 92/29/1
f 93/22/1 94/20/1 95/29/1 96/31/1
f 97/23/1 98/22/1 99/31/1 100/32/1
f 101/24/1 102/23/1 103/32/1 104/33/1
f 105/25/1 106/24/1 107/33/1 108/34/1
f 109/26/1 110/25/1 111/34/1 112/35/1
f 113/27/1 114/26/1 115/35/1 116/36/1
f 117/26/1 118/25/1 119/34/1 120/35/1
f 121/29/1 122/28/1 123/37/1 124/38/1
f 125/28/1 126/30/1 127/39/1 128/37/1
f 129/29/1 130/28/1 131/37/1 132/38/1
f 133/31/1 134/29/1 135/38/1 136/40/1
f 137/32/1 138/31/1 139/40/1 140/41/1
f 141/33/1 142/32/1 143/41/1 144/42/1
f 145/34/1 146/33/1 147/42/1 148/43/1
f 149/35/1 150/34/1 151/43/1 152/44/1
f 153/36/1 154/35/1 155/44/1 156/45/1
f 157/35/1 158/34/1 159/43/1 160/44/1
f 161/38/1 162/37/1 163/46/1 164/47/1
f 165/37/1 166/39/1 167/48/1 168/46/1
f 169/38/1 170/37/1 171/46/1 172/47/1
f 173/40/1 174/38/1 175/47/1 176/49/1
f 177/41/1 178/40/1 179/49/1 180/50/1
f 181/42/1 182/41/1 183/50/1 184/51/1
f 185/43/1 186/42/1 187/51/1 188/52/1
f 189/44/1 190/43/1 191/52/1 192/53/1
f 193/45/1 194/44/1 195/53/1 196/54/1
f 197/44/1 198/43/1 199/52/1 200/53/1
f 201/55/1 202/56/1 203/57/1 204/58/1
f 205/59/1 206/55/1 207/58/1 208/60/1
f 209/61/1 210/59/1 211/60/1 212/62/1
f 213/55/1 214/56/1 215/57/1 216/58/1
f 217/59/1 218/55/1 219/58/1 220/60/1
f 221/61/1 222/59/1 223/60/1 224/62/1
f 225/55/1 226/56/1 227/57/1 228/58/1
f 229/59/1 230/55/1 231/58/1 232/60/1
f 233/61/1 234/59/1 235/60/1 236/62/1
f 237/58/1 238/57/1 239/63/1 240/64/1
f 241/60/1 242/58/1 243/64/1 244/65/1
f 245/62/1 246/60/1 247/65/1 248/66/1
f 249/58/1 250/57/1 251/63/1 252/64/1
f 253/60/1 254/58/1 255/64/1 256/65/1
f 257/62/1 258/60/1 259/65/1 260/66/1

