# Tiled2Unity generated file. Do not modify by hand.
# Wavefront file for 'Nivel1ChicoRemastered_mesh_0006.obj'

# Vertices (Count = 276)
v -115 -38 0
v -116 -38 0
v -116 -37 0
v -115 -37 0
v -114 -38 0
v -115 -38 0
v -115 -37 0
v -114 -37 0
v -113 -38 0
v -114 -38 0
v -114 -37 0
v -113 -37 0
v -112 -38 0
v -113 -38 0
v -113 -37 0
v -112 -37 0
v -115 -37 0
v -116 -37 0
v -116 -36 0
v -115 -36 0
v -114 -37 0
v -115 -37 0
v -115 -36 0
v -114 -36 0
v -113 -37 0
v -114 -37 0
v -114 -36 0
v -113 -36 0
v -112 -37 0
v -113 -37 0
v -113 -36 0
v -112 -36 0
v -115 -36 0
v -116 -36 0
v -116 -35 0
v -115 -35 0
v -114 -36 0
v -115 -36 0
v -115 -35 0
v -114 -35 0
v -113 -36 0
v -114 -36 0
v -114 -35 0
v -113 -35 0
v -112 -36 0
v -113 -36 0
v -113 -35 0
v -112 -35 0
v -115 -35 0
v -116 -35 0
v -116 -34 0
v -115 -34 0
v -114 -35 0
v -115 -35 0
v -115 -34 0
v -114 -34 0
v -113 -35 0
v -114 -35 0
v -114 -34 0
v -113 -34 0
v -112 -35 0
v -113 -35 0
v -113 -34 0
v -112 -34 0
v -115 -34 0
v -116 -34 0
v -116 -33 0
v -115 -33 0
v -114 -34 0
v -115 -34 0
v -115 -33 0
v -114 -33 0
v -113 -34 0
v -114 -34 0
v -114 -33 0
v -113 -33 0
v -112 -34 0
v -113 -34 0
v -113 -33 0
v -112 -33 0
v -116 -15 0
v -117 -15 0
v -117 -14 0
v -116 -14 0
v -115 -15 0
v -116 -15 0
v -116 -14 0
v -115 -14 0
v -114 -15 0
v -115 -15 0
v -115 -14 0
v -114 -14 0
v -113 -15 0
v -114 -15 0
v -114 -14 0
v -113 -14 0
v -112 -15 0
v -113 -15 0
v -113 -14 0
v -112 -14 0
v -111 -15 0
v -112 -15 0
v -112 -14 0
v -111 -14 0
v -110 -15 0
v -111 -15 0
v -111 -14 0
v -110 -14 0
v -116 -14 0
v -117 -14 0
v -117 -13 0
v -116 -13 0
v -115 -14 0
v -116 -14 0
v -116 -13 0
v -115 -13 0
v -114 -14 0
v -115 -14 0
v -115 -13 0
v -114 -13 0
v -113 -14 0
v -114 -14 0
v -114 -13 0
v -113 -13 0
v -112 -14 0
v -113 -14 0
v -113 -13 0
v -112 -13 0
v -111 -14 0
v -112 -14 0
v -112 -13 0
v -111 -13 0
v -110 -14 0
v -111 -14 0
v -111 -13 0
v -110 -13 0
v -116 -13 0
v -117 -13 0
v -117 -12 0
v -116 -12 0
v -115 -13 0
v -116 -13 0
v -116 -12 0
v -115 -12 0
v -114 -13 0
v -115 -13 0
v -115 -12 0
v -114 -12 0
v -113 -13 0
v -114 -13 0
v -114 -12 0
v -113 -12 0
v -112 -13 0
v -113 -13 0
v -113 -12 0
v -112 -12 0
v -111 -13 0
v -112 -13 0
v -112 -12 0
v -111 -12 0
v -110 -13 0
v -111 -13 0
v -111 -12 0
v -110 -12 0
v -116 -12 0
v -117 -12 0
v -117 -11 0
v -116 -11 0
v -115 -12 0
v -116 -12 0
v -116 -11 0
v -115 -11 0
v -114 -12 0
v -115 -12 0
v -115 -11 0
v -114 -11 0
v -113 -12 0
v -114 -12 0
v -114 -11 0
v -113 -11 0
v -112 -12 0
v -113 -12 0
v -113 -11 0
v -112 -11 0
v -111 -12 0
v -112 -12 0
v -112 -11 0
v -111 -11 0
v -110 -12 0
v -111 -12 0
v -111 -11 0
v -110 -11 0
v -116 -11 0
v -117 -11 0
v -117 -10 0
v -116 -10 0
v -115 -11 0
v -116 -11 0
v -116 -10 0
v -115 -10 0
v -114 -11 0
v -115 -11 0
v -115 -10 0
v -114 -10 0
v -113 -11 0
v -114 -11 0
v -114 -10 0
v -113 -10 0
v -112 -11 0
v -113 -11 0
v -113 -10 0
v -112 -10 0
v -111 -11 0
v -112 -11 0
v -112 -10 0
v -111 -10 0
v -110 -11 0
v -111 -11 0
v -111 -10 0
v -110 -10 0
v -116 -10 0
v -117 -10 0
v -117 -9 0
v -116 -9 0
v -115 -10 0
v -116 -10 0
v -116 -9 0
v -115 -9 0
v -114 -10 0
v -115 -10 0
v -115 -9 0
v -114 -9 0
v -113 -10 0
v -114 -10 0
v -114 -9 0
v -113 -9 0
v -112 -10 0
v -113 -10 0
v -113 -9 0
v -112 -9 0
v -111 -10 0
v -112 -10 0
v -112 -9 0
v -111 -9 0
v -110 -10 0
v -111 -10 0
v -111 -9 0
v -110 -9 0
v -116 -9 0
v -117 -9 0
v -117 -8 0
v -116 -8 0
v -115 -9 0
v -116 -9 0
v -116 -8 0
v -115 -8 0
v -114 -9 0
v -115 -9 0
v -115 -8 0
v -114 -8 0
v -113 -9 0
v -114 -9 0
v -114 -8 0
v -113 -8 0
v -112 -9 0
v -113 -9 0
v -113 -8 0
v -112 -8 0
v -111 -9 0
v -112 -9 0
v -112 -8 0
v -111 -8 0
v -110 -9 0
v -111 -9 0
v -111 -8 0
v -110 -8 0

# Texture cooridinates (Count = 94)
vt 0.5 0.86
vt 0.51 0.86
vt 0.51 0.87
vt 0.5 0.87
vt 0.49 0.86
vt 0.49 0.87
vt 0.48 0.86
vt 0.48 0.87
vt 0.47 0.86
vt 0.47 0.87
vt 0.51 0.88
vt 0.5 0.88
vt 0.49 0.88
vt 0.48 0.88
vt 0.47 0.88
vt 0.51 0.89
vt 0.5 0.89
vt 0.49 0.89
vt 0.48 0.89
vt 0.47 0.89
vt 0.51 0.9
vt 0.5 0.9
vt 0.49 0.9
vt 0.48 0.9
vt 0.47 0.9
vt 0.51 0.91
vt 0.5 0.91
vt 0.49 0.91
vt 0.48 0.91
vt 0.47 0.91
vt 0.54 0.77
vt 0.55 0.77
vt 0.55 0.78
vt 0.54 0.78
vt 0.53 0.77
vt 0.53 0.78
vt 0.52 0.77
vt 0.52 0.78
vt 0.51 0.77
vt 0.51 0.78
vt 0.5 0.77
vt 0.5 0.78
vt 0.49 0.77
vt 0.49 0.78
vt 0.48 0.77
vt 0.48 0.78
vt 0.55 0.79
vt 0.54 0.79
vt 0.53 0.79
vt 0.52 0.79
vt 0.51 0.79
vt 0.5 0.79
vt 0.49 0.79
vt 0.48 0.79
vt 0.55 0.8
vt 0.54 0.8
vt 0.53 0.8
vt 0.52 0.8
vt 0.51 0.8
vt 0.5 0.8
vt 0.49 0.8
vt 0.48 0.8
vt 0.55 0.81
vt 0.54 0.81
vt 0.53 0.81
vt 0.52 0.81
vt 0.51 0.81
vt 0.5 0.81
vt 0.49 0.81
vt 0.48 0.81
vt 0.55 0.82
vt 0.54 0.82
vt 0.53 0.82
vt 0.52 0.82
vt 0.51 0.82
vt 0.5 0.82
vt 0.49 0.82
vt 0.48 0.82
vt 0.55 0.83
vt 0.54 0.83
vt 0.53 0.83
vt 0.52 0.83
vt 0.51 0.83
vt 0.5 0.83
vt 0.49 0.83
vt 0.48 0.83
vt 0.55 0.84
vt 0.54 0.84
vt 0.53 0.84
vt 0.52 0.84
vt 0.51 0.84
vt 0.5 0.84
vt 0.49 0.84
vt 0.48 0.84

# Normal
vn 0 0 -1

# Mesh description
g Nivel1ChicoRemastered_mesh_0006

# Faces
f 1/1/1 2/2/1 3/3/1 4/4/1
f 5/5/1 6/1/1 7/4/1 8/6/1
f 9/7/1 10/5/1 11/6/1 12/8/1
f 13/9/1 14/7/1 15/8/1 16/10/1
f 17/4/1 18/3/1 19/11/1 20/12/1
f 21/6/1 22/4/1 23/12/1 24/13/1
f 25/8/1 26/6/1 27/13/1 28/14/1
f 29/10/1 30/8/1 31/14/1 32/15/1
f 33/12/1 34/11/1 35/16/1 36/17/1
f 37/13/1 38/12/1 39/17/1 40/18/1
f 41/14/1 42/13/1 43/18/1 44/19/1
f 45/15/1 46/14/1 47/19/1 48/20/1
f 49/17/1 50/16/1 51/21/1 52/22/1
f 53/18/1 54/17/1 55/22/1 56/23/1
f 57/19/1 58/18/1 59/23/1 60/24/1
f 61/20/1 62/19/1 63/24/1 64/25/1
f 65/22/1 66/21/1 67/26/1 68/27/1
f 69/23/1 70/22/1 71/27/1 72/28/1
f 73/24/1 74/23/1 75/28/1 76/29/1
f 77/25/1 78/24/1 79/29/1 80/30/1
f 81/31/1 82/32/1 83/33/1 84/34/1
f 85/35/1 86/31/1 87/34/1 88/36/1
f 89/37/1 90/35/1 91/36/1 92/38/1
f 93/39/1 94/37/1 95/38/1 96/40/1
f 97/41/1 98/39/1 99/40/1 100/42/1
f 101/43/1 102/41/1 103/42/1 104/44/1
f 105/45/1 106/43/1 107/44/1 108/46/1
f 109/34/1 110/33/1 111/47/1 112/48/1
f 113/36/1 114/34/1 115/48/1 116/49/1
f 117/38/1 118/36/1 119/49/1 120/50/1
f 121/40/1 122/38/1 123/50/1 124/51/1
f 125/42/1 126/40/1 127/51/1 128/52/1
f 129/44/1 130/42/1 131/52/1 132/53/1
f 133/46/1 134/44/1 135/53/1 136/54/1
f 137/48/1 138/47/1 139/55/1 140/56/1
f 141/49/1 142/48/1 143/56/1 144/57/1
f 145/50/1 146/49/1 147/57/1 148/58/1
f 149/51/1 150/50/1 151/58/1 152/59/1
f 153/52/1 154/51/1 155/59/1 156/60/1
f 157/53/1 158/52/1 159/60/1 160/61/1
f 161/54/1 162/53/1 163/61/1 164/62/1
f 165/56/1 166/55/1 167/63/1 168/64/1
f 169/57/1 170/56/1 171/64/1 172/65/1
f 173/58/1 174/57/1 175/65/1 176/66/1
f 177/59/1 178/58/1 179/66/1 180/67/1
f 181/60/1 182/59/1 183/67/1 184/68/1
f 185/61/1 186/60/1 187/68/1 188/69/1
f 189/62/1 190/61/1 191/69/1 192/70/1
f 193/64/1 194/63/1 195/71/1 196/72/1
f 197/65/1 198/64/1 199/72/1 200/73/1
f 201/66/1 202/65/1 203/73/1 204/74/1
f 205/67/1 206/66/1 207/74/1 208/75/1
f 209/68/1 210/67/1 211/75/1 212/76/1
f 213/69/1 214/68/1 215/76/1 216/77/1
f 217/70/1 218/69/1 219/77/1 220/78/1
f 221/72/1 222/71/1 223/79/1 224/80/1
f 225/73/1 226/72/1 227/80/1 228/81/1
f 229/74/1 230/73/1 231/81/1 232/82/1
f 233/75/1 234/74/1 235/82/1 236/83/1
f 237/76/1 238/75/1 239/83/1 240/84/1
f 241/77/1 242/76/1 243/84/1 244/85/1
f 245/78/1 246/77/1 247/85/1 248/86/1
f 249/80/1 250/79/1 251/87/1 252/88/1
f 253/81/1 254/80/1 255/88/1 256/89/1
f 257/82/1 258/81/1 259/89/1 260/90/1
f 261/83/1 262/82/1 263/90/1 264/91/1
f 265/84/1 266/83/1 267/91/1 268/92/1
f 269/85/1 270/84/1 271/92/1 272/93/1
f 273/86/1 274/85/1 275/93/1 276/94/1

