# Tiled2Unity generated file. Do not modify by hand.
# Wavefront file for 'worldr_mesh_0003.obj'

# Vertices (Count = 616)
v -6 -75 0
v -7 -75 0
v -7 -74 0
v -6 -74 0
v -7 -75 0
v -8 -75 0
v -8 -74 0
v -7 -74 0
v -8 -75 0
v -9 -75 0
v -9 -74 0
v -8 -74 0
v -9 -75 0
v -10 -75 0
v -10 -74 0
v -9 -74 0
v -10 -75 0
v -11 -75 0
v -11 -74 0
v -10 -74 0
v -11 -75 0
v -12 -75 0
v -12 -74 0
v -11 -74 0
v -6 -76 0
v -7 -76 0
v -7 -75 0
v -6 -75 0
v -7 -76 0
v -8 -76 0
v -8 -75 0
v -7 -75 0
v -8 -76 0
v -9 -76 0
v -9 -75 0
v -8 -75 0
v -9 -76 0
v -10 -76 0
v -10 -75 0
v -9 -75 0
v -10 -76 0
v -11 -76 0
v -11 -75 0
v -10 -75 0
v -11 -76 0
v -12 -76 0
v -12 -75 0
v -11 -75 0
v -6 -77 0
v -7 -77 0
v -7 -76 0
v -6 -76 0
v -7 -77 0
v -8 -77 0
v -8 -76 0
v -7 -76 0
v -8 -77 0
v -9 -77 0
v -9 -76 0
v -8 -76 0
v -9 -77 0
v -10 -77 0
v -10 -76 0
v -9 -76 0
v -10 -77 0
v -11 -77 0
v -11 -76 0
v -10 -76 0
v -11 -77 0
v -12 -77 0
v -12 -76 0
v -11 -76 0
v -6 -78 0
v -7 -78 0
v -7 -77 0
v -6 -77 0
v -7 -78 0
v -8 -78 0
v -8 -77 0
v -7 -77 0
v -8 -78 0
v -9 -78 0
v -9 -77 0
v -8 -77 0
v -9 -78 0
v -10 -78 0
v -10 -77 0
v -9 -77 0
v -10 -78 0
v -11 -78 0
v -11 -77 0
v -10 -77 0
v -11 -78 0
v -12 -78 0
v -12 -77 0
v -11 -77 0
v -1 -79 0
v -2 -79 0
v -2 -78 0
v -1 -78 0
v -2 -79 0
v -3 -79 0
v -3 -78 0
v -2 -78 0
v -3 -79 0
v -4 -79 0
v -4 -78 0
v -3 -78 0
v -4 -79 0
v -5 -79 0
v -5 -78 0
v -4 -78 0
v -5 -79 0
v -6 -79 0
v -6 -78 0
v -5 -78 0
v -6 -79 0
v -7 -79 0
v -7 -78 0
v -6 -78 0
v -7 -79 0
v -8 -79 0
v -8 -78 0
v -7 -78 0
v -8 -79 0
v -9 -79 0
v -9 -78 0
v -8 -78 0
v -9 -79 0
v -10 -79 0
v -10 -78 0
v -9 -78 0
v -10 -79 0
v -11 -79 0
v -11 -78 0
v -10 -78 0
v -11 -79 0
v -12 -79 0
v -12 -78 0
v -11 -78 0
v -1 -80 0
v -2 -80 0
v -2 -79 0
v -1 -79 0
v -2 -80 0
v -3 -80 0
v -3 -79 0
v -2 -79 0
v -3 -80 0
v -4 -80 0
v -4 -79 0
v -3 -79 0
v -4 -80 0
v -5 -80 0
v -5 -79 0
v -4 -79 0
v -5 -80 0
v -6 -80 0
v -6 -79 0
v -5 -79 0
v -6 -80 0
v -7 -80 0
v -7 -79 0
v -6 -79 0
v -7 -80 0
v -8 -80 0
v -8 -79 0
v -7 -79 0
v -8 -80 0
v -9 -80 0
v -9 -79 0
v -8 -79 0
v -9 -80 0
v -10 -80 0
v -10 -79 0
v -9 -79 0
v -10 -80 0
v -11 -80 0
v -11 -79 0
v -10 -79 0
v -11 -80 0
v -12 -80 0
v -12 -79 0
v -11 -79 0
v -1 -81 0
v -2 -81 0
v -2 -80 0
v -1 -80 0
v -2 -81 0
v -3 -81 0
v -3 -80 0
v -2 -80 0
v -3 -81 0
v -4 -81 0
v -4 -80 0
v -3 -80 0
v -4 -81 0
v -5 -81 0
v -5 -80 0
v -4 -80 0
v -5 -81 0
v -6 -81 0
v -6 -80 0
v -5 -80 0
v -6 -81 0
v -7 -81 0
v -7 -80 0
v -6 -80 0
v -7 -81 0
v -8 -81 0
v -8 -80 0
v -7 -80 0
v -8 -81 0
v -9 -81 0
v -9 -80 0
v -8 -80 0
v -9 -81 0
v -10 -81 0
v -10 -80 0
v -9 -80 0
v -10 -81 0
v -11 -81 0
v -11 -80 0
v -10 -80 0
v -11 -81 0
v -12 -81 0
v -12 -80 0
v -11 -80 0
v -1 -82 0
v -2 -82 0
v -2 -81 0
v -1 -81 0
v -2 -82 0
v -3 -82 0
v -3 -81 0
v -2 -81 0
v -3 -82 0
v -4 -82 0
v -4 -81 0
v -3 -81 0
v -4 -82 0
v -5 -82 0
v -5 -81 0
v -4 -81 0
v -5 -82 0
v -6 -82 0
v -6 -81 0
v -5 -81 0
v -6 -82 0
v -7 -82 0
v -7 -81 0
v -6 -81 0
v -7 -82 0
v -8 -82 0
v -8 -81 0
v -7 -81 0
v -8 -82 0
v -9 -82 0
v -9 -81 0
v -8 -81 0
v -9 -82 0
v -10 -82 0
v -10 -81 0
v -9 -81 0
v -10 -82 0
v -11 -82 0
v -11 -81 0
v -10 -81 0
v -11 -82 0
v -12 -82 0
v -12 -81 0
v -11 -81 0
v -1 -83 0
v -2 -83 0
v -2 -82 0
v -1 -82 0
v -2 -83 0
v -3 -83 0
v -3 -82 0
v -2 -82 0
v -3 -83 0
v -4 -83 0
v -4 -82 0
v -3 -82 0
v -4 -83 0
v -5 -83 0
v -5 -82 0
v -4 -82 0
v -5 -83 0
v -6 -83 0
v -6 -82 0
v -5 -82 0
v -6 -83 0
v -7 -83 0
v -7 -82 0
v -6 -82 0
v -7 -83 0
v -8 -83 0
v -8 -82 0
v -7 -82 0
v -8 -83 0
v -9 -83 0
v -9 -82 0
v -8 -82 0
v -9 -83 0
v -10 -83 0
v -10 -82 0
v -9 -82 0
v -10 -83 0
v -11 -83 0
v -11 -82 0
v -10 -82 0
v -11 -83 0
v -12 -83 0
v -12 -82 0
v -11 -82 0
v -13 -87 0
v -14 -87 0
v -14 -86 0
v -13 -86 0
v -14 -87 0
v -15 -87 0
v -15 -86 0
v -14 -86 0
v -15 -87 0
v -16 -87 0
v -16 -86 0
v -15 -86 0
v -16 -87 0
v -17 -87 0
v -17 -86 0
v -16 -86 0
v -17 -87 0
v -18 -87 0
v -18 -86 0
v -17 -86 0
v -18 -87 0
v -19 -87 0
v -19 -86 0
v -18 -86 0
v -19 -87 0
v -20 -87 0
v -20 -86 0
v -19 -86 0
v -20 -87 0
v -21 -87 0
v -21 -86 0
v -20 -86 0
v -21 -87 0
v -22 -87 0
v -22 -86 0
v -21 -86 0
v -22 -87 0
v -23 -87 0
v -23 -86 0
v -22 -86 0
v -23 -87 0
v -24 -87 0
v -24 -86 0
v -23 -86 0
v -24 -87 0
v -25 -87 0
v -25 -86 0
v -24 -86 0
v -25 -87 0
v -26 -87 0
v -26 -86 0
v -25 -86 0
v -26 -87 0
v -27 -87 0
v -27 -86 0
v -26 -86 0
v -27 -87 0
v -28 -87 0
v -28 -86 0
v -27 -86 0
v -13 -88 0
v -14 -88 0
v -14 -87 0
v -13 -87 0
v -14 -88 0
v -15 -88 0
v -15 -87 0
v -14 -87 0
v -15 -88 0
v -16 -88 0
v -16 -87 0
v -15 -87 0
v -16 -88 0
v -17 -88 0
v -17 -87 0
v -16 -87 0
v -17 -88 0
v -18 -88 0
v -18 -87 0
v -17 -87 0
v -18 -88 0
v -19 -88 0
v -19 -87 0
v -18 -87 0
v -19 -88 0
v -20 -88 0
v -20 -87 0
v -19 -87 0
v -20 -88 0
v -21 -88 0
v -21 -87 0
v -20 -87 0
v -21 -88 0
v -22 -88 0
v -22 -87 0
v -21 -87 0
v -22 -88 0
v -23 -88 0
v -23 -87 0
v -22 -87 0
v -23 -88 0
v -24 -88 0
v -24 -87 0
v -23 -87 0
v -24 -88 0
v -25 -88 0
v -25 -87 0
v -24 -87 0
v -25 -88 0
v -26 -88 0
v -26 -87 0
v -25 -87 0
v -26 -88 0
v -27 -88 0
v -27 -87 0
v -26 -87 0
v -27 -88 0
v -28 -88 0
v -28 -87 0
v -27 -87 0
v -13 -89 0
v -14 -89 0
v -14 -88 0
v -13 -88 0
v -14 -89 0
v -15 -89 0
v -15 -88 0
v -14 -88 0
v -15 -89 0
v -16 -89 0
v -16 -88 0
v -15 -88 0
v -16 -89 0
v -17 -89 0
v -17 -88 0
v -16 -88 0
v -17 -89 0
v -18 -89 0
v -18 -88 0
v -17 -88 0
v -18 -89 0
v -19 -89 0
v -19 -88 0
v -18 -88 0
v -19 -89 0
v -20 -89 0
v -20 -88 0
v -19 -88 0
v -20 -89 0
v -21 -89 0
v -21 -88 0
v -20 -88 0
v -21 -89 0
v -22 -89 0
v -22 -88 0
v -21 -88 0
v -22 -89 0
v -23 -89 0
v -23 -88 0
v -22 -88 0
v -23 -89 0
v -24 -89 0
v -24 -88 0
v -23 -88 0
v -24 -89 0
v -25 -89 0
v -25 -88 0
v -24 -88 0
v -25 -89 0
v -26 -89 0
v -26 -88 0
v -25 -88 0
v -26 -89 0
v -27 -89 0
v -27 -88 0
v -26 -88 0
v -27 -89 0
v -28 -89 0
v -28 -88 0
v -27 -88 0
v -13 -90 0
v -14 -90 0
v -14 -89 0
v -13 -89 0
v -14 -90 0
v -15 -90 0
v -15 -89 0
v -14 -89 0
v -15 -90 0
v -16 -90 0
v -16 -89 0
v -15 -89 0
v -16 -90 0
v -17 -90 0
v -17 -89 0
v -16 -89 0
v -17 -90 0
v -18 -90 0
v -18 -89 0
v -17 -89 0
v -18 -90 0
v -19 -90 0
v -19 -89 0
v -18 -89 0
v -19 -90 0
v -20 -90 0
v -20 -89 0
v -19 -89 0
v -20 -90 0
v -21 -90 0
v -21 -89 0
v -20 -89 0
v -21 -90 0
v -22 -90 0
v -22 -89 0
v -21 -89 0
v -22 -90 0
v -23 -90 0
v -23 -89 0
v -22 -89 0
v -23 -90 0
v -24 -90 0
v -24 -89 0
v -23 -89 0
v -24 -90 0
v -25 -90 0
v -25 -89 0
v -24 -89 0
v -25 -90 0
v -26 -90 0
v -26 -89 0
v -25 -89 0
v -26 -90 0
v -27 -90 0
v -27 -89 0
v -26 -89 0
v -27 -90 0
v -28 -90 0
v -28 -89 0
v -27 -89 0
v -13 -91 0
v -14 -91 0
v -14 -90 0
v -13 -90 0
v -14 -91 0
v -15 -91 0
v -15 -90 0
v -14 -90 0
v -15 -91 0
v -16 -91 0
v -16 -90 0
v -15 -90 0
v -16 -91 0
v -17 -91 0
v -17 -90 0
v -16 -90 0
v -17 -91 0
v -18 -91 0
v -18 -90 0
v -17 -90 0
v -18 -91 0
v -19 -91 0
v -19 -90 0
v -18 -90 0
v -19 -91 0
v -20 -91 0
v -20 -90 0
v -19 -90 0
v -20 -91 0
v -21 -91 0
v -21 -90 0
v -20 -90 0
v -21 -91 0
v -22 -91 0
v -22 -90 0
v -21 -90 0
v -22 -91 0
v -23 -91 0
v -23 -90 0
v -22 -90 0
v -23 -91 0
v -24 -91 0
v -24 -90 0
v -23 -90 0
v -24 -91 0
v -25 -91 0
v -25 -90 0
v -24 -90 0
v -25 -91 0
v -26 -91 0
v -26 -90 0
v -25 -90 0
v -26 -91 0
v -27 -91 0
v -27 -90 0
v -26 -90 0
v -27 -91 0
v -28 -91 0
v -28 -90 0
v -27 -90 0

# Texture cooridinates (Count = 106)
vt 0.025 0.7222222
vt 0.05 0.7222222
vt 0.05 0.75
vt 0.025 0.75
vt 0.075 0.7222222
vt 0.075 0.75
vt 0.1 0.7222222
vt 0.1 0.75
vt 0.125 0.7222222
vt 0.125 0.75
vt 0.15 0.7222222
vt 0.15 0.75
vt 0.175 0.7222222
vt 0.175 0.75
vt 0.025 0.6944444
vt 0.05 0.6944444
vt 0.075 0.6944444
vt 0.1 0.6944444
vt 0.125 0.6944444
vt 0.15 0.6944444
vt 0.175 0.6944444
vt 0.025 0.6666666
vt 0.05 0.6666666
vt 0.075 0.6666666
vt 0.1 0.6666666
vt 0.125 0.6666666
vt 0.15 0.6666666
vt 0.175 0.6666666
vt 0.025 0.6388889
vt 0.05 0.6388889
vt 0.075 0.6388889
vt 0.1 0.6388889
vt 0.125 0.6388889
vt 0.15 0.6388889
vt 0.175 0.6388889
vt 0 0.9722222
vt 0.025 0.9722222
vt 0.025 1
vt 0 1
vt 0.05 0.9722222
vt 0.05 1
vt 0.075 0.9722222
vt 0.075 1
vt 0.1 0.9722222
vt 0.1 1
vt 0.125 0.9722222
vt 0.125 1
vt 0.025 0.6111111
vt 0.05 0.6111111
vt 0.075 0.6111111
vt 0.1 0.6111111
vt 0.125 0.6111111
vt 0.15 0.6111111
vt 0.175 0.6111111
vt 0 0.9444444
vt 0.025 0.9444444
vt 0.05 0.9444444
vt 0.075 0.9444444
vt 0.1 0.9444444
vt 0.125 0.9444444
vt 0.025 0.5833334
vt 0.05 0.5833334
vt 0.075 0.5833334
vt 0.1 0.5833334
vt 0.125 0.5833334
vt 0.15 0.5833334
vt 0.175 0.5833334
vt 0 0.9166667
vt 0.025 0.9166667
vt 0.05 0.9166667
vt 0.075 0.9166667
vt 0.1 0.9166667
vt 0.125 0.9166667
vt 0.025 0.5555556
vt 0.05 0.5555556
vt 0.075 0.5555556
vt 0.1 0.5555556
vt 0.125 0.5555556
vt 0.15 0.5555556
vt 0.175 0.5555556
vt 0 0.8888889
vt 0.025 0.8888889
vt 0.05 0.8888889
vt 0.075 0.8888889
vt 0.1 0.8888889
vt 0.125 0.8888889
vt 0.025 0.5277778
vt 0.05 0.5277778
vt 0.075 0.5277778
vt 0.1 0.5277778
vt 0.125 0.5277778
vt 0.15 0.5277778
vt 0.175 0.5277778
vt 0 0.8611111
vt 0.025 0.8611111
vt 0.05 0.8611111
vt 0.075 0.8611111
vt 0.1 0.8611111
vt 0.125 0.8611111
vt 0.025 0.5
vt 0.05 0.5
vt 0.075 0.5
vt 0.1 0.5
vt 0.125 0.5
vt 0.15 0.5
vt 0.175 0.5

# Normal
vn 0 0 -1

# Mesh description
g worldr_mesh_0003

# Faces
f 1/1/1 2/2/1 3/3/1 4/4/1
f 5/2/1 6/5/1 7/6/1 8/3/1
f 9/5/1 10/7/1 11/8/1 12/6/1
f 13/7/1 14/9/1 15/10/1 16/8/1
f 17/9/1 18/11/1 19/12/1 20/10/1
f 21/11/1 22/13/1 23/14/1 24/12/1
f 25/15/1 26/16/1 27/2/1 28/1/1
f 29/16/1 30/17/1 31/5/1 32/2/1
f 33/17/1 34/18/1 35/7/1 36/5/1
f 37/18/1 38/19/1 39/9/1 40/7/1
f 41/19/1 42/20/1 43/11/1 44/9/1
f 45/20/1 46/21/1 47/13/1 48/11/1
f 49/22/1 50/23/1 51/16/1 52/15/1
f 53/23/1 54/24/1 55/17/1 56/16/1
f 57/24/1 58/25/1 59/18/1 60/17/1
f 61/25/1 62/26/1 63/19/1 64/18/1
f 65/26/1 66/27/1 67/20/1 68/19/1
f 69/27/1 70/28/1 71/21/1 72/20/1
f 73/29/1 74/30/1 75/23/1 76/22/1
f 77/30/1 78/31/1 79/24/1 80/23/1
f 81/31/1 82/32/1 83/25/1 84/24/1
f 85/32/1 86/33/1 87/26/1 88/25/1
f 89/33/1 90/34/1 91/27/1 92/26/1
f 93/34/1 94/35/1 95/28/1 96/27/1
f 97/36/1 98/37/1 99/38/1 100/39/1
f 101/37/1 102/40/1 103/41/1 104/38/1
f 105/40/1 106/42/1 107/43/1 108/41/1
f 109/42/1 110/44/1 111/45/1 112/43/1
f 113/44/1 114/46/1 115/47/1 116/45/1
f 117/48/1 118/49/1 119/30/1 120/29/1
f 121/49/1 122/50/1 123/31/1 124/30/1
f 125/50/1 126/51/1 127/32/1 128/31/1
f 129/51/1 130/52/1 131/33/1 132/32/1
f 133/52/1 134/53/1 135/34/1 136/33/1
f 137/53/1 138/54/1 139/35/1 140/34/1
f 141/55/1 142/56/1 143/37/1 144/36/1
f 145/56/1 146/57/1 147/40/1 148/37/1
f 149/57/1 150/58/1 151/42/1 152/40/1
f 153/58/1 154/59/1 155/44/1 156/42/1
f 157/59/1 158/60/1 159/46/1 160/44/1
f 161/61/1 162/62/1 163/49/1 164/48/1
f 165/62/1 166/63/1 167/50/1 168/49/1
f 169/63/1 170/64/1 171/51/1 172/50/1
f 173/64/1 174/65/1 175/52/1 176/51/1
f 177/65/1 178/66/1 179/53/1 180/52/1
f 181/66/1 182/67/1 183/54/1 184/53/1
f 185/68/1 186/69/1 187/56/1 188/55/1
f 189/69/1 190/70/1 191/57/1 192/56/1
f 193/70/1 194/71/1 195/58/1 196/57/1
f 197/71/1 198/72/1 199/59/1 200/58/1
f 201/72/1 202/73/1 203/60/1 204/59/1
f 205/74/1 206/75/1 207/62/1 208/61/1
f 209/75/1 210/76/1 211/63/1 212/62/1
f 213/76/1 214/77/1 215/64/1 216/63/1
f 217/77/1 218/78/1 219/65/1 220/64/1
f 221/78/1 222/79/1 223/66/1 224/65/1
f 225/79/1 226/80/1 227/67/1 228/66/1
f 229/81/1 230/82/1 231/69/1 232/68/1
f 233/82/1 234/83/1 235/70/1 236/69/1
f 237/83/1 238/84/1 239/71/1 240/70/1
f 241/84/1 242/85/1 243/72/1 244/71/1
f 245/85/1 246/86/1 247/73/1 248/72/1
f 249/87/1 250/88/1 251/75/1 252/74/1
f 253/88/1 254/89/1 255/76/1 256/75/1
f 257/89/1 258/90/1 259/77/1 260/76/1
f 261/90/1 262/91/1 263/78/1 264/77/1
f 265/91/1 266/92/1 267/79/1 268/78/1
f 269/92/1 270/93/1 271/80/1 272/79/1
f 273/94/1 274/95/1 275/82/1 276/81/1
f 277/95/1 278/96/1 279/83/1 280/82/1
f 281/96/1 282/97/1 283/84/1 284/83/1
f 285/97/1 286/98/1 287/85/1 288/84/1
f 289/98/1 290/99/1 291/86/1 292/85/1
f 293/100/1 294/101/1 295/88/1 296/87/1
f 297/101/1 298/102/1 299/89/1 300/88/1
f 301/102/1 302/103/1 303/90/1 304/89/1
f 305/103/1 306/104/1 307/91/1 308/90/1
f 309/104/1 310/105/1 311/92/1 312/91/1
f 313/105/1 314/106/1 315/93/1 316/92/1
f 317/36/1 318/37/1 319/38/1 320/39/1
f 321/37/1 322/40/1 323/41/1 324/38/1
f 325/40/1 326/42/1 327/43/1 328/41/1
f 329/42/1 330/44/1 331/45/1 332/43/1
f 333/44/1 334/46/1 335/47/1 336/45/1
f 337/36/1 338/37/1 339/38/1 340/39/1
f 341/37/1 342/40/1 343/41/1 344/38/1
f 345/40/1 346/42/1 347/43/1 348/41/1
f 349/42/1 350/44/1 351/45/1 352/43/1
f 353/44/1 354/46/1 355/47/1 356/45/1
f 357/36/1 358/37/1 359/38/1 360/39/1
f 361/37/1 362/40/1 363/41/1 364/38/1
f 365/40/1 366/42/1 367/43/1 368/41/1
f 369/42/1 370/44/1 371/45/1 372/43/1
f 373/44/1 374/46/1 375/47/1 376/45/1
f 377/55/1 378/56/1 379/37/1 380/36/1
f 381/56/1 382/57/1 383/40/1 384/37/1
f 385/57/1 386/58/1 387/42/1 388/40/1
f 389/58/1 390/59/1 391/44/1 392/42/1
f 393/59/1 394/60/1 395/46/1 396/44/1
f 397/55/1 398/56/1 399/37/1 400/36/1
f 401/56/1 402/57/1 403/40/1 404/37/1
f 405/57/1 406/58/1 407/42/1 408/40/1
f 409/58/1 410/59/1 411/44/1 412/42/1
f 413/59/1 414/60/1 415/46/1 416/44/1
f 417/55/1 418/56/1 419/37/1 420/36/1
f 421/56/1 422/57/1 423/40/1 424/37/1
f 425/57/1 426/58/1 427/42/1 428/40/1
f 429/58/1 430/59/1 431/44/1 432/42/1
f 433/59/1 434/60/1 435/46/1 436/44/1
f 437/68/1 438/69/1 439/56/1 440/55/1
f 441/69/1 442/70/1 443/57/1 444/56/1
f 445/70/1 446/71/1 447/58/1 448/57/1
f 449/71/1 450/72/1 451/59/1 452/58/1
f 453/72/1 454/73/1 455/60/1 456/59/1
f 457/68/1 458/69/1 459/56/1 460/55/1
f 461/69/1 462/70/1 463/57/1 464/56/1
f 465/70/1 466/71/1 467/58/1 468/57/1
f 469/71/1 470/72/1 471/59/1 472/58/1
f 473/72/1 474/73/1 475/60/1 476/59/1
f 477/68/1 478/69/1 479/56/1 480/55/1
f 481/69/1 482/70/1 483/57/1 484/56/1
f 485/70/1 486/71/1 487/58/1 488/57/1
f 489/71/1 490/72/1 491/59/1 492/58/1
f 493/72/1 494/73/1 495/60/1 496/59/1
f 497/81/1 498/82/1 499/69/1 500/68/1
f 501/82/1 502/83/1 503/70/1 504/69/1
f 505/83/1 506/84/1 507/71/1 508/70/1
f 509/84/1 510/85/1 511/72/1 512/71/1
f 513/85/1 514/86/1 515/73/1 516/72/1
f 517/81/1 518/82/1 519/69/1 520/68/1
f 521/82/1 522/83/1 523/70/1 524/69/1
f 525/83/1 526/84/1 527/71/1 528/70/1
f 529/84/1 530/85/1 531/72/1 532/71/1
f 533/85/1 534/86/1 535/73/1 536/72/1
f 537/81/1 538/82/1 539/69/1 540/68/1
f 541/82/1 542/83/1 543/70/1 544/69/1
f 545/83/1 546/84/1 547/71/1 548/70/1
f 549/84/1 550/85/1 551/72/1 552/71/1
f 553/85/1 554/86/1 555/73/1 556/72/1
f 557/94/1 558/95/1 559/82/1 560/81/1
f 561/95/1 562/96/1 563/83/1 564/82/1
f 565/96/1 566/97/1 567/84/1 568/83/1
f 569/97/1 570/98/1 571/85/1 572/84/1
f 573/98/1 574/99/1 575/86/1 576/85/1
f 577/94/1 578/95/1 579/82/1 580/81/1
f 581/95/1 582/96/1 583/83/1 584/82/1
f 585/96/1 586/97/1 587/84/1 588/83/1
f 589/97/1 590/98/1 591/85/1 592/84/1
f 593/98/1 594/99/1 595/86/1 596/85/1
f 597/94/1 598/95/1 599/82/1 600/81/1
f 601/95/1 602/96/1 603/83/1 604/82/1
f 605/96/1 606/97/1 607/84/1 608/83/1
f 609/97/1 610/98/1 611/85/1 612/84/1
f 613/98/1 614/99/1 615/86/1 616/85/1

