# Tiled2Unity generated file. Do not modify by hand.
# Wavefront file for 'Nivel1Chico_mesh_0014.obj'

# Vertices (Count = 520)
v -83 -49 0
v -84 -49 0
v -84 -48 0
v -83 -48 0
v -82 -49 0
v -83 -49 0
v -83 -48 0
v -82 -48 0
v -81 -49 0
v -82 -49 0
v -82 -48 0
v -81 -48 0
v -80 -49 0
v -81 -49 0
v -81 -48 0
v -80 -48 0
v -79 -49 0
v -80 -49 0
v -80 -48 0
v -79 -48 0
v -83 -48 0
v -84 -48 0
v -84 -47 0
v -83 -47 0
v -82 -48 0
v -83 -48 0
v -83 -47 0
v -82 -47 0
v -81 -48 0
v -82 -48 0
v -82 -47 0
v -81 -47 0
v -80 -48 0
v -81 -48 0
v -81 -47 0
v -80 -47 0
v -79 -48 0
v -80 -48 0
v -80 -47 0
v -79 -47 0
v -46 -48 0
v -47 -48 0
v -47 -47 0
v -46 -47 0
v -45 -48 0
v -46 -48 0
v -46 -47 0
v -45 -47 0
v -44 -48 0
v -45 -48 0
v -45 -47 0
v -44 -47 0
v -43 -48 0
v -44 -48 0
v -44 -47 0
v -43 -47 0
v -42 -48 0
v -43 -48 0
v -43 -47 0
v -42 -47 0
v -46 -47 0
v -47 -47 0
v -47 -46 0
v -46 -46 0
v -45 -47 0
v -46 -47 0
v -46 -46 0
v -45 -46 0
v -44 -47 0
v -45 -47 0
v -45 -46 0
v -44 -46 0
v -43 -47 0
v -44 -47 0
v -44 -46 0
v -43 -46 0
v -42 -47 0
v -43 -47 0
v -43 -46 0
v -42 -46 0
v -83 -46 0
v -84 -46 0
v -84 -45 0
v -83 -45 0
v -82 -46 0
v -83 -46 0
v -83 -45 0
v -82 -45 0
v -81 -46 0
v -82 -46 0
v -82 -45 0
v -81 -45 0
v -80 -46 0
v -81 -46 0
v -81 -45 0
v -80 -45 0
v -79 -46 0
v -80 -46 0
v -80 -45 0
v -79 -45 0
v -55 -46 0
v -56 -46 0
v -56 -45 0
v -55 -45 0
v -54 -46 0
v -55 -46 0
v -55 -45 0
v -54 -45 0
v -53 -46 0
v -54 -46 0
v -54 -45 0
v -53 -45 0
v -52 -46 0
v -53 -46 0
v -53 -45 0
v -52 -45 0
v -51 -46 0
v -52 -46 0
v -52 -45 0
v -51 -45 0
v -46 -46 0
v -47 -46 0
v -47 -45 0
v -46 -45 0
v -45 -46 0
v -46 -46 0
v -46 -45 0
v -45 -45 0
v -44 -46 0
v -45 -46 0
v -45 -45 0
v -44 -45 0
v -43 -46 0
v -44 -46 0
v -44 -45 0
v -43 -45 0
v -42 -46 0
v -43 -46 0
v -43 -45 0
v -42 -45 0
v -83 -45 0
v -84 -45 0
v -84 -44 0
v -83 -44 0
v -82 -45 0
v -83 -45 0
v -83 -44 0
v -82 -44 0
v -81 -45 0
v -82 -45 0
v -82 -44 0
v -81 -44 0
v -80 -45 0
v -81 -45 0
v -81 -44 0
v -80 -44 0
v -79 -45 0
v -80 -45 0
v -80 -44 0
v -79 -44 0
v -55 -45 0
v -56 -45 0
v -56 -44 0
v -55 -44 0
v -54 -45 0
v -55 -45 0
v -55 -44 0
v -54 -44 0
v -53 -45 0
v -54 -45 0
v -54 -44 0
v -53 -44 0
v -52 -45 0
v -53 -45 0
v -53 -44 0
v -52 -44 0
v -51 -45 0
v -52 -45 0
v -52 -44 0
v -51 -44 0
v -83 -44 0
v -84 -44 0
v -84 -43 0
v -83 -43 0
v -82 -44 0
v -83 -44 0
v -83 -43 0
v -82 -43 0
v -81 -44 0
v -82 -44 0
v -82 -43 0
v -81 -43 0
v -80 -44 0
v -81 -44 0
v -81 -43 0
v -80 -43 0
v -79 -44 0
v -80 -44 0
v -80 -43 0
v -79 -43 0
v -55 -44 0
v -56 -44 0
v -56 -43 0
v -55 -43 0
v -54 -44 0
v -55 -44 0
v -55 -43 0
v -54 -43 0
v -53 -44 0
v -54 -44 0
v -54 -43 0
v -53 -43 0
v -52 -44 0
v -53 -44 0
v -53 -43 0
v -52 -43 0
v -51 -44 0
v -52 -44 0
v -52 -43 0
v -51 -43 0
v -54 -43 0
v -55 -43 0
v -55 -42 0
v -54 -42 0
v -55 -42 0
v -56 -42 0
v -56 -41 0
v -55 -41 0
v -54 -42 0
v -55 -42 0
v -55 -41 0
v -54 -41 0
v -53 -42 0
v -54 -42 0
v -54 -41 0
v -53 -41 0
v -52 -42 0
v -53 -42 0
v -53 -41 0
v -52 -41 0
v -51 -42 0
v -52 -42 0
v -52 -41 0
v -51 -41 0
v -50 -42 0
v -51 -42 0
v -51 -41 0
v -50 -41 0
v -49 -42 0
v -50 -42 0
v -50 -41 0
v -49 -41 0
v -48 -42 0
v -49 -42 0
v -49 -41 0
v -48 -41 0
v -47 -42 0
v -48 -42 0
v -48 -41 0
v -47 -41 0
v -55 -41 0
v -56 -41 0
v -56 -40 0
v -55 -40 0
v -54 -41 0
v -55 -41 0
v -55 -40 0
v -54 -40 0
v -53 -41 0
v -54 -41 0
v -54 -40 0
v -53 -40 0
v -52 -41 0
v -53 -41 0
v -53 -40 0
v -52 -40 0
v -51 -41 0
v -52 -41 0
v -52 -40 0
v -51 -40 0
v -50 -41 0
v -51 -41 0
v -51 -40 0
v -50 -40 0
v -49 -41 0
v -50 -41 0
v -50 -40 0
v -49 -40 0
v -48 -41 0
v -49 -41 0
v -49 -40 0
v -48 -40 0
v -47 -41 0
v -48 -41 0
v -48 -40 0
v -47 -40 0
v -55 -40 0
v -56 -40 0
v -56 -39 0
v -55 -39 0
v -54 -40 0
v -55 -40 0
v -55 -39 0
v -54 -39 0
v -53 -40 0
v -54 -40 0
v -54 -39 0
v -53 -39 0
v -52 -40 0
v -53 -40 0
v -53 -39 0
v -52 -39 0
v -51 -40 0
v -52 -40 0
v -52 -39 0
v -51 -39 0
v -50 -40 0
v -51 -40 0
v -51 -39 0
v -50 -39 0
v -49 -40 0
v -50 -40 0
v -50 -39 0
v -49 -39 0
v -48 -40 0
v -49 -40 0
v -49 -39 0
v -48 -39 0
v -47 -40 0
v -48 -40 0
v -48 -39 0
v -47 -39 0
v -53 -38 0
v -54 -38 0
v -54 -37 0
v -53 -37 0
v -52 -38 0
v -53 -38 0
v -53 -37 0
v -52 -37 0
v -51 -38 0
v -52 -38 0
v -52 -37 0
v -51 -37 0
v -50 -38 0
v -51 -38 0
v -51 -37 0
v -50 -37 0
v -49 -38 0
v -50 -38 0
v -50 -37 0
v -49 -37 0
v -53 -37 0
v -54 -37 0
v -54 -36 0
v -53 -36 0
v -52 -37 0
v -53 -37 0
v -53 -36 0
v -52 -36 0
v -51 -37 0
v -52 -37 0
v -52 -36 0
v -51 -36 0
v -50 -37 0
v -51 -37 0
v -51 -36 0
v -50 -36 0
v -49 -37 0
v -50 -37 0
v -50 -36 0
v -49 -36 0
v -47 -37 0
v -48 -37 0
v -48 -36 0
v -47 -36 0
v -46 -37 0
v -47 -37 0
v -47 -36 0
v -46 -36 0
v -45 -37 0
v -46 -37 0
v -46 -36 0
v -45 -36 0
v -44 -37 0
v -45 -37 0
v -45 -36 0
v -44 -36 0
v -43 -37 0
v -44 -37 0
v -44 -36 0
v -43 -36 0
v -42 -37 0
v -43 -37 0
v -43 -36 0
v -42 -36 0
v -53 -36 0
v -54 -36 0
v -54 -35 0
v -53 -35 0
v -52 -36 0
v -53 -36 0
v -53 -35 0
v -52 -35 0
v -51 -36 0
v -52 -36 0
v -52 -35 0
v -51 -35 0
v -50 -36 0
v -51 -36 0
v -51 -35 0
v -50 -35 0
v -49 -36 0
v -50 -36 0
v -50 -35 0
v -49 -35 0
v -47 -36 0
v -48 -36 0
v -48 -35 0
v -47 -35 0
v -46 -36 0
v -47 -36 0
v -47 -35 0
v -46 -35 0
v -45 -36 0
v -46 -36 0
v -46 -35 0
v -45 -35 0
v -44 -36 0
v -45 -36 0
v -45 -35 0
v -44 -35 0
v -43 -36 0
v -44 -36 0
v -44 -35 0
v -43 -35 0
v -42 -36 0
v -43 -36 0
v -43 -35 0
v -42 -35 0
v -53 -35 0
v -54 -35 0
v -54 -34 0
v -53 -34 0
v -52 -35 0
v -53 -35 0
v -53 -34 0
v -52 -34 0
v -51 -35 0
v -52 -35 0
v -52 -34 0
v -51 -34 0
v -50 -35 0
v -51 -35 0
v -51 -34 0
v -50 -34 0
v -49 -35 0
v -50 -35 0
v -50 -34 0
v -49 -34 0
v -47 -34 0
v -48 -34 0
v -48 -33 0
v -47 -33 0
v -46 -34 0
v -47 -34 0
v -47 -33 0
v -46 -33 0
v -45 -34 0
v -46 -34 0
v -46 -33 0
v -45 -33 0
v -44 -34 0
v -45 -34 0
v -45 -33 0
v -44 -33 0
v -43 -34 0
v -44 -34 0
v -44 -33 0
v -43 -33 0
v -47 -33 0
v -48 -33 0
v -48 -32 0
v -47 -32 0
v -46 -33 0
v -47 -33 0
v -47 -32 0
v -46 -32 0
v -45 -33 0
v -46 -33 0
v -46 -32 0
v -45 -32 0
v -44 -33 0
v -45 -33 0
v -45 -32 0
v -44 -32 0
v -43 -33 0
v -44 -33 0
v -44 -32 0
v -43 -32 0
v -47 -32 0
v -48 -32 0
v -48 -31 0
v -47 -31 0
v -46 -32 0
v -47 -32 0
v -47 -31 0
v -46 -31 0
v -45 -32 0
v -46 -32 0
v -46 -31 0
v -45 -31 0
v -44 -32 0
v -45 -32 0
v -45 -31 0
v -44 -31 0
v -43 -32 0
v -44 -32 0
v -44 -31 0
v -43 -31 0

# Texture cooridinates (Count = 131)
vt 0.26 0.78
vt 0.27 0.78
vt 0.27 0.79
vt 0.26 0.79
vt 0.25 0.78
vt 0.25 0.79
vt 0.24 0.78
vt 0.24 0.79
vt 0.23 0.78
vt 0.23 0.79
vt 0.22 0.78
vt 0.22 0.79
vt 0.27 0.8
vt 0.26 0.8
vt 0.25 0.8
vt 0.24 0.8
vt 0.23 0.8
vt 0.22 0.8
vt 0.25 0.89
vt 0.26 0.89
vt 0.26 0.9
vt 0.25 0.9
vt 0.24 0.89
vt 0.24 0.9
vt 0.23 0.89
vt 0.23 0.9
vt 0.22 0.89
vt 0.22 0.9
vt 0.21 0.89
vt 0.21 0.9
vt 0.26 0.91
vt 0.25 0.91
vt 0.24 0.91
vt 0.23 0.91
vt 0.22 0.91
vt 0.21 0.91
vt 0.17 0.83
vt 0.18 0.83
vt 0.18 0.84
vt 0.17 0.84
vt 0.16 0.83
vt 0.16 0.84
vt 0.15 0.83
vt 0.15 0.84
vt 0.14 0.83
vt 0.14 0.84
vt 0.13 0.83
vt 0.13 0.84
vt 0.27 0.81
vt 0.26 0.81
vt 0.25 0.81
vt 0.24 0.81
vt 0.23 0.81
vt 0.22 0.81
vt 0.26 0.92
vt 0.25 0.92
vt 0.24 0.92
vt 0.23 0.92
vt 0.22 0.92
vt 0.21 0.92
vt 0.18 0.85
vt 0.17 0.85
vt 0.16 0.85
vt 0.15 0.85
vt 0.14 0.85
vt 0.13 0.85
vt 0.27 0.82
vt 0.26 0.82
vt 0.25 0.82
vt 0.24 0.82
vt 0.23 0.82
vt 0.22 0.82
vt 0.18 0.86
vt 0.17 0.86
vt 0.16 0.86
vt 0.15 0.86
vt 0.14 0.86
vt 0.13 0.86
vt 0.27 0.83
vt 0.26 0.83
vt 0.25 0.83
vt 0.24 0.83
vt 0.23 0.83
vt 0.22 0.83
vt 0.31 0.75
vt 0.32 0.75
vt 0.32 0.76
vt 0.31 0.76
vt 0.23 0.71
vt 0.24 0.71
vt 0.24 0.72
vt 0.23 0.72
vt 0.22 0.71
vt 0.22 0.72
vt 0.21 0.71
vt 0.21 0.72
vt 0.2 0.71
vt 0.2 0.72
vt 0.24 0.73
vt 0.23 0.73
vt 0.22 0.73
vt 0.21 0.73
vt 0.2 0.73
vt 0.19 0.72
vt 0.19 0.73
vt 0.18 0.72
vt 0.18 0.73
vt 0.17 0.72
vt 0.17 0.73
vt 0.16 0.72
vt 0.16 0.73
vt 0.15 0.72
vt 0.15 0.73
vt 0.2 0.74
vt 0.19 0.74
vt 0.18 0.74
vt 0.17 0.74
vt 0.16 0.74
vt 0.15 0.74
vt 0.2 0.75
vt 0.19 0.75
vt 0.18 0.75
vt 0.17 0.75
vt 0.16 0.75
vt 0.15 0.75
vt 0.2 0.76
vt 0.19 0.76
vt 0.18 0.76
vt 0.17 0.76
vt 0.16 0.76
vt 0.15 0.76

# Normal
vn 0 0 -1

# Mesh description
g Nivel1Chico_mesh_0014

# Faces
f 1/1/1 2/2/1 3/3/1 4/4/1
f 5/5/1 6/1/1 7/4/1 8/6/1
f 9/7/1 10/5/1 11/6/1 12/8/1
f 13/9/1 14/7/1 15/8/1 16/10/1
f 17/11/1 18/9/1 19/10/1 20/12/1
f 21/4/1 22/3/1 23/13/1 24/14/1
f 25/6/1 26/4/1 27/14/1 28/15/1
f 29/8/1 30/6/1 31/15/1 32/16/1
f 33/10/1 34/8/1 35/16/1 36/17/1
f 37/12/1 38/10/1 39/17/1 40/18/1
f 41/19/1 42/20/1 43/21/1 44/22/1
f 45/23/1 46/19/1 47/22/1 48/24/1
f 49/25/1 50/23/1 51/24/1 52/26/1
f 53/27/1 54/25/1 55/26/1 56/28/1
f 57/29/1 58/27/1 59/28/1 60/30/1
f 61/22/1 62/21/1 63/31/1 64/32/1
f 65/24/1 66/22/1 67/32/1 68/33/1
f 69/26/1 70/24/1 71/33/1 72/34/1
f 73/28/1 74/26/1 75/34/1 76/35/1
f 77/30/1 78/28/1 79/35/1 80/36/1
f 81/37/1 82/38/1 83/39/1 84/40/1
f 85/41/1 86/37/1 87/40/1 88/42/1
f 89/43/1 90/41/1 91/42/1 92/44/1
f 93/45/1 94/43/1 95/44/1 96/46/1
f 97/47/1 98/45/1 99/46/1 100/48/1
f 101/14/1 102/13/1 103/49/1 104/50/1
f 105/15/1 106/14/1 107/50/1 108/51/1
f 109/16/1 110/15/1 111/51/1 112/52/1
f 113/17/1 114/16/1 115/52/1 116/53/1
f 117/18/1 118/17/1 119/53/1 120/54/1
f 121/32/1 122/31/1 123/55/1 124/56/1
f 125/33/1 126/32/1 127/56/1 128/57/1
f 129/34/1 130/33/1 131/57/1 132/58/1
f 133/35/1 134/34/1 135/58/1 136/59/1
f 137/36/1 138/35/1 139/59/1 140/60/1
f 141/40/1 142/39/1 143/61/1 144/62/1
f 145/42/1 146/40/1 147/62/1 148/63/1
f 149/44/1 150/42/1 151/63/1 152/64/1
f 153/46/1 154/44/1 155/64/1 156/65/1
f 157/48/1 158/46/1 159/65/1 160/66/1
f 161/50/1 162/49/1 163/67/1 164/68/1
f 165/51/1 166/50/1 167/68/1 168/69/1
f 169/52/1 170/51/1 171/69/1 172/70/1
f 173/53/1 174/52/1 175/70/1 176/71/1
f 177/54/1 178/53/1 179/71/1 180/72/1
f 181/62/1 182/61/1 183/73/1 184/74/1
f 185/63/1 186/62/1 187/74/1 188/75/1
f 189/64/1 190/63/1 191/75/1 192/76/1
f 193/65/1 194/64/1 195/76/1 196/77/1
f 197/66/1 198/65/1 199/77/1 200/78/1
f 201/68/1 202/67/1 203/79/1 204/80/1
f 205/69/1 206/68/1 207/80/1 208/81/1
f 209/70/1 210/69/1 211/81/1 212/82/1
f 213/71/1 214/70/1 215/82/1 216/83/1
f 217/72/1 218/71/1 219/83/1 220/84/1
f 221/85/1 222/86/1 223/87/1 224/88/1
f 225/14/1 226/13/1 227/49/1 228/50/1
f 229/15/1 230/14/1 231/50/1 232/51/1
f 233/16/1 234/15/1 235/51/1 236/52/1
f 237/89/1 238/90/1 239/91/1 240/92/1
f 241/93/1 242/89/1 243/92/1 244/94/1
f 245/95/1 246/93/1 247/94/1 248/96/1
f 249/97/1 250/95/1 251/96/1 252/98/1
f 253/95/1 254/93/1 255/94/1 256/96/1
f 257/97/1 258/95/1 259/96/1 260/98/1
f 261/50/1 262/49/1 263/67/1 264/68/1
f 265/51/1 266/50/1 267/68/1 268/69/1
f 269/52/1 270/51/1 271/69/1 272/70/1
f 273/92/1 274/91/1 275/99/1 276/100/1
f 277/94/1 278/92/1 279/100/1 280/101/1
f 281/96/1 282/94/1 283/101/1 284/102/1
f 285/98/1 286/96/1 287/102/1 288/103/1
f 289/97/1 290/95/1 291/96/1 292/98/1
f 293/97/1 294/95/1 295/96/1 296/98/1
f 297/68/1 298/67/1 299/79/1 300/80/1
f 301/69/1 302/68/1 303/80/1 304/81/1
f 305/70/1 306/69/1 307/81/1 308/82/1
f 309/92/1 310/91/1 311/99/1 312/100/1
f 313/94/1 314/92/1 315/100/1 316/101/1
f 317/96/1 318/94/1 319/101/1 320/102/1
f 321/98/1 322/96/1 323/102/1 324/103/1
f 325/98/1 326/96/1 327/102/1 328/103/1
f 329/98/1 330/96/1 331/102/1 332/103/1
f 333/104/1 334/98/1 335/103/1 336/105/1
f 337/106/1 338/104/1 339/105/1 340/107/1
f 341/108/1 342/106/1 343/107/1 344/109/1
f 345/110/1 346/108/1 347/109/1 348/111/1
f 349/112/1 350/110/1 351/111/1 352/113/1
f 353/105/1 354/103/1 355/114/1 356/115/1
f 357/107/1 358/105/1 359/115/1 360/116/1
f 361/109/1 362/107/1 363/116/1 364/117/1
f 365/111/1 366/109/1 367/117/1 368/118/1
f 369/113/1 370/111/1 371/118/1 372/119/1
f 373/89/1 374/90/1 375/91/1 376/92/1
f 377/89/1 378/90/1 379/91/1 380/92/1
f 381/93/1 382/89/1 383/92/1 384/94/1
f 385/95/1 386/93/1 387/94/1 388/96/1
f 389/97/1 390/95/1 391/96/1 392/98/1
f 393/97/1 394/95/1 395/96/1 396/98/1
f 397/115/1 398/114/1 399/120/1 400/121/1
f 401/116/1 402/115/1 403/121/1 404/122/1
f 405/117/1 406/116/1 407/122/1 408/123/1
f 409/118/1 410/117/1 411/123/1 412/124/1
f 413/119/1 414/118/1 415/124/1 416/125/1
f 417/92/1 418/91/1 419/99/1 420/100/1
f 421/92/1 422/91/1 423/99/1 424/100/1
f 425/94/1 426/92/1 427/100/1 428/101/1
f 429/96/1 430/94/1 431/101/1 432/102/1
f 433/98/1 434/96/1 435/102/1 436/103/1
f 437/98/1 438/96/1 439/102/1 440/103/1
f 441/121/1 442/120/1 443/126/1 444/127/1
f 445/122/1 446/121/1 447/127/1 448/128/1
f 449/123/1 450/122/1 451/128/1 452/129/1
f 453/124/1 454/123/1 455/129/1 456/130/1
f 457/125/1 458/124/1 459/130/1 460/131/1
f 461/14/1 462/13/1 463/49/1 464/50/1
f 465/15/1 466/14/1 467/50/1 468/51/1
f 469/16/1 470/15/1 471/51/1 472/52/1
f 473/17/1 474/16/1 475/52/1 476/53/1
f 477/18/1 478/17/1 479/53/1 480/54/1
f 481/50/1 482/49/1 483/67/1 484/68/1
f 485/51/1 486/50/1 487/68/1 488/69/1
f 489/52/1 490/51/1 491/69/1 492/70/1
f 493/53/1 494/52/1 495/70/1 496/71/1
f 497/54/1 498/53/1 499/71/1 500/72/1
f 501/68/1 502/67/1 503/79/1 504/80/1
f 505/69/1 506/68/1 507/80/1 508/81/1
f 509/70/1 510/69/1 511/81/1 512/82/1
f 513/71/1 514/70/1 515/82/1 516/83/1
f 517/72/1 518/71/1 519/83/1 520/84/1

