# Tiled2Unity generated file. Do not modify by hand.
# Wavefront file for 'Nivel1Chico_mesh_0008.obj'

# Vertices (Count = 772)
v -7 -50 0
v -8 -50 0
v -8 -49 0
v -7 -49 0
v -6 -50 0
v -7 -50 0
v -7 -49 0
v -6 -49 0
v -5 -50 0
v -6 -50 0
v -6 -49 0
v -5 -49 0
v -4 -50 0
v -5 -50 0
v -5 -49 0
v -4 -49 0
v -3 -50 0
v -4 -50 0
v -4 -49 0
v -3 -49 0
v -2 -50 0
v -3 -50 0
v -3 -49 0
v -2 -49 0
v -1 -50 0
v -2 -50 0
v -2 -49 0
v -1 -49 0
v 0 -50 0
v -1 -50 0
v -1 -49 0
v 0 -49 0
v -82 -49 0
v -83 -49 0
v -83 -48 0
v -82 -48 0
v -81 -49 0
v -82 -49 0
v -82 -48 0
v -81 -48 0
v -80 -49 0
v -81 -49 0
v -81 -48 0
v -80 -48 0
v -79 -49 0
v -80 -49 0
v -80 -48 0
v -79 -48 0
v -78 -49 0
v -79 -49 0
v -79 -48 0
v -78 -48 0
v -55 -49 0
v -56 -49 0
v -56 -48 0
v -55 -48 0
v -54 -49 0
v -55 -49 0
v -55 -48 0
v -54 -48 0
v -53 -49 0
v -54 -49 0
v -54 -48 0
v -53 -48 0
v -52 -49 0
v -53 -49 0
v -53 -48 0
v -52 -48 0
v -51 -49 0
v -52 -49 0
v -52 -48 0
v -51 -48 0
v -46 -49 0
v -47 -49 0
v -47 -48 0
v -46 -48 0
v -45 -49 0
v -46 -49 0
v -46 -48 0
v -45 -48 0
v -44 -49 0
v -45 -49 0
v -45 -48 0
v -44 -48 0
v -43 -49 0
v -44 -49 0
v -44 -48 0
v -43 -48 0
v -42 -49 0
v -43 -49 0
v -43 -48 0
v -42 -48 0
v -7 -49 0
v -8 -49 0
v -8 -48 0
v -7 -48 0
v -6 -49 0
v -7 -49 0
v -7 -48 0
v -6 -48 0
v -5 -49 0
v -6 -49 0
v -6 -48 0
v -5 -48 0
v -4 -49 0
v -5 -49 0
v -5 -48 0
v -4 -48 0
v -3 -49 0
v -4 -49 0
v -4 -48 0
v -3 -48 0
v -2 -49 0
v -3 -49 0
v -3 -48 0
v -2 -48 0
v -1 -49 0
v -2 -49 0
v -2 -48 0
v -1 -48 0
v 0 -49 0
v -1 -49 0
v -1 -48 0
v 0 -48 0
v -82 -48 0
v -83 -48 0
v -83 -47 0
v -82 -47 0
v -81 -48 0
v -82 -48 0
v -82 -47 0
v -81 -47 0
v -80 -48 0
v -81 -48 0
v -81 -47 0
v -80 -47 0
v -79 -48 0
v -80 -48 0
v -80 -47 0
v -79 -47 0
v -78 -48 0
v -79 -48 0
v -79 -47 0
v -78 -47 0
v -55 -48 0
v -56 -48 0
v -56 -47 0
v -55 -47 0
v -54 -48 0
v -55 -48 0
v -55 -47 0
v -54 -47 0
v -53 -48 0
v -54 -48 0
v -54 -47 0
v -53 -47 0
v -52 -48 0
v -53 -48 0
v -53 -47 0
v -52 -47 0
v -51 -48 0
v -52 -48 0
v -52 -47 0
v -51 -47 0
v -46 -48 0
v -47 -48 0
v -47 -47 0
v -46 -47 0
v -45 -48 0
v -46 -48 0
v -46 -47 0
v -45 -47 0
v -44 -48 0
v -45 -48 0
v -45 -47 0
v -44 -47 0
v -43 -48 0
v -44 -48 0
v -44 -47 0
v -43 -47 0
v -42 -48 0
v -43 -48 0
v -43 -47 0
v -42 -47 0
v -8 -48 0
v -9 -48 0
v -9 -47 0
v -8 -47 0
v -7 -48 0
v -8 -48 0
v -8 -47 0
v -7 -47 0
v -6 -48 0
v -7 -48 0
v -7 -47 0
v -6 -47 0
v -5 -48 0
v -6 -48 0
v -6 -47 0
v -5 -47 0
v -4 -48 0
v -5 -48 0
v -5 -47 0
v -4 -47 0
v -3 -48 0
v -4 -48 0
v -4 -47 0
v -3 -47 0
v -2 -48 0
v -3 -48 0
v -3 -47 0
v -2 -47 0
v -1 -48 0
v -2 -48 0
v -2 -47 0
v -1 -47 0
v 0 -48 0
v -1 -48 0
v -1 -47 0
v 0 -47 0
v -82 -47 0
v -83 -47 0
v -83 -46 0
v -82 -46 0
v -81 -47 0
v -82 -47 0
v -82 -46 0
v -81 -46 0
v -80 -47 0
v -81 -47 0
v -81 -46 0
v -80 -46 0
v -79 -47 0
v -80 -47 0
v -80 -46 0
v -79 -46 0
v -78 -47 0
v -79 -47 0
v -79 -46 0
v -78 -46 0
v -53 -47 0
v -54 -47 0
v -54 -46 0
v -53 -46 0
v -52 -47 0
v -53 -47 0
v -53 -46 0
v -52 -46 0
v -51 -47 0
v -52 -47 0
v -52 -46 0
v -51 -46 0
v -50 -47 0
v -51 -47 0
v -51 -46 0
v -50 -46 0
v -49 -47 0
v -50 -47 0
v -50 -46 0
v -49 -46 0
v -8 -47 0
v -9 -47 0
v -9 -46 0
v -8 -46 0
v -7 -47 0
v -8 -47 0
v -8 -46 0
v -7 -46 0
v -6 -47 0
v -7 -47 0
v -7 -46 0
v -6 -46 0
v -5 -47 0
v -6 -47 0
v -6 -46 0
v -5 -46 0
v -4 -47 0
v -5 -47 0
v -5 -46 0
v -4 -46 0
v -3 -47 0
v -4 -47 0
v -4 -46 0
v -3 -46 0
v -2 -47 0
v -3 -47 0
v -3 -46 0
v -2 -46 0
v -1 -47 0
v -2 -47 0
v -2 -46 0
v -1 -46 0
v 0 -47 0
v -1 -47 0
v -1 -46 0
v 0 -46 0
v -55 -46 0
v -56 -46 0
v -56 -45 0
v -55 -45 0
v -54 -46 0
v -55 -46 0
v -55 -45 0
v -54 -45 0
v -53 -46 0
v -54 -46 0
v -54 -45 0
v -53 -45 0
v -52 -46 0
v -53 -46 0
v -53 -45 0
v -52 -45 0
v -51 -46 0
v -52 -46 0
v -52 -45 0
v -51 -45 0
v -50 -46 0
v -51 -46 0
v -51 -45 0
v -50 -45 0
v -49 -46 0
v -50 -46 0
v -50 -45 0
v -49 -45 0
v -8 -46 0
v -9 -46 0
v -9 -45 0
v -8 -45 0
v -7 -46 0
v -8 -46 0
v -8 -45 0
v -7 -45 0
v -6 -46 0
v -7 -46 0
v -7 -45 0
v -6 -45 0
v -5 -46 0
v -6 -46 0
v -6 -45 0
v -5 -45 0
v -4 -46 0
v -5 -46 0
v -5 -45 0
v -4 -45 0
v -3 -46 0
v -4 -46 0
v -4 -45 0
v -3 -45 0
v -2 -46 0
v -3 -46 0
v -3 -45 0
v -2 -45 0
v -1 -46 0
v -2 -46 0
v -2 -45 0
v -1 -45 0
v 0 -46 0
v -1 -46 0
v -1 -45 0
v 0 -45 0
v -55 -45 0
v -56 -45 0
v -56 -44 0
v -55 -44 0
v -54 -45 0
v -55 -45 0
v -55 -44 0
v -54 -44 0
v -53 -45 0
v -54 -45 0
v -54 -44 0
v -53 -44 0
v -52 -45 0
v -53 -45 0
v -53 -44 0
v -52 -44 0
v -51 -45 0
v -52 -45 0
v -52 -44 0
v -51 -44 0
v -8 -45 0
v -9 -45 0
v -9 -44 0
v -8 -44 0
v -7 -45 0
v -8 -45 0
v -8 -44 0
v -7 -44 0
v -6 -45 0
v -7 -45 0
v -7 -44 0
v -6 -44 0
v -5 -45 0
v -6 -45 0
v -6 -44 0
v -5 -44 0
v -4 -45 0
v -5 -45 0
v -5 -44 0
v -4 -44 0
v -3 -45 0
v -4 -45 0
v -4 -44 0
v -3 -44 0
v -2 -45 0
v -3 -45 0
v -3 -44 0
v -2 -44 0
v -1 -45 0
v -2 -45 0
v -2 -44 0
v -1 -44 0
v 0 -45 0
v -1 -45 0
v -1 -44 0
v 0 -44 0
v -55 -44 0
v -56 -44 0
v -56 -43 0
v -55 -43 0
v -54 -44 0
v -55 -44 0
v -55 -43 0
v -54 -43 0
v -53 -44 0
v -54 -44 0
v -54 -43 0
v -53 -43 0
v -52 -44 0
v -53 -44 0
v -53 -43 0
v -52 -43 0
v -51 -44 0
v -52 -44 0
v -52 -43 0
v -51 -43 0
v -8 -44 0
v -9 -44 0
v -9 -43 0
v -8 -43 0
v -7 -44 0
v -8 -44 0
v -8 -43 0
v -7 -43 0
v -6 -44 0
v -7 -44 0
v -7 -43 0
v -6 -43 0
v -5 -44 0
v -6 -44 0
v -6 -43 0
v -5 -43 0
v -4 -44 0
v -5 -44 0
v -5 -43 0
v -4 -43 0
v -3 -44 0
v -4 -44 0
v -4 -43 0
v -3 -43 0
v -2 -44 0
v -3 -44 0
v -3 -43 0
v -2 -43 0
v -1 -44 0
v -2 -44 0
v -2 -43 0
v -1 -43 0
v 0 -44 0
v -1 -44 0
v -1 -43 0
v 0 -43 0
v -53 -43 0
v -54 -43 0
v -54 -42 0
v -53 -42 0
v -8 -43 0
v -9 -43 0
v -9 -42 0
v -8 -42 0
v -7 -43 0
v -8 -43 0
v -8 -42 0
v -7 -42 0
v -6 -43 0
v -7 -43 0
v -7 -42 0
v -6 -42 0
v -5 -43 0
v -6 -43 0
v -6 -42 0
v -5 -42 0
v -4 -43 0
v -5 -43 0
v -5 -42 0
v -4 -42 0
v -3 -43 0
v -4 -43 0
v -4 -42 0
v -3 -42 0
v -2 -43 0
v -3 -43 0
v -3 -42 0
v -2 -42 0
v -1 -43 0
v -2 -43 0
v -2 -42 0
v -1 -42 0
v 0 -43 0
v -1 -43 0
v -1 -42 0
v 0 -42 0
v -51 -42 0
v -52 -42 0
v -52 -41 0
v -51 -41 0
v -50 -42 0
v -51 -42 0
v -51 -41 0
v -50 -41 0
v -49 -42 0
v -50 -42 0
v -50 -41 0
v -49 -41 0
v -48 -42 0
v -49 -42 0
v -49 -41 0
v -48 -41 0
v -47 -42 0
v -48 -42 0
v -48 -41 0
v -47 -41 0
v -8 -42 0
v -9 -42 0
v -9 -41 0
v -8 -41 0
v -7 -42 0
v -8 -42 0
v -8 -41 0
v -7 -41 0
v -6 -42 0
v -7 -42 0
v -7 -41 0
v -6 -41 0
v -5 -42 0
v -6 -42 0
v -6 -41 0
v -5 -41 0
v -4 -42 0
v -5 -42 0
v -5 -41 0
v -4 -41 0
v -3 -42 0
v -4 -42 0
v -4 -41 0
v -3 -41 0
v -2 -42 0
v -3 -42 0
v -3 -41 0
v -2 -41 0
v -1 -42 0
v -2 -42 0
v -2 -41 0
v -1 -41 0
v 0 -42 0
v -1 -42 0
v -1 -41 0
v 0 -41 0
v -51 -41 0
v -52 -41 0
v -52 -40 0
v -51 -40 0
v -50 -41 0
v -51 -41 0
v -51 -40 0
v -50 -40 0
v -49 -41 0
v -50 -41 0
v -50 -40 0
v -49 -40 0
v -48 -41 0
v -49 -41 0
v -49 -40 0
v -48 -40 0
v -47 -41 0
v -48 -41 0
v -48 -40 0
v -47 -40 0
v -8 -41 0
v -9 -41 0
v -9 -40 0
v -8 -40 0
v -7 -41 0
v -8 -41 0
v -8 -40 0
v -7 -40 0
v -6 -41 0
v -7 -41 0
v -7 -40 0
v -6 -40 0
v -5 -41 0
v -6 -41 0
v -6 -40 0
v -5 -40 0
v -4 -41 0
v -5 -41 0
v -5 -40 0
v -4 -40 0
v -3 -41 0
v -4 -41 0
v -4 -40 0
v -3 -40 0
v -2 -41 0
v -3 -41 0
v -3 -40 0
v -2 -40 0
v -1 -41 0
v -2 -41 0
v -2 -40 0
v -1 -40 0
v 0 -41 0
v -1 -41 0
v -1 -40 0
v 0 -40 0
v -8 -40 0
v -9 -40 0
v -9 -39 0
v -8 -39 0
v -7 -40 0
v -8 -40 0
v -8 -39 0
v -7 -39 0
v -6 -40 0
v -7 -40 0
v -7 -39 0
v -6 -39 0
v -5 -40 0
v -6 -40 0
v -6 -39 0
v -5 -39 0
v -4 -40 0
v -5 -40 0
v -5 -39 0
v -4 -39 0
v -3 -40 0
v -4 -40 0
v -4 -39 0
v -3 -39 0
v -2 -40 0
v -3 -40 0
v -3 -39 0
v -2 -39 0
v -1 -40 0
v -2 -40 0
v -2 -39 0
v -1 -39 0
v 0 -40 0
v -1 -40 0
v -1 -39 0
v 0 -39 0
v -53 -37 0
v -54 -37 0
v -54 -36 0
v -53 -36 0
v -50 -37 0
v -51 -37 0
v -51 -36 0
v -50 -36 0
v -49 -37 0
v -50 -37 0
v -50 -36 0
v -49 -36 0
v -48 -37 0
v -49 -37 0
v -49 -36 0
v -48 -36 0
v -47 -37 0
v -48 -37 0
v -48 -36 0
v -47 -36 0
v -46 -37 0
v -47 -37 0
v -47 -36 0
v -46 -36 0
v -53 -36 0
v -54 -36 0
v -54 -35 0
v -53 -35 0
v -50 -36 0
v -51 -36 0
v -51 -35 0
v -50 -35 0
v -49 -36 0
v -50 -36 0
v -50 -35 0
v -49 -35 0
v -48 -36 0
v -49 -36 0
v -49 -35 0
v -48 -35 0
v -47 -36 0
v -48 -36 0
v -48 -35 0
v -47 -35 0
v -46 -36 0
v -47 -36 0
v -47 -35 0
v -46 -35 0
v -45 -36 0
v -46 -36 0
v -46 -35 0
v -45 -35 0
v -44 -36 0
v -45 -36 0
v -45 -35 0
v -44 -35 0
v -43 -36 0
v -44 -36 0
v -44 -35 0
v -43 -35 0
v -42 -36 0
v -43 -36 0
v -43 -35 0
v -42 -35 0
v -41 -36 0
v -42 -36 0
v -42 -35 0
v -41 -35 0
v -53 -35 0
v -54 -35 0
v -54 -34 0
v -53 -34 0
v -50 -35 0
v -51 -35 0
v -51 -34 0
v -50 -34 0
v -49 -35 0
v -50 -35 0
v -50 -34 0
v -49 -34 0
v -48 -35 0
v -49 -35 0
v -49 -34 0
v -48 -34 0
v -47 -35 0
v -48 -35 0
v -48 -34 0
v -47 -34 0
v -46 -35 0
v -47 -35 0
v -47 -34 0
v -46 -34 0
v -45 -35 0
v -46 -35 0
v -46 -34 0
v -45 -34 0
v -44 -35 0
v -45 -35 0
v -45 -34 0
v -44 -34 0
v -43 -35 0
v -44 -35 0
v -44 -34 0
v -43 -34 0
v -42 -35 0
v -43 -35 0
v -43 -34 0
v -42 -34 0
v -41 -35 0
v -42 -35 0
v -42 -34 0
v -41 -34 0

# Texture cooridinates (Count = 194)
vt 0.42 0.68
vt 0.43 0.68
vt 0.43 0.69
vt 0.42 0.69
vt 0.41 0.68
vt 0.41 0.69
vt 0.4 0.68
vt 0.4 0.69
vt 0.39 0.68
vt 0.39 0.69
vt 0.38 0.68
vt 0.38 0.69
vt 0.37 0.68
vt 0.37 0.69
vt 0.36 0.68
vt 0.36 0.69
vt 0.17 0.77
vt 0.18 0.77
vt 0.18 0.78
vt 0.17 0.78
vt 0.16 0.77
vt 0.16 0.78
vt 0.15 0.77
vt 0.15 0.78
vt 0.14 0.77
vt 0.14 0.78
vt 0.13 0.77
vt 0.13 0.78
vt 0.26 0.78
vt 0.27 0.78
vt 0.27 0.79
vt 0.26 0.79
vt 0.25 0.78
vt 0.25 0.79
vt 0.24 0.78
vt 0.24 0.79
vt 0.23 0.78
vt 0.23 0.79
vt 0.22 0.78
vt 0.22 0.79
vt 0.25 0.87
vt 0.26 0.87
vt 0.26 0.88
vt 0.25 0.88
vt 0.24 0.87
vt 0.24 0.88
vt 0.23 0.87
vt 0.23 0.88
vt 0.22 0.87
vt 0.22 0.88
vt 0.21 0.87
vt 0.21 0.88
vt 0.43 0.7
vt 0.42 0.7
vt 0.41 0.7
vt 0.4 0.7
vt 0.39 0.7
vt 0.38 0.7
vt 0.37 0.7
vt 0.36 0.7
vt 0.18 0.79
vt 0.17 0.79
vt 0.16 0.79
vt 0.15 0.79
vt 0.14 0.79
vt 0.13 0.79
vt 0.27 0.8
vt 0.26 0.8
vt 0.25 0.8
vt 0.24 0.8
vt 0.23 0.8
vt 0.22 0.8
vt 0.26 0.89
vt 0.25 0.89
vt 0.24 0.89
vt 0.23 0.89
vt 0.22 0.89
vt 0.21 0.89
vt 0.43 0.71
vt 0.42 0.71
vt 0.41 0.71
vt 0.4 0.71
vt 0.39 0.71
vt 0.38 0.71
vt 0.37 0.71
vt 0.36 0.71
vt 0.18 0.8
vt 0.17 0.8
vt 0.16 0.8
vt 0.15 0.8
vt 0.14 0.8
vt 0.13 0.8
vt 0.43 0.72
vt 0.42 0.72
vt 0.41 0.72
vt 0.4 0.72
vt 0.39 0.72
vt 0.38 0.72
vt 0.37 0.72
vt 0.36 0.72
vt 0.27 0.81
vt 0.26 0.81
vt 0.25 0.81
vt 0.43 0.73
vt 0.42 0.73
vt 0.41 0.73
vt 0.4 0.73
vt 0.39 0.73
vt 0.38 0.73
vt 0.37 0.73
vt 0.36 0.73
vt 0.27 0.82
vt 0.26 0.82
vt 0.25 0.82
vt 0.24 0.81
vt 0.24 0.82
vt 0.23 0.81
vt 0.23 0.82
vt 0.22 0.81
vt 0.22 0.82
vt 0.43 0.74
vt 0.42 0.74
vt 0.41 0.74
vt 0.4 0.74
vt 0.39 0.74
vt 0.38 0.74
vt 0.37 0.74
vt 0.36 0.74
vt 0.27 0.83
vt 0.26 0.83
vt 0.25 0.83
vt 0.24 0.83
vt 0.23 0.83
vt 0.22 0.83
vt 0.43 0.75
vt 0.42 0.75
vt 0.41 0.75
vt 0.4 0.75
vt 0.39 0.75
vt 0.38 0.75
vt 0.37 0.75
vt 0.36 0.75
vt 0.31 0.75
vt 0.32 0.75
vt 0.32 0.76
vt 0.31 0.76
vt 0.43 0.76
vt 0.42 0.76
vt 0.41 0.76
vt 0.4 0.76
vt 0.39 0.76
vt 0.38 0.76
vt 0.37 0.76
vt 0.36 0.76
vt 0.43 0.77
vt 0.42 0.77
vt 0.41 0.77
vt 0.4 0.77
vt 0.39 0.77
vt 0.38 0.77
vt 0.37 0.77
vt 0.36 0.77
vt 0.35 0.75
vt 0.35 0.76
vt 0.34 0.75
vt 0.34 0.76
vt 0.35 0.77
vt 0.34 0.77
vt 0.14 0.95
vt 0.15 0.95
vt 0.15 0.96
vt 0.14 0.96
vt 0.15 0.97
vt 0.14 0.97
vt 0.17 0.81
vt 0.18 0.81
vt 0.18 0.82
vt 0.17 0.82
vt 0.16 0.81
vt 0.16 0.82
vt 0.15 0.81
vt 0.15 0.82
vt 0.14 0.81
vt 0.14 0.82
vt 0.13 0.81
vt 0.13 0.82
vt 0.15 0.98
vt 0.14 0.98
vt 0.18 0.83
vt 0.17 0.83
vt 0.16 0.83
vt 0.15 0.83
vt 0.14 0.83
vt 0.13 0.83

# Normal
vn 0 0 -1

# Mesh description
g Nivel1Chico_mesh_0008

# Faces
f 1/1/1 2/2/1 3/3/1 4/4/1
f 5/1/1 6/2/1 7/3/1 8/4/1
f 9/5/1 10/1/1 11/4/1 12/6/1
f 13/7/1 14/5/1 15/6/1 16/8/1
f 17/9/1 18/7/1 19/8/1 20/10/1
f 21/11/1 22/9/1 23/10/1 24/12/1
f 25/13/1 26/11/1 27/12/1 28/14/1
f 29/15/1 30/13/1 31/14/1 32/16/1
f 33/17/1 34/18/1 35/19/1 36/20/1
f 37/21/1 38/17/1 39/20/1 40/22/1
f 41/23/1 42/21/1 43/22/1 44/24/1
f 45/25/1 46/23/1 47/24/1 48/26/1
f 49/27/1 50/25/1 51/26/1 52/28/1
f 53/29/1 54/30/1 55/31/1 56/32/1
f 57/33/1 58/29/1 59/32/1 60/34/1
f 61/35/1 62/33/1 63/34/1 64/36/1
f 65/37/1 66/35/1 67/36/1 68/38/1
f 69/39/1 70/37/1 71/38/1 72/40/1
f 73/41/1 74/42/1 75/43/1 76/44/1
f 77/45/1 78/41/1 79/44/1 80/46/1
f 81/47/1 82/45/1 83/46/1 84/48/1
f 85/49/1 86/47/1 87/48/1 88/50/1
f 89/51/1 90/49/1 91/50/1 92/52/1
f 93/1/1 94/2/1 95/3/1 96/4/1
f 97/4/1 98/3/1 99/53/1 100/54/1
f 101/6/1 102/4/1 103/54/1 104/55/1
f 105/8/1 106/6/1 107/55/1 108/56/1
f 109/10/1 110/8/1 111/56/1 112/57/1
f 113/12/1 114/10/1 115/57/1 116/58/1
f 117/14/1 118/12/1 119/58/1 120/59/1
f 121/16/1 122/14/1 123/59/1 124/60/1
f 125/20/1 126/19/1 127/61/1 128/62/1
f 129/22/1 130/20/1 131/62/1 132/63/1
f 133/24/1 134/22/1 135/63/1 136/64/1
f 137/26/1 138/24/1 139/64/1 140/65/1
f 141/28/1 142/26/1 143/65/1 144/66/1
f 145/32/1 146/31/1 147/67/1 148/68/1
f 149/34/1 150/32/1 151/68/1 152/69/1
f 153/36/1 154/34/1 155/69/1 156/70/1
f 157/38/1 158/36/1 159/70/1 160/71/1
f 161/40/1 162/38/1 163/71/1 164/72/1
f 165/44/1 166/43/1 167/73/1 168/74/1
f 169/46/1 170/44/1 171/74/1 172/75/1
f 173/48/1 174/46/1 175/75/1 176/76/1
f 177/50/1 178/48/1 179/76/1 180/77/1
f 181/52/1 182/50/1 183/77/1 184/78/1
f 185/1/1 186/2/1 187/3/1 188/4/1
f 189/5/1 190/1/1 191/4/1 192/6/1
f 193/54/1 194/53/1 195/79/1 196/80/1
f 197/55/1 198/54/1 199/80/1 200/81/1
f 201/56/1 202/55/1 203/81/1 204/82/1
f 205/57/1 206/56/1 207/82/1 208/83/1
f 209/58/1 210/57/1 211/83/1 212/84/1
f 213/59/1 214/58/1 215/84/1 216/85/1
f 217/60/1 218/59/1 219/85/1 220/86/1
f 221/62/1 222/61/1 223/87/1 224/88/1
f 225/63/1 226/62/1 227/88/1 228/89/1
f 229/64/1 230/63/1 231/89/1 232/90/1
f 233/65/1 234/64/1 235/90/1 236/91/1
f 237/66/1 238/65/1 239/91/1 240/92/1
f 241/20/1 242/19/1 243/61/1 244/62/1
f 245/22/1 246/20/1 247/62/1 248/63/1
f 249/24/1 250/22/1 251/63/1 252/64/1
f 253/26/1 254/24/1 255/64/1 256/65/1
f 257/28/1 258/26/1 259/65/1 260/66/1
f 261/4/1 262/3/1 263/53/1 264/54/1
f 265/6/1 266/4/1 267/54/1 268/55/1
f 269/80/1 270/79/1 271/93/1 272/94/1
f 273/81/1 274/80/1 275/94/1 276/95/1
f 277/82/1 278/81/1 279/95/1 280/96/1
f 281/83/1 282/82/1 283/96/1 284/97/1
f 285/84/1 286/83/1 287/97/1 288/98/1
f 289/85/1 290/84/1 291/98/1 292/99/1
f 293/86/1 294/85/1 295/99/1 296/100/1
f 297/68/1 298/67/1 299/101/1 300/102/1
f 301/69/1 302/68/1 303/102/1 304/103/1
f 305/62/1 306/61/1 307/87/1 308/88/1
f 309/63/1 310/62/1 311/88/1 312/89/1
f 313/64/1 314/63/1 315/89/1 316/90/1
f 317/65/1 318/64/1 319/90/1 320/91/1
f 321/66/1 322/65/1 323/91/1 324/92/1
f 325/54/1 326/53/1 327/79/1 328/80/1
f 329/55/1 330/54/1 331/80/1 332/81/1
f 333/94/1 334/93/1 335/104/1 336/105/1
f 337/95/1 338/94/1 339/105/1 340/106/1
f 341/96/1 342/95/1 343/106/1 344/107/1
f 345/97/1 346/96/1 347/107/1 348/108/1
f 349/98/1 350/97/1 351/108/1 352/109/1
f 353/99/1 354/98/1 355/109/1 356/110/1
f 357/100/1 358/99/1 359/110/1 360/111/1
f 361/102/1 362/101/1 363/112/1 364/113/1
f 365/103/1 366/102/1 367/113/1 368/114/1
f 369/115/1 370/103/1 371/114/1 372/116/1
f 373/117/1 374/115/1 375/116/1 376/118/1
f 377/119/1 378/117/1 379/118/1 380/120/1
f 381/80/1 382/79/1 383/93/1 384/94/1
f 385/81/1 386/80/1 387/94/1 388/95/1
f 389/105/1 390/104/1 391/121/1 392/122/1
f 393/106/1 394/105/1 395/122/1 396/123/1
f 397/107/1 398/106/1 399/123/1 400/124/1
f 401/108/1 402/107/1 403/124/1 404/125/1
f 405/109/1 406/108/1 407/125/1 408/126/1
f 409/110/1 410/109/1 411/126/1 412/127/1
f 413/111/1 414/110/1 415/127/1 416/128/1
f 417/113/1 418/112/1 419/129/1 420/130/1
f 421/114/1 422/113/1 423/130/1 424/131/1
f 425/116/1 426/114/1 427/131/1 428/132/1
f 429/118/1 430/116/1 431/132/1 432/133/1
f 433/120/1 434/118/1 435/133/1 436/134/1
f 437/94/1 438/93/1 439/104/1 440/105/1
f 441/95/1 442/94/1 443/105/1 444/106/1
f 445/122/1 446/121/1 447/135/1 448/136/1
f 449/123/1 450/122/1 451/136/1 452/137/1
f 453/124/1 454/123/1 455/137/1 456/138/1
f 457/125/1 458/124/1 459/138/1 460/139/1
f 461/126/1 462/125/1 463/139/1 464/140/1
f 465/127/1 466/126/1 467/140/1 468/141/1
f 469/128/1 470/127/1 471/141/1 472/142/1
f 473/143/1 474/144/1 475/145/1 476/146/1
f 477/105/1 478/104/1 479/121/1 480/122/1
f 481/106/1 482/105/1 483/122/1 484/123/1
f 485/136/1 486/135/1 487/147/1 488/148/1
f 489/137/1 490/136/1 491/148/1 492/149/1
f 493/138/1 494/137/1 495/149/1 496/150/1
f 497/139/1 498/138/1 499/150/1 500/151/1
f 501/140/1 502/139/1 503/151/1 504/152/1
f 505/141/1 506/140/1 507/152/1 508/153/1
f 509/142/1 510/141/1 511/153/1 512/154/1
f 513/29/1 514/30/1 515/31/1 516/32/1
f 517/33/1 518/29/1 519/32/1 520/34/1
f 521/35/1 522/33/1 523/34/1 524/36/1
f 525/37/1 526/35/1 527/36/1 528/38/1
f 529/39/1 530/37/1 531/38/1 532/40/1
f 533/122/1 534/121/1 535/135/1 536/136/1
f 537/123/1 538/122/1 539/136/1 540/137/1
f 541/148/1 542/147/1 543/155/1 544/156/1
f 545/149/1 546/148/1 547/156/1 548/157/1
f 549/150/1 550/149/1 551/157/1 552/158/1
f 553/151/1 554/150/1 555/158/1 556/159/1
f 557/152/1 558/151/1 559/159/1 560/160/1
f 561/153/1 562/152/1 563/160/1 564/161/1
f 565/154/1 566/153/1 567/161/1 568/162/1
f 569/32/1 570/31/1 571/67/1 572/68/1
f 573/34/1 574/32/1 575/68/1 576/69/1
f 577/36/1 578/34/1 579/69/1 580/70/1
f 581/38/1 582/36/1 583/70/1 584/71/1
f 585/40/1 586/38/1 587/71/1 588/72/1
f 589/136/1 590/135/1 591/147/1 592/148/1
f 593/137/1 594/136/1 595/148/1 596/149/1
f 597/138/1 598/137/1 599/149/1 600/150/1
f 601/139/1 602/138/1 603/150/1 604/151/1
f 605/140/1 606/139/1 607/151/1 608/152/1
f 609/141/1 610/140/1 611/152/1 612/153/1
f 613/142/1 614/141/1 615/153/1 616/154/1
f 617/163/1 618/142/1 619/154/1 620/164/1
f 621/165/1 622/163/1 623/164/1 624/166/1
f 625/148/1 626/147/1 627/155/1 628/156/1
f 629/149/1 630/148/1 631/156/1 632/157/1
f 633/150/1 634/149/1 635/157/1 636/158/1
f 637/151/1 638/150/1 639/158/1 640/159/1
f 641/152/1 642/151/1 643/159/1 644/160/1
f 645/153/1 646/152/1 647/160/1 648/161/1
f 649/154/1 650/153/1 651/161/1 652/162/1
f 653/164/1 654/154/1 655/162/1 656/167/1
f 657/166/1 658/164/1 659/167/1 660/168/1
f 661/169/1 662/170/1 663/171/1 664/172/1
f 665/17/1 666/18/1 667/19/1 668/20/1
f 669/21/1 670/17/1 671/20/1 672/22/1
f 673/23/1 674/21/1 675/22/1 676/24/1
f 677/25/1 678/23/1 679/24/1 680/26/1
f 681/27/1 682/25/1 683/26/1 684/28/1
f 685/172/1 686/171/1 687/173/1 688/174/1
f 689/20/1 690/19/1 691/61/1 692/62/1
f 693/22/1 694/20/1 695/62/1 696/63/1
f 697/24/1 698/22/1 699/63/1 700/64/1
f 701/26/1 702/24/1 703/64/1 704/65/1
f 705/28/1 706/26/1 707/65/1 708/66/1
f 709/175/1 710/176/1 711/177/1 712/178/1
f 713/179/1 714/175/1 715/178/1 716/180/1
f 717/181/1 718/179/1 719/180/1 720/182/1
f 721/183/1 722/181/1 723/182/1 724/184/1
f 725/185/1 726/183/1 727/184/1 728/186/1
f 729/174/1 730/173/1 731/187/1 732/188/1
f 733/62/1 734/61/1 735/87/1 736/88/1
f 737/63/1 738/62/1 739/88/1 740/89/1
f 741/64/1 742/63/1 743/89/1 744/90/1
f 745/65/1 746/64/1 747/90/1 748/91/1
f 749/66/1 750/65/1 751/91/1 752/92/1
f 753/178/1 754/177/1 755/189/1 756/190/1
f 757/180/1 758/178/1 759/190/1 760/191/1
f 761/182/1 762/180/1 763/191/1 764/192/1
f 765/184/1 766/182/1 767/192/1 768/193/1
f 769/186/1 770/184/1 771/193/1 772/194/1

