# Tiled2Unity generated file. Do not modify by hand.
# Wavefront file for 'Nivel1Chico_mesh_0016.obj'

# Vertices (Count = 396)
v -46 -49 0
v -47 -49 0
v -47 -48 0
v -46 -48 0
v -45 -49 0
v -46 -49 0
v -46 -48 0
v -45 -48 0
v -44 -49 0
v -45 -49 0
v -45 -48 0
v -44 -48 0
v -43 -49 0
v -44 -49 0
v -44 -48 0
v -43 -48 0
v -42 -49 0
v -43 -49 0
v -43 -48 0
v -42 -48 0
v -55 -48 0
v -56 -48 0
v -56 -47 0
v -55 -47 0
v -54 -48 0
v -55 -48 0
v -55 -47 0
v -54 -47 0
v -53 -48 0
v -54 -48 0
v -54 -47 0
v -53 -47 0
v -52 -48 0
v -53 -48 0
v -53 -47 0
v -52 -47 0
v -51 -48 0
v -52 -48 0
v -52 -47 0
v -51 -47 0
v -46 -48 0
v -47 -48 0
v -47 -47 0
v -46 -47 0
v -45 -48 0
v -46 -48 0
v -46 -47 0
v -45 -47 0
v -44 -48 0
v -45 -48 0
v -45 -47 0
v -44 -47 0
v -43 -48 0
v -44 -48 0
v -44 -47 0
v -43 -47 0
v -42 -48 0
v -43 -48 0
v -43 -47 0
v -42 -47 0
v -55 -47 0
v -56 -47 0
v -56 -46 0
v -55 -46 0
v -54 -47 0
v -55 -47 0
v -55 -46 0
v -54 -46 0
v -53 -47 0
v -54 -47 0
v -54 -46 0
v -53 -46 0
v -52 -47 0
v -53 -47 0
v -53 -46 0
v -52 -46 0
v -51 -47 0
v -52 -47 0
v -52 -46 0
v -51 -46 0
v -55 -46 0
v -56 -46 0
v -56 -45 0
v -55 -45 0
v -54 -46 0
v -55 -46 0
v -55 -45 0
v -54 -45 0
v -53 -46 0
v -54 -46 0
v -54 -45 0
v -53 -45 0
v -52 -46 0
v -53 -46 0
v -53 -45 0
v -52 -45 0
v -51 -46 0
v -52 -46 0
v -52 -45 0
v -51 -45 0
v -55 -44 0
v -56 -44 0
v -56 -43 0
v -55 -43 0
v -54 -44 0
v -55 -44 0
v -55 -43 0
v -54 -43 0
v -53 -44 0
v -54 -44 0
v -54 -43 0
v -53 -43 0
v -52 -44 0
v -53 -44 0
v -53 -43 0
v -52 -43 0
v -51 -44 0
v -52 -44 0
v -52 -43 0
v -51 -43 0
v -55 -43 0
v -56 -43 0
v -56 -42 0
v -55 -42 0
v -54 -43 0
v -55 -43 0
v -55 -42 0
v -54 -42 0
v -53 -43 0
v -54 -43 0
v -54 -42 0
v -53 -42 0
v -52 -43 0
v -53 -43 0
v -53 -42 0
v -52 -42 0
v -51 -43 0
v -52 -43 0
v -52 -42 0
v -51 -42 0
v -55 -42 0
v -56 -42 0
v -56 -41 0
v -55 -41 0
v -54 -42 0
v -55 -42 0
v -55 -41 0
v -54 -41 0
v -53 -42 0
v -54 -42 0
v -54 -41 0
v -53 -41 0
v -52 -42 0
v -53 -42 0
v -53 -41 0
v -52 -41 0
v -51 -42 0
v -52 -42 0
v -52 -41 0
v -51 -41 0
v -50 -42 0
v -51 -42 0
v -51 -41 0
v -50 -41 0
v -49 -42 0
v -50 -42 0
v -50 -41 0
v -49 -41 0
v -48 -42 0
v -49 -42 0
v -49 -41 0
v -48 -41 0
v -47 -42 0
v -48 -42 0
v -48 -41 0
v -47 -41 0
v -51 -41 0
v -52 -41 0
v -52 -40 0
v -51 -40 0
v -50 -41 0
v -51 -41 0
v -51 -40 0
v -50 -40 0
v -49 -41 0
v -50 -41 0
v -50 -40 0
v -49 -40 0
v -48 -41 0
v -49 -41 0
v -49 -40 0
v -48 -40 0
v -47 -41 0
v -48 -41 0
v -48 -40 0
v -47 -40 0
v -51 -40 0
v -52 -40 0
v -52 -39 0
v -51 -39 0
v -50 -40 0
v -51 -40 0
v -51 -39 0
v -50 -39 0
v -49 -40 0
v -50 -40 0
v -50 -39 0
v -49 -39 0
v -48 -40 0
v -49 -40 0
v -49 -39 0
v -48 -39 0
v -47 -40 0
v -48 -40 0
v -48 -39 0
v -47 -39 0
v -51 -39 0
v -52 -39 0
v -52 -38 0
v -51 -38 0
v -50 -39 0
v -51 -39 0
v -51 -38 0
v -50 -38 0
v -49 -39 0
v -50 -39 0
v -50 -38 0
v -49 -38 0
v -48 -39 0
v -49 -39 0
v -49 -38 0
v -48 -38 0
v -47 -39 0
v -48 -39 0
v -48 -38 0
v -47 -38 0
v -51 -38 0
v -52 -38 0
v -52 -37 0
v -51 -37 0
v -50 -38 0
v -51 -38 0
v -51 -37 0
v -50 -37 0
v -49 -38 0
v -50 -38 0
v -50 -37 0
v -49 -37 0
v -48 -38 0
v -49 -38 0
v -49 -37 0
v -48 -37 0
v -47 -38 0
v -48 -38 0
v -48 -37 0
v -47 -37 0
v -53 -36 0
v -54 -36 0
v -54 -35 0
v -53 -35 0
v -52 -36 0
v -53 -36 0
v -53 -35 0
v -52 -35 0
v -51 -36 0
v -52 -36 0
v -52 -35 0
v -51 -35 0
v -50 -36 0
v -51 -36 0
v -51 -35 0
v -50 -35 0
v -49 -36 0
v -50 -36 0
v -50 -35 0
v -49 -35 0
v -47 -36 0
v -48 -36 0
v -48 -35 0
v -47 -35 0
v -46 -36 0
v -47 -36 0
v -47 -35 0
v -46 -35 0
v -45 -36 0
v -46 -36 0
v -46 -35 0
v -45 -35 0
v -44 -36 0
v -45 -36 0
v -45 -35 0
v -44 -35 0
v -43 -36 0
v -44 -36 0
v -44 -35 0
v -43 -35 0
v -53 -35 0
v -54 -35 0
v -54 -34 0
v -53 -34 0
v -52 -35 0
v -53 -35 0
v -53 -34 0
v -52 -34 0
v -51 -35 0
v -52 -35 0
v -52 -34 0
v -51 -34 0
v -50 -35 0
v -51 -35 0
v -51 -34 0
v -50 -34 0
v -49 -35 0
v -50 -35 0
v -50 -34 0
v -49 -34 0
v -47 -35 0
v -48 -35 0
v -48 -34 0
v -47 -34 0
v -46 -35 0
v -47 -35 0
v -47 -34 0
v -46 -34 0
v -45 -35 0
v -46 -35 0
v -46 -34 0
v -45 -34 0
v -44 -35 0
v -45 -35 0
v -45 -34 0
v -44 -34 0
v -43 -35 0
v -44 -35 0
v -44 -34 0
v -43 -34 0
v -53 -34 0
v -54 -34 0
v -54 -33 0
v -53 -33 0
v -52 -34 0
v -53 -34 0
v -53 -33 0
v -52 -33 0
v -51 -34 0
v -52 -34 0
v -52 -33 0
v -51 -33 0
v -50 -34 0
v -51 -34 0
v -51 -33 0
v -50 -33 0
v -49 -34 0
v -50 -34 0
v -50 -33 0
v -49 -33 0
v -47 -34 0
v -48 -34 0
v -48 -33 0
v -47 -33 0
v -46 -34 0
v -47 -34 0
v -47 -33 0
v -46 -33 0
v -45 -34 0
v -46 -34 0
v -46 -33 0
v -45 -33 0
v -44 -34 0
v -45 -34 0
v -45 -33 0
v -44 -33 0
v -43 -34 0
v -44 -34 0
v -44 -33 0
v -43 -33 0
v -53 -33 0
v -54 -33 0
v -54 -32 0
v -53 -32 0
v -52 -33 0
v -53 -33 0
v -53 -32 0
v -52 -32 0
v -51 -33 0
v -52 -33 0
v -52 -32 0
v -51 -32 0
v -50 -33 0
v -51 -33 0
v -51 -32 0
v -50 -32 0
v -49 -33 0
v -50 -33 0
v -50 -32 0
v -49 -32 0

# Texture cooridinates (Count = 114)
vt 0.25 0.87
vt 0.26 0.87
vt 0.26 0.88
vt 0.25 0.88
vt 0.24 0.87
vt 0.24 0.88
vt 0.23 0.87
vt 0.23 0.88
vt 0.22 0.87
vt 0.22 0.88
vt 0.21 0.87
vt 0.21 0.88
vt 0.26 0.8
vt 0.27 0.8
vt 0.27 0.81
vt 0.26 0.81
vt 0.25 0.8
vt 0.25 0.81
vt 0.24 0.8
vt 0.24 0.81
vt 0.23 0.8
vt 0.23 0.81
vt 0.22 0.8
vt 0.22 0.81
vt 0.26 0.89
vt 0.25 0.89
vt 0.24 0.89
vt 0.23 0.89
vt 0.22 0.89
vt 0.21 0.89
vt 0.27 0.82
vt 0.26 0.82
vt 0.25 0.82
vt 0.24 0.82
vt 0.23 0.82
vt 0.22 0.82
vt 0.27 0.83
vt 0.26 0.83
vt 0.25 0.83
vt 0.24 0.83
vt 0.23 0.83
vt 0.22 0.83
vt 0.17 0.83
vt 0.18 0.83
vt 0.18 0.84
vt 0.17 0.84
vt 0.16 0.83
vt 0.16 0.84
vt 0.15 0.83
vt 0.15 0.84
vt 0.14 0.83
vt 0.14 0.84
vt 0.13 0.83
vt 0.13 0.84
vt 0.18 0.85
vt 0.17 0.85
vt 0.31 0.75
vt 0.32 0.75
vt 0.32 0.76
vt 0.31 0.76
vt 0.16 0.85
vt 0.15 0.85
vt 0.14 0.85
vt 0.13 0.85
vt 0.18 0.86
vt 0.17 0.86
vt 0.16 0.86
vt 0.15 0.86
vt 0.14 0.86
vt 0.13 0.86
vt 0.22 0.71
vt 0.23 0.71
vt 0.23 0.72
vt 0.22 0.72
vt 0.21 0.71
vt 0.21 0.72
vt 0.2 0.71
vt 0.2 0.72
vt 0.24 0.72
vt 0.24 0.73
vt 0.23 0.73
vt 0.22 0.73
vt 0.21 0.73
vt 0.2 0.73
vt 0.27 0.84
vt 0.26 0.84
vt 0.25 0.84
vt 0.24 0.84
vt 0.23 0.84
vt 0.22 0.84
vt 0.26 0.9
vt 0.25 0.9
vt 0.24 0.9
vt 0.23 0.9
vt 0.22 0.9
vt 0.21 0.9
vt 0.26 0.91
vt 0.25 0.91
vt 0.24 0.91
vt 0.23 0.91
vt 0.22 0.91
vt 0.21 0.91
vt 0.26 0.92
vt 0.25 0.92
vt 0.24 0.92
vt 0.23 0.92
vt 0.22 0.92
vt 0.21 0.92
vt 0.26 0.93
vt 0.25 0.93
vt 0.24 0.93
vt 0.23 0.93
vt 0.22 0.93
vt 0.21 0.93

# Normal
vn 0 0 -1

# Mesh description
g Nivel1Chico_mesh_0016

# Faces
f 1/1/1 2/2/1 3/3/1 4/4/1
f 5/5/1 6/1/1 7/4/1 8/6/1
f 9/7/1 10/5/1 11/6/1 12/8/1
f 13/9/1 14/7/1 15/8/1 16/10/1
f 17/11/1 18/9/1 19/10/1 20/12/1
f 21/13/1 22/14/1 23/15/1 24/16/1
f 25/17/1 26/13/1 27/16/1 28/18/1
f 29/19/1 30/17/1 31/18/1 32/20/1
f 33/21/1 34/19/1 35/20/1 36/22/1
f 37/23/1 38/21/1 39/22/1 40/24/1
f 41/4/1 42/3/1 43/25/1 44/26/1
f 45/6/1 46/4/1 47/26/1 48/27/1
f 49/8/1 50/6/1 51/27/1 52/28/1
f 53/10/1 54/8/1 55/28/1 56/29/1
f 57/12/1 58/10/1 59/29/1 60/30/1
f 61/16/1 62/15/1 63/31/1 64/32/1
f 65/18/1 66/16/1 67/32/1 68/33/1
f 69/20/1 70/18/1 71/33/1 72/34/1
f 73/22/1 74/20/1 75/34/1 76/35/1
f 77/24/1 78/22/1 79/35/1 80/36/1
f 81/32/1 82/31/1 83/37/1 84/38/1
f 85/33/1 86/32/1 87/38/1 88/39/1
f 89/34/1 90/33/1 91/39/1 92/40/1
f 93/35/1 94/34/1 95/40/1 96/41/1
f 97/36/1 98/35/1 99/41/1 100/42/1
f 101/43/1 102/44/1 103/45/1 104/46/1
f 105/47/1 106/43/1 107/46/1 108/48/1
f 109/49/1 110/47/1 111/48/1 112/50/1
f 113/51/1 114/49/1 115/50/1 116/52/1
f 117/53/1 118/51/1 119/52/1 120/54/1
f 121/46/1 122/45/1 123/55/1 124/56/1
f 125/57/1 126/58/1 127/59/1 128/60/1
f 129/50/1 130/48/1 131/61/1 132/62/1
f 133/52/1 134/50/1 135/62/1 136/63/1
f 137/54/1 138/52/1 139/63/1 140/64/1
f 141/56/1 142/55/1 143/65/1 144/66/1
f 145/61/1 146/56/1 147/66/1 148/67/1
f 149/62/1 150/61/1 151/67/1 152/68/1
f 153/63/1 154/62/1 155/68/1 156/69/1
f 157/64/1 158/63/1 159/69/1 160/70/1
f 161/71/1 162/72/1 163/73/1 164/74/1
f 165/75/1 166/71/1 167/74/1 168/76/1
f 169/77/1 170/75/1 171/76/1 172/78/1
f 173/77/1 174/75/1 175/76/1 176/78/1
f 177/73/1 178/79/1 179/80/1 180/81/1
f 181/74/1 182/73/1 183/81/1 184/82/1
f 185/76/1 186/74/1 187/82/1 188/83/1
f 189/78/1 190/76/1 191/83/1 192/84/1
f 193/77/1 194/75/1 195/76/1 196/78/1
f 197/73/1 198/79/1 199/80/1 200/81/1
f 201/74/1 202/73/1 203/81/1 204/82/1
f 205/76/1 206/74/1 207/82/1 208/83/1
f 209/78/1 210/76/1 211/83/1 212/84/1
f 213/77/1 214/75/1 215/76/1 216/78/1
f 217/73/1 218/79/1 219/80/1 220/81/1
f 221/74/1 222/73/1 223/81/1 224/82/1
f 225/76/1 226/74/1 227/82/1 228/83/1
f 229/78/1 230/76/1 231/83/1 232/84/1
f 233/78/1 234/76/1 235/83/1 236/84/1
f 237/38/1 238/37/1 239/85/1 240/86/1
f 241/39/1 242/38/1 243/86/1 244/87/1
f 245/40/1 246/39/1 247/87/1 248/88/1
f 249/41/1 250/40/1 251/88/1 252/89/1
f 253/42/1 254/41/1 255/89/1 256/90/1
f 257/26/1 258/25/1 259/91/1 260/92/1
f 261/27/1 262/26/1 263/92/1 264/93/1
f 265/28/1 266/27/1 267/93/1 268/94/1
f 269/29/1 270/28/1 271/94/1 272/95/1
f 273/30/1 274/29/1 275/95/1 276/96/1
f 277/13/1 278/14/1 279/15/1 280/16/1
f 281/17/1 282/13/1 283/16/1 284/18/1
f 285/19/1 286/17/1 287/18/1 288/20/1
f 289/21/1 290/19/1 291/20/1 292/22/1
f 293/23/1 294/21/1 295/22/1 296/24/1
f 297/92/1 298/91/1 299/97/1 300/98/1
f 301/93/1 302/92/1 303/98/1 304/99/1
f 305/94/1 306/93/1 307/99/1 308/100/1
f 309/95/1 310/94/1 311/100/1 312/101/1
f 313/96/1 314/95/1 315/101/1 316/102/1
f 317/16/1 318/15/1 319/31/1 320/32/1
f 321/18/1 322/16/1 323/32/1 324/33/1
f 325/20/1 326/18/1 327/33/1 328/34/1
f 329/22/1 330/20/1 331/34/1 332/35/1
f 333/24/1 334/22/1 335/35/1 336/36/1
f 337/98/1 338/97/1 339/103/1 340/104/1
f 341/99/1 342/98/1 343/104/1 344/105/1
f 345/100/1 346/99/1 347/105/1 348/106/1
f 349/101/1 350/100/1 351/106/1 352/107/1
f 353/102/1 354/101/1 355/107/1 356/108/1
f 357/32/1 358/31/1 359/37/1 360/38/1
f 361/33/1 362/32/1 363/38/1 364/39/1
f 365/34/1 366/33/1 367/39/1 368/40/1
f 369/35/1 370/34/1 371/40/1 372/41/1
f 373/36/1 374/35/1 375/41/1 376/42/1
f 377/104/1 378/103/1 379/109/1 380/110/1
f 381/105/1 382/104/1 383/110/1 384/111/1
f 385/106/1 386/105/1 387/111/1 388/112/1
f 389/107/1 390/106/1 391/112/1 392/113/1
f 393/108/1 394/107/1 395/113/1 396/114/1

