# Tiled2Unity generated file. Do not modify by hand.
# Wavefront file for 'Nivel1_mesh_0052.obj'

# Vertices (Count = 60)
v 0 -28 0
v -1 -28 0
v -1 -27 0
v 0 -27 0
v -1 -28 0
v -2 -28 0
v -2 -27 0
v -1 -27 0
v -2 -28 0
v -3 -28 0
v -3 -27 0
v -2 -27 0
v -3 -28 0
v -4 -28 0
v -4 -27 0
v -3 -27 0
v -4 -28 0
v -5 -28 0
v -5 -27 0
v -4 -27 0
v 0 -29 0
v -1 -29 0
v -1 -28 0
v 0 -28 0
v -1 -29 0
v -2 -29 0
v -2 -28 0
v -1 -28 0
v -2 -29 0
v -3 -29 0
v -3 -28 0
v -2 -28 0
v -3 -29 0
v -4 -29 0
v -4 -28 0
v -3 -28 0
v -4 -29 0
v -5 -29 0
v -5 -28 0
v -4 -28 0
v 0 -30 0
v -1 -30 0
v -1 -29 0
v 0 -29 0
v -1 -30 0
v -2 -30 0
v -2 -29 0
v -1 -29 0
v -2 -30 0
v -3 -30 0
v -3 -29 0
v -2 -29 0
v -3 -30 0
v -4 -30 0
v -4 -29 0
v -3 -29 0
v -4 -30 0
v -5 -30 0
v -5 -29 0
v -4 -29 0

# Texture cooridinates (Count = 20)
vt 0.425 0.7777778
vt 0.45 0.7777778
vt 0.45 0.8055556
vt 0.425 0.8055556
vt 0.4 0.7777778
vt 0.4 0.8055556
vt 0.475 0.7777778
vt 0.475 0.8055556
vt 0.5 0.7777778
vt 0.5 0.8055556
vt 0.425 0.75
vt 0.45 0.75
vt 0.4 0.75
vt 0.475 0.75
vt 0.5 0.75
vt 0.425 0.7222222
vt 0.45 0.7222222
vt 0.4 0.7222222
vt 0.475 0.7222222
vt 0.5 0.7222222

# Normal
vn 0 0 -1

# Mesh description
g Nivel1_mesh_0052

# Faces
f 1/1/1 2/2/1 3/3/1 4/4/1
f 5/5/1 6/1/1 7/4/1 8/6/1
f 9/1/1 10/2/1 11/3/1 12/4/1
f 13/2/1 14/7/1 15/8/1 16/3/1
f 17/7/1 18/9/1 19/10/1 20/8/1
f 21/11/1 22/12/1 23/2/1 24/1/1
f 25/13/1 26/11/1 27/1/1 28/5/1
f 29/11/1 30/12/1 31/2/1 32/1/1
f 33/12/1 34/14/1 35/7/1 36/2/1
f 37/14/1 38/15/1 39/9/1 40/7/1
f 41/16/1 42/17/1 43/12/1 44/11/1
f 45/18/1 46/16/1 47/11/1 48/13/1
f 49/16/1 50/17/1 51/12/1 52/11/1
f 53/17/1 54/19/1 55/14/1 56/12/1
f 57/19/1 58/20/1 59/15/1 60/14/1

