# Tiled2Unity generated file. Do not modify by hand.
# Wavefront file for 'Nivel1_mesh_0018.obj'

# Vertices (Count = 140)
v -5 -1 0
v -6 -1 0
v -6 0 0
v -5 0 0
v -6 -1 0
v -7 -1 0
v -7 0 0
v -6 0 0
v -7 -1 0
v -8 -1 0
v -8 0 0
v -7 0 0
v -8 -1 0
v -9 -1 0
v -9 0 0
v -8 0 0
v -5 -2 0
v -6 -2 0
v -6 -1 0
v -5 -1 0
v -6 -2 0
v -7 -2 0
v -7 -1 0
v -6 -1 0
v -7 -2 0
v -8 -2 0
v -8 -1 0
v -7 -1 0
v -8 -2 0
v -9 -2 0
v -9 -1 0
v -8 -1 0
v 0 -38 0
v -1 -38 0
v -1 -37 0
v 0 -37 0
v -1 -38 0
v -2 -38 0
v -2 -37 0
v -1 -37 0
v -2 -38 0
v -3 -38 0
v -3 -37 0
v -2 -37 0
v -3 -38 0
v -4 -38 0
v -4 -37 0
v -3 -37 0
v -4 -38 0
v -5 -38 0
v -5 -37 0
v -4 -37 0
v -5 -38 0
v -6 -38 0
v -6 -37 0
v -5 -37 0
v -6 -38 0
v -7 -38 0
v -7 -37 0
v -6 -37 0
v -7 -38 0
v -8 -38 0
v -8 -37 0
v -7 -37 0
v -8 -38 0
v -9 -38 0
v -9 -37 0
v -8 -37 0
v 0 -39 0
v -1 -39 0
v -1 -38 0
v 0 -38 0
v -1 -39 0
v -2 -39 0
v -2 -38 0
v -1 -38 0
v -2 -39 0
v -3 -39 0
v -3 -38 0
v -2 -38 0
v -3 -39 0
v -4 -39 0
v -4 -38 0
v -3 -38 0
v -4 -39 0
v -5 -39 0
v -5 -38 0
v -4 -38 0
v -5 -39 0
v -6 -39 0
v -6 -38 0
v -5 -38 0
v -6 -39 0
v -7 -39 0
v -7 -38 0
v -6 -38 0
v -7 -39 0
v -8 -39 0
v -8 -38 0
v -7 -38 0
v -8 -39 0
v -9 -39 0
v -9 -38 0
v -8 -38 0
v 0 -40 0
v -1 -40 0
v -1 -39 0
v 0 -39 0
v -1 -40 0
v -2 -40 0
v -2 -39 0
v -1 -39 0
v -2 -40 0
v -3 -40 0
v -3 -39 0
v -2 -39 0
v -3 -40 0
v -4 -40 0
v -4 -39 0
v -3 -39 0
v -4 -40 0
v -5 -40 0
v -5 -39 0
v -4 -39 0
v -5 -40 0
v -6 -40 0
v -6 -39 0
v -5 -39 0
v -6 -40 0
v -7 -40 0
v -7 -39 0
v -6 -39 0
v -7 -40 0
v -8 -40 0
v -8 -39 0
v -7 -39 0
v -8 -40 0
v -9 -40 0
v -9 -39 0
v -8 -39 0

# Texture cooridinates (Count = 20)
vt 0.4 0.75
vt 0.425 0.75
vt 0.425 0.7777778
vt 0.4 0.7777778
vt 0.45 0.75
vt 0.45 0.7777778
vt 0.475 0.75
vt 0.475 0.7777778
vt 0.5 0.75
vt 0.5 0.7777778
vt 0.4 0.7222222
vt 0.425 0.7222222
vt 0.45 0.7222222
vt 0.475 0.7222222
vt 0.5 0.7222222
vt 0.45 0.8055556
vt 0.425 0.8055556
vt 0.4 0.8055556
vt 0.475 0.8055556
vt 0.5 0.8055556

# Normal
vn 0 0 -1

# Mesh description
g Nivel1_mesh_0018

# Faces
f 1/1/1 2/2/1 3/3/1 4/4/1
f 5/2/1 6/5/1 7/6/1 8/3/1
f 9/5/1 10/7/1 11/8/1 12/6/1
f 13/7/1 14/9/1 15/10/1 16/8/1
f 17/11/1 18/12/1 19/2/1 20/1/1
f 21/12/1 22/13/1 23/5/1 24/2/1
f 25/13/1 26/14/1 27/7/1 28/5/1
f 29/14/1 30/15/1 31/9/1 32/7/1
f 33/3/1 34/6/1 35/16/1 36/17/1
f 37/4/1 38/3/1 39/17/1 40/18/1
f 41/3/1 42/6/1 43/16/1 44/17/1
f 45/6/1 46/8/1 47/19/1 48/16/1
f 49/8/1 50/10/1 51/20/1 52/19/1
f 53/4/1 54/3/1 55/17/1 56/18/1
f 57/3/1 58/6/1 59/16/1 60/17/1
f 61/6/1 62/8/1 63/19/1 64/16/1
f 65/8/1 66/10/1 67/20/1 68/19/1
f 69/2/1 70/5/1 71/6/1 72/3/1
f 73/1/1 74/2/1 75/3/1 76/4/1
f 77/2/1 78/5/1 79/6/1 80/3/1
f 81/5/1 82/7/1 83/8/1 84/6/1
f 85/7/1 86/9/1 87/10/1 88/8/1
f 89/1/1 90/2/1 91/3/1 92/4/1
f 93/2/1 94/5/1 95/6/1 96/3/1
f 97/5/1 98/7/1 99/8/1 100/6/1
f 101/7/1 102/9/1 103/10/1 104/8/1
f 105/12/1 106/13/1 107/5/1 108/2/1
f 109/11/1 110/12/1 111/2/1 112/1/1
f 113/12/1 114/13/1 115/5/1 116/2/1
f 117/13/1 118/14/1 119/7/1 120/5/1
f 121/14/1 122/15/1 123/9/1 124/7/1
f 125/11/1 126/12/1 127/2/1 128/1/1
f 129/12/1 130/13/1 131/5/1 132/2/1
f 133/13/1 134/14/1 135/7/1 136/5/1
f 137/14/1 138/15/1 139/9/1 140/7/1

