# Tiled2Unity generated file. Do not modify by hand.
# Wavefront file for 'Nivel1_mesh_0039.obj'

# Vertices (Count = 388)
v -5 -13 0
v -6 -13 0
v -6 -12 0
v -5 -12 0
v -6 -13 0
v -7 -13 0
v -7 -12 0
v -6 -12 0
v -7 -13 0
v -8 -13 0
v -8 -12 0
v -7 -12 0
v -8 -13 0
v -9 -13 0
v -9 -12 0
v -8 -12 0
v -5 -14 0
v -6 -14 0
v -6 -13 0
v -5 -13 0
v -6 -14 0
v -7 -14 0
v -7 -13 0
v -6 -13 0
v -7 -14 0
v -8 -14 0
v -8 -13 0
v -7 -13 0
v -8 -14 0
v -9 -14 0
v -9 -13 0
v -8 -13 0
v -5 -15 0
v -6 -15 0
v -6 -14 0
v -5 -14 0
v -6 -15 0
v -7 -15 0
v -7 -14 0
v -6 -14 0
v -7 -15 0
v -8 -15 0
v -8 -14 0
v -7 -14 0
v -8 -15 0
v -9 -15 0
v -9 -14 0
v -8 -14 0
v -5 -16 0
v -6 -16 0
v -6 -15 0
v -5 -15 0
v -6 -16 0
v -7 -16 0
v -7 -15 0
v -6 -15 0
v -7 -16 0
v -8 -16 0
v -8 -15 0
v -7 -15 0
v -8 -16 0
v -9 -16 0
v -9 -15 0
v -8 -15 0
v -5 -17 0
v -6 -17 0
v -6 -16 0
v -5 -16 0
v -6 -17 0
v -7 -17 0
v -7 -16 0
v -6 -16 0
v -7 -17 0
v -8 -17 0
v -8 -16 0
v -7 -16 0
v -8 -17 0
v -9 -17 0
v -9 -16 0
v -8 -16 0
v -5 -18 0
v -6 -18 0
v -6 -17 0
v -5 -17 0
v -6 -18 0
v -7 -18 0
v -7 -17 0
v -6 -17 0
v -7 -18 0
v -8 -18 0
v -8 -17 0
v -7 -17 0
v -8 -18 0
v -9 -18 0
v -9 -17 0
v -8 -17 0
v -5 -19 0
v -6 -19 0
v -6 -18 0
v -5 -18 0
v -6 -19 0
v -7 -19 0
v -7 -18 0
v -6 -18 0
v -7 -19 0
v -8 -19 0
v -8 -18 0
v -7 -18 0
v -8 -19 0
v -9 -19 0
v -9 -18 0
v -8 -18 0
v -5 -20 0
v -6 -20 0
v -6 -19 0
v -5 -19 0
v -6 -20 0
v -7 -20 0
v -7 -19 0
v -6 -19 0
v -7 -20 0
v -8 -20 0
v -8 -19 0
v -7 -19 0
v -8 -20 0
v -9 -20 0
v -9 -19 0
v -8 -19 0
v -5 -21 0
v -6 -21 0
v -6 -20 0
v -5 -20 0
v -6 -21 0
v -7 -21 0
v -7 -20 0
v -6 -20 0
v -7 -21 0
v -8 -21 0
v -8 -20 0
v -7 -20 0
v -8 -21 0
v -9 -21 0
v -9 -20 0
v -8 -20 0
v -5 -22 0
v -6 -22 0
v -6 -21 0
v -5 -21 0
v -6 -22 0
v -7 -22 0
v -7 -21 0
v -6 -21 0
v -7 -22 0
v -8 -22 0
v -8 -21 0
v -7 -21 0
v -8 -22 0
v -9 -22 0
v -9 -21 0
v -8 -21 0
v -5 -23 0
v -6 -23 0
v -6 -22 0
v -5 -22 0
v -6 -23 0
v -7 -23 0
v -7 -22 0
v -6 -22 0
v -7 -23 0
v -8 -23 0
v -8 -22 0
v -7 -22 0
v -8 -23 0
v -9 -23 0
v -9 -22 0
v -8 -22 0
v -19 -23 0
v -20 -23 0
v -20 -22 0
v -19 -22 0
v -5 -24 0
v -6 -24 0
v -6 -23 0
v -5 -23 0
v -6 -24 0
v -7 -24 0
v -7 -23 0
v -6 -23 0
v -7 -24 0
v -8 -24 0
v -8 -23 0
v -7 -23 0
v -8 -24 0
v -9 -24 0
v -9 -23 0
v -8 -23 0
v -5 -25 0
v -6 -25 0
v -6 -24 0
v -5 -24 0
v -6 -25 0
v -7 -25 0
v -7 -24 0
v -6 -24 0
v -7 -25 0
v -8 -25 0
v -8 -24 0
v -7 -24 0
v -8 -25 0
v -9 -25 0
v -9 -24 0
v -8 -24 0
v -20 -25 0
v -21 -25 0
v -21 -24 0
v -20 -24 0
v -21 -25 0
v -22 -25 0
v -22 -24 0
v -21 -24 0
v -22 -25 0
v -23 -25 0
v -23 -24 0
v -22 -24 0
v -23 -25 0
v -24 -25 0
v -24 -24 0
v -23 -24 0
v -5 -26 0
v -6 -26 0
v -6 -25 0
v -5 -25 0
v -6 -26 0
v -7 -26 0
v -7 -25 0
v -6 -25 0
v -7 -26 0
v -8 -26 0
v -8 -25 0
v -7 -25 0
v -8 -26 0
v -9 -26 0
v -9 -25 0
v -8 -25 0
v -20 -26 0
v -21 -26 0
v -21 -25 0
v -20 -25 0
v -21 -26 0
v -22 -26 0
v -22 -25 0
v -21 -25 0
v -22 -26 0
v -23 -26 0
v -23 -25 0
v -22 -25 0
v -23 -26 0
v -24 -26 0
v -24 -25 0
v -23 -25 0
v -5 -27 0
v -6 -27 0
v -6 -26 0
v -5 -26 0
v -6 -27 0
v -7 -27 0
v -7 -26 0
v -6 -26 0
v -7 -27 0
v -8 -27 0
v -8 -26 0
v -7 -26 0
v -8 -27 0
v -9 -27 0
v -9 -26 0
v -8 -26 0
v -20 -27 0
v -21 -27 0
v -21 -26 0
v -20 -26 0
v -21 -27 0
v -22 -27 0
v -22 -26 0
v -21 -26 0
v -22 -27 0
v -23 -27 0
v -23 -26 0
v -22 -26 0
v -23 -27 0
v -24 -27 0
v -24 -26 0
v -23 -26 0
v -5 -28 0
v -6 -28 0
v -6 -27 0
v -5 -27 0
v -6 -28 0
v -7 -28 0
v -7 -27 0
v -6 -27 0
v -7 -28 0
v -8 -28 0
v -8 -27 0
v -7 -27 0
v -8 -28 0
v -9 -28 0
v -9 -27 0
v -8 -27 0
v -20 -28 0
v -21 -28 0
v -21 -27 0
v -20 -27 0
v -21 -28 0
v -22 -28 0
v -22 -27 0
v -21 -27 0
v -22 -28 0
v -23 -28 0
v -23 -27 0
v -22 -27 0
v -23 -28 0
v -24 -28 0
v -24 -27 0
v -23 -27 0
v -5 -29 0
v -6 -29 0
v -6 -28 0
v -5 -28 0
v -6 -29 0
v -7 -29 0
v -7 -28 0
v -6 -28 0
v -7 -29 0
v -8 -29 0
v -8 -28 0
v -7 -28 0
v -8 -29 0
v -9 -29 0
v -9 -28 0
v -8 -28 0
v -20 -29 0
v -21 -29 0
v -21 -28 0
v -20 -28 0
v -21 -29 0
v -22 -29 0
v -22 -28 0
v -21 -28 0
v -22 -29 0
v -23 -29 0
v -23 -28 0
v -22 -28 0
v -23 -29 0
v -24 -29 0
v -24 -28 0
v -23 -28 0
v -5 -30 0
v -6 -30 0
v -6 -29 0
v -5 -29 0
v -6 -30 0
v -7 -30 0
v -7 -29 0
v -6 -29 0
v -7 -30 0
v -8 -30 0
v -8 -29 0
v -7 -29 0
v -8 -30 0
v -9 -30 0
v -9 -29 0
v -8 -29 0
v -20 -30 0
v -21 -30 0
v -21 -29 0
v -20 -29 0
v -21 -30 0
v -22 -30 0
v -22 -29 0
v -21 -29 0
v -22 -30 0
v -23 -30 0
v -23 -29 0
v -22 -29 0
v -23 -30 0
v -24 -30 0
v -24 -29 0
v -23 -29 0

# Texture cooridinates (Count = 29)
vt 0.2 0.7777778
vt 0.2 0.75
vt 0.225 0.75
vt 0.225 0.7777778
vt 0.05 0.8055556
vt 0.075 0.8055556
vt 0.075 0.8333333
vt 0.05 0.8333333
vt 0.1 0.8055556
vt 0.1 0.8333333
vt 0.075 0.75
vt 0.1 0.75
vt 0.1 0.7777778
vt 0.075 0.7777778
vt 0.05 0.75
vt 0.05 0.7777778
vt 0.2 0.7222222
vt 0.225 0.7222222
vt 0.2 0.8611111
vt 0.2 0.8333333
vt 0.225 0.8333333
vt 0.225 0.8611111
vt 0.175 0.8611111
vt 0.175 0.8333333
vt 0.125 0.8333333
vt 0.125 0.8611111
vt 0.1 0.8611111
vt 0.15 0.8333333
vt 0.15 0.8611111

# Normal
vn 0 0 -1

# Mesh description
g Nivel1_mesh_0039

# Faces
f 1/1/1 2/2/1 3/3/1 4/4/1
f 5/5/1 6/6/1 7/7/1 8/8/1
f 9/6/1 10/9/1 11/10/1 12/7/1
f 13/4/1 14/1/1 15/2/1 16/3/1
f 17/11/1 18/12/1 19/13/1 20/14/1
f 21/5/1 22/6/1 23/7/1 24/8/1
f 25/6/1 26/9/1 27/10/1 28/7/1
f 29/15/1 30/11/1 31/14/1 32/16/1
f 33/11/1 34/12/1 35/13/1 36/14/1
f 37/5/1 38/6/1 39/7/1 40/8/1
f 41/6/1 42/9/1 43/10/1 44/7/1
f 45/15/1 46/11/1 47/14/1 48/16/1
f 49/11/1 50/12/1 51/13/1 52/14/1
f 53/5/1 54/6/1 55/7/1 56/8/1
f 57/6/1 58/9/1 59/10/1 60/7/1
f 61/15/1 62/11/1 63/14/1 64/16/1
f 65/11/1 66/12/1 67/13/1 68/14/1
f 69/5/1 70/6/1 71/7/1 72/8/1
f 73/6/1 74/9/1 75/10/1 76/7/1
f 77/15/1 78/11/1 79/14/1 80/16/1
f 81/11/1 82/12/1 83/13/1 84/14/1
f 85/5/1 86/6/1 87/7/1 88/8/1
f 89/6/1 90/9/1 91/10/1 92/7/1
f 93/15/1 94/11/1 95/14/1 96/16/1
f 97/11/1 98/12/1 99/13/1 100/14/1
f 101/5/1 102/6/1 103/7/1 104/8/1
f 105/6/1 106/9/1 107/10/1 108/7/1
f 109/15/1 110/11/1 111/14/1 112/16/1
f 113/11/1 114/12/1 115/13/1 116/14/1
f 117/5/1 118/6/1 119/7/1 120/8/1
f 121/6/1 122/9/1 123/10/1 124/7/1
f 125/15/1 126/11/1 127/14/1 128/16/1
f 129/11/1 130/12/1 131/13/1 132/14/1
f 133/5/1 134/6/1 135/7/1 136/8/1
f 137/6/1 138/9/1 139/10/1 140/7/1
f 141/15/1 142/11/1 143/14/1 144/16/1
f 145/11/1 146/12/1 147/13/1 148/14/1
f 149/5/1 150/6/1 151/7/1 152/8/1
f 153/6/1 154/9/1 155/10/1 156/7/1
f 157/15/1 158/11/1 159/14/1 160/16/1
f 161/11/1 162/12/1 163/13/1 164/14/1
f 165/5/1 166/6/1 167/7/1 168/8/1
f 169/6/1 170/9/1 171/10/1 172/7/1
f 173/15/1 174/11/1 175/14/1 176/16/1
f 177/13/1 178/14/1 179/11/1 180/12/1
f 181/11/1 182/12/1 183/13/1 184/14/1
f 185/5/1 186/6/1 187/7/1 188/8/1
f 189/6/1 190/9/1 191/10/1 192/7/1
f 193/15/1 194/11/1 195/14/1 196/16/1
f 197/11/1 198/12/1 199/13/1 200/14/1
f 201/5/1 202/6/1 203/7/1 204/8/1
f 205/6/1 206/9/1 207/10/1 208/7/1
f 209/15/1 210/11/1 211/14/1 212/16/1
f 213/17/1 214/18/1 215/3/1 216/2/1
f 217/19/1 218/20/1 219/21/1 220/22/1
f 221/20/1 222/19/1 223/23/1 224/24/1
f 225/4/1 226/1/1 227/2/1 228/3/1
f 229/11/1 230/12/1 231/13/1 232/14/1
f 233/5/1 234/6/1 235/7/1 236/8/1
f 237/6/1 238/9/1 239/10/1 240/7/1
f 241/15/1 242/11/1 243/14/1 244/16/1
f 245/11/1 246/12/1 247/13/1 248/14/1
f 249/23/1 250/24/1 251/20/1 252/19/1
f 253/21/1 254/22/1 255/19/1 256/20/1
f 257/13/1 258/14/1 259/11/1 260/12/1
f 261/11/1 262/12/1 263/13/1 264/14/1
f 265/5/1 266/6/1 267/7/1 268/8/1
f 269/6/1 270/9/1 271/10/1 272/7/1
f 273/15/1 274/11/1 275/14/1 276/16/1
f 277/11/1 278/12/1 279/13/1 280/14/1
f 281/19/1 282/20/1 283/21/1 284/22/1
f 285/20/1 286/19/1 287/23/1 288/24/1
f 289/13/1 290/14/1 291/11/1 292/12/1
f 293/11/1 294/12/1 295/13/1 296/14/1
f 297/5/1 298/6/1 299/7/1 300/8/1
f 301/6/1 302/9/1 303/10/1 304/7/1
f 305/15/1 306/11/1 307/14/1 308/16/1
f 309/11/1 310/12/1 311/13/1 312/14/1
f 313/23/1 314/24/1 315/20/1 316/19/1
f 317/21/1 318/22/1 319/19/1 320/20/1
f 321/13/1 322/14/1 323/11/1 324/12/1
f 325/11/1 326/12/1 327/13/1 328/14/1
f 329/5/1 330/6/1 331/7/1 332/8/1
f 333/6/1 334/9/1 335/10/1 336/7/1
f 337/15/1 338/11/1 339/14/1 340/16/1
f 341/11/1 342/12/1 343/13/1 344/14/1
f 345/19/1 346/20/1 347/21/1 348/22/1
f 349/20/1 350/19/1 351/23/1 352/24/1
f 353/13/1 354/14/1 355/11/1 356/12/1
f 357/2/1 358/3/1 359/4/1 360/1/1
f 361/5/1 362/6/1 363/7/1 364/8/1
f 365/6/1 366/9/1 367/10/1 368/7/1
f 369/3/1 370/4/1 371/1/1 372/2/1
f 373/2/1 374/3/1 375/4/1 376/1/1
f 377/10/1 378/25/1 379/26/1 380/27/1
f 381/25/1 382/28/1 383/29/1 384/26/1
f 385/3/1 386/4/1 387/1/1 388/2/1

