# Tiled2Unity generated file. Do not modify by hand.
# Wavefront file for 'Nivel1_mesh_0079.obj'

# Vertices (Count = 12)
v 0 -40 0
v -1 -40 0
v -1 -39 0
v 0 -39 0
v -1 -40 0
v -2 -40 0
v -2 -39 0
v -1 -39 0
v -2 -40 0
v -3 -40 0
v -3 -39 0
v -2 -39 0

# Texture cooridinates (Count = 8)
vt 0.425 0.7777778
vt 0.45 0.7777778
vt 0.45 0.8055556
vt 0.425 0.8055556
vt 0.475 0.7777778
vt 0.475 0.8055556
vt 0.5 0.7777778
vt 0.5 0.8055556

# Normal
vn 0 0 -1

# Mesh description
g Nivel1_mesh_0079

# Faces
f 1/1/1 2/2/1 3/3/1 4/4/1
f 5/2/1 6/5/1 7/6/1 8/3/1
f 9/5/1 10/7/1 11/8/1 12/6/1

