# Tiled2Unity generated file. Do not modify by hand.
# Wavefront file for 'Nivel1_mesh_0082.obj'

# Vertices (Count = 128)
v -19 -20 0
v -20 -20 0
v -20 -19 0
v -19 -19 0
v -20 -20 0
v -21 -20 0
v -21 -19 0
v -20 -19 0
v -21 -20 0
v -22 -20 0
v -22 -19 0
v -21 -19 0
v -22 -20 0
v -23 -20 0
v -23 -19 0
v -22 -19 0
v -23 -20 0
v -24 -20 0
v -24 -19 0
v -23 -19 0
v -24 -20 0
v -25 -20 0
v -25 -19 0
v -24 -19 0
v -19 -21 0
v -20 -21 0
v -20 -20 0
v -19 -20 0
v -24 -21 0
v -25 -21 0
v -25 -20 0
v -24 -20 0
v -16 -22 0
v -17 -22 0
v -17 -21 0
v -16 -21 0
v -19 -22 0
v -20 -22 0
v -20 -21 0
v -19 -21 0
v -24 -22 0
v -25 -22 0
v -25 -21 0
v -24 -21 0
v -27 -22 0
v -28 -22 0
v -28 -21 0
v -27 -21 0
v -17 -23 0
v -18 -23 0
v -18 -22 0
v -17 -22 0
v -18 -23 0
v -19 -23 0
v -19 -22 0
v -18 -22 0
v -19 -23 0
v -20 -23 0
v -20 -22 0
v -19 -22 0
v -24 -23 0
v -25 -23 0
v -25 -22 0
v -24 -22 0
v -25 -23 0
v -26 -23 0
v -26 -22 0
v -25 -22 0
v -26 -23 0
v -27 -23 0
v -27 -22 0
v -26 -22 0
v -17 -24 0
v -18 -24 0
v -18 -23 0
v -17 -23 0
v -19 -24 0
v -20 -24 0
v -20 -23 0
v -19 -23 0
v -20 -24 0
v -21 -24 0
v -21 -23 0
v -20 -23 0
v -21 -24 0
v -22 -24 0
v -22 -23 0
v -21 -23 0
v -22 -24 0
v -23 -24 0
v -23 -23 0
v -22 -23 0
v -23 -24 0
v -24 -24 0
v -24 -23 0
v -23 -23 0
v -24 -24 0
v -25 -24 0
v -25 -23 0
v -24 -23 0
v -26 -24 0
v -27 -24 0
v -27 -23 0
v -26 -23 0
v -17 -25 0
v -18 -25 0
v -18 -24 0
v -17 -24 0
v -18 -25 0
v -19 -25 0
v -19 -24 0
v -18 -24 0
v -19 -25 0
v -20 -25 0
v -20 -24 0
v -19 -24 0
v -24 -25 0
v -25 -25 0
v -25 -24 0
v -24 -24 0
v -25 -25 0
v -26 -25 0
v -26 -24 0
v -25 -24 0
v -26 -25 0
v -27 -25 0
v -27 -24 0
v -26 -24 0

# Texture cooridinates (Count = 20)
vt 0.225 0.7777778
vt 0.2 0.7777778
vt 0.2 0.75
vt 0.225 0.75
vt 0.05 0.7777778
vt 0.075 0.7777778
vt 0.075 0.8055556
vt 0.05 0.8055556
vt 0.1 0.7777778
vt 0.1 0.8055556
vt 0.4 0.7777778
vt 0.425 0.7777778
vt 0.425 0.8055556
vt 0.4 0.8055556
vt 0.475 0.7777778
vt 0.5 0.7777778
vt 0.5 0.8055556
vt 0.475 0.8055556
vt 0.075 0.75
vt 0.1 0.75

# Normal
vn 0 0 -1

# Mesh description
g Nivel1_mesh_0082

# Faces
f 1/1/1 2/2/1 3/3/1 4/4/1
f 5/5/1 6/6/1 7/7/1 8/8/1
f 9/5/1 10/6/1 11/7/1 12/8/1
f 13/5/1 14/6/1 15/7/1 16/8/1
f 17/5/1 18/6/1 19/7/1 20/8/1
f 21/2/1 22/3/1 23/4/1 24/1/1
f 25/9/1 26/10/1 27/7/1 28/6/1
f 29/7/1 30/6/1 31/9/1 32/10/1
f 33/11/1 34/12/1 35/13/1 36/14/1
f 37/9/1 38/10/1 39/7/1 40/6/1
f 41/7/1 42/6/1 43/9/1 44/10/1
f 45/15/1 46/16/1 47/17/1 48/18/1
f 49/1/1 50/2/1 51/3/1 52/4/1
f 53/6/1 54/19/1 55/20/1 56/9/1
f 57/9/1 58/10/1 59/7/1 60/6/1
f 61/7/1 62/6/1 63/9/1 64/10/1
f 65/6/1 66/19/1 67/20/1 68/9/1
f 69/2/1 70/3/1 71/4/1 72/1/1
f 73/9/1 74/10/1 75/7/1 76/6/1
f 77/4/1 78/1/1 79/2/1 80/3/1
f 81/6/1 82/9/1 83/10/1 84/7/1
f 85/6/1 86/9/1 87/10/1 88/7/1
f 89/6/1 90/9/1 91/10/1 92/7/1
f 93/6/1 94/9/1 95/10/1 96/7/1
f 97/3/1 98/4/1 99/1/1 100/2/1
f 101/7/1 102/6/1 103/9/1 104/10/1
f 105/10/1 106/7/1 107/6/1 108/9/1
f 109/10/1 110/7/1 111/6/1 112/9/1
f 113/10/1 114/7/1 115/6/1 116/9/1
f 117/10/1 118/7/1 119/6/1 120/9/1
f 121/10/1 122/7/1 123/6/1 124/9/1
f 125/10/1 126/7/1 127/6/1 128/9/1

