# Tiled2Unity generated file. Do not modify by hand.
# Wavefront file for 'Nivel1_mesh_0026.obj'

# Vertices (Count = 124)
v -25 -2 0
v -26 -2 0
v -26 -1 0
v -25 -1 0
v -26 -2 0
v -27 -2 0
v -27 -1 0
v -26 -1 0
v -27 -2 0
v -28 -2 0
v -28 -1 0
v -27 -1 0
v -28 -2 0
v -29 -2 0
v -29 -1 0
v -28 -1 0
v -25 -3 0
v -26 -3 0
v -26 -2 0
v -25 -2 0
v -26 -3 0
v -27 -3 0
v -27 -2 0
v -26 -2 0
v -27 -3 0
v -28 -3 0
v -28 -2 0
v -27 -2 0
v -28 -3 0
v -29 -3 0
v -29 -2 0
v -28 -2 0
v -25 -4 0
v -26 -4 0
v -26 -3 0
v -25 -3 0
v -26 -4 0
v -27 -4 0
v -27 -3 0
v -26 -3 0
v -27 -4 0
v -28 -4 0
v -28 -3 0
v -27 -3 0
v -28 -4 0
v -29 -4 0
v -29 -3 0
v -28 -3 0
v 0 -18 0
v -1 -18 0
v -1 -17 0
v 0 -17 0
v -1 -18 0
v -2 -18 0
v -2 -17 0
v -1 -17 0
v -2 -18 0
v -3 -18 0
v -3 -17 0
v -2 -17 0
v -3 -18 0
v -4 -18 0
v -4 -17 0
v -3 -17 0
v -4 -18 0
v -5 -18 0
v -5 -17 0
v -4 -17 0
v 0 -19 0
v -1 -19 0
v -1 -18 0
v 0 -18 0
v -1 -19 0
v -2 -19 0
v -2 -18 0
v -1 -18 0
v -2 -19 0
v -3 -19 0
v -3 -18 0
v -2 -18 0
v -3 -19 0
v -4 -19 0
v -4 -18 0
v -3 -18 0
v -4 -19 0
v -5 -19 0
v -5 -18 0
v -4 -18 0
v 0 -20 0
v -1 -20 0
v -1 -19 0
v 0 -19 0
v -1 -20 0
v -2 -20 0
v -2 -19 0
v -1 -19 0
v -2 -20 0
v -3 -20 0
v -3 -19 0
v -2 -19 0
v -3 -20 0
v -4 -20 0
v -4 -19 0
v -3 -19 0
v -4 -20 0
v -5 -20 0
v -5 -19 0
v -4 -19 0
v -25 -40 0
v -26 -40 0
v -26 -39 0
v -25 -39 0
v -26 -40 0
v -27 -40 0
v -27 -39 0
v -26 -39 0
v -27 -40 0
v -28 -40 0
v -28 -39 0
v -27 -39 0
v -28 -40 0
v -29 -40 0
v -29 -39 0
v -28 -39 0

# Texture cooridinates (Count = 20)
vt 0.4 0.7777778
vt 0.425 0.7777778
vt 0.425 0.8055556
vt 0.4 0.8055556
vt 0.45 0.7777778
vt 0.45 0.8055556
vt 0.475 0.7777778
vt 0.475 0.8055556
vt 0.5 0.7777778
vt 0.5 0.8055556
vt 0.4 0.75
vt 0.425 0.75
vt 0.45 0.75
vt 0.475 0.75
vt 0.5 0.75
vt 0.4 0.7222222
vt 0.425 0.7222222
vt 0.45 0.7222222
vt 0.475 0.7222222
vt 0.5 0.7222222

# Normal
vn 0 0 -1

# Mesh description
g Nivel1_mesh_0026

# Faces
f 1/1/1 2/2/1 3/3/1 4/4/1
f 5/2/1 6/5/1 7/6/1 8/3/1
f 9/5/1 10/7/1 11/8/1 12/6/1
f 13/7/1 14/9/1 15/10/1 16/8/1
f 17/11/1 18/12/1 19/2/1 20/1/1
f 21/12/1 22/13/1 23/5/1 24/2/1
f 25/13/1 26/14/1 27/7/1 28/5/1
f 29/14/1 30/15/1 31/9/1 32/7/1
f 33/16/1 34/17/1 35/12/1 36/11/1
f 37/17/1 38/18/1 39/13/1 40/12/1
f 41/18/1 42/19/1 43/14/1 44/13/1
f 45/19/1 46/20/1 47/15/1 48/14/1
f 49/2/1 50/5/1 51/6/1 52/3/1
f 53/1/1 54/2/1 55/3/1 56/4/1
f 57/2/1 58/5/1 59/6/1 60/3/1
f 61/5/1 62/7/1 63/8/1 64/6/1
f 65/7/1 66/9/1 67/10/1 68/8/1
f 69/12/1 70/13/1 71/5/1 72/2/1
f 73/11/1 74/12/1 75/2/1 76/1/1
f 77/12/1 78/13/1 79/5/1 80/2/1
f 81/13/1 82/14/1 83/7/1 84/5/1
f 85/14/1 86/15/1 87/9/1 88/7/1
f 89/17/1 90/18/1 91/13/1 92/12/1
f 93/16/1 94/17/1 95/12/1 96/11/1
f 97/17/1 98/18/1 99/13/1 100/12/1
f 101/18/1 102/19/1 103/14/1 104/13/1
f 105/19/1 106/20/1 107/15/1 108/14/1
f 109/1/1 110/2/1 111/3/1 112/4/1
f 113/2/1 114/5/1 115/6/1 116/3/1
f 117/5/1 118/7/1 119/8/1 120/6/1
f 121/7/1 122/9/1 123/10/1 124/8/1

