# Tiled2Unity generated file. Do not modify by hand.
# Wavefront file for 'Nivel3_mesh_0017.obj'

# Vertices (Count = 64)
v -146 -4 0
v -147 -4 0
v -147 -3 0
v -146 -3 0
v -145 -4 0
v -146 -4 0
v -146 -3 0
v -145 -3 0
v -144 -4 0
v -145 -4 0
v -145 -3 0
v -144 -3 0
v -143 -4 0
v -144 -4 0
v -144 -3 0
v -143 -3 0
v -146 -3 0
v -147 -3 0
v -147 -2 0
v -146 -2 0
v -145 -3 0
v -146 -3 0
v -146 -2 0
v -145 -2 0
v -144 -3 0
v -145 -3 0
v -145 -2 0
v -144 -2 0
v -143 -3 0
v -144 -3 0
v -144 -2 0
v -143 -2 0
v -146 -2 0
v -147 -2 0
v -147 -1 0
v -146 -1 0
v -145 -2 0
v -146 -2 0
v -146 -1 0
v -145 -1 0
v -144 -2 0
v -145 -2 0
v -145 -1 0
v -144 -1 0
v -143 -2 0
v -144 -2 0
v -144 -1 0
v -143 -1 0
v -146 -1 0
v -147 -1 0
v -147 0 0
v -146 0 0
v -145 -1 0
v -146 -1 0
v -146 0 0
v -145 0 0
v -144 -1 0
v -145 -1 0
v -145 0 0
v -144 0 0
v -143 -1 0
v -144 -1 0
v -144 0 0
v -143 0 0

# Texture cooridinates (Count = 25)
vt 0.5 0.1612903
vt 0.53125 0.1612903
vt 0.53125 0.1935484
vt 0.5 0.1935484
vt 0.46875 0.1612903
vt 0.46875 0.1935484
vt 0.4375 0.1612903
vt 0.4375 0.1935484
vt 0.40625 0.1612903
vt 0.40625 0.1935484
vt 0.53125 0.2258065
vt 0.5 0.2258065
vt 0.46875 0.2258065
vt 0.4375 0.2258065
vt 0.40625 0.2258065
vt 0.53125 0.2580645
vt 0.5 0.2580645
vt 0.46875 0.2580645
vt 0.4375 0.2580645
vt 0.40625 0.2580645
vt 0.53125 0.2903226
vt 0.5 0.2903226
vt 0.46875 0.2903226
vt 0.4375 0.2903226
vt 0.40625 0.2903226

# Normal
vn 0 0 -1

# Mesh description
g Nivel3_mesh_0017

# Faces
f 1/1/1 2/2/1 3/3/1 4/4/1
f 5/5/1 6/1/1 7/4/1 8/6/1
f 9/7/1 10/5/1 11/6/1 12/8/1
f 13/9/1 14/7/1 15/8/1 16/10/1
f 17/4/1 18/3/1 19/11/1 20/12/1
f 21/6/1 22/4/1 23/12/1 24/13/1
f 25/8/1 26/6/1 27/13/1 28/14/1
f 29/10/1 30/8/1 31/14/1 32/15/1
f 33/12/1 34/11/1 35/16/1 36/17/1
f 37/13/1 38/12/1 39/17/1 40/18/1
f 41/14/1 42/13/1 43/18/1 44/19/1
f 45/15/1 46/14/1 47/19/1 48/20/1
f 49/17/1 50/16/1 51/21/1 52/22/1
f 53/18/1 54/17/1 55/22/1 56/23/1
f 57/19/1 58/18/1 59/23/1 60/24/1
f 61/20/1 62/19/1 63/24/1 64/25/1

