# Tiled2Unity generated file. Do not modify by hand.
# Wavefront file for 'Nivel3_mesh_0030.obj'

# Vertices (Count = 64)
v -398 -11 0
v -399 -11 0
v -399 -10 0
v -398 -10 0
v -397 -11 0
v -398 -11 0
v -398 -10 0
v -397 -10 0
v -398 -10 0
v -399 -10 0
v -399 -9 0
v -398 -9 0
v -397 -10 0
v -398 -10 0
v -398 -9 0
v -397 -9 0
v -398 -9 0
v -399 -9 0
v -399 -8 0
v -398 -8 0
v -397 -9 0
v -398 -9 0
v -398 -8 0
v -397 -8 0
v -398 -8 0
v -399 -8 0
v -399 -7 0
v -398 -7 0
v -397 -8 0
v -398 -8 0
v -398 -7 0
v -397 -7 0
v -398 -7 0
v -399 -7 0
v -399 -6 0
v -398 -6 0
v -397 -7 0
v -398 -7 0
v -398 -6 0
v -397 -6 0
v -398 -6 0
v -399 -6 0
v -399 -5 0
v -398 -5 0
v -397 -6 0
v -398 -6 0
v -398 -5 0
v -397 -5 0
v -398 -5 0
v -399 -5 0
v -399 -4 0
v -398 -4 0
v -397 -5 0
v -398 -5 0
v -398 -4 0
v -397 -4 0
v -398 -4 0
v -399 -4 0
v -399 -3 0
v -398 -3 0
v -397 -4 0
v -398 -4 0
v -398 -3 0
v -397 -3 0

# Texture cooridinates (Count = 9)
vt 0.7837838 0
vt 0.8108108 0
vt 0.8108108 0.02702701
vt 0.7837838 0.02702701
vt 0.8378378 0
vt 0.8378378 0.02702701
vt 0.8108108 0.05405408
vt 0.7837838 0.05405408
vt 0.8378378 0.05405408

# Normal
vn 0 0 -1

# Mesh description
g Nivel3_mesh_0030

# Faces
f 1/1/1 2/2/1 3/3/1 4/4/1
f 5/2/1 6/5/1 7/6/1 8/3/1
f 9/4/1 10/3/1 11/7/1 12/8/1
f 13/3/1 14/6/1 15/9/1 16/7/1
f 17/1/1 18/2/1 19/3/1 20/4/1
f 21/2/1 22/5/1 23/6/1 24/3/1
f 25/4/1 26/3/1 27/7/1 28/8/1
f 29/3/1 30/6/1 31/9/1 32/7/1
f 33/1/1 34/2/1 35/3/1 36/4/1
f 37/2/1 38/5/1 39/6/1 40/3/1
f 41/4/1 42/3/1 43/7/1 44/8/1
f 45/3/1 46/6/1 47/9/1 48/7/1
f 49/1/1 50/2/1 51/3/1 52/4/1
f 53/2/1 54/5/1 55/6/1 56/3/1
f 57/4/1 58/3/1 59/7/1 60/8/1
f 61/3/1 62/6/1 63/9/1 64/7/1

