# Tiled2Unity generated file. Do not modify by hand.
# Wavefront file for 'Nivel3_mesh_0031.obj'

# Vertices (Count = 24)
v -398 -11 0
v -399 -11 0
v -399 -10 0
v -398 -10 0
v -397 -11 0
v -398 -11 0
v -398 -10 0
v -397 -10 0
v -399 -10 0
v -400 -10 0
v -400 -9 0
v -399 -9 0
v -398 -10 0
v -399 -10 0
v -399 -9 0
v -398 -9 0
v -397 -10 0
v -398 -10 0
v -398 -9 0
v -397 -9 0
v -396 -10 0
v -397 -10 0
v -397 -9 0
v -396 -9 0

# Texture cooridinates (Count = 18)
vt 0.97 0.9
vt 0.96 0.9
vt 0.96 0.91
vt 0.97 0.91
vt 0.98 0.9
vt 0.98 0.91
vt 0.93 0.95
vt 0.94 0.95
vt 0.94 0.96
vt 0.93 0.96
vt 0.92 0.95
vt 0.92 0.96
vt 0.96 0.95
vt 0.97 0.95
vt 0.97 0.96
vt 0.96 0.96
vt 0.95 0.95
vt 0.95 0.96

# Normal
vn 0 0 -1

# Mesh description
g Nivel3_mesh_0031

# Faces
f 1/1/1 2/2/1 3/3/1 4/4/1
f 5/5/1 6/1/1 7/4/1 8/6/1
f 9/7/1 10/8/1 11/9/1 12/10/1
f 13/11/1 14/7/1 15/10/1 16/12/1
f 17/13/1 18/14/1 19/15/1 20/16/1
f 21/17/1 22/13/1 23/16/1 24/18/1

