# Tiled2Unity generated file. Do not modify by hand.
# Wavefront file for 'Nivel3_mesh_0011.obj'

# Vertices (Count = 452)
v -399 -16 0
v -400 -16 0
v -400 -15 0
v -399 -15 0
v -398 -16 0
v -399 -16 0
v -399 -15 0
v -398 -15 0
v -397 -16 0
v -398 -16 0
v -398 -15 0
v -397 -15 0
v -396 -16 0
v -397 -16 0
v -397 -15 0
v -396 -15 0
v -395 -16 0
v -396 -16 0
v -396 -15 0
v -395 -15 0
v -394 -16 0
v -395 -16 0
v -395 -15 0
v -394 -15 0
v -393 -16 0
v -394 -16 0
v -394 -15 0
v -393 -15 0
v -392 -16 0
v -393 -16 0
v -393 -15 0
v -392 -15 0
v -391 -16 0
v -392 -16 0
v -392 -15 0
v -391 -15 0
v -390 -16 0
v -391 -16 0
v -391 -15 0
v -390 -15 0
v -389 -16 0
v -390 -16 0
v -390 -15 0
v -389 -15 0
v -388 -16 0
v -389 -16 0
v -389 -15 0
v -388 -15 0
v -387 -16 0
v -388 -16 0
v -388 -15 0
v -387 -15 0
v -386 -16 0
v -387 -16 0
v -387 -15 0
v -386 -15 0
v -385 -16 0
v -386 -16 0
v -386 -15 0
v -385 -15 0
v -384 -16 0
v -385 -16 0
v -385 -15 0
v -384 -15 0
v -383 -16 0
v -384 -16 0
v -384 -15 0
v -383 -15 0
v -382 -16 0
v -383 -16 0
v -383 -15 0
v -382 -15 0
v -381 -16 0
v -382 -16 0
v -382 -15 0
v -381 -15 0
v -380 -16 0
v -381 -16 0
v -381 -15 0
v -380 -15 0
v -399 -15 0
v -400 -15 0
v -400 -14 0
v -399 -14 0
v -398 -15 0
v -399 -15 0
v -399 -14 0
v -398 -14 0
v -397 -15 0
v -398 -15 0
v -398 -14 0
v -397 -14 0
v -396 -15 0
v -397 -15 0
v -397 -14 0
v -396 -14 0
v -395 -15 0
v -396 -15 0
v -396 -14 0
v -395 -14 0
v -383 -15 0
v -384 -15 0
v -384 -14 0
v -383 -14 0
v -382 -15 0
v -383 -15 0
v -383 -14 0
v -382 -14 0
v -381 -15 0
v -382 -15 0
v -382 -14 0
v -381 -14 0
v -380 -15 0
v -381 -15 0
v -381 -14 0
v -380 -14 0
v -399 -14 0
v -400 -14 0
v -400 -13 0
v -399 -13 0
v -398 -14 0
v -399 -14 0
v -399 -13 0
v -398 -13 0
v -397 -14 0
v -398 -14 0
v -398 -13 0
v -397 -13 0
v -396 -14 0
v -397 -14 0
v -397 -13 0
v -396 -13 0
v -383 -14 0
v -384 -14 0
v -384 -13 0
v -383 -13 0
v -382 -14 0
v -383 -14 0
v -383 -13 0
v -382 -13 0
v -381 -14 0
v -382 -14 0
v -382 -13 0
v -381 -13 0
v -380 -14 0
v -381 -14 0
v -381 -13 0
v -380 -13 0
v -399 -13 0
v -400 -13 0
v -400 -12 0
v -399 -12 0
v -398 -13 0
v -399 -13 0
v -399 -12 0
v -398 -12 0
v -397 -13 0
v -398 -13 0
v -398 -12 0
v -397 -12 0
v -396 -13 0
v -397 -13 0
v -397 -12 0
v -396 -12 0
v -383 -13 0
v -384 -13 0
v -384 -12 0
v -383 -12 0
v -382 -13 0
v -383 -13 0
v -383 -12 0
v -382 -12 0
v -381 -13 0
v -382 -13 0
v -382 -12 0
v -381 -12 0
v -380 -13 0
v -381 -13 0
v -381 -12 0
v -380 -12 0
v -399 -12 0
v -400 -12 0
v -400 -11 0
v -399 -11 0
v -398 -12 0
v -399 -12 0
v -399 -11 0
v -398 -11 0
v -397 -12 0
v -398 -12 0
v -398 -11 0
v -397 -11 0
v -396 -12 0
v -397 -12 0
v -397 -11 0
v -396 -11 0
v -383 -12 0
v -384 -12 0
v -384 -11 0
v -383 -11 0
v -382 -12 0
v -383 -12 0
v -383 -11 0
v -382 -11 0
v -381 -12 0
v -382 -12 0
v -382 -11 0
v -381 -11 0
v -380 -12 0
v -381 -12 0
v -381 -11 0
v -380 -11 0
v -399 -11 0
v -400 -11 0
v -400 -10 0
v -399 -10 0
v -398 -11 0
v -399 -11 0
v -399 -10 0
v -398 -10 0
v -397 -11 0
v -398 -11 0
v -398 -10 0
v -397 -10 0
v -396 -11 0
v -397 -11 0
v -397 -10 0
v -396 -10 0
v -383 -11 0
v -384 -11 0
v -384 -10 0
v -383 -10 0
v -382 -11 0
v -383 -11 0
v -383 -10 0
v -382 -10 0
v -381 -11 0
v -382 -11 0
v -382 -10 0
v -381 -10 0
v -380 -11 0
v -381 -11 0
v -381 -10 0
v -380 -10 0
v -399 -10 0
v -400 -10 0
v -400 -9 0
v -399 -9 0
v -398 -10 0
v -399 -10 0
v -399 -9 0
v -398 -9 0
v -397 -10 0
v -398 -10 0
v -398 -9 0
v -397 -9 0
v -396 -10 0
v -397 -10 0
v -397 -9 0
v -396 -9 0
v -383 -10 0
v -384 -10 0
v -384 -9 0
v -383 -9 0
v -382 -10 0
v -383 -10 0
v -383 -9 0
v -382 -9 0
v -381 -10 0
v -382 -10 0
v -382 -9 0
v -381 -9 0
v -380 -10 0
v -381 -10 0
v -381 -9 0
v -380 -9 0
v -399 -4 0
v -400 -4 0
v -400 -3 0
v -399 -3 0
v -398 -4 0
v -399 -4 0
v -399 -3 0
v -398 -3 0
v -397 -4 0
v -398 -4 0
v -398 -3 0
v -397 -3 0
v -396 -4 0
v -397 -4 0
v -397 -3 0
v -396 -3 0
v -383 -4 0
v -384 -4 0
v -384 -3 0
v -383 -3 0
v -382 -4 0
v -383 -4 0
v -383 -3 0
v -382 -3 0
v -381 -4 0
v -382 -4 0
v -382 -3 0
v -381 -3 0
v -380 -4 0
v -381 -4 0
v -381 -3 0
v -380 -3 0
v -399 -3 0
v -400 -3 0
v -400 -2 0
v -399 -2 0
v -398 -3 0
v -399 -3 0
v -399 -2 0
v -398 -2 0
v -397 -3 0
v -398 -3 0
v -398 -2 0
v -397 -2 0
v -396 -3 0
v -397 -3 0
v -397 -2 0
v -396 -2 0
v -383 -3 0
v -384 -3 0
v -384 -2 0
v -383 -2 0
v -382 -3 0
v -383 -3 0
v -383 -2 0
v -382 -2 0
v -381 -3 0
v -382 -3 0
v -382 -2 0
v -381 -2 0
v -380 -3 0
v -381 -3 0
v -381 -2 0
v -380 -2 0
v -399 -2 0
v -400 -2 0
v -400 -1 0
v -399 -1 0
v -398 -2 0
v -399 -2 0
v -399 -1 0
v -398 -1 0
v -397 -2 0
v -398 -2 0
v -398 -1 0
v -397 -1 0
v -396 -2 0
v -397 -2 0
v -397 -1 0
v -396 -1 0
v -383 -2 0
v -384 -2 0
v -384 -1 0
v -383 -1 0
v -382 -2 0
v -383 -2 0
v -383 -1 0
v -382 -1 0
v -381 -2 0
v -382 -2 0
v -382 -1 0
v -381 -1 0
v -380 -2 0
v -381 -2 0
v -381 -1 0
v -380 -1 0
v -399 -1 0
v -400 -1 0
v -400 0 0
v -399 0 0
v -398 -1 0
v -399 -1 0
v -399 0 0
v -398 0 0
v -397 -1 0
v -398 -1 0
v -398 0 0
v -397 0 0
v -396 -1 0
v -397 -1 0
v -397 0 0
v -396 0 0
v -395 -1 0
v -396 -1 0
v -396 0 0
v -395 0 0
v -394 -1 0
v -395 -1 0
v -395 0 0
v -394 0 0
v -393 -1 0
v -394 -1 0
v -394 0 0
v -393 0 0
v -392 -1 0
v -393 -1 0
v -393 0 0
v -392 0 0
v -391 -1 0
v -392 -1 0
v -392 0 0
v -391 0 0
v -390 -1 0
v -391 -1 0
v -391 0 0
v -390 0 0
v -389 -1 0
v -390 -1 0
v -390 0 0
v -389 0 0
v -388 -1 0
v -389 -1 0
v -389 0 0
v -388 0 0
v -387 -1 0
v -388 -1 0
v -388 0 0
v -387 0 0
v -386 -1 0
v -387 -1 0
v -387 0 0
v -386 0 0
v -385 -1 0
v -386 -1 0
v -386 0 0
v -385 0 0
v -384 -1 0
v -385 -1 0
v -385 0 0
v -384 0 0
v -383 -1 0
v -384 -1 0
v -384 0 0
v -383 0 0
v -382 -1 0
v -383 -1 0
v -383 0 0
v -382 0 0
v -381 -1 0
v -382 -1 0
v -382 0 0
v -381 0 0
v -380 -1 0
v -381 -1 0
v -381 0 0
v -380 0 0

# Texture cooridinates (Count = 117)
vt 0.93 0.89
vt 0.94 0.89
vt 0.94 0.9
vt 0.93 0.9
vt 0.92 0.89
vt 0.92 0.9
vt 0.91 0.89
vt 0.91 0.9
vt 0.85 0.95
vt 0.86 0.95
vt 0.86 0.96
vt 0.85 0.96
vt 0.78 0.95
vt 0.79 0.95
vt 0.79 0.96
vt 0.78 0.96
vt 0.77 0.95
vt 0.77 0.96
vt 0.76 0.95
vt 0.76 0.96
vt 0.75 0.95
vt 0.75 0.96
vt 0.73 0.95
vt 0.74 0.95
vt 0.74 0.96
vt 0.73 0.96
vt 0.92 0.88
vt 0.93 0.88
vt 0.91 0.88
vt 0.9 0.88
vt 0.9 0.89
vt 0.94 0.91
vt 0.93 0.91
vt 0.92 0.91
vt 0.91 0.91
vt 0.9 0.9
vt 0.9 0.91
vt 0.89 0.9
vt 0.89 0.91
vt 0.94 0.88
vt 0.96 0.88
vt 0.95 0.88
vt 0.95 0.89
vt 0.96 0.89
vt 0.97 0.88
vt 0.97 0.89
vt 0.98 0.88
vt 0.98 0.89
vt 0.99 0.88
vt 0.99 0.89
vt 0.95 0.9
vt 0.96 0.9
vt 0.97 0.9
vt 0.98 0.9
vt 0.99 0.9
vt 0.95 0.91
vt 0.96 0.91
vt 0.97 0.91
vt 0.98 0.91
vt 0.99 0.91
vt 0.93 0.95
vt 0.94 0.95
vt 0.94 0.96
vt 0.93 0.96
vt 0.95 0.95
vt 0.96 0.95
vt 0.96 0.96
vt 0.95 0.96
vt 0.92 0.95
vt 0.92 0.96
vt 0.97 0.95
vt 0.97 0.96
vt 0.83 0.87
vt 0.84 0.87
vt 0.84 0.88
vt 0.83 0.88
vt 0.77 0.88
vt 0.78 0.88
vt 0.78 0.89
vt 0.77 0.89
vt 0.76 0.88
vt 0.76 0.89
vt 0.8 0.87
vt 0.81 0.87
vt 0.81 0.88
vt 0.8 0.88
vt 0.84 0.89
vt 0.83 0.89
vt 0.78 0.9
vt 0.77 0.9
vt 0.76 0.9
vt 0.81 0.89
vt 0.8 0.89
vt 0.84 0.9
vt 0.83 0.9
vt 0.78 0.91
vt 0.77 0.91
vt 0.76 0.91
vt 0.81 0.9
vt 0.8 0.9
vt 0.84 0.91
vt 0.83 0.91
vt 0.78 0.92
vt 0.77 0.92
vt 0.76 0.92
vt 0.81 0.91
vt 0.8 0.91
vt 0.39 0.87
vt 0.4 0.87
vt 0.4 0.88
vt 0.39 0.88
vt 0.75 0.88
vt 0.75 0.89
vt 0.58 0.87
vt 0.59 0.87
vt 0.59 0.88
vt 0.58 0.88

# Normal
vn 0 0 -1

# Mesh description
g Nivel3_mesh_0011

# Faces
f 1/1/1 2/2/1 3/3/1 4/4/1
f 5/5/1 6/1/1 7/4/1 8/6/1
f 9/7/1 10/5/1 11/6/1 12/8/1
f 13/9/1 14/10/1 15/11/1 16/12/1
f 17/13/1 18/14/1 19/15/1 20/16/1
f 21/17/1 22/13/1 23/16/1 24/18/1
f 25/19/1 26/17/1 27/18/1 28/20/1
f 29/21/1 30/19/1 31/20/1 32/22/1
f 33/13/1 34/14/1 35/15/1 36/16/1
f 37/17/1 38/13/1 39/16/1 40/18/1
f 41/19/1 42/17/1 43/18/1 44/20/1
f 45/21/1 46/19/1 47/20/1 48/22/1
f 49/13/1 50/14/1 51/15/1 52/16/1
f 53/17/1 54/13/1 55/16/1 56/18/1
f 57/19/1 58/17/1 59/18/1 60/20/1
f 61/21/1 62/19/1 63/20/1 64/22/1
f 65/23/1 66/24/1 67/25/1 68/26/1
f 69/27/1 70/28/1 71/1/1 72/5/1
f 73/29/1 74/27/1 75/5/1 76/7/1
f 77/30/1 78/29/1 79/7/1 80/31/1
f 81/4/1 82/3/1 83/32/1 84/33/1
f 85/6/1 86/4/1 87/33/1 88/34/1
f 89/8/1 90/6/1 91/34/1 92/35/1
f 93/36/1 94/8/1 95/35/1 96/37/1
f 97/38/1 98/36/1 99/37/1 100/39/1
f 101/1/1 102/2/1 103/3/1 104/4/1
f 105/5/1 106/1/1 107/4/1 108/6/1
f 109/7/1 110/5/1 111/6/1 112/8/1
f 113/31/1 114/7/1 115/8/1 116/36/1
f 117/28/1 118/40/1 119/2/1 120/1/1
f 121/27/1 122/28/1 123/1/1 124/5/1
f 125/29/1 126/27/1 127/5/1 128/7/1
f 129/30/1 130/29/1 131/7/1 132/31/1
f 133/4/1 134/3/1 135/32/1 136/33/1
f 137/6/1 138/4/1 139/33/1 140/34/1
f 141/8/1 142/6/1 143/34/1 144/35/1
f 145/36/1 146/8/1 147/35/1 148/37/1
f 149/41/1 150/42/1 151/43/1 152/44/1
f 153/45/1 154/41/1 155/44/1 156/46/1
f 157/47/1 158/45/1 159/46/1 160/48/1
f 161/49/1 162/47/1 163/48/1 164/50/1
f 165/41/1 166/42/1 167/43/1 168/44/1
f 169/45/1 170/41/1 171/44/1 172/46/1
f 173/47/1 174/45/1 175/46/1 176/48/1
f 177/49/1 178/47/1 179/48/1 180/50/1
f 181/44/1 182/43/1 183/51/1 184/52/1
f 185/46/1 186/44/1 187/52/1 188/53/1
f 189/48/1 190/46/1 191/53/1 192/54/1
f 193/50/1 194/48/1 195/54/1 196/55/1
f 197/44/1 198/43/1 199/51/1 200/52/1
f 201/46/1 202/44/1 203/52/1 204/53/1
f 205/48/1 206/46/1 207/53/1 208/54/1
f 209/50/1 210/48/1 211/54/1 212/55/1
f 213/52/1 214/51/1 215/56/1 216/57/1
f 217/53/1 218/52/1 219/57/1 220/58/1
f 221/54/1 222/53/1 223/58/1 224/59/1
f 225/55/1 226/54/1 227/59/1 228/60/1
f 229/52/1 230/51/1 231/56/1 232/57/1
f 233/53/1 234/52/1 235/57/1 236/58/1
f 237/54/1 238/53/1 239/58/1 240/59/1
f 241/55/1 242/54/1 243/59/1 244/60/1
f 245/61/1 246/62/1 247/63/1 248/64/1
f 249/17/1 250/13/1 251/16/1 252/18/1
f 253/19/1 254/17/1 255/18/1 256/20/1
f 257/65/1 258/66/1 259/67/1 260/68/1
f 261/61/1 262/62/1 263/63/1 264/64/1
f 265/69/1 266/61/1 267/64/1 268/70/1
f 269/66/1 270/71/1 271/72/1 272/67/1
f 273/65/1 274/66/1 275/67/1 276/68/1
f 277/73/1 278/74/1 279/75/1 280/76/1
f 281/77/1 282/78/1 283/79/1 284/80/1
f 285/81/1 286/77/1 287/80/1 288/82/1
f 289/83/1 290/84/1 291/85/1 292/86/1
f 293/73/1 294/74/1 295/75/1 296/76/1
f 297/77/1 298/78/1 299/79/1 300/80/1
f 301/81/1 302/77/1 303/80/1 304/82/1
f 305/83/1 306/84/1 307/85/1 308/86/1
f 309/76/1 310/75/1 311/87/1 312/88/1
f 313/80/1 314/79/1 315/89/1 316/90/1
f 317/82/1 318/80/1 319/90/1 320/91/1
f 321/86/1 322/85/1 323/92/1 324/93/1
f 325/76/1 326/75/1 327/87/1 328/88/1
f 329/80/1 330/79/1 331/89/1 332/90/1
f 333/82/1 334/80/1 335/90/1 336/91/1
f 337/86/1 338/85/1 339/92/1 340/93/1
f 341/88/1 342/87/1 343/94/1 344/95/1
f 345/90/1 346/89/1 347/96/1 348/97/1
f 349/91/1 350/90/1 351/97/1 352/98/1
f 353/93/1 354/92/1 355/99/1 356/100/1
f 357/88/1 358/87/1 359/94/1 360/95/1
f 361/90/1 362/89/1 363/96/1 364/97/1
f 365/91/1 366/90/1 367/97/1 368/98/1
f 369/93/1 370/92/1 371/99/1 372/100/1
f 373/95/1 374/94/1 375/101/1 376/102/1
f 377/97/1 378/96/1 379/103/1 380/104/1
f 381/98/1 382/97/1 383/104/1 384/105/1
f 385/100/1 386/99/1 387/106/1 388/107/1
f 389/108/1 390/109/1 391/110/1 392/111/1
f 393/77/1 394/78/1 395/79/1 396/80/1
f 397/81/1 398/77/1 399/80/1 400/82/1
f 401/112/1 402/81/1 403/82/1 404/113/1
f 405/112/1 406/81/1 407/82/1 408/113/1
f 409/112/1 410/81/1 411/82/1 412/113/1
f 413/112/1 414/81/1 415/82/1 416/113/1
f 417/112/1 418/81/1 419/82/1 420/113/1
f 421/112/1 422/81/1 423/82/1 424/113/1
f 425/112/1 426/81/1 427/82/1 428/113/1
f 429/112/1 430/81/1 431/82/1 432/113/1
f 433/114/1 434/115/1 435/116/1 436/117/1
f 437/95/1 438/94/1 439/101/1 440/102/1
f 441/97/1 442/96/1 443/103/1 444/104/1
f 445/98/1 446/97/1 447/104/1 448/105/1
f 449/100/1 450/99/1 451/106/1 452/107/1

