# Tiled2Unity generated file. Do not modify by hand.
# Wavefront file for 'Nivel3_mesh_0010.obj'

# Vertices (Count = 256)
v -11 -12 0
v -12 -12 0
v -12 -11 0
v -11 -11 0
v -10 -12 0
v -11 -12 0
v -11 -11 0
v -10 -11 0
v -9 -12 0
v -10 -12 0
v -10 -11 0
v -9 -11 0
v -8 -12 0
v -9 -12 0
v -9 -11 0
v -8 -11 0
v -7 -12 0
v -8 -12 0
v -8 -11 0
v -7 -11 0
v -6 -12 0
v -7 -12 0
v -7 -11 0
v -6 -11 0
v -5 -12 0
v -6 -12 0
v -6 -11 0
v -5 -11 0
v -4 -12 0
v -5 -12 0
v -5 -11 0
v -4 -11 0
v -11 -11 0
v -12 -11 0
v -12 -10 0
v -11 -10 0
v -10 -11 0
v -11 -11 0
v -11 -10 0
v -10 -10 0
v -9 -11 0
v -10 -11 0
v -10 -10 0
v -9 -10 0
v -8 -11 0
v -9 -11 0
v -9 -10 0
v -8 -10 0
v -7 -11 0
v -8 -11 0
v -8 -10 0
v -7 -10 0
v -6 -11 0
v -7 -11 0
v -7 -10 0
v -6 -10 0
v -5 -11 0
v -6 -11 0
v -6 -10 0
v -5 -10 0
v -4 -11 0
v -5 -11 0
v -5 -10 0
v -4 -10 0
v -11 -10 0
v -12 -10 0
v -12 -9 0
v -11 -9 0
v -10 -10 0
v -11 -10 0
v -11 -9 0
v -10 -9 0
v -9 -10 0
v -10 -10 0
v -10 -9 0
v -9 -9 0
v -8 -10 0
v -9 -10 0
v -9 -9 0
v -8 -9 0
v -7 -10 0
v -8 -10 0
v -8 -9 0
v -7 -9 0
v -6 -10 0
v -7 -10 0
v -7 -9 0
v -6 -9 0
v -5 -10 0
v -6 -10 0
v -6 -9 0
v -5 -9 0
v -4 -10 0
v -5 -10 0
v -5 -9 0
v -4 -9 0
v -11 -9 0
v -12 -9 0
v -12 -8 0
v -11 -8 0
v -10 -9 0
v -11 -9 0
v -11 -8 0
v -10 -8 0
v -9 -9 0
v -10 -9 0
v -10 -8 0
v -9 -8 0
v -8 -9 0
v -9 -9 0
v -9 -8 0
v -8 -8 0
v -7 -9 0
v -8 -9 0
v -8 -8 0
v -7 -8 0
v -6 -9 0
v -7 -9 0
v -7 -8 0
v -6 -8 0
v -5 -9 0
v -6 -9 0
v -6 -8 0
v -5 -8 0
v -4 -9 0
v -5 -9 0
v -5 -8 0
v -4 -8 0
v -11 -8 0
v -12 -8 0
v -12 -7 0
v -11 -7 0
v -10 -8 0
v -11 -8 0
v -11 -7 0
v -10 -7 0
v -9 -8 0
v -10 -8 0
v -10 -7 0
v -9 -7 0
v -8 -8 0
v -9 -8 0
v -9 -7 0
v -8 -7 0
v -7 -8 0
v -8 -8 0
v -8 -7 0
v -7 -7 0
v -6 -8 0
v -7 -8 0
v -7 -7 0
v -6 -7 0
v -5 -8 0
v -6 -8 0
v -6 -7 0
v -5 -7 0
v -4 -8 0
v -5 -8 0
v -5 -7 0
v -4 -7 0
v -11 -7 0
v -12 -7 0
v -12 -6 0
v -11 -6 0
v -10 -7 0
v -11 -7 0
v -11 -6 0
v -10 -6 0
v -9 -7 0
v -10 -7 0
v -10 -6 0
v -9 -6 0
v -8 -7 0
v -9 -7 0
v -9 -6 0
v -8 -6 0
v -7 -7 0
v -8 -7 0
v -8 -6 0
v -7 -6 0
v -6 -7 0
v -7 -7 0
v -7 -6 0
v -6 -6 0
v -5 -7 0
v -6 -7 0
v -6 -6 0
v -5 -6 0
v -4 -7 0
v -5 -7 0
v -5 -6 0
v -4 -6 0
v -11 -6 0
v -12 -6 0
v -12 -5 0
v -11 -5 0
v -10 -6 0
v -11 -6 0
v -11 -5 0
v -10 -5 0
v -9 -6 0
v -10 -6 0
v -10 -5 0
v -9 -5 0
v -8 -6 0
v -9 -6 0
v -9 -5 0
v -8 -5 0
v -7 -6 0
v -8 -6 0
v -8 -5 0
v -7 -5 0
v -6 -6 0
v -7 -6 0
v -7 -5 0
v -6 -5 0
v -5 -6 0
v -6 -6 0
v -6 -5 0
v -5 -5 0
v -4 -6 0
v -5 -6 0
v -5 -5 0
v -4 -5 0
v -11 -5 0
v -12 -5 0
v -12 -4 0
v -11 -4 0
v -10 -5 0
v -11 -5 0
v -11 -4 0
v -10 -4 0
v -9 -5 0
v -10 -5 0
v -10 -4 0
v -9 -4 0
v -8 -5 0
v -9 -5 0
v -9 -4 0
v -8 -4 0
v -7 -5 0
v -8 -5 0
v -8 -4 0
v -7 -4 0
v -6 -5 0
v -7 -5 0
v -7 -4 0
v -6 -4 0
v -5 -5 0
v -6 -5 0
v -6 -4 0
v -5 -4 0
v -4 -5 0
v -5 -5 0
v -5 -4 0
v -4 -4 0

# Texture cooridinates (Count = 30)
vt 0.7837838 0.4054054
vt 0.8108108 0.4054054
vt 0.8108108 0.4324324
vt 0.7837838 0.4324324
vt 0.7567568 0.4054054
vt 0.7567568 0.4324324
vt 0.7297297 0.4054054
vt 0.7297297 0.4324324
vt 0.7027027 0.4054054
vt 0.7027027 0.4324324
vt 0.7297297 0.4594595
vt 0.7027027 0.4594595
vt 0.7297297 0.4864865
vt 0.7027027 0.4864865
vt 0.7297297 0.5135135
vt 0.7027027 0.5135135
vt 0.8108108 0.4594595
vt 0.7837838 0.4594595
vt 0.7567568 0.4594595
vt 0.7297297 0.5405406
vt 0.7027027 0.5405406
vt 0.8108108 0.4864865
vt 0.7837838 0.4864865
vt 0.7567568 0.4864865
vt 0.7837838 0.5135135
vt 0.8108108 0.5135135
vt 0.8108108 0.5405406
vt 0.7837838 0.5405406
vt 0.7567568 0.5135135
vt 0.7567568 0.5405406

# Normal
vn 0 0 -1

# Mesh description
g Nivel3_mesh_0010

# Faces
f 1/1/1 2/2/1 3/3/1 4/4/1
f 5/5/1 6/1/1 7/4/1 8/6/1
f 9/7/1 10/5/1 11/6/1 12/8/1
f 13/9/1 14/7/1 15/8/1 16/10/1
f 17/9/1 18/7/1 19/8/1 20/10/1
f 21/9/1 22/7/1 23/8/1 24/10/1
f 25/9/1 26/7/1 27/8/1 28/10/1
f 29/9/1 30/7/1 31/8/1 32/10/1
f 33/1/1 34/2/1 35/3/1 36/4/1
f 37/5/1 38/1/1 39/4/1 40/6/1
f 41/7/1 42/5/1 43/6/1 44/8/1
f 45/9/1 46/7/1 47/8/1 48/10/1
f 49/10/1 50/8/1 51/11/1 52/12/1
f 53/10/1 54/8/1 55/11/1 56/12/1
f 57/10/1 58/8/1 59/11/1 60/12/1
f 61/10/1 62/8/1 63/11/1 64/12/1
f 65/1/1 66/2/1 67/3/1 68/4/1
f 69/5/1 70/1/1 71/4/1 72/6/1
f 73/7/1 74/5/1 75/6/1 76/8/1
f 77/9/1 78/7/1 79/8/1 80/10/1
f 81/12/1 82/11/1 83/13/1 84/14/1
f 85/12/1 86/11/1 87/13/1 88/14/1
f 89/12/1 90/11/1 91/13/1 92/14/1
f 93/12/1 94/11/1 95/13/1 96/14/1
f 97/1/1 98/2/1 99/3/1 100/4/1
f 101/5/1 102/1/1 103/4/1 104/6/1
f 105/7/1 106/5/1 107/6/1 108/8/1
f 109/9/1 110/7/1 111/8/1 112/10/1
f 113/14/1 114/13/1 115/15/1 116/16/1
f 117/14/1 118/13/1 119/15/1 120/16/1
f 121/14/1 122/13/1 123/15/1 124/16/1
f 125/14/1 126/13/1 127/15/1 128/16/1
f 129/4/1 130/3/1 131/17/1 132/18/1
f 133/6/1 134/4/1 135/18/1 136/19/1
f 137/8/1 138/6/1 139/19/1 140/11/1
f 141/10/1 142/8/1 143/11/1 144/12/1
f 145/16/1 146/15/1 147/20/1 148/21/1
f 149/16/1 150/15/1 151/20/1 152/21/1
f 153/16/1 154/15/1 155/20/1 156/21/1
f 157/16/1 158/15/1 159/20/1 160/21/1
f 161/18/1 162/17/1 163/22/1 164/23/1
f 165/19/1 166/18/1 167/23/1 168/24/1
f 169/11/1 170/19/1 171/24/1 172/13/1
f 173/12/1 174/11/1 175/13/1 176/14/1
f 177/25/1 178/26/1 179/27/1 180/28/1
f 181/29/1 182/25/1 183/28/1 184/30/1
f 185/15/1 186/29/1 187/30/1 188/20/1
f 189/16/1 190/15/1 191/20/1 192/21/1
f 193/23/1 194/22/1 195/26/1 196/25/1
f 197/24/1 198/23/1 199/25/1 200/29/1
f 201/13/1 202/24/1 203/29/1 204/15/1
f 205/14/1 206/13/1 207/15/1 208/16/1
f 209/29/1 210/25/1 211/28/1 212/30/1
f 213/15/1 214/29/1 215/30/1 216/20/1
f 217/16/1 218/15/1 219/20/1 220/21/1
f 221/16/1 222/15/1 223/20/1 224/21/1
f 225/25/1 226/26/1 227/27/1 228/28/1
f 229/29/1 230/25/1 231/28/1 232/30/1
f 233/15/1 234/29/1 235/30/1 236/20/1
f 237/16/1 238/15/1 239/20/1 240/21/1
f 241/25/1 242/26/1 243/27/1 244/28/1
f 245/29/1 246/25/1 247/28/1 248/30/1
f 249/15/1 250/29/1 251/30/1 252/20/1
f 253/16/1 254/15/1 255/20/1 256/21/1

