# Tiled2Unity generated file. Do not modify by hand.
# Wavefront file for 'Nivel3_mesh_0002.obj'

# Vertices (Count = 1064)
v -171 -16 0
v -172 -16 0
v -172 -15 0
v -171 -15 0
v -170 -16 0
v -171 -16 0
v -171 -15 0
v -170 -15 0
v -169 -16 0
v -170 -16 0
v -170 -15 0
v -169 -15 0
v -168 -16 0
v -169 -16 0
v -169 -15 0
v -168 -15 0
v -167 -16 0
v -168 -16 0
v -168 -15 0
v -167 -15 0
v -166 -16 0
v -167 -16 0
v -167 -15 0
v -166 -15 0
v -165 -16 0
v -166 -16 0
v -166 -15 0
v -165 -15 0
v -164 -16 0
v -165 -16 0
v -165 -15 0
v -164 -15 0
v -163 -16 0
v -164 -16 0
v -164 -15 0
v -163 -15 0
v -162 -16 0
v -163 -16 0
v -163 -15 0
v -162 -15 0
v -161 -16 0
v -162 -16 0
v -162 -15 0
v -161 -15 0
v -160 -16 0
v -161 -16 0
v -161 -15 0
v -160 -15 0
v -159 -16 0
v -160 -16 0
v -160 -15 0
v -159 -15 0
v -158 -16 0
v -159 -16 0
v -159 -15 0
v -158 -15 0
v -157 -16 0
v -158 -16 0
v -158 -15 0
v -157 -15 0
v -156 -16 0
v -157 -16 0
v -157 -15 0
v -156 -15 0
v -155 -16 0
v -156 -16 0
v -156 -15 0
v -155 -15 0
v -171 -15 0
v -172 -15 0
v -172 -14 0
v -171 -14 0
v -170 -15 0
v -171 -15 0
v -171 -14 0
v -170 -14 0
v -169 -15 0
v -170 -15 0
v -170 -14 0
v -169 -14 0
v -168 -15 0
v -169 -15 0
v -169 -14 0
v -168 -14 0
v -167 -15 0
v -168 -15 0
v -168 -14 0
v -167 -14 0
v -166 -15 0
v -167 -15 0
v -167 -14 0
v -166 -14 0
v -165 -15 0
v -166 -15 0
v -166 -14 0
v -165 -14 0
v -164 -15 0
v -165 -15 0
v -165 -14 0
v -164 -14 0
v -163 -15 0
v -164 -15 0
v -164 -14 0
v -163 -14 0
v -162 -15 0
v -163 -15 0
v -163 -14 0
v -162 -14 0
v -161 -15 0
v -162 -15 0
v -162 -14 0
v -161 -14 0
v -160 -15 0
v -161 -15 0
v -161 -14 0
v -160 -14 0
v -159 -15 0
v -160 -15 0
v -160 -14 0
v -159 -14 0
v -158 -15 0
v -159 -15 0
v -159 -14 0
v -158 -14 0
v -157 -15 0
v -158 -15 0
v -158 -14 0
v -157 -14 0
v -156 -15 0
v -157 -15 0
v -157 -14 0
v -156 -14 0
v -155 -15 0
v -156 -15 0
v -156 -14 0
v -155 -14 0
v -154 -15 0
v -155 -15 0
v -155 -14 0
v -154 -14 0
v -170 -14 0
v -171 -14 0
v -171 -13 0
v -170 -13 0
v -169 -14 0
v -170 -14 0
v -170 -13 0
v -169 -13 0
v -168 -14 0
v -169 -14 0
v -169 -13 0
v -168 -13 0
v -167 -14 0
v -168 -14 0
v -168 -13 0
v -167 -13 0
v -166 -14 0
v -167 -14 0
v -167 -13 0
v -166 -13 0
v -165 -14 0
v -166 -14 0
v -166 -13 0
v -165 -13 0
v -164 -14 0
v -165 -14 0
v -165 -13 0
v -164 -13 0
v -163 -14 0
v -164 -14 0
v -164 -13 0
v -163 -13 0
v -162 -14 0
v -163 -14 0
v -163 -13 0
v -162 -13 0
v -161 -14 0
v -162 -14 0
v -162 -13 0
v -161 -13 0
v -160 -14 0
v -161 -14 0
v -161 -13 0
v -160 -13 0
v -159 -14 0
v -160 -14 0
v -160 -13 0
v -159 -13 0
v -158 -14 0
v -159 -14 0
v -159 -13 0
v -158 -13 0
v -157 -14 0
v -158 -14 0
v -158 -13 0
v -157 -13 0
v -156 -14 0
v -157 -14 0
v -157 -13 0
v -156 -13 0
v -155 -14 0
v -156 -14 0
v -156 -13 0
v -155 -13 0
v -154 -14 0
v -155 -14 0
v -155 -13 0
v -154 -13 0
v -170 -13 0
v -171 -13 0
v -171 -12 0
v -170 -12 0
v -169 -13 0
v -170 -13 0
v -170 -12 0
v -169 -12 0
v -168 -13 0
v -169 -13 0
v -169 -12 0
v -168 -12 0
v -167 -13 0
v -168 -13 0
v -168 -12 0
v -167 -12 0
v -166 -13 0
v -167 -13 0
v -167 -12 0
v -166 -12 0
v -165 -13 0
v -166 -13 0
v -166 -12 0
v -165 -12 0
v -164 -13 0
v -165 -13 0
v -165 -12 0
v -164 -12 0
v -163 -13 0
v -164 -13 0
v -164 -12 0
v -163 -12 0
v -162 -13 0
v -163 -13 0
v -163 -12 0
v -162 -12 0
v -161 -13 0
v -162 -13 0
v -162 -12 0
v -161 -12 0
v -160 -13 0
v -161 -13 0
v -161 -12 0
v -160 -12 0
v -159 -13 0
v -160 -13 0
v -160 -12 0
v -159 -12 0
v -158 -13 0
v -159 -13 0
v -159 -12 0
v -158 -12 0
v -157 -13 0
v -158 -13 0
v -158 -12 0
v -157 -12 0
v -156 -13 0
v -157 -13 0
v -157 -12 0
v -156 -12 0
v -155 -13 0
v -156 -13 0
v -156 -12 0
v -155 -12 0
v -154 -13 0
v -155 -13 0
v -155 -12 0
v -154 -12 0
v -169 -12 0
v -170 -12 0
v -170 -11 0
v -169 -11 0
v -168 -12 0
v -169 -12 0
v -169 -11 0
v -168 -11 0
v -167 -12 0
v -168 -12 0
v -168 -11 0
v -167 -11 0
v -166 -12 0
v -167 -12 0
v -167 -11 0
v -166 -11 0
v -165 -12 0
v -166 -12 0
v -166 -11 0
v -165 -11 0
v -164 -12 0
v -165 -12 0
v -165 -11 0
v -164 -11 0
v -163 -12 0
v -164 -12 0
v -164 -11 0
v -163 -11 0
v -162 -12 0
v -163 -12 0
v -163 -11 0
v -162 -11 0
v -161 -12 0
v -162 -12 0
v -162 -11 0
v -161 -11 0
v -160 -12 0
v -161 -12 0
v -161 -11 0
v -160 -11 0
v -159 -12 0
v -160 -12 0
v -160 -11 0
v -159 -11 0
v -158 -12 0
v -159 -12 0
v -159 -11 0
v -158 -11 0
v -157 -12 0
v -158 -12 0
v -158 -11 0
v -157 -11 0
v -156 -12 0
v -157 -12 0
v -157 -11 0
v -156 -11 0
v -155 -12 0
v -156 -12 0
v -156 -11 0
v -155 -11 0
v -154 -12 0
v -155 -12 0
v -155 -11 0
v -154 -11 0
v -169 -11 0
v -170 -11 0
v -170 -10 0
v -169 -10 0
v -168 -11 0
v -169 -11 0
v -169 -10 0
v -168 -10 0
v -167 -11 0
v -168 -11 0
v -168 -10 0
v -167 -10 0
v -166 -11 0
v -167 -11 0
v -167 -10 0
v -166 -10 0
v -165 -11 0
v -166 -11 0
v -166 -10 0
v -165 -10 0
v -164 -11 0
v -165 -11 0
v -165 -10 0
v -164 -10 0
v -163 -11 0
v -164 -11 0
v -164 -10 0
v -163 -10 0
v -162 -11 0
v -163 -11 0
v -163 -10 0
v -162 -10 0
v -161 -11 0
v -162 -11 0
v -162 -10 0
v -161 -10 0
v -160 -11 0
v -161 -11 0
v -161 -10 0
v -160 -10 0
v -159 -11 0
v -160 -11 0
v -160 -10 0
v -159 -10 0
v -158 -11 0
v -159 -11 0
v -159 -10 0
v -158 -10 0
v -157 -11 0
v -158 -11 0
v -158 -10 0
v -157 -10 0
v -156 -11 0
v -157 -11 0
v -157 -10 0
v -156 -10 0
v -155 -11 0
v -156 -11 0
v -156 -10 0
v -155 -10 0
v -154 -11 0
v -155 -11 0
v -155 -10 0
v -154 -10 0
v -169 -10 0
v -170 -10 0
v -170 -9 0
v -169 -9 0
v -168 -10 0
v -169 -10 0
v -169 -9 0
v -168 -9 0
v -167 -10 0
v -168 -10 0
v -168 -9 0
v -167 -9 0
v -166 -10 0
v -167 -10 0
v -167 -9 0
v -166 -9 0
v -165 -10 0
v -166 -10 0
v -166 -9 0
v -165 -9 0
v -164 -10 0
v -165 -10 0
v -165 -9 0
v -164 -9 0
v -163 -10 0
v -164 -10 0
v -164 -9 0
v -163 -9 0
v -162 -10 0
v -163 -10 0
v -163 -9 0
v -162 -9 0
v -161 -10 0
v -162 -10 0
v -162 -9 0
v -161 -9 0
v -160 -10 0
v -161 -10 0
v -161 -9 0
v -160 -9 0
v -159 -10 0
v -160 -10 0
v -160 -9 0
v -159 -9 0
v -158 -10 0
v -159 -10 0
v -159 -9 0
v -158 -9 0
v -157 -10 0
v -158 -10 0
v -158 -9 0
v -157 -9 0
v -156 -10 0
v -157 -10 0
v -157 -9 0
v -156 -9 0
v -155 -10 0
v -156 -10 0
v -156 -9 0
v -155 -9 0
v -154 -10 0
v -155 -10 0
v -155 -9 0
v -154 -9 0
v -169 -9 0
v -170 -9 0
v -170 -8 0
v -169 -8 0
v -168 -9 0
v -169 -9 0
v -169 -8 0
v -168 -8 0
v -167 -9 0
v -168 -9 0
v -168 -8 0
v -167 -8 0
v -166 -9 0
v -167 -9 0
v -167 -8 0
v -166 -8 0
v -165 -9 0
v -166 -9 0
v -166 -8 0
v -165 -8 0
v -164 -9 0
v -165 -9 0
v -165 -8 0
v -164 -8 0
v -163 -9 0
v -164 -9 0
v -164 -8 0
v -163 -8 0
v -162 -9 0
v -163 -9 0
v -163 -8 0
v -162 -8 0
v -161 -9 0
v -162 -9 0
v -162 -8 0
v -161 -8 0
v -160 -9 0
v -161 -9 0
v -161 -8 0
v -160 -8 0
v -159 -9 0
v -160 -9 0
v -160 -8 0
v -159 -8 0
v -158 -9 0
v -159 -9 0
v -159 -8 0
v -158 -8 0
v -157 -9 0
v -158 -9 0
v -158 -8 0
v -157 -8 0
v -156 -9 0
v -157 -9 0
v -157 -8 0
v -156 -8 0
v -155 -9 0
v -156 -9 0
v -156 -8 0
v -155 -8 0
v -154 -9 0
v -155 -9 0
v -155 -8 0
v -154 -8 0
v -169 -8 0
v -170 -8 0
v -170 -7 0
v -169 -7 0
v -168 -8 0
v -169 -8 0
v -169 -7 0
v -168 -7 0
v -167 -8 0
v -168 -8 0
v -168 -7 0
v -167 -7 0
v -166 -8 0
v -167 -8 0
v -167 -7 0
v -166 -7 0
v -165 -8 0
v -166 -8 0
v -166 -7 0
v -165 -7 0
v -164 -8 0
v -165 -8 0
v -165 -7 0
v -164 -7 0
v -163 -8 0
v -164 -8 0
v -164 -7 0
v -163 -7 0
v -162 -8 0
v -163 -8 0
v -163 -7 0
v -162 -7 0
v -161 -8 0
v -162 -8 0
v -162 -7 0
v -161 -7 0
v -160 -8 0
v -161 -8 0
v -161 -7 0
v -160 -7 0
v -159 -8 0
v -160 -8 0
v -160 -7 0
v -159 -7 0
v -158 -8 0
v -159 -8 0
v -159 -7 0
v -158 -7 0
v -157 -8 0
v -158 -8 0
v -158 -7 0
v -157 -7 0
v -156 -8 0
v -157 -8 0
v -157 -7 0
v -156 -7 0
v -155 -8 0
v -156 -8 0
v -156 -7 0
v -155 -7 0
v -154 -8 0
v -155 -8 0
v -155 -7 0
v -154 -7 0
v -169 -7 0
v -170 -7 0
v -170 -6 0
v -169 -6 0
v -168 -7 0
v -169 -7 0
v -169 -6 0
v -168 -6 0
v -167 -7 0
v -168 -7 0
v -168 -6 0
v -167 -6 0
v -166 -7 0
v -167 -7 0
v -167 -6 0
v -166 -6 0
v -165 -7 0
v -166 -7 0
v -166 -6 0
v -165 -6 0
v -164 -7 0
v -165 -7 0
v -165 -6 0
v -164 -6 0
v -163 -7 0
v -164 -7 0
v -164 -6 0
v -163 -6 0
v -162 -7 0
v -163 -7 0
v -163 -6 0
v -162 -6 0
v -161 -7 0
v -162 -7 0
v -162 -6 0
v -161 -6 0
v -160 -7 0
v -161 -7 0
v -161 -6 0
v -160 -6 0
v -159 -7 0
v -160 -7 0
v -160 -6 0
v -159 -6 0
v -158 -7 0
v -159 -7 0
v -159 -6 0
v -158 -6 0
v -157 -7 0
v -158 -7 0
v -158 -6 0
v -157 -6 0
v -156 -7 0
v -157 -7 0
v -157 -6 0
v -156 -6 0
v -155 -7 0
v -156 -7 0
v -156 -6 0
v -155 -6 0
v -154 -7 0
v -155 -7 0
v -155 -6 0
v -154 -6 0
v -169 -6 0
v -170 -6 0
v -170 -5 0
v -169 -5 0
v -168 -6 0
v -169 -6 0
v -169 -5 0
v -168 -5 0
v -167 -6 0
v -168 -6 0
v -168 -5 0
v -167 -5 0
v -166 -6 0
v -167 -6 0
v -167 -5 0
v -166 -5 0
v -165 -6 0
v -166 -6 0
v -166 -5 0
v -165 -5 0
v -164 -6 0
v -165 -6 0
v -165 -5 0
v -164 -5 0
v -163 -6 0
v -164 -6 0
v -164 -5 0
v -163 -5 0
v -162 -6 0
v -163 -6 0
v -163 -5 0
v -162 -5 0
v -161 -6 0
v -162 -6 0
v -162 -5 0
v -161 -5 0
v -160 -6 0
v -161 -6 0
v -161 -5 0
v -160 -5 0
v -159 -6 0
v -160 -6 0
v -160 -5 0
v -159 -5 0
v -158 -6 0
v -159 -6 0
v -159 -5 0
v -158 -5 0
v -157 -6 0
v -158 -6 0
v -158 -5 0
v -157 -5 0
v -156 -6 0
v -157 -6 0
v -157 -5 0
v -156 -5 0
v -155 -6 0
v -156 -6 0
v -156 -5 0
v -155 -5 0
v -154 -6 0
v -155 -6 0
v -155 -5 0
v -154 -5 0
v -169 -5 0
v -170 -5 0
v -170 -4 0
v -169 -4 0
v -168 -5 0
v -169 -5 0
v -169 -4 0
v -168 -4 0
v -167 -5 0
v -168 -5 0
v -168 -4 0
v -167 -4 0
v -166 -5 0
v -167 -5 0
v -167 -4 0
v -166 -4 0
v -165 -5 0
v -166 -5 0
v -166 -4 0
v -165 -4 0
v -164 -5 0
v -165 -5 0
v -165 -4 0
v -164 -4 0
v -163 -5 0
v -164 -5 0
v -164 -4 0
v -163 -4 0
v -162 -5 0
v -163 -5 0
v -163 -4 0
v -162 -4 0
v -161 -5 0
v -162 -5 0
v -162 -4 0
v -161 -4 0
v -160 -5 0
v -161 -5 0
v -161 -4 0
v -160 -4 0
v -159 -5 0
v -160 -5 0
v -160 -4 0
v -159 -4 0
v -158 -5 0
v -159 -5 0
v -159 -4 0
v -158 -4 0
v -157 -5 0
v -158 -5 0
v -158 -4 0
v -157 -4 0
v -156 -5 0
v -157 -5 0
v -157 -4 0
v -156 -4 0
v -155 -5 0
v -156 -5 0
v -156 -4 0
v -155 -4 0
v -154 -5 0
v -155 -5 0
v -155 -4 0
v -154 -4 0
v -169 -4 0
v -170 -4 0
v -170 -3 0
v -169 -3 0
v -168 -4 0
v -169 -4 0
v -169 -3 0
v -168 -3 0
v -167 -4 0
v -168 -4 0
v -168 -3 0
v -167 -3 0
v -166 -4 0
v -167 -4 0
v -167 -3 0
v -166 -3 0
v -165 -4 0
v -166 -4 0
v -166 -3 0
v -165 -3 0
v -164 -4 0
v -165 -4 0
v -165 -3 0
v -164 -3 0
v -163 -4 0
v -164 -4 0
v -164 -3 0
v -163 -3 0
v -162 -4 0
v -163 -4 0
v -163 -3 0
v -162 -3 0
v -161 -4 0
v -162 -4 0
v -162 -3 0
v -161 -3 0
v -160 -4 0
v -161 -4 0
v -161 -3 0
v -160 -3 0
v -159 -4 0
v -160 -4 0
v -160 -3 0
v -159 -3 0
v -158 -4 0
v -159 -4 0
v -159 -3 0
v -158 -3 0
v -157 -4 0
v -158 -4 0
v -158 -3 0
v -157 -3 0
v -156 -4 0
v -157 -4 0
v -157 -3 0
v -156 -3 0
v -155 -4 0
v -156 -4 0
v -156 -3 0
v -155 -3 0
v -154 -4 0
v -155 -4 0
v -155 -3 0
v -154 -3 0
v -153 -4 0
v -154 -4 0
v -154 -3 0
v -153 -3 0
v -169 -3 0
v -170 -3 0
v -170 -2 0
v -169 -2 0
v -168 -3 0
v -169 -3 0
v -169 -2 0
v -168 -2 0
v -167 -3 0
v -168 -3 0
v -168 -2 0
v -167 -2 0
v -166 -3 0
v -167 -3 0
v -167 -2 0
v -166 -2 0
v -165 -3 0
v -166 -3 0
v -166 -2 0
v -165 -2 0
v -164 -3 0
v -165 -3 0
v -165 -2 0
v -164 -2 0
v -163 -3 0
v -164 -3 0
v -164 -2 0
v -163 -2 0
v -162 -3 0
v -163 -3 0
v -163 -2 0
v -162 -2 0
v -161 -3 0
v -162 -3 0
v -162 -2 0
v -161 -2 0
v -160 -3 0
v -161 -3 0
v -161 -2 0
v -160 -2 0
v -159 -3 0
v -160 -3 0
v -160 -2 0
v -159 -2 0
v -158 -3 0
v -159 -3 0
v -159 -2 0
v -158 -2 0
v -157 -3 0
v -158 -3 0
v -158 -2 0
v -157 -2 0
v -156 -3 0
v -157 -3 0
v -157 -2 0
v -156 -2 0
v -155 -3 0
v -156 -3 0
v -156 -2 0
v -155 -2 0
v -154 -3 0
v -155 -3 0
v -155 -2 0
v -154 -2 0
v -153 -3 0
v -154 -3 0
v -154 -2 0
v -153 -2 0
v -169 -2 0
v -170 -2 0
v -170 -1 0
v -169 -1 0
v -168 -2 0
v -169 -2 0
v -169 -1 0
v -168 -1 0
v -167 -2 0
v -168 -2 0
v -168 -1 0
v -167 -1 0
v -166 -2 0
v -167 -2 0
v -167 -1 0
v -166 -1 0
v -165 -2 0
v -166 -2 0
v -166 -1 0
v -165 -1 0
v -164 -2 0
v -165 -2 0
v -165 -1 0
v -164 -1 0
v -163 -2 0
v -164 -2 0
v -164 -1 0
v -163 -1 0
v -162 -2 0
v -163 -2 0
v -163 -1 0
v -162 -1 0
v -161 -2 0
v -162 -2 0
v -162 -1 0
v -161 -1 0
v -160 -2 0
v -161 -2 0
v -161 -1 0
v -160 -1 0
v -159 -2 0
v -160 -2 0
v -160 -1 0
v -159 -1 0
v -158 -2 0
v -159 -2 0
v -159 -1 0
v -158 -1 0
v -157 -2 0
v -158 -2 0
v -158 -1 0
v -157 -1 0
v -156 -2 0
v -157 -2 0
v -157 -1 0
v -156 -1 0
v -155 -2 0
v -156 -2 0
v -156 -1 0
v -155 -1 0
v -154 -2 0
v -155 -2 0
v -155 -1 0
v -154 -1 0
v -153 -2 0
v -154 -2 0
v -154 -1 0
v -153 -1 0
v -169 -1 0
v -170 -1 0
v -170 0 0
v -169 0 0
v -168 -1 0
v -169 -1 0
v -169 0 0
v -168 0 0
v -167 -1 0
v -168 -1 0
v -168 0 0
v -167 0 0
v -166 -1 0
v -167 -1 0
v -167 0 0
v -166 0 0
v -165 -1 0
v -166 -1 0
v -166 0 0
v -165 0 0
v -164 -1 0
v -165 -1 0
v -165 0 0
v -164 0 0
v -163 -1 0
v -164 -1 0
v -164 0 0
v -163 0 0
v -162 -1 0
v -163 -1 0
v -163 0 0
v -162 0 0
v -161 -1 0
v -162 -1 0
v -162 0 0
v -161 0 0
v -160 -1 0
v -161 -1 0
v -161 0 0
v -160 0 0
v -159 -1 0
v -160 -1 0
v -160 0 0
v -159 0 0
v -158 -1 0
v -159 -1 0
v -159 0 0
v -158 0 0
v -157 -1 0
v -158 -1 0
v -158 0 0
v -157 0 0
v -156 -1 0
v -157 -1 0
v -157 0 0
v -156 0 0
v -155 -1 0
v -156 -1 0
v -156 0 0
v -155 0 0
v -154 -1 0
v -155 -1 0
v -155 0 0
v -154 0 0
v -153 -1 0
v -154 -1 0
v -154 0 0
v -153 0 0
v -152 -1 0
v -153 -1 0
v -153 0 0
v -152 0 0

# Texture cooridinates (Count = 9)
vt 0 0.5
vt 0.03333334 0.5
vt 0.03333334 0.5833334
vt 0 0.5833334
vt 0.06666667 0.5
vt 0.06666667 0.5833334
vt 0 0.4166667
vt 0.03333334 0.4166667
vt 0.06666667 0.4166667

# Normal
vn 0 0 -1

# Mesh description
g Nivel3_mesh_0002

# Faces
f 1/1/1 2/2/1 3/3/1 4/4/1
f 5/2/1 6/5/1 7/6/1 8/3/1
f 9/1/1 10/2/1 11/3/1 12/4/1
f 13/2/1 14/5/1 15/6/1 16/3/1
f 17/1/1 18/2/1 19/3/1 20/4/1
f 21/2/1 22/5/1 23/6/1 24/3/1
f 25/1/1 26/2/1 27/3/1 28/4/1
f 29/2/1 30/5/1 31/6/1 32/3/1
f 33/1/1 34/2/1 35/3/1 36/4/1
f 37/2/1 38/5/1 39/6/1 40/3/1
f 41/1/1 42/2/1 43/3/1 44/4/1
f 45/2/1 46/5/1 47/6/1 48/3/1
f 49/1/1 50/2/1 51/3/1 52/4/1
f 53/2/1 54/5/1 55/6/1 56/3/1
f 57/1/1 58/2/1 59/3/1 60/4/1
f 61/2/1 62/5/1 63/6/1 64/3/1
f 65/1/1 66/2/1 67/3/1 68/4/1
f 69/1/1 70/2/1 71/3/1 72/4/1
f 73/1/1 74/2/1 75/3/1 76/4/1
f 77/2/1 78/5/1 79/6/1 80/3/1
f 81/1/1 82/2/1 83/3/1 84/4/1
f 85/2/1 86/5/1 87/6/1 88/3/1
f 89/1/1 90/2/1 91/3/1 92/4/1
f 93/2/1 94/5/1 95/6/1 96/3/1
f 97/1/1 98/2/1 99/3/1 100/4/1
f 101/2/1 102/5/1 103/6/1 104/3/1
f 105/1/1 106/2/1 107/3/1 108/4/1
f 109/2/1 110/5/1 111/6/1 112/3/1
f 113/1/1 114/2/1 115/3/1 116/4/1
f 117/2/1 118/5/1 119/6/1 120/3/1
f 121/1/1 122/2/1 123/3/1 124/4/1
f 125/2/1 126/5/1 127/6/1 128/3/1
f 129/1/1 130/2/1 131/3/1 132/4/1
f 133/2/1 134/5/1 135/6/1 136/3/1
f 137/1/1 138/2/1 139/3/1 140/4/1
f 141/7/1 142/8/1 143/2/1 144/1/1
f 145/8/1 146/9/1 147/5/1 148/2/1
f 149/7/1 150/8/1 151/2/1 152/1/1
f 153/8/1 154/9/1 155/5/1 156/2/1
f 157/7/1 158/8/1 159/2/1 160/1/1
f 161/8/1 162/9/1 163/5/1 164/2/1
f 165/7/1 166/8/1 167/2/1 168/1/1
f 169/8/1 170/9/1 171/5/1 172/2/1
f 173/7/1 174/8/1 175/2/1 176/1/1
f 177/8/1 178/9/1 179/5/1 180/2/1
f 181/7/1 182/8/1 183/2/1 184/1/1
f 185/8/1 186/9/1 187/5/1 188/2/1
f 189/7/1 190/8/1 191/2/1 192/1/1
f 193/8/1 194/9/1 195/5/1 196/2/1
f 197/7/1 198/8/1 199/2/1 200/1/1
f 201/8/1 202/9/1 203/5/1 204/2/1
f 205/7/1 206/8/1 207/2/1 208/1/1
f 209/1/1 210/2/1 211/3/1 212/4/1
f 213/2/1 214/5/1 215/6/1 216/3/1
f 217/1/1 218/2/1 219/3/1 220/4/1
f 221/2/1 222/5/1 223/6/1 224/3/1
f 225/1/1 226/2/1 227/3/1 228/4/1
f 229/2/1 230/5/1 231/6/1 232/3/1
f 233/1/1 234/2/1 235/3/1 236/4/1
f 237/2/1 238/5/1 239/6/1 240/3/1
f 241/1/1 242/2/1 243/3/1 244/4/1
f 245/2/1 246/5/1 247/6/1 248/3/1
f 249/1/1 250/2/1 251/3/1 252/4/1
f 253/2/1 254/5/1 255/6/1 256/3/1
f 257/1/1 258/2/1 259/3/1 260/4/1
f 261/2/1 262/5/1 263/6/1 264/3/1
f 265/1/1 266/2/1 267/3/1 268/4/1
f 269/2/1 270/5/1 271/6/1 272/3/1
f 273/1/1 274/2/1 275/3/1 276/4/1
f 277/8/1 278/9/1 279/5/1 280/2/1
f 281/7/1 282/8/1 283/2/1 284/1/1
f 285/8/1 286/9/1 287/5/1 288/2/1
f 289/7/1 290/8/1 291/2/1 292/1/1
f 293/8/1 294/9/1 295/5/1 296/2/1
f 297/7/1 298/8/1 299/2/1 300/1/1
f 301/8/1 302/9/1 303/5/1 304/2/1
f 305/7/1 306/8/1 307/2/1 308/1/1
f 309/8/1 310/9/1 311/5/1 312/2/1
f 313/7/1 314/8/1 315/2/1 316/1/1
f 317/8/1 318/9/1 319/5/1 320/2/1
f 321/7/1 322/8/1 323/2/1 324/1/1
f 325/8/1 326/9/1 327/5/1 328/2/1
f 329/7/1 330/8/1 331/2/1 332/1/1
f 333/8/1 334/9/1 335/5/1 336/2/1
f 337/7/1 338/8/1 339/2/1 340/1/1
f 341/2/1 342/5/1 343/6/1 344/3/1
f 345/1/1 346/2/1 347/3/1 348/4/1
f 349/2/1 350/5/1 351/6/1 352/3/1
f 353/1/1 354/2/1 355/3/1 356/4/1
f 357/2/1 358/5/1 359/6/1 360/3/1
f 361/1/1 362/2/1 363/3/1 364/4/1
f 365/2/1 366/5/1 367/6/1 368/3/1
f 369/1/1 370/2/1 371/3/1 372/4/1
f 373/2/1 374/5/1 375/6/1 376/3/1
f 377/1/1 378/2/1 379/3/1 380/4/1
f 381/2/1 382/5/1 383/6/1 384/3/1
f 385/1/1 386/2/1 387/3/1 388/4/1
f 389/2/1 390/5/1 391/6/1 392/3/1
f 393/1/1 394/2/1 395/3/1 396/4/1
f 397/2/1 398/5/1 399/6/1 400/3/1
f 401/1/1 402/2/1 403/3/1 404/4/1
f 405/8/1 406/9/1 407/5/1 408/2/1
f 409/7/1 410/8/1 411/2/1 412/1/1
f 413/8/1 414/9/1 415/5/1 416/2/1
f 417/7/1 418/8/1 419/2/1 420/1/1
f 421/8/1 422/9/1 423/5/1 424/2/1
f 425/7/1 426/8/1 427/2/1 428/1/1
f 429/8/1 430/9/1 431/5/1 432/2/1
f 433/7/1 434/8/1 435/2/1 436/1/1
f 437/8/1 438/9/1 439/5/1 440/2/1
f 441/7/1 442/8/1 443/2/1 444/1/1
f 445/8/1 446/9/1 447/5/1 448/2/1
f 449/7/1 450/8/1 451/2/1 452/1/1
f 453/8/1 454/9/1 455/5/1 456/2/1
f 457/7/1 458/8/1 459/2/1 460/1/1
f 461/8/1 462/9/1 463/5/1 464/2/1
f 465/7/1 466/8/1 467/2/1 468/1/1
f 469/2/1 470/5/1 471/6/1 472/3/1
f 473/1/1 474/2/1 475/3/1 476/4/1
f 477/2/1 478/5/1 479/6/1 480/3/1
f 481/1/1 482/2/1 483/3/1 484/4/1
f 485/2/1 486/5/1 487/6/1 488/3/1
f 489/1/1 490/2/1 491/3/1 492/4/1
f 493/2/1 494/5/1 495/6/1 496/3/1
f 497/1/1 498/2/1 499/3/1 500/4/1
f 501/2/1 502/5/1 503/6/1 504/3/1
f 505/1/1 506/2/1 507/3/1 508/4/1
f 509/2/1 510/5/1 511/6/1 512/3/1
f 513/1/1 514/2/1 515/3/1 516/4/1
f 517/2/1 518/5/1 519/6/1 520/3/1
f 521/1/1 522/2/1 523/3/1 524/4/1
f 525/2/1 526/5/1 527/6/1 528/3/1
f 529/1/1 530/2/1 531/3/1 532/4/1
f 533/8/1 534/9/1 535/5/1 536/2/1
f 537/7/1 538/8/1 539/2/1 540/1/1
f 541/8/1 542/9/1 543/5/1 544/2/1
f 545/7/1 546/8/1 547/2/1 548/1/1
f 549/8/1 550/9/1 551/5/1 552/2/1
f 553/7/1 554/8/1 555/2/1 556/1/1
f 557/8/1 558/9/1 559/5/1 560/2/1
f 561/7/1 562/8/1 563/2/1 564/1/1
f 565/8/1 566/9/1 567/5/1 568/2/1
f 569/7/1 570/8/1 571/2/1 572/1/1
f 573/8/1 574/9/1 575/5/1 576/2/1
f 577/7/1 578/8/1 579/2/1 580/1/1
f 581/8/1 582/9/1 583/5/1 584/2/1
f 585/7/1 586/8/1 587/2/1 588/1/1
f 589/8/1 590/9/1 591/5/1 592/2/1
f 593/7/1 594/8/1 595/2/1 596/1/1
f 597/2/1 598/5/1 599/6/1 600/3/1
f 601/1/1 602/2/1 603/3/1 604/4/1
f 605/2/1 606/5/1 607/6/1 608/3/1
f 609/1/1 610/2/1 611/3/1 612/4/1
f 613/2/1 614/5/1 615/6/1 616/3/1
f 617/1/1 618/2/1 619/3/1 620/4/1
f 621/2/1 622/5/1 623/6/1 624/3/1
f 625/1/1 626/2/1 627/3/1 628/4/1
f 629/2/1 630/5/1 631/6/1 632/3/1
f 633/1/1 634/2/1 635/3/1 636/4/1
f 637/2/1 638/5/1 639/6/1 640/3/1
f 641/1/1 642/2/1 643/3/1 644/4/1
f 645/2/1 646/5/1 647/6/1 648/3/1
f 649/1/1 650/2/1 651/3/1 652/4/1
f 653/2/1 654/5/1 655/6/1 656/3/1
f 657/1/1 658/2/1 659/3/1 660/4/1
f 661/8/1 662/9/1 663/5/1 664/2/1
f 665/7/1 666/8/1 667/2/1 668/1/1
f 669/8/1 670/9/1 671/5/1 672/2/1
f 673/7/1 674/8/1 675/2/1 676/1/1
f 677/8/1 678/9/1 679/5/1 680/2/1
f 681/7/1 682/8/1 683/2/1 684/1/1
f 685/8/1 686/9/1 687/5/1 688/2/1
f 689/7/1 690/8/1 691/2/1 692/1/1
f 693/8/1 694/9/1 695/5/1 696/2/1
f 697/7/1 698/8/1 699/2/1 700/1/1
f 701/8/1 702/9/1 703/5/1 704/2/1
f 705/7/1 706/8/1 707/2/1 708/1/1
f 709/8/1 710/9/1 711/5/1 712/2/1
f 713/7/1 714/8/1 715/2/1 716/1/1
f 717/8/1 718/9/1 719/5/1 720/2/1
f 721/7/1 722/8/1 723/2/1 724/1/1
f 725/2/1 726/5/1 727/6/1 728/3/1
f 729/1/1 730/2/1 731/3/1 732/4/1
f 733/2/1 734/5/1 735/6/1 736/3/1
f 737/1/1 738/2/1 739/3/1 740/4/1
f 741/2/1 742/5/1 743/6/1 744/3/1
f 745/1/1 746/2/1 747/3/1 748/4/1
f 749/2/1 750/5/1 751/6/1 752/3/1
f 753/1/1 754/2/1 755/3/1 756/4/1
f 757/2/1 758/5/1 759/6/1 760/3/1
f 761/1/1 762/2/1 763/3/1 764/4/1
f 765/2/1 766/5/1 767/6/1 768/3/1
f 769/1/1 770/2/1 771/3/1 772/4/1
f 773/2/1 774/5/1 775/6/1 776/3/1
f 777/1/1 778/2/1 779/3/1 780/4/1
f 781/2/1 782/5/1 783/6/1 784/3/1
f 785/1/1 786/2/1 787/3/1 788/4/1
f 789/8/1 790/9/1 791/5/1 792/2/1
f 793/7/1 794/8/1 795/2/1 796/1/1
f 797/8/1 798/9/1 799/5/1 800/2/1
f 801/7/1 802/8/1 803/2/1 804/1/1
f 805/8/1 806/9/1 807/5/1 808/2/1
f 809/7/1 810/8/1 811/2/1 812/1/1
f 813/8/1 814/9/1 815/5/1 816/2/1
f 817/7/1 818/8/1 819/2/1 820/1/1
f 821/8/1 822/9/1 823/5/1 824/2/1
f 825/7/1 826/8/1 827/2/1 828/1/1
f 829/8/1 830/9/1 831/5/1 832/2/1
f 833/7/1 834/8/1 835/2/1 836/1/1
f 837/8/1 838/9/1 839/5/1 840/2/1
f 841/7/1 842/8/1 843/2/1 844/1/1
f 845/8/1 846/9/1 847/5/1 848/2/1
f 849/7/1 850/8/1 851/2/1 852/1/1
f 853/1/1 854/2/1 855/3/1 856/4/1
f 857/2/1 858/5/1 859/6/1 860/3/1
f 861/1/1 862/2/1 863/3/1 864/4/1
f 865/2/1 866/5/1 867/6/1 868/3/1
f 869/1/1 870/2/1 871/3/1 872/4/1
f 873/2/1 874/5/1 875/6/1 876/3/1
f 877/1/1 878/2/1 879/3/1 880/4/1
f 881/2/1 882/5/1 883/6/1 884/3/1
f 885/1/1 886/2/1 887/3/1 888/4/1
f 889/2/1 890/5/1 891/6/1 892/3/1
f 893/1/1 894/2/1 895/3/1 896/4/1
f 897/2/1 898/5/1 899/6/1 900/3/1
f 901/1/1 902/2/1 903/3/1 904/4/1
f 905/2/1 906/5/1 907/6/1 908/3/1
f 909/1/1 910/2/1 911/3/1 912/4/1
f 913/2/1 914/5/1 915/6/1 916/3/1
f 917/1/1 918/2/1 919/3/1 920/4/1
f 921/7/1 922/8/1 923/2/1 924/1/1
f 925/8/1 926/9/1 927/5/1 928/2/1
f 929/7/1 930/8/1 931/2/1 932/1/1
f 933/8/1 934/9/1 935/5/1 936/2/1
f 937/7/1 938/8/1 939/2/1 940/1/1
f 941/8/1 942/9/1 943/5/1 944/2/1
f 945/7/1 946/8/1 947/2/1 948/1/1
f 949/8/1 950/9/1 951/5/1 952/2/1
f 953/7/1 954/8/1 955/2/1 956/1/1
f 957/8/1 958/9/1 959/5/1 960/2/1
f 961/7/1 962/8/1 963/2/1 964/1/1
f 965/8/1 966/9/1 967/5/1 968/2/1
f 969/7/1 970/8/1 971/2/1 972/1/1
f 973/8/1 974/9/1 975/5/1 976/2/1
f 977/7/1 978/8/1 979/2/1 980/1/1
f 981/8/1 982/9/1 983/5/1 984/2/1
f 985/7/1 986/8/1 987/2/1 988/1/1
f 989/1/1 990/2/1 991/3/1 992/4/1
f 993/2/1 994/5/1 995/6/1 996/3/1
f 997/1/1 998/2/1 999/3/1 1000/4/1
f 1001/2/1 1002/5/1 1003/6/1 1004/3/1
f 1005/1/1 1006/2/1 1007/3/1 1008/4/1
f 1009/2/1 1010/5/1 1011/6/1 1012/3/1
f 1013/1/1 1014/2/1 1015/3/1 1016/4/1
f 1017/2/1 1018/5/1 1019/6/1 1020/3/1
f 1021/1/1 1022/2/1 1023/3/1 1024/4/1
f 1025/2/1 1026/5/1 1027/6/1 1028/3/1
f 1029/1/1 1030/2/1 1031/3/1 1032/4/1
f 1033/2/1 1034/5/1 1035/6/1 1036/3/1
f 1037/1/1 1038/2/1 1039/3/1 1040/4/1
f 1041/2/1 1042/5/1 1043/6/1 1044/3/1
f 1045/1/1 1046/2/1 1047/3/1 1048/4/1
f 1049/2/1 1050/5/1 1051/6/1 1052/3/1
f 1053/1/1 1054/2/1 1055/3/1 1056/4/1
f 1057/2/1 1058/5/1 1059/6/1 1060/3/1
f 1061/1/1 1062/2/1 1063/3/1 1064/4/1

