# Tiled2Unity generated file. Do not modify by hand.
# Wavefront file for 'Nivel3_mesh_0004.obj'

# Vertices (Count = 8)
v -101 -12 0
v -102 -12 0
v -102 -11 0
v -101 -11 0
v -100 -12 0
v -101 -12 0
v -101 -11 0
v -100 -11 0

# Texture cooridinates (Count = 6)
vt 0.972973 0.02702701
vt 1 0.02702701
vt 1 0.05405408
vt 0.972973 0.05405408
vt 0.9459459 0.02702701
vt 0.9459459 0.05405408

# Normal
vn 0 0 -1

# Mesh description
g Nivel3_mesh_0004

# Faces
f 1/1/1 2/2/1 3/3/1 4/4/1
f 5/5/1 6/1/1 7/4/1 8/6/1

