# Tiled2Unity generated file. Do not modify by hand.
# Wavefront file for 'Nivel3_mesh_0029.obj'

# Vertices (Count = 36)
v -2 -14 0
v -3 -14 0
v -3 -13 0
v -2 -13 0
v -1 -14 0
v -2 -14 0
v -2 -13 0
v -1 -13 0
v -2 -13 0
v -3 -13 0
v -3 -12 0
v -2 -12 0
v -1 -13 0
v -2 -13 0
v -2 -12 0
v -1 -12 0
v 0 -13 0
v -1 -13 0
v -1 -12 0
v 0 -12 0
v -2 -12 0
v -3 -12 0
v -3 -11 0
v -2 -11 0
v -1 -12 0
v -2 -12 0
v -2 -11 0
v -1 -11 0
v 0 -12 0
v -1 -12 0
v -1 -11 0
v 0 -11 0
v 0 -11 0
v -1 -11 0
v -1 -10 0
v 0 -10 0

# Texture cooridinates (Count = 12)
vt 0.95 0.01999998
vt 0.96 0.01999998
vt 0.96 0.02999997
vt 0.95 0.02999997
vt 0.94 0.01999998
vt 0.94 0.02999997
vt 0.96 0.04000002
vt 0.95 0.04000002
vt 0.94 0.04000002
vt 0.96 0.05000001
vt 0.95 0.05000001
vt 0.94 0.05000001

# Normal
vn 0 0 -1

# Mesh description
g Nivel3_mesh_0029

# Faces
f 1/1/1 2/2/1 3/3/1 4/4/1
f 5/5/1 6/1/1 7/4/1 8/6/1
f 9/4/1 10/3/1 11/7/1 12/8/1
f 13/6/1 14/4/1 15/8/1 16/9/1
f 17/1/1 18/2/1 19/3/1 20/4/1
f 21/8/1 22/7/1 23/10/1 24/11/1
f 25/9/1 26/8/1 27/11/1 28/12/1
f 29/4/1 30/3/1 31/7/1 32/8/1
f 33/8/1 34/7/1 35/10/1 36/11/1

