# Tiled2Unity generated file. Do not modify by hand.
# Wavefront file for 'TestSuperficies_mesh_0001.obj'

# Vertices (Count = 40)
v -5 -9 0
v -6 -9 0
v -6 -8 0
v -5 -8 0
v -4 -9 0
v -5 -9 0
v -5 -8 0
v -4 -8 0
v -3 -9 0
v -4 -9 0
v -4 -8 0
v -3 -8 0
v -2 -9 0
v -3 -9 0
v -3 -8 0
v -2 -8 0
v -1 -9 0
v -2 -9 0
v -2 -8 0
v -1 -8 0
v -5 -8 0
v -6 -8 0
v -6 -7 0
v -5 -7 0
v -4 -8 0
v -5 -8 0
v -5 -7 0
v -4 -7 0
v -3 -8 0
v -4 -8 0
v -4 -7 0
v -3 -7 0
v -2 -8 0
v -3 -8 0
v -3 -7 0
v -2 -7 0
v -1 -8 0
v -2 -8 0
v -2 -7 0
v -1 -7 0

# Texture cooridinates (Count = 18)
vt 0.26 0.78
vt 0.27 0.78
vt 0.27 0.79
vt 0.26 0.79
vt 0.25 0.78
vt 0.25 0.79
vt 0.24 0.78
vt 0.24 0.79
vt 0.23 0.78
vt 0.23 0.79
vt 0.22 0.78
vt 0.22 0.79
vt 0.27 0.8
vt 0.26 0.8
vt 0.25 0.8
vt 0.24 0.8
vt 0.23 0.8
vt 0.22 0.8

# Normal
vn 0 0 -1

# Mesh description
g TestSuperficies_mesh_0001

# Faces
f 1/1/1 2/2/1 3/3/1 4/4/1
f 5/5/1 6/1/1 7/4/1 8/6/1
f 9/7/1 10/5/1 11/6/1 12/8/1
f 13/9/1 14/7/1 15/8/1 16/10/1
f 17/11/1 18/9/1 19/10/1 20/12/1
f 21/4/1 22/3/1 23/13/1 24/14/1
f 25/6/1 26/4/1 27/14/1 28/15/1
f 29/8/1 30/6/1 31/15/1 32/16/1
f 33/10/1 34/8/1 35/16/1 36/17/1
f 37/12/1 38/10/1 39/17/1 40/18/1

